<?xml version='1.0' encoding='utf-8'?>
<!-- Generator: imaengine 6.0   -->
<svg xmlns:xlink="http://www.w3.org/1999/xlink" xmlns="http://www.w3.org/2000/svg" viewBox="0,0,1430,1430" style="enable-background:new 0 0 1430 1430;" version="1.1">
<defs/>
<g id="layer0">
<path d="M518.503,1214.83C531.703,1214.75 545.932,1214.28 550.057,1213.78C567.437,1211.66 602.725,1196.88 617.292,1185.6C618.667,1184.54 621.07,1183.01 622.72,1182.15C626.004,1180.44 649.477,1156.91 649.477,1155.35C649.477,1154.82 651.28,1152.37 653.617,1149.55C665.721,1134.92 683.477,1096.87 683.477,1085.61C683.477,1083.76 684.115,1080.81 684.94,1078.84C686.801,1074.38 687.154,1025.8 685.359,1021.14C684.762,1019.6 683.913,1016.39 683.444,1013.91C682.413,1008.48 680.802,1002.16 678.651,995.122C677.099,990.046 677.102,990.05 679.333,984.952C680.599,982.059 682.232,977.846 682.94,975.646C683.648,973.446 687.851,964.352 692.314,955.357C696.776,946.362 700.477,938.158 700.477,937.385C700.477,933.889 718.257,900.616 721.766,897.535C723.756,895.788 725.397,894.473 725.791,894.468C726.184,894.463 729.521,891.874 732.821,888.867C736.121,885.86 739.003,883.513 739.605,883.5C740.208,883.487 741.86,882.418 742.857,881.316C748.136,875.483 754.192,877.086 764.366,886.531C767.22,889.181 770.405,891.477 771.047,891.477C771.688,891.477 775.256,894.605 779.379,898.593C786.573,905.549 796.523,921.65 796.523,926.41C796.523,927.206 802.019,939.007 808.675,952.376C826.131,987.436 825.798,986.035 822.064,999.371C821.14,1002.67 820.024,1008.15 819.6,1011.47C819.177,1014.79 818.365,1018.31 817.731,1019.49C815.859,1022.99 816.139,1072.93 818.06,1077.53C818.885,1079.5 819.523,1082.61 819.523,1084.65C819.523,1086.69 819.983,1089.88 820.518,1091.57C821.053,1093.26 822.471,1098.01 823.671,1102.13C827.758,1116.17 840.489,1139.7 849.212,1149.34C851.463,1151.83 854.083,1155.14 855.096,1156.78C857.99,1161.45 870.722,1174.22 876.232,1177.97C878.982,1179.84 883.233,1182.93 885.708,1184.85C888.183,1186.77 891.929,1189.29 893.954,1190.39C895.98,1191.49 897.749,1192.69 898.103,1193.26C899.177,1195 916.372,1203.32 923.591,1205.55C927.313,1206.71 931.912,1208.21 933.837,1208.91C947.597,1213.91 955.059,1214.78 984.5,1214.76C1014.76,1214.73 1020.72,1213.99 1038.45,1208.05C1051.73,1203.6 1069.56,1195.44 1070.9,1193.26C1071.26,1192.68 1073.69,1191.22 1076.54,1189.78C1079.38,1188.35 1083.89,1185.18 1086.42,1182.83C1088.94,1180.48 1092.21,1177.95 1093.81,1177.12C1100.24,1173.76 1117.66,1153.97 1129.29,1136.77C1140.76,1119.79 1150.02,1096.21 1152.35,1078.06C1152.74,1075.04 1153.55,1071.75 1154.21,1070.55C1155.86,1067.56 1155.93,1021.13 1154.28,1017.13C1153.64,1015.59 1152.82,1011.96 1152.4,1008.94C1150.09,992.102 1135.81,956.003 1126.76,944.147C1125.45,942.428 1124.48,940.885 1124.48,940.364C1124.48,939.843 1122.27,937.069 1119.75,934.617C1117.23,932.165 1114.44,928.705 1113.44,926.78C1111.47,923.008 1095.93,907.523 1094.15,907.523C1093.55,907.523 1091.18,905.728 1088.49,903.39C1085.81,901.053 1082.03,898.191 1080.19,897.091C1075.6,894.348 1074.21,893.448 1070.76,890.987C1061.2,884.169 1029.85,871.523 1022.53,871.523C1021.1,871.523 1018.5,870.885 1016.53,870.06C1014.19,869.084 1009.44,868.523 1003.26,868.523C996.925,868.523 992.359,867.994 989.211,866.875C984.798,865.308 983.887,865.315 979.97,866.882C977.222,867.982 973.087,868.523 967.602,868.523C962.435,868.523 957.69,869.133 955.47,870.06C953.496,870.885 950.461,871.523 948.501,871.523C944.713,871.523 934.778,874.54 928.858,877.502C923.374,880.247 917.246,880.864 914.596,878.818C912.511,877.208 906.479,865.751 906.477,863.389C906.477,862.778 898.507,846.141 888.827,826.677C879.146,807.213 870.226,788.632 868.98,785.332C867.734,782.032 861.234,768.378 854.56,755.045C844.914,735.773 842.477,730.168 842.477,726.882C842.477,722.171 847.275,709.553 854.56,694.981C857.237,689.629 859.477,684.343 859.477,683.496C859.477,682.649 861.226,678.59 863.426,674.214C865.626,669.839 867.477,665.593 867.477,665.041C867.477,664.489 869.903,659.2 872.928,653.031C875.953,646.862 878.477,641.091 878.477,640.464C878.477,639.836 880.608,635.072 883.271,629.621C885.935,624.169 888.722,617.847 889.434,615.647C890.146,613.447 892.044,609.031 893.684,605.753C895.325,602.475 897.483,597.468 898.45,594.697C900.848,587.821 904.013,580.258 908.586,570.472C910.701,565.946 912.477,561.567 912.477,560.987C912.477,560.408 913.55,557.929 914.925,555.215C916.3,552.502 917.477,549.525 917.477,548.863C917.477,548.201 918.722,544.888 920.292,541.269C923.524,533.818 925.296,528.977 926.391,524.616C926.806,522.966 927.922,520.145 928.919,518.22C929.917,516.295 931.786,511.424 933.036,507.487C934.285,503.55 935.994,499.015 936.872,497.318C938.942,493.315 957.477,437.637 957.477,435.428C957.477,434.501 958.573,430.785 959.948,426.973C961.323,423.161 962.493,418.676 962.512,417.197C962.532,415.717 963.128,413.612 963.914,412.237C964.7,410.862 965.422,407.647 965.441,405.376C965.461,403.106 966.115,399.813 966.94,397.838C967.765,395.864 968.477,392.22 968.477,389.966C968.477,387.713 968.935,385.131 969.564,383.956C971.502,380.335 972.779,362.573 972.77,338.5C972.76,313.013 971.774,303.725 968.02,293.338C966.629,289.488 965.509,285.476 965.498,284.23C965.472,281.494 955.063,260.397 949.934,252.735C945.956,246.793 937.163,237.523 935.632,237.523C935.113,237.523 933.585,236.559 931.883,235.261C926.084,230.838 916.228,226.523 911.995,226.523C906.991,226.523 898.808,230.511 895.317,234.66C892.702,237.767 866.523,289.739 866.523,291.814C866.523,292.434 860.948,304.023 854.073,317.827C847.198,331.631 841.523,343.787 841.523,344.582C841.523,345.377 838.424,352.101 834.574,359.787C830.724,367.472 827.523,374.658 827.523,375.495C827.523,376.332 822.624,386.696 816.574,398.787C810.524,410.877 805.523,421.561 805.523,422.268C805.523,422.976 802.422,429.782 798.572,437.649C794.722,445.516 791.523,452.606 791.523,453.148C791.523,453.69 787.748,461.643 783.073,471.079C778.398,480.515 774.523,488.964 774.523,489.596C774.523,491.456 752.899,535.523 751.976,535.523C751.513,535.523 751.285,534.85 750.911,533.612C750.537,532.375 749.131,530.058 747.908,528.683C746.685,527.308 744.96,524.087 743.962,521.337C742.964,518.587 737.693,507.404 732.276,496.547C726.859,485.689 722.477,476.483 722.477,475.827C722.477,475.171 718.603,466.598 713.928,457.032C709.253,447.466 705.477,439.426 705.477,438.91C705.477,438.394 701.34,429.575 696.346,419.572C691.352,409.568 686.597,399.397 685.749,396.895C684.902,394.394 681.027,385.986 677.169,378.286C673.311,370.586 669.12,361.534 667.831,358.114C666.542,354.695 660.734,342.391 654.947,330.828C649.161,319.265 644.477,309.391 644.477,308.623C644.477,307.479 638.048,293.872 620.428,258.011C608.449,233.632 601.558,226.523 590.507,226.523C583.505,226.523 566.76,235.934 561.192,243.019C551.06,255.912 548.627,259.441 544.549,267.131C539.961,275.783 531.523,301.909 531.523,307.434C531.523,309.981 530.885,313.496 530.06,315.47C528.893,318.264 528.523,323.774 528.523,339.654C528.523,355.534 528.893,361.045 530.06,363.838C530.905,365.86 531.523,370.278 531.523,374.188C531.523,378.007 532.126,382.345 532.79,383.546C533.454,384.748 534.27,388.038 534.672,391.063C535.074,394.088 536.147,399.541 537.044,403.116C537.942,406.691 539.016,411.176 539.435,413.101C539.855,415.026 540.695,418.216 541.29,420.141C542.784,424.975 544.513,431.826 545.443,436.591C545.872,438.791 547.435,444.151 548.895,448.425C550.354,452.699 551.534,456.827 551.548,457.778C551.58,460.012 554.929,470.066 556.962,473.998C557.83,475.676 560.265,482.305 562.408,488.814C564.552,495.323 567.22,502.718 568.318,505.193C569.415,507.668 570.758,511.004 571.322,512.654C572.783,516.934 576.398,525.821 579.18,531.969C580.492,534.868 581.523,537.524 581.523,538.11C581.523,538.697 582.917,542.293 584.567,545.858C586.217,549.423 587.523,552.573 587.523,553.103C587.523,553.633 588.7,556.502 590.075,559.215C591.45,561.929 592.525,564.513 592.528,565.218C592.53,565.924 594.599,570.979 597.069,576.204C599.539,581.429 601.516,586.058 601.519,586.737C601.521,587.416 603.32,591.893 605.461,596.438C609.28,604.55 612.44,612.029 615.141,619.356C615.89,621.387 618.103,626.517 620.042,630.714C621.981,634.912 623.523,638.608 623.523,639.174C623.523,639.739 626.05,645.315 629.075,651.303C632.1,657.29 634.523,662.588 634.523,663.339C634.523,664.09 636.977,669.818 639.916,675.812C642.855,681.806 645.818,688.447 646.531,690.647C647.244,692.847 650.585,700.115 653.921,706.715C662.288,723.268 662.32,726.458 654.258,742.789C651.135,749.114 648.53,755.063 648.527,755.754C648.525,756.444 640.474,772.993 630.574,792.787C620.674,812.581 612.523,829.686 612.523,830.538C612.523,831.857 590.302,876.764 587.784,880.544C587.44,881.062 586.917,880.927 584.456,880.373C581.995,879.819 578.14,878.655 572.051,876.689C563.579,873.952 554.605,871.135 552.13,870.434C545.701,868.612 492.611,868.047 489.511,869.759C488.278,870.44 484.962,871.27 481.937,871.672C473.265,872.824 464.633,875.101 460.066,877.431C457.754,878.611 455.475,879.523 454.737,879.523C452.803,879.523 436.756,887.365 433.212,890.058C431.562,891.311 428.033,893.443 425.283,894.851C422.533,896.258 417.634,899.767 414.521,902.562C411.408,905.358 408.772,907.523 408.274,907.523C406.206,907.523 384.473,931.472 380.194,938.532C379.588,939.532 378.191,941.849 377.091,943.679C375.991,945.509 374.175,948.133 373.01,949.576C369.176,954.322 362.79,968.248 357.969,982.414C352.959,997.136 352.006,1001 350.477,1012.76C349.953,1016.78 349.128,1020.75 348.578,1021.78C347.194,1024.36 347.269,1062.78 348.664,1065.38C349.26,1066.5 349.929,1070.66 350.218,1074.87C351.219,1089.43 368.722,1133.38 376.342,1140.49C377.732,1141.79 379.583,1144.29 380.576,1146.22C381.569,1148.14 383.656,1150.95 385.093,1152.29C386.531,1153.63 388.695,1156.45 390.008,1158.69C392.561,1163.05 403.162,1173.48 404.965,1173.48C405.562,1173.48 408.594,1175.94 412.093,1179.1C415.592,1182.27 420.03,1185.87 421.879,1187.06C426.608,1190.1 452.524,1203.04 457.339,1204.76C474.302,1210.84 483.173,1213.48 486.497,1213.51C488.147,1213.52 490.492,1213.83 491.867,1214.23C493.242,1214.63 505.303,1214.91 518.503,1214.83ZM520.492,1183.32C502.763,1183.62 495.372,1182.83 483.636,1179.35C417.157,1159.64 377.989,1105.61 380.83,1037.52C384.189,957.009 445.385,896.836 520.982,899.751C599.545,902.78 657.234,969.218 654.251,1053.18C652.393,1105.45 625.495,1147.33 578.822,1170.62C559.876,1180.07 547.044,1182.86 520.492,1183.32ZM951.064,1183.36C947.174,1183.89 945.009,1182.99 943.337,1180.04C942.168,1177.98 939.586,1176.35 934.087,1174.33C924.738,1170.89 909.063,1162 899.234,1154.55C876.165,1137.07 859.763,1110.99 851.66,1078.93C848.236,1065.38 847.841,1035.35 850.864,1018.7C859.83,969.326 887.802,931.544 930.675,910.918C995.765,879.603 1074.86,910.173 1108.6,979.654C1116.11,995.121 1118.44,1002.88 1121.64,1023.07C1132.83,1093.68 1088.49,1161.45 1018.88,1180.16C1007.36,1183.26 974.618,1184.7 962.76,1182.63C959.06,1181.99 955.142,1181.88 954.468,1182.31C953.794,1182.75 952.368,1183.18 951.064,1183.36ZM659.938,946.657C659.702,946.355 655.365,940.514 650.291,933.667C644.687,926.103 636.367,916.644 629.173,909.658C622.66,903.333 617.476,898.009 617.476,897.409C617.477,896.114 629.775,869.738 647.109,833.707C671.256,783.516 678.411,768.477 679.13,768.477C679.98,768.477 682.719,774.782 688.566,788.685C702.346,821.449 711.572,839.342 718.251,846.344C721.223,849.46 723.523,852.174 723.523,852.777C723.523,853.87 717.78,858.948 701.707,872.65C692.272,880.693 689.532,883.97 686.064,891.296C678.951,906.318 669.709,926.642 669.125,928.54C668.602,930.238 666.255,934.871 663.941,939.091C661.627,943.311 660.177,946.965 659.938,946.657ZM842.812,946.351C842.452,946.491 840.727,942.574 837.316,935.867C833.905,929.16 829.414,919.906 824.705,909.799C822.27,904.574 818.12,895.969 815.595,890.839L810.664,881.848L795.559,869.744C786.989,863.087 776.481,854.327 772.405,850.713C768.329,847.1 760.9,840.595 755.901,836.262C750.902,831.929 746.649,828.164 746.374,827.816C746.099,827.469 740.72,822.65 734.494,817.184C728.267,811.718 722.861,806.598 722.349,805.643C720.686,802.535 721.282,797.235 723.638,793.931C727.587,788.395 726.74,784.412 715.784,762.288C710.336,751.288 704.589,739.382 703.003,735.807C701.416,732.232 698.665,726.151 696.892,722.301C695.119,718.451 690.65,708.555 686.958,700.305C683.266,692.055 679.435,683.505 678.446,681.305C651.086,620.442 637.27,588.464 620.128,546.32C617.667,540.27 611.505,525.416 606.436,513.316C601.367,501.216 596.453,489.094 595.501,486.344C593.892,481.69 593.109,481.004 589.716,480.716C583.046,480.149 580.968,473.944 585.897,469.015L588.369,465.904L584.679,453.702C578.333,435.113 570.689,406.302 566.539,385.407C559.083,347.87 561.866,309.346 573.839,284.734C576.308,279.659 579.319,274.939 582.081,271.515C584.843,268.092 586.755,266.203 587.997,266.679C589.17,267.129 598.523,284.7 598.523,286.438C598.523,286.854 603.421,297.545 614.56,321.203C618.833,330.278 623.463,340.174 624.852,343.199C627.765,349.544 636.587,368.075 645.436,386.433C648.81,393.432 651.523,399.127 651.523,399.342C651.523,399.556 655.337,407.761 659.941,417.322C669.337,436.838 671.363,441.21 679.579,459.694C689.643,482.336 696.151,496.44 700.815,505.714C703.304,510.664 708.255,521.22 711.829,529.195C715.403,537.17 720.355,547.979 722.827,553.204C732.707,574.081 748.114,606.414 754.041,618.707C757.488,625.857 761.107,633.495 762.092,635.695C763.91,639.76 770.483,653.509 784.806,683.207C796.572,707.603 812.726,742.331 821.548,762.193C825.823,771.818 839.34,799.961 851.574,824.711C875.76,873.639 880.597,883.683 884.278,892.799L887.072,898.5L882.673,902C861.609,920.796 855.113,927.644 847.134,940.245C845.045,943.545 843.225,946.189 842.812,946.351ZM823.114,682.313C822.016,682.497 821.434,681.723 820.505,679.593C817.343,672.338 802.15,640.181 793.432,622.291C781.598,598.005 776.163,586.382 773.959,580.582L771.82,576.241L777.507,564.871C780.373,558.617 783.784,551.281 785.141,548.327C787.519,543.147 790.88,535.517 805.461,502.191C814.364,481.841 830.301,446.715 839.71,426.703C845.954,413.42 853.546,396.723 867.447,365.695C876.103,346.374 884.412,327.945 888.41,319.198C891.049,313.423 895.775,303.073 898.911,296.198C906.272,280.058 910.013,271.92 912.611,268.286C915.21,264.652 915.925,265.689 918.534,267.884C925.685,273.901 932.974,288.577 937.326,305.618C940.919,319.683 941.073,357.149 937.629,377.309C934.266,396.993 927.044,425.638 920.729,444.348C912.352,469.162 904.43,491.2 898.09,507.326C896.792,510.626 894.076,517.603 892.055,522.828C879.719,554.724 860.271,601.629 844.797,636.808C839.838,648.083 833.977,661.121 831.766,665.796C829.555,670.471 826.996,676.119 826.091,678.319C825.186,680.519 824.045,682.157 823.114,682.313Z" fill="#143E62"/>
<path d="M515.99,1184.27C546.171,1184.89 568.777,1179.09 591.092,1165.01C596.059,1161.87 596.099,1161.17 592.307,1157.98C586.863,1153.4 587.914,1149.94 596.78,1140.46C610.247,1126.06 622.18,1107.76 627.354,1093.58C637.41,1066.03 637.325,1022.74 627.163,995.832C615.36,964.574 586.494,935.984 556.69,926.019C540.268,920.528 522.779,918.329 514.384,920.659C509.015,922.15 503.523,928.118 503.523,932.38C503.523,938.305 504.987,939.194 520.981,939.838C544.599,940.788 560.351,946.396 578.711,960.392C604.584,980.115 617.528,1007.67 617.522,1042.97C617.515,1083.72 590.284,1124.11 553.837,1137.41C548.921,1139.2 545.482,1140.1 530.201,1143.58C527.895,1144.11 523.574,1144.52 520.468,1144.52L514.822,1145L516.934,1148.08C520.275,1152.05 520.646,1156.85 517.504,1159.05C513.092,1162.14 500.646,1159.87 483.977,1153.15C462.153,1144.35 451.268,1137.42 437.311,1123.42C431.521,1117.61 425.875,1112.59 425.065,1112.43C422.468,1111.92 419.868,1113.27 418.766,1115.19C417.665,1117.1 417.546,1120.26 418.92,1122.9C420.917,1126.74 434.528,1139.77 443.834,1146.73C456.293,1156.05 466.26,1161.18 480.359,1165.54C497.045,1170.7 497.176,1170.68 499.198,1173.77C500.826,1176.25 500.822,1175.95 498.766,1178.73C497.024,1181.08 496.068,1182.91 498.004,1183.46C499.941,1184.01 505.145,1184.04 515.99,1184.27Z" fill="#FCFEFF"/>
<path d="M949.774,1184.28C951.6,1184.46 954.046,1184 954.781,1183.39C955.763,1182.57 957.542,1182.69 962.529,1183.56C974.455,1185.64 1007.57,1184.19 1019.12,1181.08C1058.82,1170.41 1091.52,1143.52 1109.95,1106.38C1122.09,1081.91 1126.61,1049.1 1121.96,1019.17C1116.56,984.431 1097.52,951.072 1071,929.898C1041.76,906.543 1014.87,897.596 977.511,898.787C957.287,899.431 946.589,902.058 928.985,910.703C922.444,913.915 918.722,916.02 917.69,917.339C916.658,918.658 918.445,920.089 921.999,920.694C926.679,921.49 928.538,923.048 928.501,926.436C928.471,929.249 926.418,931.337 918.212,937.573C895.914,954.519 877.629,983.243 870.993,1011.75C865.501,1035.35 867.634,1071.45 875.74,1092.17C884.442,1114.42 902.383,1138.49 918.181,1149.12C927.093,1155.13 932.872,1159.56 936.172,1163.1C939.472,1166.63 940.157,1168.62 938.829,1170.75C937.986,1172.1 937.525,1173.87 937.573,1175.03C937.62,1176.19 938.579,1177.48 939.477,1177.48C940.289,1177.48 941.351,1178.5 942.326,1180.01C944.434,1183.28 945.439,1183.87 949.774,1184.28ZM1009.76,1161.31C1000.33,1161.62 996.477,1160.03 996.477,1155.22C996.477,1152.14 1004.27,1146.48 1008.43,1146.48C1009.27,1146.48 1011.57,1145.51 1013.37,1144.36L1016.5,1141.81L1009.02,1142.64C993.356,1144.49 969.365,1143.24 959.626,1140.58C917.409,1129.02 885.464,1087.69 885.481,1044.64C885.504,984.994 925.736,941.758 983.143,939.713C1001.76,939.05 1014.05,941.456 1030.51,948.988C1033.45,950.333 1036.57,951.477 1037.18,951.477C1038.07,951.477 1037.82,949.658 1036.54,948.395C1035.26,947.132 1033.16,945.528 1031.23,944.488C1024.62,940.942 1021.07,936.829 1020.41,933.258C1019.76,929.686 1021.77,927.553 1027.72,927.508C1038.36,927.428 1053.16,936.52 1069.73,953.195C1096.45,980.072 1107.89,1007.68 1107.67,1044.78C1107.62,1053.65 1107.1,1058.94 1105.63,1061.79C1104.15,1064.65 1102.41,1064.64 1098.78,1062.9C1094.6,1060.91 1092.01,1061.87 1091.09,1065.55C1090.7,1067.11 1089.81,1068.93 1088.99,1069.85C1087.84,1071.13 1087.67,1072.53 1088.5,1074.08C1089.09,1075.19 1089.52,1076.8 1089.52,1077.95C1089.52,1078.87 1089.94,1079.82 1090.47,1080.02C1091,1080.22 1092.2,1080.15 1093.9,1079.88C1097.41,1079.32 1099.08,1079.78 1099.94,1081.82C1100.81,1083.87 1100.35,1086.86 1098.59,1091.51C1091.41,1110.39 1089.35,1113.37 1082.57,1112.09C1079.34,1111.49 1078.62,1111.9 1076.06,1117C1068.26,1132.58 1055.45,1143.46 1031.82,1154.68C1018.83,1160.84 1018.23,1161.03 1009.76,1161.31Z" fill="#FCFEFF"/>
<path d="M494.878,1183.09C495.751,1183.32 497.886,1181.83 499.266,1179.79C501.533,1176.44 501.568,1175.65 499.968,1173.2C497.976,1170.16 497.303,1169.79 480.641,1164.63C466.541,1160.27 456.864,1155.28 444.405,1145.96C435.099,1139 421.763,1126.29 419.765,1122.46C418.392,1119.82 418.491,1117.57 419.592,1115.66C420.694,1113.75 422.283,1112.85 424.881,1113.37C425.691,1113.53 430.845,1118.28 436.635,1124.09C450.593,1138.09 461.797,1145.24 483.62,1154.03C500.29,1160.75 513.639,1162.92 518.051,1159.83C521.176,1157.64 520.995,1151.64 517.694,1147.71L514.901,1145.09L522.177,1144.74C525.191,1144.59 526.249,1144.03 525.895,1143.95C525.541,1143.88 523.308,1143.81 519.167,1143.72C461.539,1142.51 416.96,1098.14 416.982,1042C417.002,992.895 447.732,954.302 496.617,941.978C499.861,941.159 502.152,940.473 503.524,939.891C504.895,939.308 505.688,938.229 505.537,937.734C503.814,932.092 504.214,929.61 507.519,926.106C513.294,919.983 521.556,919.056 538.663,922.372C563.861,927.257 580.919,936.399 599.162,954.794C623.362,979.196 633.739,1006.06 633.837,1044.5C633.939,1084.04 623.426,1110.57 596.084,1139.81C587.069,1149.45 586.398,1153.92 592.128,1159.14L595.65,1161.73L599.052,1159.67C644.514,1127.6 664.911,1069.77 651.426,1011.39C638.291,954.533 598.002,913.155 544.515,901.566C525.033,897.345 492.062,898.966 474.576,905.001C419.827,923.898 382.434,976.199 379.877,1037.48C377.06,1105 415.526,1158.88 481.357,1179.6C486.307,1181.16 491.135,1182.51 491.96,1182.58C492.785,1182.65 494.053,1182.87 494.878,1183.09ZM399.717,1021.36C396.077,1021.98 395.067,1019.4 395.505,1013.56C395.942,1007.72 398.346,999.282 402.717,988.911C407.507,977.545 409.04,975.231 412.769,975.666C415.356,975.967 416.219,976.536 416.189,979.558C416.16,982.58 414.839,987.435 412.169,995.638C409.535,1003.73 406.738,1012.38 405.954,1014.86C404.523,1019.38 403.251,1020.75 399.717,1021.36ZM424.853,965.324C420.828,965.8 418.704,962.957 420.51,959.467C422.161,956.277 436.444,941.117 440.547,938.195C444.103,935.664 446.643,936.587 448.163,939.036C449.683,941.485 449.582,944.722 446.332,947.746C433.834,959.373 426.942,965.077 424.853,965.324ZM468.749,932.331C463.28,932.781 461.299,931.023 461.573,928.17C461.846,925.317 464.562,922.297 470.165,920.448C475.176,918.794 478.332,919.449 479.131,922.631C480.643,928.656 477.329,931.624 468.749,932.331Z" fill="#39C8F6"/>
<path d="M936.935,1176.28C937.182,1176.37 937.961,1176.11 938.124,1175.88C938.287,1175.65 938.477,1175.01 938.477,1174.57C938.477,1173.69 938.959,1172.34 939.638,1171.25C940.965,1169.12 940.169,1165.98 936.869,1162.44C933.568,1158.91 927.626,1154.33 918.713,1148.33C902.915,1137.7 885.329,1114.08 876.628,1091.83C868.522,1071.1 866.43,1035.57 871.922,1011.97C878.704,982.828 897.463,953.837 920.424,937.021C928.213,931.317 930.238,927.989 928.863,924.065C928.131,921.974 926.635,920.837 923.579,920.186C921.39,919.719 918.916,918.96 917.932,918.446C916.539,917.719 914.052,918.656 908.438,922.569C879.051,943.053 857.095,979.051 849.926,1018.53C846.903,1035.17 847.311,1065.61 850.735,1079.16C858.839,1111.23 875.59,1137.83 898.659,1155.31C907.611,1162.09 924.375,1171.85 931.192,1174.24C933.86,1175.18 936.44,1176.1 936.935,1176.28Z" fill="#39C8F6"/>
<path d="M1038.11,1152.12C1038.8,1152.81 1043.81,1150.43 1048.92,1146.93C1054.03,1143.42 1059.92,1138.79 1063.47,1135.21C1070.67,1127.91 1073.61,1124.02 1076.9,1117.46C1078.35,1114.58 1079.46,1112.48 1079.89,1112.48C1080.11,1112.48 1080.78,1111.72 1080.95,1111.07C1081.11,1110.43 1081.25,1109.44 1081.29,1108.46C1081.42,1104.82 1087.14,1089.32 1090.48,1083.49C1091,1082.59 1091.4,1081.67 1091.56,1081.08C1091.72,1080.49 1091.23,1079.52 1090.97,1079.52C1090.43,1079.52 1090.48,1079.07 1090.48,1077.93C1090.48,1076.8 1089.93,1074.74 1089.34,1073.63C1088.51,1072.08 1088.55,1071.76 1089.7,1070.49C1090.52,1069.57 1091.62,1067.34 1092.01,1065.78C1092.93,1062.1 1094.19,1061.77 1098.37,1063.76C1102,1065.5 1105,1065.08 1106.47,1062.23C1107.95,1059.38 1108.58,1053.66 1108.63,1044.78C1108.84,1007.68 1097.12,979.4 1070.41,952.523C1050.45,932.443 1029.34,922.029 1021.46,928.012C1019.52,929.483 1019.05,936.856 1020.79,937.93C1021.13,938.138 1022.05,937.769 1022.11,937.449C1022.18,937.129 1022.11,936.337 1021.91,935.518C1021.43,933.602 1021.77,932.816 1023.7,930.887C1027.77,926.81 1027.98,927.119 1039.96,936.399C1042.4,938.289 1042.96,940.532 1042.35,942.804C1041.73,945.076 1040.23,946.523 1037.27,946.523C1036.01,946.523 1034.93,946.84 1034.84,947.096C1034.74,947.353 1035.26,948.344 1036.15,949.32C1036.82,950.068 1037.08,950.347 1037.14,950.661C1037.21,950.974 1037.44,950.523 1036.93,950.523C1036.55,950.523 1036.63,951.802 1037.53,952.482C1038.43,953.162 1039.91,954.129 1041.66,955.16C1049.94,960.048 1066.04,976.898 1072.55,987.468C1087.54,1011.83 1091.15,1044.73 1081.97,1073.25C1071.95,1104.36 1045.33,1131.32 1016.37,1139.67C1014.03,1140.34 1012.58,1140.83 1012.12,1141.11C1011.66,1141.39 1012.32,1142.4 1013.49,1142.44L1016.5,1142.07L1014,1143.6L1011.5,1145.13L1014.48,1144.48C1015.85,1144.13 1018.69,1143.92 1021.27,1143.46C1023.84,1142.99 1026.99,1142.08 1028.09,1141.49C1031.18,1139.84 1039.26,1140.07 1041.09,1141.91C1043.28,1144.1 1043.04,1145.21 1040.19,1148.37C1039.51,1149.12 1038.9,1149.9 1038.52,1150.46C1038.14,1151.02 1038.01,1152.02 1038.11,1152.12ZM1057.73,1131.95C1055.94,1132.01 1055.53,1131.1 1055.51,1129.06C1055.49,1127.02 1056.27,1124.61 1058.04,1122.06C1061.64,1116.86 1064.19,1115.07 1067.36,1115.87C1069.95,1116.52 1070.56,1118.12 1070.08,1120.78C1069.6,1123.44 1067.84,1126.33 1064.65,1129.02C1061.35,1131.79 1061.27,1131.84 1057.73,1131.95Z" fill="#39C8F6"/>
<path d="M521.501,1143.96C549.361,1143.91 573.551,1132.92 591.368,1112.22C636.056,1060.3 624.045,983.211 566.233,950.796C546.388,939.668 518.213,935.587 497.384,940.816C475.876,946.216 460.391,954.519 446.827,967.914C414.732,999.608 406.669,1047.97 426.851,1087.72C444.964,1123.38 479.688,1144.02 521.501,1143.96ZM517.5,1111.01C499.783,1110.99 499.994,1111.03 487.689,1105.7C480.539,1102.6 465.428,1088.59 459.231,1079.33C447.991,1062.52 445.316,1040.55 452.05,1020.43C457.281,1004.79 458.367,1002.94 469.025,991.465C475.389,984.616 486.526,978.293 499.646,974.058C506.638,971.801 529.389,971.806 536.353,974.067C559,981.418 574.46,997.142 582.487,1020.97C585.484,1029.87 585.488,1054.12 582.493,1063.01C574.554,1086.58 559.361,1102.96 539.398,1109.41C535.53,1110.67 530.535,1111.02 517.5,1111.01Z" fill="#143E62"/>
<path d="M985.333,1144.22C1019.28,1144.93 1044.02,1132.85 1066.45,1104.61C1092.32,1072.06 1094.99,1020.56 1072.61,985.742C1067.24,977.401 1052.08,960.938 1045.82,956.661C1016.23,936.434 977.455,932.818 944.559,947.217C907.403,963.481 884.545,1000.56 884.527,1044.64C884.51,1087.54 917.461,1130.27 959.138,1141.39C968.862,1143.98 967.686,1143.86 985.333,1144.22ZM986.597,1111.3C974.699,1111.54 972.017,1111.31 966.931,1109.55C952.205,1104.45 939.124,1096.05 934.009,1088.34C931.996,1085.31 929.722,1082.39 929.134,1082.02C927.44,1080.98 920.477,1065.85 920.477,1063.24C920.477,1061.94 919.725,1058.5 918.835,1055.78C916.139,1047.54 917.224,1027.32 920.737,1020.5C922.215,1017.63 923.477,1014.56 923.477,1013.93C923.477,1013.31 924.199,1011.36 925.136,1009.35C932.522,993.532 946.692,980.963 963.888,974.97C972.611,971.93 995.038,971.347 1002.34,973.977C1004.54,974.77 1007.52,975.453 1008.77,975.462C1013.94,975.496 1026,983.011 1033.82,991.004C1040.28,997.609 1042.43,1000.75 1047.57,1011.07L1054,1022.97L1053.52,1040.7C1053.52,1060.43 1053.42,1060.92 1045.99,1076.34C1039.15,1090.54 1018.94,1108.52 1009.73,1108.52C1008.44,1108.52 1005.67,1109.11 1003.78,1109.8C1001.83,1110.51 994.476,1111.14 986.597,1111.3Z" fill="#143E62"/>
<path d="M1083.52,1113.3C1088.87,1114.48 1092.7,1109.69 1099.48,1091.85C1101.05,1087.71 1101.55,1084.25 1100.97,1082.11C1100.39,1079.98 1098.28,1078.52 1095.58,1078.52C1092.3,1078.52 1090.07,1081.27 1085.62,1091.92C1082.51,1099.37 1080.78,1104.45 1080.4,1107.65C1080.02,1110.84 1081.34,1112.82 1083.52,1113.3Z" fill="#143E62"/>
<path d="M1124.22,1047.38C1124.43,1043.44 1124.43,1038.2 1124.21,1035.81C1124.11,1034.61 1123.06,1034.83 1122.99,1036.13C1122.92,1037.43 1122.87,1039.84 1122.87,1043C1122.88,1046.59 1122.91,1048.83 1122.98,1049.58C1123.05,1050.33 1124.09,1049.6 1124.22,1047.38Z" fill="#5C768A"/>
<path d="M399.622,1022.28C402.593,1022.7 405.717,1019.52 407.283,1014.12C407.999,1011.65 410.67,1003.25 413.223,995.434C415.816,987.494 417.138,982.474 417.146,979.51C417.154,976.547 415.45,975.019 412.879,974.719C409.15,974.285 406.628,977.175 401.838,988.54C397.413,999.04 394.948,1007.21 394.517,1012.73C394.085,1018.25 396.058,1021.78 399.622,1022.28Z" fill="#143E62"/>
<path d="M424.522,966.287C426.312,966.524 429.111,964.783 434.599,959.663C438.618,955.915 443.355,951.604 445.143,950.066C449.218,946.563 450.34,941.541 449.245,938.685C448.15,935.829 444.251,934.388 439.994,937.419C435.854,940.367 421.308,955.851 419.63,959.09C417.944,962.346 420.168,965.712 424.522,966.287Z" fill="#143E62"/>
<path d="M660.437,947.687C661.199,947.436 670.477,928.841 670.477,927.548C670.477,927.018 679.718,906.924 686.925,891.704C690.394,884.378 692.89,881.419 702.326,873.375C718.399,859.673 724.477,853.87 724.477,852.777C724.477,852.174 721.913,848.802 718.941,845.686C712.262,838.684 703.225,821.079 689.445,788.315C683.598,774.412 679.98,767.523 679.13,767.523C677.71,767.523 616.523,894.526 616.523,897.483C616.523,898.124 619.628,901.815 623.093,905.161L629.6,910.814L632.932,902.657C637.111,890.716 668.335,826.339 671.456,823.218C673.88,820.794 676.152,820.826 678.63,823.304C680.424,825.098 680.367,825.107 679.141,828.558C676.95,834.725 669.909,849.731 656.855,876.067C650.783,888.317 647.318,895.685 645.76,900.238C644.203,904.79 644.676,907.105 646.141,908.321C648.61,910.371 651.198,910.375 654.349,905.937C657.5,901.499 661.951,892.453 669.447,876.367C677.371,859.364 681.745,850.296 684.79,846.013C687.836,841.73 688.784,842.367 691.218,844.802C694.695,848.278 694.284,849.469 687.66,863.114C659.548,921.033 656.318,928.053 655.078,933.698C654.646,935.666 654.227,936.523 653.246,936.523C652.584,936.523 651.805,937.19 651.872,937.519C651.939,937.848 652.499,938.637 653.351,939.571C654.48,940.809 656.19,943.102 657.215,944.752C658.24,946.402 659.995,947.833 660.437,947.687Z" fill="#39C8F6"/>
<path d="M842.691,947.19C842.866,947.257 844.099,946.331 845.053,945.046C846.006,943.76 847.254,941.923 848.525,939.905C853.127,932.6 853.114,932.011 851.272,929.616C850.255,928.292 849.511,927.152 849.499,926.744C849.424,924.253 830.754,893.105 823.379,883.215C821.739,881.015 818.442,874.441 815.981,868.479C813.519,862.518 808.539,852.466 804.946,846.208C797.852,833.854 797.453,833.444 800.069,831.087C803.309,828.168 804.837,827.302 807.971,830.695C811.106,834.087 815.101,841.597 822.089,855.586C827.744,866.907 831.124,873.236 833.548,876.077C835.973,878.917 838.218,878.382 840.31,876.136C843.508,872.703 843.211,871.087 829.017,842.907C821.643,828.265 815.36,815.502 815.022,814.462C814.163,811.818 816.568,808.477 819.332,808.477C824.315,808.477 822.817,806.364 858.581,876.716C867.528,894.316 874.96,908.878 875.045,908.992C875.088,909.05 876.465,908.595 877.538,907.689C878.61,906.783 879.957,905.575 881.542,904.142L887.109,898.5L885.144,892.5C881.391,883.275 876.442,872.866 852.906,825.289C840.935,801.089 827.645,773.532 823.462,764.182L815.5,747.5L810.903,752C802.983,760.651 802.238,764.243 803.779,785.99C804.012,789.276 804.094,789.056 799.487,790.778C791.388,793.805 785.63,798.465 783.061,804.01C781.876,806.568 779.857,809.03 777.757,810.853C775.657,812.677 774.16,813.656 773.131,813.021C772.535,812.652 770.511,808.821 768.412,804.255C764.446,795.629 760.99,792.273 756.488,792.273C752.654,792.273 750.317,795.124 750.415,799.246C750.513,803.368 752.633,809.473 756.635,816.512C762.675,827.137 775.182,845.678 783.103,855.752C784.608,857.665 785.84,859.42 786.667,860.783C787.494,862.145 788.039,862.416 787.789,862.57C787.539,862.725 788.568,864.653 790.535,866.41C792.502,868.167 795.486,870.602 798.72,873.113L810.655,881.8L815.222,892.15C817.996,897.843 823.829,910.129 828.128,919.204C836.843,937.601 841.734,946.824 842.691,947.19Z" fill="#39C8F6"/>
<path d="M653.296,937.272C654.195,937.465 655.544,936.02 655.997,933.959C657.25,928.253 660.355,921.553 688.518,863.531C695.141,849.885 695.369,847.604 691.893,844.128C689.458,841.693 687.059,841.177 684.013,845.461C680.968,849.744 676.506,858.962 668.583,875.965C661.087,892.05 656.722,900.947 653.571,905.385C650.42,909.823 649.219,909.637 646.749,907.588C645.285,906.372 645.105,905.099 646.662,900.546C648.22,895.994 651.638,888.74 657.709,876.491C670.763,850.155 677.848,835.044 680.039,828.877C681.265,825.427 681.098,824.424 679.304,822.63C676.826,820.152 673.206,820.12 670.782,822.544C667.79,825.536 636.471,889.966 632.185,901.957L629.809,909.968L636.252,917.734C640.058,922.005 645.142,928.263 647.432,931.288C649.722,934.313 652.515,937.104 653.296,937.272Z" fill="#FCFEFF"/>
<path d="M467.885,933.296C475.518,934.01 481.588,928.505 480.056,922.399C479.187,918.939 473.928,918.248 469.497,919.695C465.066,921.142 460.523,924.844 460.523,928.588C460.523,931.34 462.564,932.798 467.885,933.296Z" fill="#143E62"/>
<path d="M852.619,932.209C853.142,932.383 854.931,931.098 855.922,929.585C856.913,928.073 861.556,922.85 866.46,917.781L875.157,908.141L859.425,876.321C823.446,805.69 824.308,807.523 819.332,807.523C816.568,807.523 813.257,812.113 814.116,814.756C814.454,815.796 820.791,828.694 828.166,843.336C842.359,871.516 842.811,872.053 839.612,875.487C837.521,877.732 836.698,878.298 834.273,875.458C831.849,872.617 828.597,866.481 822.942,855.16C815.954,841.171 811.806,833.44 808.671,830.048C805.537,826.655 802.67,827.459 799.431,830.379C796.815,832.736 797.025,834.329 804.119,846.683C807.712,852.94 812.638,862.882 815.099,868.843C817.561,874.805 820.975,881.585 822.615,883.785C830.177,893.927 835.972,903.461 848.46,926.294C850.077,929.25 852.095,932.034 852.619,932.209Z" fill="#FCFEFF"/>
<path d="M515.999,900.025L529.5,899.596L517.477,899.284C503.019,898.923 502.739,898.587 502.413,898.913C502.344,898.982 504.127,899.863 506.528,899.917C508.93,899.971 512.287,900.011 515.999,900.025Z" fill="#5C768A"/>
<path d="M984.499,899.026L997.5,898.599L985.977,898.285C972.107,897.922 971.739,897.586 971.413,897.913C971.344,897.982 973.07,898.863 975.381,898.918C977.692,898.972 980.924,899.013 984.499,899.026Z" fill="#5C768A"/>
<path d="M586.622,882.259C587.31,882.45 588.477,881.664 588.477,881.073C588.477,880.778 587.851,880.071 587.353,879.893C586.854,879.714 585.991,879.588 585.235,879.612C583.949,879.654 583.106,880.63 583.366,880.925C583.625,881.221 584.874,881.773 586.622,882.259Z" fill="#FCFEFF"/>
<path d="M787.741,863.313C788.573,863.518 788.833,861.866 787.578,859.931C786.323,857.996 784.032,855.011 780.858,851.195C775.322,844.542 763.954,827.459 757.469,816.052C753.464,809.007 751.467,803.347 751.368,799.224C751.268,795.101 752.653,793.227 756.488,793.227C760.99,793.227 763.58,796.028 767.546,804.653C769.645,809.219 772.034,813.463 772.63,813.832C773.658,814.467 776.282,813.397 778.382,811.573C780.482,809.75 782.741,806.969 783.926,804.411C786.495,798.866 791.722,794.698 799.821,791.671C804.428,789.949 804.963,789.208 804.73,785.923C803.195,764.27 804.083,759.755 811.743,752.398C813.716,750.502 815.477,748.08 815.477,747.435C815.477,744.989 773.231,656.523 772.07,656.523C771.713,656.523 769.28,659.96 767.177,663.854C760.971,675.344 755.221,680.254 750.318,677.63C748.62,676.721 748.237,675.913 748.79,673.749C749.344,671.586 750.997,668.765 753.995,664.589C765.136,649.073 767.533,640.415 762.611,635.492C761.751,634.632 760.69,634.16 760.056,634.542C759.421,634.924 758.477,636.236 756.99,638.509C742.985,659.913 739.38,664.956 733.878,670.802C729.219,675.752 725.082,678.817 721.487,680.101C717.892,681.384 715.584,680.952 713.839,678.288C711.486,674.697 712.539,673.22 721.466,664.59C734.15,652.328 744.425,637.377 750.107,622.922C752.54,616.734 752.662,615.515 751.469,611.9C750.386,608.618 748.836,606.911 747.429,607.789C746.023,608.666 743.891,612.047 740.565,618.08C731.291,634.901 720.078,648.966 713.768,651.58C707.975,653.98 703.961,650.406 699.872,639.828C696.648,631.488 689.714,615.404 682.185,598.803C671.635,575.539 662.402,553.749 649.143,520.822C642.832,505.147 633.382,481.746 628.145,468.821C618.103,444.039 614.835,435.367 603.654,403.841C597.683,387.004 592.919,372.561 578.922,328.855C577.424,324.18 575.014,314.516 573.55,307.317C571.971,299.556 570.549,295.289 569.511,295.262C568.473,295.235 566.888,299.43 565.023,307.103C560.303,326.528 560.548,360.138 565.604,385.593C569.754,406.487 577.462,435.381 583.809,453.971L588.369,465.904L585.208,468.588C580.278,473.518 582.965,481.099 589.635,481.665C593.029,481.954 592.991,482.002 594.6,486.656C595.552,489.406 600.488,501.584 605.557,513.684C610.625,525.784 616.784,540.63 619.245,546.68C636.387,588.823 650.216,620.833 677.577,681.695C678.566,683.895 682.395,692.445 686.088,700.695C689.78,708.945 694.253,718.849 696.026,722.699C697.799,726.549 700.545,732.618 702.131,736.193C703.718,739.768 709.482,751.712 714.929,762.712C725.886,784.835 726.811,787.842 722.862,793.378C720.506,796.681 719.846,802.985 721.509,806.093C722.02,807.048 727.638,812.439 733.865,817.91C740.091,823.381 745.6,828.311 746.15,828.908C747.069,829.906 763.987,844.791 776.099,855.258C781.766,860.154 785.606,862.788 787.741,863.313ZM755.424,763.023C742.927,763.023 735.288,754.451 733.118,743.998C730.949,733.545 734.474,722.108 745.724,716.102C751.364,713.091 762.636,713.091 768.276,716.102C784.431,724.726 786.758,746.147 772.812,757.882C768.321,761.661 763.661,763.023 755.424,763.023ZM674.54,636.023C672.321,636.023 671.431,635.426 669.803,633.011C666.972,628.81 649.477,589.336 649.477,587.136C649.477,584.314 651.963,581.477 654.485,581.477C658.745,581.477 659.575,583.172 669.084,604.693C672.243,611.843 675.896,620.032 677.198,622.884C679.265,627.409 680,630.561 679.48,632.883C678.96,635.205 677.619,636.023 674.54,636.023ZM631.453,533.324C627.932,533.822 625.656,529.799 619.79,514.742C615.837,504.598 613.825,498.269 613.636,494.327C613.446,490.384 614.635,489.477 618.099,489.477C621.806,489.477 622.276,490.646 630.153,509.25C634.154,518.7 636.162,524.458 636.301,528.15C636.439,531.842 635.08,532.81 631.453,533.324Z" fill="#FCFEFF"/>
<path d="M755.932,764.282C767.296,764.919 776.492,758.09 780.416,749.263C784.34,740.437 783.367,728.813 775.489,720.334C770.721,715.201 765.323,713.07 757,713.07C741.565,713.07 732.065,722.741 732.037,738.499C732.011,753.622 741.126,763.452 755.932,764.282Z" fill="#143E62"/>
<path d="M822.961,683.27C824.061,683.468 825.603,682.151 826.462,679.976C827.179,678.16 829.707,672.487 832.094,667.337C834.534,662.071 835.752,659.456 836.128,658.259C836.504,657.061 835.511,656.613 834.671,656.783C833.986,656.921 831.339,651.742 828.004,645.248C824.669,638.754 821.194,631.262 819.832,627.139C818.172,622.109 818.192,621.929 820.186,614.411C822.373,606.165 823.005,604.525 842.908,555.178C855.518,523.915 864.883,499.793 872.613,478.664C874.827,472.614 879.721,459.519 883.492,449.558C890.894,430.006 892.022,426.852 905.628,387.656C916.433,356.533 921.288,341.858 924.991,329.133C927.413,320.81 932.696,303.394 934.078,299.176C934.291,298.528 933.989,298.533 934.2,298.533C934.411,298.533 934.29,298.652 934.741,299.3C935.665,300.628 936.58,299.466 936.005,297.4C935.43,295.335 934.195,291.908 932.559,288.021C928.921,279.38 923.298,270.647 919.148,267.155C916.539,264.96 914.434,264.098 911.836,267.732C909.238,271.366 905.405,279.663 898.043,295.802C894.907,302.677 890.182,313.027 887.543,318.802C883.545,327.549 875.233,345.984 866.577,365.305C852.676,396.334 845.092,413.014 838.847,426.297C829.438,446.31 813.491,481.459 804.587,501.809C790.006,535.135 786.652,542.75 784.274,547.929C782.917,550.884 779.544,558.295 776.679,564.549L771.82,576.241L773.103,580.871C775.339,586.755 780.791,598.535 793.061,623.709C801.206,640.42 812.055,663.333 819.336,679.199C820.22,681.124 822.042,683.105 822.961,683.27ZM811.26,529.349C809.156,529.872 806.477,526.198 806.477,523.013C806.477,521.371 808.872,515.055 811.856,508.73C814.91,502.253 816.919,498.613 818.842,496.821C820.765,495.029 821.91,495.281 824.198,496.78C827.366,498.856 827.186,499.915 824.045,508.258C819.004,521.652 815.005,528.417 811.26,529.349ZM831.399,483.338C828.196,483.763 826.008,480.142 826.827,476.046C827.816,471.1 836.673,451.286 839.052,448.709C840.911,446.696 842.999,446.312 845.109,446.94C847.219,447.567 848.523,448.882 848.523,451.447C848.523,453.91 836.955,479.803 835.028,481.656C834.17,482.481 832.684,483.167 831.399,483.338ZM854.399,434.207C851.397,434.807 850.093,433.75 849.516,431.002C848.939,428.253 849.616,424.48 851.76,419.795C853.77,415.405 856.271,413.437 858.686,413.372C861.102,413.308 862.524,414.947 862.514,419.284C862.504,423.342 858.871,433.383 857.216,433.666C856.778,433.741 855.503,433.986 854.399,434.207ZM869.287,400.243C865.174,400.76 863.699,397.676 863.747,393.727C863.794,389.777 865.54,385.896 869.659,384.862C873.018,384.019 874.963,385.134 876.088,387.622C877.213,390.11 876.993,393.266 874.874,396.853C872.953,400.105 873.585,399.703 869.287,400.243ZM880.925,372.33C878.222,372.632 876.901,371.968 876.116,370.095C875.331,368.222 875.575,365.796 876.988,362.415C879.324,356.823 881.817,354.477 885.696,354.477C890.145,354.477 890.791,358.33 889.644,362.903C888.496,367.477 885.501,371.82 880.925,372.33ZM896.926,340.359C894.033,340.801 891.477,338.303 891.477,335.093C891.477,330.924 904.504,301.179 908.127,297.065C910.016,294.919 913.944,294.769 915.635,296.807C917.433,298.973 916.51,301.471 908.716,320.366C901.486,337.895 900.534,339.808 896.926,340.359Z" fill="#39C8F6"/>
<path d="M716.462,681.309C725.276,683.15 737.978,670.614 756.31,641.359C757.521,639.425 758.685,637.772 759.636,636.593C760.588,635.413 760.673,634.858 760.905,635.002C761.601,635.432 762.561,634.847 762.016,633.396C761.472,631.946 760.105,629.018 757.572,623.692C755.154,618.609 753.876,615.959 753.182,615.121C752.488,614.284 751.48,615.374 751.149,617.139C749.154,627.77 735.896,648.544 722.504,662.072C717.11,667.521 712.304,673.041 711.966,674.105C711.259,676.335 714.037,680.803 716.462,681.309Z" fill="#39C8F6"/>
<path d="M752.639,679.28C756.298,680.243 762.558,674.089 768.935,662.733C770.479,659.983 771.902,657.641 772.231,657.366C772.396,657.228 772.262,655.719 771.691,654.269C771.12,652.819 770.232,650.849 769.201,648.787C768.169,646.724 767.202,645.001 766.52,643.964C765.838,642.927 764.539,642.786 764.535,643.275C764.516,646.076 759.346,655.503 753.221,664.033C749.646,669.012 747.728,672.464 747.601,674.633C747.474,676.803 749.404,678.429 752.639,679.28Z" fill="#39C8F6"/>
<path d="M835.097,657.734C836.943,657.438 851.407,625.224 874.884,568.181C884.385,545.097 886.584,539.616 892.945,523.172C894.966,517.947 897.68,510.974 898.977,507.674C905.318,491.549 913.255,469.467 921.632,444.652C927.972,425.87 935.227,397.067 938.555,377.469C941.598,359.544 941.905,321.671 939.115,308.975C938.208,304.852 937.13,301.537 936.203,299.73C935.276,297.923 933.581,297.581 933.115,299.03C931.475,304.132 926.376,320.962 924.075,328.867C920.372,341.591 915.532,356.22 904.728,387.344C891.121,426.539 890.002,429.668 882.6,449.221C878.829,459.182 873.931,472.286 871.718,478.336C863.988,499.466 854.634,523.558 842.024,554.822C822.121,604.168 821.451,605.921 819.264,614.166C817.273,621.674 817.268,622.414 818.918,627.437C820.414,631.99 823.95,639.621 827.285,646.009C830.621,652.397 834.283,657.864 835.097,657.734ZM833.808,625.354C830.56,625.681 829.213,624.972 828.746,622.517C828.279,620.063 829.173,616.537 831.511,611.426C833.203,607.726 835.709,601.753 837.065,598.189C839.005,593.088 841.007,589.889 843.197,588.307C845.388,586.725 846.967,586.911 848.992,589.149C851.579,592.008 850.927,594.793 845.576,608.012C839.685,622.567 838.263,624.906 833.808,625.354ZM869.749,535.205C867.544,535.793 865.477,533.401 865.477,530.455C865.477,526.314 878.486,495.041 881.649,491.571C883.901,489.102 886.817,488.59 888.383,490.548C891.331,494.233 890.264,497.969 881.615,518.314C880.68,520.514 879.074,524.343 878.049,526.818C875.992,531.782 874.222,534.464 872.545,534.642C871.943,534.706 870.644,534.967 869.749,535.205Z" fill="#FCFEFF"/>
<path d="M708.939,652.947C711.016,655.024 716.691,651.774 722.634,645.343C728.577,638.911 735.541,629.191 741.437,618.486C743.139,615.394 744.768,612.679 746.052,610.741C747.337,608.803 747.609,607.819 747.855,607.971C748.624,608.446 749.601,607.866 748.337,604.907C747.073,601.948 744.248,595.998 738.807,584.582C721.906,549.128 719.575,544.147 712.699,528.805C709.125,520.83 704.156,510.236 701.667,505.286C697.003,496.012 690.514,481.949 680.45,459.306C672.235,440.823 670.196,436.424 660.8,416.909C656.196,407.347 652.477,399.556 652.477,399.342C652.477,399.127 649.669,393.018 646.295,386.019C637.446,367.661 628.631,349.146 625.718,342.801C624.329,339.776 619.695,329.872 615.423,320.797C604.284,297.139 599.477,286.854 599.477,286.438C599.477,284.7 589.512,266.239 588.338,265.789C586.548,265.102 580.841,271.474 576.366,278.363C571.89,285.253 568.034,293.283 568.889,295.409C569.071,295.86 569.81,296.34 569.915,296.303C570.02,296.266 570.408,295.578 570.458,295.045C570.497,294.632 569.911,295.845 570.446,298.02C570.981,300.195 571.695,303.385 572.468,307.097C574.014,314.522 576.517,324.47 578.014,329.145C592.011,372.852 596.784,387.323 602.755,404.159C613.936,435.686 617.22,444.397 627.261,469.179C632.498,482.104 641.947,505.503 648.259,521.178C661.518,554.105 670.767,575.933 681.317,599.197C688.846,615.798 695.758,631.832 698.982,640.172C701.423,646.484 704.67,651.285 706.743,651.906C707.714,652.197 708.592,652.6 708.939,652.947ZM660.792,482.324C654.926,483.02 648.012,472.604 641.831,454.475C639.937,448.92 638.919,444.943 638.715,442.09C638.511,439.236 638.845,438.103 640.3,437.521C641.136,437.186 641.825,436.763 641.933,436.598C642.041,436.434 641.408,435.609 640.807,435.587C637.269,435.456 631.477,426.082 631.477,420.64C631.477,417.12 632.764,415.395 634.905,414.839C637.047,414.284 639.168,415.16 641.155,418.164C642.769,420.602 644.165,424.263 645.007,427.597C645.849,430.931 646.278,433.273 645.418,433.82C645.009,434.081 644.646,434.857 644.699,434.983C644.752,435.109 645.469,435.463 645.992,435.472C647.013,435.49 647.987,438.268 650,444.899C653.329,455.866 657.804,465.145 662.671,471.202C665.358,474.545 666.401,476.933 666.025,478.971C665.649,481.008 664.17,481.923 660.792,482.324Z" fill="#39C8F6"/>
<path d="M674.374,637.296C677.347,637.652 679.69,635.985 680.258,633.48C680.825,630.975 680.107,626.959 678.066,622.488C676.763,619.636 673.115,611.457 669.956,604.307C660.447,582.786 658.745,580.523 654.485,580.523C651.963,580.523 648.523,584.314 648.523,587.136C648.523,589.442 666.421,629.828 669.157,633.684C670.488,635.559 672.742,637.1 674.374,637.296Z" fill="#143E62"/>
<path d="M833.697,625.977C838.406,625.977 840.188,623.794 846.447,608.37C851.848,595.059 852.32,590.862 849.491,588.302C847.291,586.31 844.512,586.087 842.407,587.658C840.301,589.229 838.103,592.778 836.174,597.851C834.818,601.415 832.336,607.329 830.644,611.03C828.311,616.129 827.297,619.982 827.718,622.275C828.139,624.568 830.429,625.977 833.697,625.977Z" fill="#143E62"/>
<path d="M751.322,536.329C751.585,536.593 753.125,535.84 753.895,534.908C754.664,533.977 755.477,532.53 755.477,531.948C755.477,531.763 754.745,531.175 754.281,531.143C753.817,531.11 753.053,531.164 752.349,531.299C749.98,531.752 749.393,534.4 751.322,536.329Z" fill="#FCFEFF"/>
<path d="M870.826,535.761C874.063,535.494 876.574,532.934 878.942,527.181C879.961,524.706 881.558,520.886 882.493,518.686C891.141,498.342 892.076,493.637 889.127,489.952C887.561,487.995 883.196,488.46 880.945,490.929C877.736,494.448 864.523,526.328 864.523,530.547C864.523,533.628 867.409,536.044 870.826,535.761Z" fill="#143E62"/>
<path d="M631.084,534.301C634.068,534.793 637.477,531.201 637.477,527.444C637.477,524.296 626.223,496.173 622.967,491.203C621.875,489.537 620.03,488.523 618.099,488.523C614.631,488.523 612.49,490.429 612.684,494.381C612.878,498.334 614.963,504.984 618.932,515.173C624.556,529.615 627.276,533.673 631.084,534.301Z" fill="#143E62"/>
<path d="M810.773,530.26C812.251,530.753 814.891,528.678 817.261,524.943C819.631,521.208 822.328,515.528 824.938,508.594C828.078,500.25 827.889,498.059 824.72,495.982C822.433,494.484 820.116,494.332 818.192,496.124C816.269,497.916 814.048,501.847 810.993,508.323C807.619,515.476 805.858,520.458 805.782,523.725C805.705,526.993 807.592,529.2 810.773,530.26Z" fill="#143E62"/>
<path d="M831.245,484.27C834.609,484.705 836.696,482.111 843.396,467.026C849.948,452.277 850.255,449.803 847.491,447.302C844.963,445.014 842.098,444.76 839.682,446.995C837.265,449.231 834.539,454.121 831.232,461.807C827.767,469.857 825.976,475.273 825.92,478.603C825.865,481.934 827.922,483.84 831.245,484.27Z" fill="#143E62"/>
<path d="M660.573,483.235C663.882,483.534 666.341,481.862 666.792,479.658C667.243,477.455 666.1,473.947 663.414,470.605C658.547,464.548 654.241,455.59 650.912,444.623C647.741,434.173 647.064,433.732 641.404,436.097L637.759,438.127L637.921,442.943C639.408,454.15 648.784,475.673 654.096,480.094C655.928,481.619 658.987,483.092 660.573,483.235Z" fill="#FCFEFF"/>
<path d="M641.15,436.218C645.817,436.712 647.457,433.99 645.947,427.494C644.623,421.799 642.224,417.303 639.814,415.182C637.404,413.06 634.129,413.147 632.166,415.949C628.31,421.455 634.546,435.518 641.15,436.218Z" fill="#143E62"/>
<path d="M852.07,435.077C852.976,435.983 855.073,435.726 856.603,434.594C858.133,433.462 859.865,431.321 860.984,428.917C863.257,424.036 863.923,419.467 863.147,416.659C862.371,413.851 859.605,412.14 856.218,412.99C853.702,413.621 850.846,418.368 849.457,422.906C848.068,427.445 848.031,432.656 850.02,433.748C850.931,434.248 851.795,434.802 852.07,435.077Z" fill="#143E62"/>
<path d="M867.484,401.305C872.628,402.411 877.477,397.062 877.477,390.074C877.477,386.507 875.06,383.951 872.552,383.576C870.044,383.201 866.559,384.759 864.566,388.029C861.341,393.317 862.958,400.331 867.484,401.305Z" fill="#143E62"/>
<path d="M880.577,373.299C885.899,373.975 893.087,361.727 890.569,356.201C889.308,353.432 886.132,352.633 883.472,353.775C880.811,354.917 877.794,358.014 876.108,362.048C873.33,368.696 874.958,372.586 880.577,373.299Z" fill="#143E62"/>
<path d="M896.588,341.284C900.012,341.757 902.11,338.881 909.648,320.606C914.307,309.312 916.749,302.826 917.141,299.294C917.534,295.761 915.437,294.523 912.033,294.523C907.638,294.523 904.861,298.566 895.517,320.616C892.294,328.221 890.678,333.184 890.782,336.164C890.886,339.145 893.083,340.8 896.588,341.284Z" fill="#143E62"/>
</g>
</svg>
