<svg xmlns="http://www.w3.org/2000/svg" viewBox="0 -0.5 512 512" shape-rendering="crispEdges">
<metadata>Made with Pixels to Svg https://codepen.io/shshaw/pen/XbxvNj</metadata>
<path stroke="#ffffff" d="M0 0h338M339 0h173M0 1h68M69 1h96M166 1h12M179 1h179M359 1h103M463 1h40M504 1h8M0 2h331M332 2h180M0 3h204M205 3h208M414 3h57M472 3h22M495 3h17M0 4h166M167 4h106M274 4h238M0 5h150M151 5h51M203 5h253M457 5h55M0 6h409M410 6h102M0 7h93M94 7h27M122 7h193M316 7h34M351 7h80M432 7h80M0 8h240M241 8h91M333 8h114M448 8h64M0 9h35M36 9h470M507 9h5M0 10h405M406 10h106M0 11h512M0 12h136M137 12h375M0 13h462M463 13h49M0 14h61M62 14h125M189 14h16M206 14h306M0 15h189M190 15h322M0 16h512M0 17h134M135 17h17M153 17h230M384 17h70M455 17h57M0 18h112M113 18h60M174 18h104M279 18h174M454 18h58M0 19h118M119 19h393M0 20h409M410 20h102M0 21h62M63 21h236M300 21h212M0 22h83M84 22h364M449 22h63M0 23h81M82 23h207M290 23h222M0 24h172M173 24h100M274 24h104M379 24h133M0 25h130M131 25h61M193 25h275M469 25h43M0 26h14M15 26h202M218 26h294M0 27h512M0 28h375M376 28h108M485 28h27M0 29h512M0 30h341M342 30h37M380 30h132M0 31h153M154 31h36M191 31h181M373 31h139M0 32h512M0 33h410M411 33h39M451 33h61M0 34h184M185 34h119M305 34h92M398 34h114M0 35h201M202 35h194M397 35h115M0 36h125M126 36h17M144 36h71M216 36h296M0 37h44M45 37h182M228 37h167M396 37h116M0 38h512M0 39h412M413 39h75M489 39h23M0 40h512M0 41h398M399 41h26M426 41h86M0 42h176M177 42h55M233 42h279M0 43h87M88 43h232M321 43h191M0 44h135M136 44h31M168 44h344M0 45h211M212 45h57M270 45h242M0 46h512M0 47h152M153 47h6M160 47h352M0 48h512M0 49h35M36 49h178M215 49h29M245 49h267M0 50h512M0 51h394M395 51h29M425 51h87M0 52h28M29 52h53M83 52h84M168 52h266M435 52h77M0 53h512M0 54h200M201 54h311M0 55h314M315 55h197M0 56h208M209 56h146M356 56h61M418 56h94M0 57h238M239 57h3M243 57h213M457 57h55M0 58h244M245 58h81M327 58h185M0 59h210M211 59h301M0 60h197M198 60h305M504 60h8M0 61h59M60 61h237M298 61h214M0 62h275M276 62h236M0 63h486M487 63h25M0 64h36M37 64h475M0 65h163M164 65h348M0 66h184M185 66h327M0 67h512M0 68h368M369 68h143M0 69h25M26 69h257M284 69h69M354 69h22M377 69h135M0 70h512M0 71h280M281 71h227M509 71h3M0 72h287M288 72h80M369 72h82M452 72h60M0 73h183M184 73h328M0 74h88M89 74h256M346 74h98M445 74h67M0 75h263M264 75h14M279 75h222M502 75h10M0 76h512M0 77h512M0 78h9M10 78h59M70 78h215M286 78h207M494 78h18M0 79h312M313 79h146M460 79h52M0 80h144M240 80h16M320 80h84M405 80h107M0 81h144M240 81h16M320 81h170M491 81h21M0 82h144M240 82h16M320 82h192M0 83h101M102 83h42M240 83h16M320 83h19M340 83h1M342 83h170M0 84h144M240 84h8M249 84h7M320 84h33M354 84h111M466 84h46M0 85h144M240 85h16M320 85h192M0 86h144M240 86h16M320 86h163M484 86h28M0 87h53M54 87h74M129 87h15M240 87h16M320 87h192M0 88h13M14 88h1M16 88h128M240 88h16M320 88h14M335 88h78M414 88h27M442 88h70M0 89h144M240 89h15M320 89h192M0 90h1M2 90h142M240 90h16M320 90h115M436 90h76M0 91h144M240 91h16M320 91h12M333 91h179M0 92h60M61 92h83M240 92h16M320 92h7M328 92h184M0 93h144M240 93h16M320 93h120M441 93h71M0 94h125M126 94h18M240 94h16M320 94h192M0 95h144M240 95h16M320 95h108M429 95h77M507 95h5M0 96h144M240 96h16M320 96h167M488 96h24M0 97h144M240 97h16M320 97h192M0 98h70M71 98h73M240 98h16M320 98h169M490 98h22M0 99h144M240 99h11M252 99h4M320 99h192M0 100h2M3 100h141M240 100h16M320 100h192M0 101h144M240 101h16M320 101h192M0 102h144M240 102h16M320 102h192M0 103h144M240 103h16M320 103h16M337 103h16M354 103h74M429 103h83M0 104h57M58 104h86M240 104h16M320 104h192M0 105h144M240 105h16M320 105h192M0 106h144M240 106h16M320 106h192M0 107h144M240 107h16M320 107h105M426 107h86M0 108h144M240 108h16M320 108h56M377 108h23M401 108h111M0 109h144M240 109h16M320 109h172M493 109h19M0 110h132M133 110h11M240 110h16M320 110h192M0 111h144M240 111h16M320 111h181M502 111h10M0 112h103M104 112h24M192 112h16M352 112h160M0 113h128M192 113h6M199 113h9M352 113h64M417 113h95M0 114h55M56 114h72M192 114h4M197 114h11M352 114h132M485 114h27M0 115h128M192 115h16M352 115h48M401 115h43M445 115h67M0 116h14M15 116h113M176 116h1M192 116h16M352 116h132M485 116h4M490 116h22M0 117h84M85 117h19M105 117h23M192 117h16M352 117h32M385 117h127M0 118h66M67 118h61M192 118h16M352 118h160M0 119h128M192 119h16M352 119h10M363 119h149M0 120h128M192 120h16M352 120h160M0 121h80M81 121h47M192 121h16M352 121h142M495 121h17M0 122h128M192 122h16M352 122h143M496 122h16M0 123h24M25 123h58M84 123h44M192 123h16M352 123h51M404 123h108M0 124h128M192 124h15M352 124h96M449 124h63M0 125h103M104 125h24M192 125h16M352 125h83M436 125h76M0 126h128M192 126h8M202 126h6M352 126h160M0 127h128M192 127h8M202 127h6M352 127h160M0 128h72M73 128h11M85 128h1M87 128h41M384 128h128M0 129h128M384 129h23M408 129h104M0 130h120M121 130h7M384 130h128M0 131h128M384 131h128M0 132h128M384 132h128M0 133h65M66 133h62M384 133h128M0 134h128M384 134h74M459 134h53M0 135h128M384 135h34M419 135h3M423 135h89M0 136h128M384 136h127M0 137h128M384 137h98M483 137h29M0 138h128M384 138h128M0 139h33M34 139h21M56 139h72M384 139h128M0 140h128M384 140h128M0 141h41M42 141h86M384 141h128M0 142h128M384 142h128M0 143h128M384 143h121M506 143h6M0 144h128M192 144h16M352 144h16M400 144h112M0 145h128M192 145h16M339 145h1M352 145h16M400 145h112M0 146h128M192 146h16M352 146h16M400 146h112M0 147h128M192 147h16M352 147h16M400 147h112M0 148h128M192 148h16M352 148h16M400 148h112M0 149h128M192 149h16M352 149h16M400 149h112M0 150h89M90 150h38M192 150h16M352 150h16M400 150h67M468 150h44M0 151h45M46 151h82M192 151h16M352 151h16M400 151h91M492 151h20M0 152h121M122 152h6M192 152h16M352 152h16M400 152h36M437 152h75M0 153h128M192 153h16M352 153h16M400 153h112M0 154h128M192 154h6M199 154h9M352 154h16M400 154h112M0 155h33M34 155h60M95 155h33M192 155h16M352 155h16M400 155h112M0 156h128M192 156h16M352 156h16M400 156h112M0 157h44M45 157h13M59 157h25M85 157h43M192 157h16M352 157h16M400 157h77M478 157h18M497 157h15M0 158h128M192 158h16M352 158h16M400 158h112M0 159h34M35 159h8M44 159h68M113 159h15M184 159h1M192 159h16M352 159h16M400 159h19M420 159h92M0 160h144M256 160h16M288 160h32M400 160h60M461 160h51M0 161h144M256 161h16M288 161h2M291 161h5M297 161h12M310 161h10M400 161h112M0 162h144M256 162h16M288 162h32M400 162h112M0 163h45M46 163h92M139 163h5M256 163h16M288 163h32M400 163h68M469 163h43M0 164h42M43 164h101M256 164h16M288 164h32M400 164h112M0 165h49M50 165h85M136 165h8M256 165h12M269 165h3M288 165h32M400 165h112M0 166h80M81 166h63M256 166h16M288 166h17M306 166h14M400 166h62M463 166h49M0 167h139M140 167h4M247 167h1M256 167h16M288 167h32M400 167h112M0 168h115M116 168h28M256 168h16M288 168h32M400 168h97M498 168h14M0 169h144M256 169h16M288 169h32M400 169h112M0 170h144M256 170h16M288 170h32M400 170h6M407 170h105M0 171h144M256 171h16M288 171h32M400 171h112M0 172h7M8 172h16M25 172h72M98 172h46M256 172h16M288 172h32M400 172h112M0 173h144M256 173h16M288 173h32M400 173h112M0 174h106M107 174h37M256 174h16M288 174h32M400 174h93M494 174h18M0 175h27M28 175h116M256 175h16M288 175h32M400 175h112M0 176h27M28 176h20M80 176h18M99 176h45M272 176h16M464 176h48M0 177h29M30 177h18M80 177h64M272 177h16M464 177h48M0 178h48M80 178h64M272 178h16M464 178h48M0 179h48M80 179h64M272 179h16M464 179h48M0 180h48M80 180h64M272 180h16M464 180h48M0 181h48M80 181h64M272 181h16M464 181h48M0 182h48M80 182h64M272 182h6M280 182h8M464 182h48M0 183h48M80 183h64M272 183h6M280 183h8M464 183h48M0 184h3M4 184h44M80 184h34M115 184h6M122 184h22M246 184h1M272 184h16M464 184h48M0 185h48M80 185h62M143 185h1M272 185h16M464 185h2M467 185h45M0 186h48M80 186h64M272 186h16M464 186h48M0 187h48M80 187h64M272 187h16M464 187h48M0 188h48M80 188h64M266 188h2M272 188h1M274 188h14M464 188h48M0 189h48M80 189h64M266 189h2M272 189h16M464 189h48M0 190h48M80 190h64M272 190h16M464 190h48M0 191h48M80 191h64M272 191h16M464 191h48M0 192h48M96 192h12M109 192h67M464 192h48M0 193h48M96 193h80M464 193h48M0 194h48M96 194h80M464 194h48M0 195h21M22 195h25M96 195h20M117 195h38M156 195h20M464 195h48M0 196h48M96 196h21M118 196h58M464 196h44M509 196h3M0 197h25M26 197h22M96 197h80M464 197h3M468 197h44M0 198h48M96 198h80M464 198h39M504 198h8M0 199h48M96 199h80M464 199h48M0 200h5M6 200h10M17 200h31M96 200h80M376 200h2M464 200h48M0 201h48M96 201h80M376 201h2M464 201h48M0 202h18M19 202h29M96 202h80M464 202h27M492 202h20M0 203h1M2 203h46M96 203h80M464 203h47M0 204h48M96 204h80M363 204h1M464 204h48M0 205h48M96 205h80M400 205h1M464 205h48M0 206h48M96 206h80M364 206h2M464 206h48M0 207h48M96 207h80M364 207h2M464 207h48M0 208h64M96 208h80M276 208h2M464 208h48M0 209h64M96 209h60M157 209h19M276 209h2M464 209h48M0 210h64M96 210h80M464 210h48M0 211h64M96 211h80M382 211h1M464 211h48M0 212h64M96 212h80M464 212h33M498 212h14M0 213h64M96 213h14M111 213h65M464 213h48M0 214h64M96 214h80M464 214h48M0 215h64M96 215h80M464 215h48M0 216h64M96 216h80M384 216h1M464 216h48M0 217h64M96 217h80M464 217h48M0 218h64M96 218h80M374 218h2M464 218h48M0 219h64M96 219h80M374 219h2M464 219h48M0 220h30M31 220h33M96 220h80M464 220h48M0 221h64M96 221h80M464 221h48M0 222h64M96 222h27M124 222h52M464 222h48M0 223h64M96 223h80M464 223h27M492 223h20M0 224h14M15 224h47M63 224h1M96 224h52M149 224h27M272 224h32M336 224h16M448 224h11M460 224h52M0 225h64M96 225h80M272 225h32M336 225h16M448 225h64M0 226h64M96 226h80M272 226h32M336 226h4M342 226h6M350 226h2M448 226h64M0 227h64M96 227h37M134 227h42M272 227h32M320 227h1M336 227h4M342 227h6M350 227h2M448 227h64M0 228h64M96 228h14M111 228h65M272 228h10M284 228h20M336 228h16M448 228h17M466 228h46M0 229h59M60 229h4M96 229h80M272 229h10M284 229h20M336 229h16M448 229h9M458 229h54M0 230h64M96 230h80M272 230h32M336 230h16M448 230h64M0 231h64M96 231h27M124 231h52M272 231h32M329 231h1M336 231h16M448 231h64M0 232h17M18 232h46M96 232h80M272 232h32M336 232h16M448 232h16M465 232h47M0 233h64M96 233h80M272 233h32M336 233h16M448 233h8M457 233h55M0 234h50M51 234h13M96 234h80M272 234h32M336 234h16M448 234h64M0 235h64M96 235h80M272 235h32M336 235h16M448 235h64M0 236h64M96 236h80M272 236h32M336 236h16M448 236h64M0 237h64M96 237h80M272 237h32M336 237h16M448 237h64M0 238h64M96 238h80M272 238h32M336 238h16M448 238h64M0 239h64M96 239h80M272 239h32M336 239h13M350 239h2M448 239h64M0 240h64M96 240h80M432 240h80M0 241h64M96 241h80M432 241h80M0 242h1M2 242h35M38 242h24M63 242h1M96 242h80M432 242h80M0 243h64M96 243h80M432 243h80M0 244h64M96 244h80M432 244h80M0 245h64M96 245h2M99 245h75M175 245h1M432 245h80M0 246h49M50 246h14M96 246h80M432 246h80M0 247h64M96 247h80M432 247h80M0 248h64M96 248h80M432 248h80M0 249h64M96 249h80M432 249h80M0 250h64M96 250h80M432 250h65M498 250h14M0 251h64M96 251h80M432 251h80M0 252h64M96 252h80M432 252h80M0 253h64M96 253h80M432 253h80M0 254h64M96 254h80M432 254h80M0 255h64M96 255h80M277 255h1M432 255h80M0 256h64M96 256h48M304 256h14M319 256h17M432 256h3M436 256h51M488 256h13M502 256h10M0 257h41M42 257h22M96 257h48M304 257h19M324 257h12M432 257h80M0 258h64M96 258h48M304 258h32M432 258h26M459 258h53M0 259h64M96 259h48M304 259h32M432 259h80M0 260h64M96 260h48M304 260h32M432 260h80M0 261h64M96 261h6M103 261h41M304 261h32M432 261h80M0 262h64M96 262h48M304 262h32M432 262h55M488 262h24M0 263h44M45 263h19M96 263h48M304 263h32M432 263h80M0 264h64M96 264h48M304 264h32M432 264h80M0 265h64M96 265h20M117 265h27M274 265h1M304 265h11M316 265h20M432 265h80M0 266h64M96 266h34M131 266h13M304 266h32M432 266h80M0 267h64M96 267h48M304 267h32M432 267h80M0 268h64M96 268h48M304 268h32M432 268h35M468 268h44M0 269h7M8 269h56M96 269h48M304 269h32M432 269h80M0 270h64M96 270h8M105 270h39M304 270h15M320 270h16M432 270h80M0 271h64M96 271h46M143 271h1M304 271h32M432 271h80M0 272h64M96 272h48M368 272h93M462 272h50M0 273h64M96 273h48M368 273h143M0 274h64M96 274h48M368 274h1M370 274h142M0 275h64M96 275h48M368 275h144M0 276h64M96 276h48M368 276h19M388 276h67M456 276h56M0 277h64M96 277h48M368 277h48M417 277h95M0 278h3M4 278h60M96 278h7M104 278h40M368 278h22M391 278h89M481 278h31M0 279h64M96 279h48M368 279h144M0 280h64M96 280h48M368 280h144M0 281h64M96 281h48M368 281h65M434 281h78M0 282h64M96 282h48M368 282h122M491 282h21M0 283h64M96 283h48M368 283h109M478 283h34M0 284h64M96 284h48M368 284h144M0 285h3M4 285h60M96 285h48M368 285h144M0 286h64M96 286h2M99 286h45M368 286h144M0 287h51M52 287h12M96 287h48M368 287h144M0 288h64M96 288h16M368 288h144M0 289h45M46 289h18M96 289h16M368 289h2M371 289h117M489 289h23M0 290h64M96 290h16M368 290h144M0 291h64M96 291h16M368 291h144M0 292h64M96 292h16M368 292h80M449 292h63M0 293h64M96 293h16M368 293h144M0 294h64M96 294h16M368 294h144M0 295h4M5 295h59M96 295h16M368 295h144M0 296h47M48 296h16M96 296h16M368 296h107M476 296h36M0 297h64M96 297h16M368 297h77M446 297h66M0 298h28M29 298h32M62 298h2M96 298h16M368 298h144M0 299h64M96 299h16M368 299h144M0 300h7M8 300h56M96 300h16M368 300h144M0 301h64M96 301h16M368 301h144M0 302h30M31 302h33M96 302h16M368 302h144M0 303h62M63 303h1M96 303h16M368 303h141M510 303h2M0 304h64M96 304h16M368 304h144M0 305h64M96 305h16M368 305h13M382 305h130M0 306h1M2 306h62M96 306h16M368 306h61M430 306h82M0 307h64M96 307h16M368 307h64M433 307h79M0 308h23M24 308h40M96 308h16M368 308h144M0 309h64M96 309h16M368 309h144M0 310h64M96 310h16M368 310h104M473 310h39M0 311h64M96 311h16M368 311h34M403 311h109M0 312h37M38 312h13M52 312h12M96 312h16M368 312h144M0 313h64M96 313h16M368 313h144M0 314h64M96 314h16M368 314h80M449 314h63M0 315h64M96 315h16M368 315h74M443 315h48M492 315h20M0 316h64M96 316h16M368 316h144M0 317h64M96 317h16M368 317h89M458 317h54M0 318h64M96 318h16M369 318h143M0 319h64M96 319h16M368 319h144M0 320h43M44 320h20M96 320h16M368 320h91M460 320h52M0 321h64M96 321h16M368 321h144M0 322h64M96 322h16M368 322h144M0 323h64M96 323h10M107 323h5M368 323h32M401 323h111M0 324h64M96 324h16M368 324h129M498 324h14M0 325h62M63 325h1M96 325h16M256 325h1M368 325h144M0 326h64M96 326h16M368 326h144M0 327h64M96 327h16M368 327h28M397 327h28M426 327h86M0 328h64M96 328h15M368 328h144M0 329h64M96 329h16M368 329h144M0 330h64M96 330h2M99 330h13M368 330h144M0 331h25M26 331h38M96 331h16M368 331h144M0 332h35M36 332h28M96 332h16M368 332h38M407 332h85M493 332h19M0 333h64M96 333h3M100 333h12M368 333h144M0 334h64M96 334h16M369 334h135M505 334h7M0 335h64M96 335h16M368 335h120M489 335h23M0 336h64M96 336h16M368 336h144M0 337h64M96 337h16M368 337h144M0 338h64M96 338h16M368 338h22M391 338h4M396 338h116M0 339h40M41 339h23M96 339h16M368 339h144M0 340h64M96 340h16M368 340h144M0 341h64M96 341h16M368 341h144M0 342h3M4 342h60M96 342h16M368 342h144M0 343h64M96 343h16M368 343h49M418 343h94M0 344h49M50 344h14M96 344h16M368 344h144M0 345h64M96 345h16M368 345h144M0 346h64M96 346h16M368 346h84M453 346h59M0 347h64M96 347h16M368 347h31M400 347h78M479 347h33M0 348h57M58 348h6M96 348h16M368 348h144M0 349h2M3 349h61M96 349h16M368 349h144M0 350h64M96 350h16M368 350h144M0 351h61M62 351h2M96 351h16M368 351h144M0 352h63M368 352h144M0 353h64M368 353h144M0 354h57M58 354h6M368 354h39M408 354h104M0 355h64M368 355h144M0 356h35M36 356h28M368 356h144M0 357h64M368 357h143M0 358h64M368 358h144M0 359h64M368 359h144M0 360h5M6 360h58M368 360h5M374 360h138M0 361h13M14 361h50M368 361h144M0 362h64M368 362h89M458 362h54M0 363h64M368 363h144M0 364h64M368 364h88M457 364h55M0 365h64M368 365h144M0 366h15M16 366h48M368 366h144M0 367h64M368 367h144M0 368h7M8 368h72M256 368h16M368 368h144M0 369h67M68 369h12M256 369h16M368 369h144M0 370h34M35 370h45M256 370h16M368 370h144M0 371h80M256 371h16M317 371h1M368 371h144M0 372h8M9 372h71M256 372h13M270 372h2M368 372h103M472 372h40M0 373h80M256 373h16M368 373h144M0 374h44M45 374h35M256 374h16M368 374h144M0 375h80M256 375h16M368 375h144M0 376h80M256 376h16M368 376h144M0 377h17M18 377h62M256 377h16M368 377h54M423 377h89M0 378h80M256 378h16M368 378h144M0 379h80M256 379h16M368 379h144M0 380h80M256 380h16M368 380h144M0 381h80M256 381h16M368 381h55M424 381h34M459 381h53M0 382h37M38 382h42M256 382h16M368 382h144M0 383h80M256 383h16M368 383h120M489 383h23M0 384h96M400 384h112M0 385h96M400 385h112M0 386h96M400 386h112M0 387h96M400 387h2M403 387h109M0 388h96M400 388h112M0 389h96M400 389h112M0 390h94M95 390h1M400 390h112M0 391h96M400 391h112M0 392h96M400 392h112M0 393h53M54 393h42M400 393h112M0 394h96M400 394h64M465 394h47M0 395h95M400 395h22M424 395h88M0 396h96M400 396h101M502 396h10M0 397h20M21 397h75M400 397h94M495 397h17M0 398h96M400 398h112M0 399h96M400 399h112M0 400h10M11 400h85M416 400h25M442 400h70M0 401h96M416 401h96M0 402h92M93 402h3M416 402h96M0 403h96M416 403h96M0 404h36M37 404h59M416 404h53M470 404h42M0 405h96M416 405h96M0 406h3M4 406h92M416 406h96M0 407h96M416 407h94M511 407h1M0 408h96M416 408h30M447 408h65M0 409h2M3 409h93M416 409h96M0 410h38M39 410h57M416 410h96M0 411h96M416 411h96M0 412h96M416 412h79M496 412h16M0 413h96M416 413h85M502 413h10M0 414h96M416 414h96M0 415h96M416 415h96M0 416h21M22 416h47M70 416h45M116 416h69M186 416h146M333 416h179M0 417h456M457 417h55M0 418h248M249 418h63M313 418h157M471 418h41M0 419h150M151 419h172M324 419h11M336 419h20M357 419h155M0 420h512M0 421h154M155 421h165M321 421h191M0 422h17M18 422h56M75 422h332M408 422h104M0 423h252M253 423h82M336 423h94M431 423h81M0 424h138M139 424h64M204 424h308M0 425h197M198 425h23M222 425h98M321 425h59M381 425h61M443 425h10M454 425h58M0 426h375M376 426h14M391 426h121M0 427h512M0 428h512M0 429h98M99 429h127M227 429h81M309 429h186M496 429h16M0 430h28M29 430h483M0 431h166M167 431h75M243 431h269M0 432h354M355 432h40M396 432h26M423 432h89M0 433h28M29 433h41M71 433h441M0 434h139M140 434h165M306 434h206M0 435h64M65 435h224M290 435h46M337 435h175M0 436h186M187 436h75M263 436h216M480 436h32M0 437h88M89 437h139M229 437h283M0 438h288M289 438h223M0 439h433M434 439h78M0 440h15M16 440h45M62 440h450M0 441h119M120 441h50M171 441h341M0 442h84M85 442h108M194 442h318M0 443h512M0 444h56M57 444h189M247 444h265M0 445h512M0 446h151M152 446h360M0 447h186M187 447h325M0 448h28M29 448h483M0 449h512M0 450h512M0 451h129M130 451h152M283 451h229M0 452h177M178 452h93M272 452h240M0 453h190M191 453h49M241 453h106M348 453h164M0 454h94M95 454h146M242 454h270M0 455h128M129 455h36M166 455h191M358 455h154M0 456h4M5 456h134M140 456h11M152 456h68M221 456h29M251 456h261M0 457h129M130 457h124M255 457h99M355 457h37M393 457h119M0 458h512M0 459h317M318 459h194M0 460h223M224 460h288M0 461h19M20 461h492M0 462h247M248 462h258M507 462h5M0 463h146M147 463h365M0 464h34M35 464h22M58 464h108M167 464h151M319 464h165M485 464h27M0 465h124M125 465h18M144 465h187M332 465h180M0 466h156M157 466h164M322 466h11M334 466h178M0 467h123M124 467h276M401 467h22M424 467h47M472 467h40M0 468h69M70 468h266M337 468h29M367 468h27M395 468h82M478 468h34M0 469h512M0 470h45M46 470h119M166 470h346M0 471h14M15 471h150M166 471h233M400 471h112M0 472h265M266 472h246M0 473h424M425 473h87M0 474h300M301 474h211M0 475h144M145 475h367M0 476h7M8 476h504M0 477h155M156 477h67M224 477h90M315 477h69M385 477h127M0 478h155M156 478h312M469 478h43M0 479h265M266 479h246M0 480h453M454 480h58M0 481h367M368 481h144M0 482h512M0 483h468M469 483h43M0 484h2M3 484h66M70 484h5M76 484h49M126 484h386M0 485h117M118 485h1M120 485h294M415 485h97M0 486h512M0 487h152M153 487h290M444 487h68M0 488h159M160 488h158M319 488h8M328 488h184M0 489h78M79 489h202M282 489h35M318 489h191M510 489h2M0 490h34M35 490h162M198 490h43M242 490h107M350 490h162M0 491h263M264 491h191M456 491h56M0 492h98M99 492h413M0 493h512M0 494h277M278 494h36M315 494h18M334 494h178M0 495h512M0 496h454M455 496h57M0 497h45M46 497h466M0 498h463M464 498h48M0 499h55M56 499h456M0 500h41M42 500h37M80 500h83M164 500h46M211 500h301M0 501h119M120 501h177M298 501h123M422 501h3M426 501h86M0 502h72M73 502h439M0 503h157M158 503h48M207 503h90M298 503h214M0 504h149M150 504h77M228 504h284M0 505h512M0 506h404M405 506h61M467 506h1M469 506h43M0 507h512M0 508h113M114 508h257M372 508h25M398 508h114M0 509h10M11 509h41M53 509h459M0 510h198M199 510h77M277 510h235M0 511h99M100 511h30M131 511h174M306 511h15M322 511h94M417 511h95" />
<path stroke="#fffeff" d="M338 0h1M358 1h1M331 2h1M204 3h1M471 3h1M494 3h1M202 5h1M61 14h1M187 14h2M189 15h1M112 18h1M299 21h1M83 22h1M81 23h1M289 23h1M172 24h1M192 25h1M468 25h1M14 26h1M217 26h1M153 31h1M450 33h1M201 35h1M125 36h1M227 37h1M488 39h1M398 41h1M135 44h1M152 47h1M35 49h1M394 51h1M28 52h1M167 52h1M434 52h1M355 56h1M417 56h1M326 58h1M275 62h1M36 64h1M368 68h1M25 69h1M287 72h1M493 78h1M404 80h1M490 81h1M341 83h1M353 84h1M465 84h1M128 87h1M441 88h1M506 95h1M487 96h1M2 100h1M336 103h1M353 103h1M428 103h1M425 107h1M492 109h1M103 112h1M416 113h1M444 115h1M489 116h1M384 117h1M80 121h1M494 121h1M83 123h1M86 128h1M511 136h1M55 139h1M195 139h1M181 140h1M467 150h1M323 152h1M34 159h1M184 160h1M460 160h1M138 163h1M468 163h1M268 165h1M139 167h1M497 168h1M406 170h1M24 172h1M27 176h1M256 176h16M29 177h1M256 177h16M256 178h16M256 179h16M256 180h16M256 181h16M359 181h1M256 182h16M256 183h16M3 184h1M121 184h1M256 184h14M271 184h1M142 185h1M256 185h16M256 186h16M256 187h16M256 188h10M268 188h4M256 189h10M268 189h4M256 190h16M256 191h16M368 192h16M400 192h16M368 193h16M400 193h16M246 194h2M368 194h16M400 194h16M21 195h1M116 195h1M155 195h1M246 195h2M368 195h16M400 195h16M368 196h16M400 196h16M368 197h16M400 197h16M250 198h1M253 198h1M368 198h16M400 198h16M503 198h1M368 199h16M400 199h16M368 200h8M378 200h6M400 200h16M368 201h8M378 201h6M400 201h16M368 202h16M400 202h16M491 202h1M368 203h16M400 203h16M511 203h1M368 204h16M400 204h16M368 205h16M401 205h15M368 206h16M400 206h16M368 207h16M400 207h16M384 208h16M384 209h16M364 210h2M384 210h16M364 211h2M384 211h16M354 212h1M384 212h16M384 213h16M384 214h16M384 215h16M385 216h15M384 217h16M384 218h16M384 219h16M384 220h16M384 221h16M123 222h1M384 222h16M384 223h16M62 224h1M352 224h16M352 225h16M340 226h2M352 226h16M340 227h2M352 227h16M282 228h2M352 228h16M59 229h1M282 229h2M352 229h16M457 229h1M352 230h16M352 231h16M17 232h1M353 232h15M352 233h16M456 233h1M352 234h1M354 234h10M366 234h2M352 235h12M366 235h2M352 236h16M352 237h16M352 238h15M352 239h16M272 240h16M272 241h7M280 241h8M37 242h1M62 242h1M272 242h16M272 243h16M272 244h16M272 245h16M272 246h16M272 247h16M272 248h6M279 248h9M349 248h1M272 249h16M272 250h16M497 250h1M272 251h16M272 252h16M272 253h16M272 254h16M272 255h5M278 255h10M44 263h1M116 265h1M315 265h1M416 277h1M433 281h1M477 283h1M98 286h1M45 289h1M61 298h1M7 300h1M62 303h1M509 303h1M1 306h1M457 317h1M396 327h1M35 332h1M488 335h1M390 338h1M3 342h1M478 347h1M63 352h1M240 352h16M320 352h16M240 353h16M320 353h13M334 353h2M57 354h1M240 354h16M320 354h16M407 354h1M240 355h16M320 355h16M240 356h16M320 356h16M240 357h5M246 357h10M320 357h16M240 358h16M320 358h16M240 359h16M320 359h16M240 360h16M320 360h16M240 361h16M320 361h16M240 362h16M320 362h16M240 363h16M320 363h16M240 364h16M320 364h16M240 365h16M320 365h16M15 366h1M240 366h16M320 366h16M240 367h16M320 367h16M304 368h16M304 369h16M34 370h1M304 370h16M304 371h13M318 371h2M304 372h16M304 373h16M304 374h16M304 375h16M304 376h16M304 377h16M422 377h1M304 378h1M306 378h14M304 379h16M304 380h16M304 381h16M423 381h1M458 381h1M37 382h1M304 382h16M304 383h16M310 390h1M53 393h1M95 395h1M501 396h1M501 413h1M21 416h1M332 416h1M248 418h1M154 421h1M320 421h1M375 426h1M28 430h1M166 431h1M354 432h1M422 432h1M305 434h1M289 435h1M186 436h1M228 437h1M288 438h1M61 440h1M193 442h1M56 444h1M129 451h1M240 453h1M347 453h1M128 455h1M165 455h1M139 456h1M254 457h1M354 457h1M19 461h1M34 464h1M57 464h1M166 464h1M318 464h1M143 465h1M331 465h1M333 466h1M123 467h1M471 467h1M366 468h1M14 471h1M265 472h1M300 474h1M223 477h1M155 478h1M468 478h1M453 480h1M414 485h1M443 487h1M34 490h1M314 494h1M45 497h1M41 500h1M163 500h1M210 500h1M297 501h1M421 501h1M425 501h1M72 502h1M157 503h1M206 503h1M198 510h1M276 510h1M305 511h1" />
<path stroke="#fffffe" d="M68 1h1M165 1h1M178 1h1M462 1h1M503 1h1M413 3h1M150 5h1M456 5h1M93 7h1M121 7h1M315 7h1M332 8h1M405 10h1M136 12h1M462 13h1M205 14h1M152 17h1M453 18h1M409 20h1M273 24h1M130 25h1M484 28h1M341 30h1M190 31h1M372 31h1M410 33h1M304 34h1M397 34h1M396 35h1M44 37h1M395 37h1M412 39h1M425 41h1M167 44h1M269 45h1M214 49h1M82 52h1M456 57h1M244 58h1M210 59h1M59 61h1M486 63h1M163 65h1M283 69h1M353 69h1M280 71h1M508 71h1M183 73h1M88 74h1M345 74h1M444 74h1M263 75h1M278 75h1M501 75h1M69 78h1M285 78h1M312 79h1M459 79h1M339 83h1M248 84h1M13 88h1M15 88h1M334 88h1M1 90h1M332 91h1M60 92h1M70 98h1M489 98h1M376 108h1M132 110h1M501 111h1M484 114h1M400 115h1M484 116h1M104 117h1M362 119h1M207 124h1M448 124h1M72 128h1M407 129h1M65 133h1M176 134h1M458 134h1M418 135h1M193 138h1M33 139h1M41 141h1M505 143h1M176 144h16M336 144h16M176 145h16M336 145h3M340 145h12M176 146h16M336 146h16M176 147h16M336 147h16M176 148h1M178 148h14M336 148h16M176 149h16M336 149h16M89 150h1M176 150h16M336 150h16M45 151h1M176 151h16M336 151h16M491 151h1M121 152h1M176 152h16M336 152h16M436 152h1M176 153h16M336 153h16M176 154h16M198 154h1M336 154h16M33 155h1M176 155h16M336 155h16M176 156h16M336 156h16M176 157h16M336 157h16M477 157h1M496 157h1M176 158h16M336 158h16M112 159h1M176 159h8M185 159h7M336 159h16M240 160h16M320 160h16M352 160h16M240 161h16M290 161h1M309 161h1M320 161h16M352 161h16M240 162h16M320 162h16M352 162h8M362 162h6M240 163h16M320 163h16M352 163h8M362 163h3M366 163h2M42 164h1M240 164h16M320 164h16M352 164h16M49 165h1M135 165h1M240 165h16M320 165h16M352 165h16M80 166h1M203 166h1M240 166h16M305 166h1M320 166h16M352 166h16M462 166h1M240 167h7M248 167h8M320 167h16M352 167h16M200 168h1M240 168h4M245 168h11M320 168h16M352 168h16M240 169h16M320 169h16M352 169h16M240 170h16M320 170h16M352 170h16M240 171h16M320 171h16M352 171h16M240 172h16M320 172h16M352 172h3M356 172h12M240 173h16M320 173h16M352 173h16M106 174h1M240 174h16M320 174h16M352 174h16M27 175h1M240 175h16M320 175h16M352 175h16M98 176h1M288 176h16M288 177h16M288 178h16M288 179h16M288 180h16M288 181h16M288 182h16M288 183h16M288 184h16M288 185h16M466 185h1M288 186h13M302 186h2M288 187h16M288 188h16M288 189h16M288 190h16M288 191h16M272 192h16M352 192h16M272 193h16M352 193h16M272 194h16M352 194h7M360 194h8M47 195h1M272 195h16M352 195h16M272 196h16M352 196h10M364 196h4M25 197h1M272 197h16M352 197h10M364 197h4M272 198h16M352 198h16M272 199h16M352 199h16M5 200h1M16 200h1M272 200h16M352 200h2M355 200h13M272 201h16M352 201h16M18 202h1M272 202h16M352 202h16M1 203h1M272 203h16M352 203h16M256 204h1M272 204h16M352 204h11M364 204h4M272 205h16M352 205h16M272 206h16M352 206h12M366 206h2M272 207h16M352 207h12M366 207h2M272 208h4M278 208h10M156 209h1M272 209h4M278 209h10M272 210h16M272 211h16M274 212h14M110 213h1M274 213h14M272 214h12M286 214h2M272 215h12M286 215h2M272 216h16M272 217h16M272 218h16M272 219h16M272 220h16M272 221h16M272 222h16M272 223h16M491 223h1M148 224h1M378 232h2M464 232h1M378 233h2M349 239h1M304 240h16M304 241h16M304 242h16M304 243h16M304 244h16M98 245h1M304 245h16M304 246h16M304 247h16M304 248h16M304 249h16M304 250h16M304 251h16M304 252h16M304 253h16M304 254h16M304 255h16M435 256h1M487 256h1M487 262h1M7 269h1M104 270h1M142 271h1M3 278h1M390 278h1M3 285h1M51 287h1M28 298h1M429 306h1M432 307h1M23 308h1M472 310h1M37 312h1M51 312h1M448 314h1M368 318h1M43 320h1M320 320h16M459 320h1M320 321h16M320 322h16M320 323h16M400 323h1M320 324h16M497 324h1M62 325h1M320 325h16M320 326h16M320 327h16M425 327h1M111 328h1M320 328h16M320 329h16M320 330h16M320 331h16M320 332h16M492 332h1M99 333h1M320 333h16M320 334h16M368 334h1M504 334h1M320 335h16M256 336h32M256 337h32M256 338h32M40 339h1M256 339h9M266 339h22M256 340h32M256 341h12M269 341h19M256 342h32M256 343h32M417 343h1M256 344h32M256 345h32M256 346h32M452 346h1M256 347h32M57 348h1M256 348h32M314 348h1M256 349h32M256 350h32M61 351h1M256 351h32M314 354h1M13 361h1M264 362h2M457 362h1M264 363h2M240 368h2M243 368h13M67 369h1M240 369h16M240 370h16M285 370h1M240 371h16M8 372h1M240 372h16M269 372h1M240 373h16M44 374h1M240 374h16M240 375h16M240 376h16M240 377h16M240 378h15M240 379h16M240 380h16M240 381h16M240 382h16M240 383h16M488 383h1M94 390h1M422 395h1M494 397h1M441 400h1M469 404h1M3 406h1M510 407h1M456 417h1M312 418h1M150 419h1M335 419h1M407 422h1M252 423h1M138 424h1M320 425h1M380 425h1M442 425h1M453 425h1M390 426h1M98 429h1M395 432h1M28 433h1M70 433h1M336 435h1M262 436h1M479 436h1M88 437h1M15 440h1M170 441h1M84 442h1M186 447h1M28 448h1M177 452h1M271 452h1M241 454h1M220 456h1M250 456h1M129 457h1M146 463h1M484 464h1M321 466h1M400 467h1M399 471h1M424 473h1M7 476h1M155 477h1M314 477h1M265 479h1M367 481h1M468 483h1M2 484h1M69 484h1M318 488h1M327 488h1M78 489h1M197 490h1M455 491h1M98 492h1M277 494h1M333 494h1M454 496h1M297 503h1M227 504h1M404 506h1M468 506h1M113 508h1M397 508h1M10 509h1M99 511h1M321 511h1M416 511h1" />
<path stroke="#feffff" d="M166 4h1M273 4h1M409 6h1M350 7h1M431 7h1M240 8h1M447 8h1M35 9h1M506 9h1M134 17h1M383 17h1M454 17h1M173 18h1M278 18h1M118 19h1M62 21h1M448 22h1M378 24h1M375 28h1M379 30h1M184 34h1M143 36h1M215 36h1M176 42h1M232 42h1M87 43h1M320 43h1M211 45h1M159 47h1M424 51h1M200 54h1M314 55h1M208 56h1M238 57h1M242 57h1M197 60h1M503 60h1M297 61h1M184 66h1M376 69h1M368 72h1M451 72h1M9 78h1M101 83h1M483 86h1M53 87h1M413 88h1M255 89h1M327 92h1M440 93h1M125 94h1M428 95h1M251 99h1M57 104h1M400 108h1M176 112h16M176 113h16M198 113h1M55 114h1M176 114h16M196 114h1M176 115h16M14 116h1M177 116h15M84 117h1M177 117h15M66 118h1M176 118h14M191 118h1M176 119h16M176 120h16M176 121h16M176 122h16M495 122h1M24 123h1M176 123h16M403 123h1M176 124h16M103 125h1M176 125h16M435 125h1M176 126h16M200 126h2M176 127h16M200 127h2M84 128h1M120 130h1M422 135h1M482 137h1M94 155h1M44 157h1M58 157h1M84 157h1M43 159h1M330 159h1M419 159h1M296 161h1M45 163h1M115 168h1M195 169h1M7 172h1M97 172h1M493 174h1M240 176h16M240 177h16M240 178h16M240 179h16M240 180h16M240 181h16M240 182h16M278 182h2M240 183h16M278 183h2M114 184h1M240 184h6M247 184h9M240 185h16M240 186h16M240 187h16M240 188h16M273 188h1M240 189h16M240 190h16M240 191h16M108 192h1M336 192h16M336 193h16M336 194h16M336 195h16M117 196h1M336 196h12M349 196h3M508 196h1M336 197h16M467 197h1M336 198h16M336 199h16M336 200h16M336 201h16M336 202h16M336 203h16M336 204h16M336 205h16M336 206h16M336 207h16M240 208h16M368 208h16M240 209h16M368 209h16M240 210h16M368 210h16M240 211h16M368 211h14M383 211h1M240 212h16M368 212h16M497 212h1M240 213h16M368 213h16M240 214h16M368 214h16M240 215h16M368 215h16M240 216h16M368 216h16M240 217h1M242 217h14M368 217h16M240 218h16M368 218h6M376 218h8M240 219h16M368 219h6M376 219h8M30 220h1M240 220h16M368 220h16M240 221h16M368 221h16M240 222h16M368 222h16M240 223h16M368 223h16M14 224h1M320 224h16M459 224h1M320 225h16M320 226h16M348 226h2M133 227h1M321 227h15M348 227h2M110 228h1M320 228h16M465 228h1M320 229h16M320 230h16M123 231h1M320 231h9M330 231h6M320 232h16M320 233h16M50 234h1M312 234h1M320 234h16M320 235h16M320 236h16M381 236h1M320 237h16M319 238h17M320 239h16M320 240h16M320 241h16M1 242h1M320 242h16M320 243h12M333 243h3M320 244h16M174 245h1M320 245h16M49 246h1M320 246h11M332 246h4M320 247h16M320 248h16M320 249h16M320 250h16M320 251h14M335 251h1M320 252h16M320 253h16M320 254h16M320 255h16M272 256h16M318 256h1M501 256h1M41 257h1M272 257h16M323 257h1M272 258h16M458 258h1M272 259h16M272 260h16M102 261h1M272 261h16M272 262h16M272 263h16M272 264h16M272 265h2M275 265h13M130 266h1M272 266h16M272 267h16M272 268h6M279 268h9M467 268h1M272 269h16M272 270h16M319 270h1M272 271h16M461 272h1M511 273h1M369 274h1M387 276h1M455 276h1M103 278h1M480 278h1M490 282h1M370 289h1M488 289h1M448 292h1M4 295h1M47 296h1M475 296h1M445 297h1M30 302h1M288 304h16M288 305h16M381 305h1M288 306h16M288 307h16M288 308h16M288 309h16M288 310h16M288 311h16M402 311h1M288 312h16M288 313h16M288 314h16M288 315h16M442 315h1M491 315h1M288 316h16M288 317h16M288 318h16M288 319h16M256 320h6M264 320h8M288 320h16M256 321h6M264 321h8M288 321h16M256 322h16M289 322h15M106 323h1M256 323h16M288 323h16M256 324h16M288 324h16M257 325h15M288 325h16M256 326h16M288 326h16M256 327h16M288 327h16M256 328h16M288 328h16M256 329h16M288 329h16M98 330h1M256 330h16M288 330h16M25 331h1M256 331h16M288 331h16M256 332h16M288 332h16M406 332h1M256 333h16M288 333h16M256 334h16M288 334h16M256 335h16M288 335h16M325 337h1M323 338h1M395 338h1M332 339h1M49 344h1M399 347h1M2 349h1M332 350h1M35 356h1M511 357h1M5 360h1M302 360h2M373 360h1M302 361h2M456 364h1M304 366h1M7 368h1M471 372h1M17 377h1M402 387h1M464 394h1M423 395h1M20 397h1M10 400h1M92 402h1M36 404h1M446 408h1M2 409h1M38 410h1M495 412h1M69 416h1M115 416h1M185 416h1M470 418h1M323 419h1M356 419h1M17 422h1M74 422h1M335 423h1M430 423h1M203 424h1M197 425h1M221 425h1M226 429h1M308 429h1M495 429h1M242 431h1M139 434h1M64 435h1M433 439h1M119 441h1M246 444h1M151 446h1M282 451h1M190 453h1M94 454h1M357 455h1M4 456h1M151 456h1M392 457h1M317 459h1M223 460h1M247 462h1M506 462h1M124 465h1M156 466h1M423 467h1M69 468h1M336 468h1M394 468h1M477 468h1M45 470h1M165 470h1M165 471h1M144 475h1M384 477h1M75 484h1M125 484h1M117 485h1M119 485h1M152 487h1M159 488h1M281 489h1M317 489h1M509 489h1M241 490h1M349 490h1M263 491h1M463 498h1M55 499h1M79 500h1M119 501h1M149 504h1M466 506h1M371 508h1M52 509h1M130 511h1" />
<path stroke="#fffefe" d="M244 49h1M176 128h32M176 129h32M176 130h32M176 131h32M176 132h32M176 133h32M177 134h31M176 135h32M176 136h32M176 137h32M176 138h17M194 138h14M176 139h19M196 139h12M176 140h5M182 140h26M176 141h32M176 142h32M176 143h32M272 144h16M272 145h16M272 146h16M272 147h16M177 148h1M272 148h16M272 149h16M272 150h16M272 151h16M272 152h16M299 152h1M272 153h16M301 153h1M272 154h16M272 155h16M272 156h16M272 157h16M272 158h16M272 159h16M278 165h1M244 168h1M355 172h1M352 176h16M352 177h16M352 178h16M352 179h16M352 180h16M352 181h7M360 181h8M352 182h16M352 183h16M270 184h1M352 184h16M352 185h16M301 186h1M352 186h16M352 187h16M352 188h16M352 189h16M352 190h16M352 191h16M384 192h16M384 193h16M359 194h1M384 194h16M384 195h16M362 196h2M384 196h16M362 197h2M384 197h16M384 198h16M384 199h16M384 200h16M384 201h16M384 202h16M384 203h15M384 204h16M384 205h16M384 206h8M393 206h7M384 207h16M336 208h16M336 209h16M258 210h1M336 210h16M336 211h16M272 212h2M336 212h16M272 213h2M336 213h16M284 214h2M336 214h16M284 215h2M336 215h16M336 216h16M336 217h16M336 218h16M336 219h16M336 220h16M336 221h16M336 222h16M336 223h16M245 224h1M353 234h1M364 234h2M364 235h2M367 238h1M279 241h1M359 251h1M304 336h16M304 337h16M292 338h2M304 338h16M292 339h2M304 339h16M304 340h16M304 341h16M304 342h16M304 343h16M304 344h16M304 345h16M304 346h16M304 347h16M304 348h10M315 348h5M304 349h16M304 350h16M304 351h16M256 352h16M256 353h16M256 354h16M256 355h16M256 356h16M245 357h1M256 357h16M256 358h16M256 359h16M256 360h16M256 361h16M256 362h8M266 362h6M256 363h8M266 363h6M256 364h16M256 365h16M256 366h16M256 367h16M242 368h1M292 376h2M292 377h2" />
<path stroke="#010000" d="M144 80h2M147 80h13M192 80h32M288 80h16M144 81h16M192 81h4M197 81h27M288 81h16M144 82h16M192 82h32M288 82h16M144 83h16M192 83h32M288 83h16M144 84h16M192 84h32M288 84h16M144 85h16M192 85h32M288 85h16M144 86h16M192 86h32M288 86h16M144 87h16M192 87h32M288 87h16M144 88h16M192 88h32M270 88h1M288 88h16M144 89h16M192 89h32M288 89h13M302 89h2M144 90h16M192 90h32M288 90h16M144 91h16M192 91h32M288 91h16M144 92h16M192 92h32M288 92h16M144 93h16M192 93h23M216 93h8M288 93h16M144 94h11M156 94h4M192 94h32M288 94h16M144 95h16M192 95h32M288 95h16M144 96h16M224 96h16M283 96h1M304 96h16M144 97h16M224 97h16M304 97h16M145 98h15M224 98h8M233 98h7M304 98h16M144 99h16M224 99h15M304 99h16M144 100h16M177 100h1M224 100h16M304 100h16M144 101h16M224 101h16M304 101h16M144 102h16M224 102h16M304 102h16M144 103h16M224 103h16M304 103h16M144 104h9M154 104h6M224 104h16M304 104h16M144 105h16M224 105h16M304 105h16M144 106h16M224 106h16M304 106h16M144 107h16M224 107h16M271 107h1M304 107h16M144 108h16M224 108h16M304 108h16M144 109h16M224 109h16M304 109h16M144 110h16M170 110h1M224 110h16M304 110h16M144 111h16M224 111h16M304 111h16M250 122h1M346 130h2M346 131h2M289 135h1M292 141h1M128 158h1M208 160h16M368 160h16M208 161h16M368 161h16M208 162h16M368 162h16M208 163h16M368 163h16M208 164h16M368 164h16M208 165h16M368 165h16M208 166h16M368 166h16M153 167h1M208 167h16M368 167h16M208 168h16M368 168h16M208 169h16M368 169h16M208 170h16M368 170h16M208 171h16M368 171h16M208 172h16M368 172h16M208 173h16M368 173h16M208 174h16M368 174h16M208 175h16M368 175h16M432 176h16M432 177h16M432 178h16M432 179h16M432 180h16M432 181h16M228 182h1M432 182h16M432 183h16M226 184h2M432 184h16M226 185h2M432 185h16M432 186h16M432 187h5M438 187h10M432 188h16M432 189h16M432 190h16M432 191h16M304 192h16M304 193h16M304 194h16M304 195h16M304 196h16M304 197h16M304 198h16M304 199h16M304 200h16M304 201h16M304 202h16M304 203h16M304 204h16M304 205h16M304 206h16M304 207h16M176 208h16M176 209h16M176 210h16M176 211h16M176 212h16M176 213h16M176 214h16M176 215h16M176 216h16M176 217h16M176 218h16M176 219h16M176 220h16M176 221h16M176 222h16M176 223h16M233 223h1M64 224h16M207 224h33M64 225h16M208 225h32M64 226h16M208 226h32M64 227h16M208 227h32M64 228h16M208 228h32M64 229h16M208 229h32M64 230h16M208 230h12M221 230h19M64 231h16M208 231h32M64 232h16M208 232h32M64 233h16M208 233h32M64 234h16M208 234h15M224 234h16M64 235h16M208 235h32M64 236h16M208 236h32M64 237h16M208 237h32M64 238h16M208 238h32M64 239h16M208 239h5M214 239h26M64 240h6M72 240h8M226 240h1M64 241h6M72 241h8M64 242h8M74 242h6M64 243h8M74 243h6M64 244h16M64 245h16M64 246h16M64 247h16M64 248h16M64 249h16M64 250h16M64 251h16M64 252h10M75 252h5M64 253h16M234 253h1M64 254h16M64 255h16M64 256h16M145 256h1M64 257h16M64 258h16M64 259h16M64 260h16M64 261h16M64 262h16M64 263h12M77 263h3M64 264h16M64 265h16M64 266h16M64 267h16M64 268h16M425 268h1M64 269h16M64 270h16M64 271h16M162 282h2M162 283h2M162 284h2M162 285h2M64 288h3M68 288h28M160 288h16M64 289h32M160 289h16M64 290h32M160 290h16M64 291h32M160 291h16M64 292h32M160 292h16M64 293h32M160 293h16M64 294h14M79 294h17M160 294h16M64 295h32M160 295h16M64 296h9M74 296h22M160 296h16M64 297h32M160 297h16M64 298h32M160 298h16M64 299h32M160 299h16M64 300h32M160 300h16M64 301h32M160 301h6M167 301h9M64 302h32M160 302h16M64 303h32M160 303h16M64 304h16M224 304h16M272 304h16M320 304h16M64 305h16M224 305h16M272 305h16M320 305h16M64 306h16M224 306h16M272 306h16M320 306h16M64 307h16M224 307h4M229 307h11M272 307h16M320 307h1M322 307h14M64 308h16M224 308h9M234 308h6M272 308h16M320 308h16M64 309h16M224 309h16M272 309h16M320 309h16M64 310h3M68 310h12M224 310h16M272 310h16M320 310h16M64 311h16M224 311h16M272 311h16M320 311h16M64 312h13M78 312h2M224 312h16M272 312h6M279 312h9M320 312h16M64 313h16M224 313h16M272 313h16M320 313h16M64 314h16M224 314h16M272 314h16M320 314h16M64 315h16M224 315h16M272 315h16M320 315h16M64 316h16M224 316h16M271 316h17M320 316h16M64 317h16M224 317h16M272 317h16M320 317h16M64 318h5M70 318h10M225 318h15M272 318h16M320 318h16M64 319h16M224 319h16M272 319h16M320 319h16M138 320h1M128 331h1M80 336h16M80 337h16M80 338h16M80 339h16M80 340h16M80 341h16M80 342h16M80 343h16M80 344h16M80 345h16M80 346h16M80 347h16M80 348h16M80 349h4M85 349h11M80 350h16M80 351h16M192 352h4M197 352h1M200 352h8M192 353h5M200 353h8M192 354h16M192 355h16M192 356h16M192 357h16M192 358h8M202 358h6M192 359h8M202 359h6M192 360h16M192 361h16M192 362h16M192 363h16M193 364h15M192 365h16M192 366h16M192 367h16M229 368h1M233 381h1M288 384h16M288 385h16M288 386h16M288 387h16M288 388h16M341 388h1M288 389h16M288 390h16M288 391h16M288 392h16M288 393h16M288 394h16M288 395h16M288 396h16M288 397h16M132 398h2M288 398h16M132 399h2M288 399h16M192 400h16M256 400h16M288 400h14M303 400h1M400 400h16M192 401h5M198 401h10M256 401h16M288 401h16M400 401h16M192 402h16M256 402h16M288 402h16M400 402h16M192 403h4M197 403h11M256 403h16M288 403h16M400 403h16M192 404h16M256 404h16M288 404h16M400 404h16M192 405h16M256 405h16M288 405h16M400 405h16M192 406h16M256 406h16M288 406h16M364 406h1M400 406h16M192 407h16M256 407h16M288 407h16M400 407h16M192 408h16M256 408h16M288 408h16M400 408h16M192 409h16M256 409h16M288 409h16M400 409h16M192 410h16M256 410h16M288 410h16M400 410h16M192 411h16M256 411h16M288 411h16M400 411h16M192 412h16M256 412h13M270 412h2M288 412h16M400 412h16M192 413h16M256 413h16M288 413h16M400 413h16M192 414h16M256 414h16M288 414h4M293 414h11M390 414h1M400 414h16M192 415h16M236 415h1M256 415h16M288 415h16M400 415h16" />
<path stroke="#010001" d="M146 80h1M285 83h1M175 86h1M301 89h1M215 93h1M176 96h16M176 97h16M176 98h4M182 98h10M232 98h1M176 99h4M182 99h10M239 99h1M176 100h1M178 100h14M176 101h16M176 102h5M182 102h10M176 103h16M196 103h1M176 104h16M176 105h16M176 106h16M176 107h16M176 108h16M176 109h16M176 110h16M176 111h16M240 112h15M288 112h17M306 112h14M336 112h16M240 113h16M288 113h32M336 113h16M240 114h16M288 114h32M336 114h16M240 115h16M288 115h32M336 115h16M240 116h16M288 116h32M337 116h15M240 117h16M288 117h32M336 117h16M240 118h16M288 118h32M336 118h16M240 119h16M288 119h32M336 119h16M240 120h16M288 120h32M336 120h14M351 120h1M240 121h16M288 121h32M336 121h16M240 122h10M251 122h5M288 122h32M336 122h16M240 123h16M288 123h32M336 123h16M240 124h16M288 124h32M336 124h16M240 125h16M288 125h32M336 125h16M240 126h16M273 126h1M288 126h8M297 126h23M336 126h16M240 127h16M288 127h32M336 127h16M128 128h16M128 129h16M128 130h16M128 131h16M128 132h16M128 133h16M128 134h16M128 135h16M128 136h16M128 137h16M224 137h1M128 138h16M128 139h16M128 140h16M128 141h16M128 142h16M271 142h1M128 143h16M144 144h16M144 145h16M144 146h16M144 147h16M144 148h16M144 149h16M144 150h16M144 151h16M144 152h16M144 153h16M144 154h16M144 155h16M144 156h16M144 157h16M144 158h16M144 159h16M144 160h16M144 161h16M144 162h16M144 163h16M144 164h16M144 165h16M144 166h16M144 167h9M154 167h6M171 167h1M144 168h16M144 169h16M144 170h16M144 171h16M144 172h16M144 173h16M144 174h13M158 174h2M144 175h16M160 176h16M160 177h16M160 178h16M160 179h16M160 180h16M160 181h16M160 182h16M160 183h16M160 184h16M160 185h16M160 186h16M160 187h16M368 187h1M160 188h16M160 189h16M458 189h1M160 190h16M160 191h16M51 203h1M305 214h1M315 220h1M192 224h15M192 225h16M192 226h16M429 226h1M192 227h16M192 228h16M192 229h16M192 230h16M220 230h1M192 231h16M192 232h16M192 233h16M183 234h1M192 234h16M192 235h16M192 236h16M192 237h16M192 238h16M192 239h16M213 239h1M72 242h2M72 243h2M402 252h2M402 253h2M185 254h1M408 255h1M144 256h1M146 256h14M384 256h16M144 257h16M384 257h16M144 258h16M384 258h16M144 259h16M384 259h16M144 260h16M384 260h16M144 261h16M384 261h16M144 262h16M384 262h16M144 263h16M384 263h16M144 264h16M384 264h16M144 265h16M384 265h16M144 266h16M384 266h16M144 267h16M384 267h16M144 268h16M384 268h16M144 269h16M384 269h16M144 270h16M384 270h16M144 271h16M384 271h16M224 272h16M224 273h16M224 274h16M224 275h16M224 276h16M224 277h16M224 278h16M224 279h16M224 280h16M224 281h16M180 282h1M224 282h2M228 282h12M224 283h2M228 283h12M224 284h16M224 285h16M224 286h16M224 287h16M226 292h2M226 293h2M78 294h1M134 305h1M233 308h1M67 310h1M278 312h1M224 318h1M112 320h26M139 320h5M160 320h16M112 321h32M160 321h16M112 322h32M160 322h16M112 323h32M160 323h16M112 324h32M160 324h16M112 325h1M114 325h30M160 325h16M112 326h32M160 326h16M112 327h23M136 327h8M160 327h16M112 328h32M160 328h16M113 329h31M160 329h16M112 330h32M160 330h16M112 331h16M129 331h15M160 331h16M112 332h32M149 332h1M160 332h16M113 333h31M160 333h16M112 334h4M117 334h27M160 334h16M112 335h32M160 335h16M200 340h2M192 341h1M200 341h2M136 350h1M96 352h16M208 352h16M96 353h16M208 353h16M96 354h16M208 354h16M96 355h16M208 355h16M96 356h16M208 356h16M96 357h16M208 357h16M96 358h16M208 358h16M96 359h16M208 359h16M96 360h16M208 360h16M96 361h16M208 361h16M96 362h16M208 362h3M212 362h2M216 362h8M96 363h16M208 363h6M216 363h8M96 364h9M106 364h6M208 364h16M96 365h16M208 365h16M96 366h16M208 366h16M96 367h16M208 367h16M109 377h1M160 384h16M272 384h16M160 385h16M272 385h16M160 386h16M272 386h12M286 386h2M160 387h16M272 387h12M286 387h2M160 388h16M272 388h16M160 389h16M272 389h16M160 390h16M233 390h1M272 390h16M160 391h16M272 391h16M160 392h16M272 392h16M160 393h16M272 393h16M160 394h16M272 394h16M160 395h16M272 395h16M160 396h16M272 396h16M160 397h6M167 397h9M272 397h16M160 398h16M272 398h16M160 399h16M272 399h16M208 400h32M278 400h1M208 401h32M208 402h32M208 403h32M379 403h1M208 404h32M208 405h32M208 406h32M208 407h32M208 408h32M208 409h32M208 410h32M208 411h32M208 412h32M269 412h1M208 413h32M208 414h32M208 415h28M237 415h3" />
<path stroke="#010101" d="M160 80h16M160 81h16M160 82h16M160 83h16M160 84h16M160 85h16M160 86h15M233 86h1M160 87h16M160 88h16M160 89h16M160 90h16M160 91h16M160 92h16M160 93h16M160 94h16M234 94h2M160 95h16M234 95h2M192 96h16M294 96h2M192 97h16M294 97h2M192 98h16M192 99h16M192 100h16M192 101h16M181 102h1M192 102h16M192 103h4M197 103h11M209 103h1M192 104h16M192 105h16M192 106h16M192 107h16M192 108h16M192 109h16M192 110h16M192 111h16M208 112h16M272 112h16M305 112h1M208 113h16M272 113h16M208 114h16M272 114h16M132 115h1M208 115h16M272 115h16M208 116h16M272 116h16M208 117h16M272 117h16M208 118h16M272 118h10M284 118h4M208 119h16M272 119h10M284 119h4M208 120h16M272 120h16M350 120h1M208 121h16M272 121h16M208 122h16M272 122h16M208 123h16M272 123h16M208 124h16M272 124h16M208 125h16M272 125h16M208 126h16M272 126h1M274 126h14M208 127h16M272 127h16M352 128h16M352 129h16M352 130h16M352 131h16M352 132h16M352 133h16M352 134h16M327 135h1M352 135h16M352 136h16M352 137h16M352 138h16M352 139h16M352 140h16M352 141h16M352 142h16M352 143h16M208 144h14M223 144h1M208 145h16M208 146h16M208 147h16M208 148h16M208 149h16M208 150h16M208 151h16M208 152h16M208 153h16M208 154h16M208 155h16M139 156h1M208 156h16M208 157h16M208 158h16M208 159h16M157 174h1M48 176h16M192 176h16M448 176h16M48 177h16M192 177h11M204 177h4M319 177h1M448 177h16M48 178h16M192 178h16M448 178h16M48 179h16M192 179h16M448 179h16M48 180h16M192 180h16M393 180h1M448 180h16M48 181h16M192 181h16M448 181h16M48 182h4M53 182h11M192 182h16M448 182h16M48 183h16M192 183h16M448 183h16M48 184h16M192 184h16M448 184h16M48 185h16M192 185h16M448 185h16M48 186h16M192 186h16M448 186h16M48 187h16M192 187h16M448 187h16M48 188h16M192 188h16M448 188h16M48 189h16M192 189h16M448 189h10M459 189h5M48 190h16M192 190h16M408 190h2M448 190h16M48 191h16M192 191h16M408 191h2M448 191h16M80 192h16M80 193h16M80 194h16M80 195h16M80 196h16M80 197h16M80 198h16M80 199h16M80 200h16M80 201h16M80 202h16M80 203h16M80 204h16M80 205h16M80 206h16M80 207h16M208 208h16M208 209h16M208 210h16M208 211h16M208 212h16M208 213h16M208 214h16M208 215h16M208 216h16M208 217h16M208 218h16M208 219h16M208 220h16M440 220h2M208 221h16M440 221h2M208 222h16M208 223h16M400 224h16M432 224h16M400 225h16M432 225h16M400 226h16M432 226h16M400 227h16M432 227h16M400 228h16M432 228h16M400 229h16M432 229h11M444 229h4M400 230h16M432 230h16M400 231h16M432 231h16M400 232h16M432 232h16M400 233h16M432 233h10M443 233h5M400 234h16M432 234h16M400 235h16M432 235h16M400 236h16M432 236h16M400 237h16M432 237h16M400 238h16M432 238h16M400 239h16M432 239h16M176 240h16M176 241h16M204 241h1M176 242h16M219 242h1M176 243h16M176 244h16M176 245h16M176 246h16M176 247h16M176 248h16M176 249h16M176 250h16M207 250h1M176 251h16M176 252h16M176 253h16M176 254h9M186 254h6M176 255h16M208 270h1M221 271h1M64 272h16M176 272h16M64 273h16M176 273h16M64 274h16M176 274h16M64 275h16M176 275h16M64 276h16M176 276h16M64 277h16M176 277h16M64 278h3M68 278h12M176 278h15M64 279h16M176 279h5M182 279h10M64 280h16M176 280h16M64 281h16M176 281h16M64 282h16M176 282h4M181 282h11M226 282h2M64 283h16M176 283h16M226 283h2M64 284h16M176 284h16M64 285h16M176 285h16M64 286h16M176 286h16M64 287h16M176 287h16M224 288h16M224 289h16M224 290h16M224 291h16M224 292h2M228 292h12M224 293h2M228 293h12M224 294h16M224 295h16M224 296h16M224 297h16M224 298h16M224 299h16M224 300h16M224 301h16M224 302h16M224 303h16M128 304h16M87 305h1M128 305h6M135 305h9M128 306h16M128 307h16M360 307h1M128 308h16M128 309h16M128 310h16M128 311h16M128 312h16M212 312h2M128 313h16M212 313h2M128 314h16M344 314h1M128 315h16M128 316h16M128 317h4M133 317h11M87 318h1M128 318h16M128 319h16M144 320h16M352 320h16M144 321h9M154 321h6M352 321h16M80 322h1M144 322h16M352 322h16M144 323h16M352 323h16M144 324h7M152 324h8M352 324h16M113 325h1M144 325h16M352 325h16M144 326h16M352 326h16M144 327h14M159 327h1M352 327h16M144 328h16M352 328h16M144 329h16M352 329h16M144 330h16M352 330h16M144 331h16M352 331h16M144 332h5M152 332h7M352 332h16M144 333h6M152 333h8M352 333h16M144 334h16M352 334h16M144 335h15M352 335h16M192 336h16M192 337h16M192 338h16M192 339h16M66 340h2M192 340h8M202 340h6M66 341h2M193 341h7M202 341h6M192 342h16M192 343h16M192 344h2M195 344h13M192 345h16M192 346h4M197 346h11M192 347h16M192 348h16M150 349h1M192 349h16M192 350h16M192 351h16M128 352h16M128 353h16M128 354h16M128 355h16M128 356h16M128 357h16M129 358h15M128 359h16M128 360h10M140 360h4M128 361h1M130 361h8M140 361h4M128 362h16M211 362h1M214 362h2M128 363h16M152 363h1M214 363h2M105 364h1M128 364h16M128 365h16M128 366h16M128 367h16M96 368h32M96 369h32M96 370h32M96 371h32M96 372h32M96 373h32M96 374h32M96 375h32M96 376h17M114 376h14M96 377h13M110 377h18M96 378h32M96 379h32M96 380h32M96 381h32M96 382h32M96 383h32M284 386h2M284 387h2M393 388h1M166 397h1M368 400h16M368 401h16M242 402h2M368 402h16M242 403h2M368 403h11M380 403h4M368 404h16M368 405h16M368 406h16M368 407h16M368 408h16M368 409h16M368 410h16M368 411h16M368 412h16M368 413h16M368 414h16M368 415h16" />
<path stroke="#000100" d="M176 80h16M176 81h16M176 82h16M176 83h16M176 84h16M177 85h15M176 86h16M176 87h16M176 88h16M176 89h16M176 90h16M176 91h16M176 92h5M182 92h10M176 93h16M176 94h16M176 95h6M183 95h9M174 98h1M268 98h1M256 101h1M219 106h1M280 109h1M144 112h16M256 112h16M144 113h16M256 113h16M144 114h16M256 114h16M144 115h16M256 115h16M144 116h16M256 116h16M144 117h12M157 117h3M256 117h16M144 118h16M256 118h16M144 119h16M256 119h16M144 120h1M146 120h14M256 120h16M144 121h16M256 121h16M144 122h3M148 122h12M256 122h16M144 123h16M256 123h16M144 124h16M256 124h16M144 125h13M158 125h2M256 125h16M144 126h16M256 126h16M144 127h1M146 127h14M256 127h16M208 128h16M240 128h16M208 129h16M240 129h2M243 129h13M208 130h16M240 130h16M208 131h16M240 131h3M244 131h12M208 132h16M240 132h16M208 133h16M240 133h16M208 134h16M240 134h16M377 134h1M208 135h16M240 135h16M208 136h16M240 136h16M208 137h16M240 137h16M208 138h16M240 138h16M314 138h1M208 139h16M241 139h15M346 139h1M208 140h16M240 140h16M208 141h16M240 141h16M208 142h16M240 142h16M317 142h1M208 143h16M240 143h16M384 144h16M384 145h16M384 146h12M398 146h2M384 147h12M398 147h2M384 148h16M384 149h16M384 150h16M384 151h16M384 152h16M384 153h16M384 154h16M384 155h16M232 156h1M384 156h16M224 157h1M384 157h16M384 158h16M167 159h1M384 159h16M384 160h16M384 161h16M384 162h16M384 163h16M384 164h16M384 165h16M384 166h16M384 167h16M384 168h16M384 169h4M389 169h11M384 170h1M386 170h14M384 171h16M384 172h16M384 173h16M384 174h16M384 175h16M64 176h16M389 176h1M64 177h16M211 177h1M64 178h16M64 179h16M334 179h1M64 180h16M332 180h2M64 181h16M333 181h1M64 182h16M212 182h2M64 183h16M212 183h2M64 184h11M76 184h4M426 184h1M64 185h16M64 186h16M64 187h16M64 188h16M64 189h16M64 190h16M64 191h16M64 192h16M209 192h15M64 193h16M208 193h16M64 194h14M208 194h16M64 195h14M208 195h16M64 196h16M208 196h16M64 197h16M208 197h16M64 198h16M208 198h16M64 199h16M208 199h16M64 200h7M72 200h8M208 200h16M64 201h16M208 201h16M64 202h16M208 202h16M64 203h16M208 203h16M64 204h16M208 204h16M64 205h16M208 205h16M64 206h16M208 206h16M226 206h2M64 207h16M208 207h16M226 207h2M235 209h1M239 218h1M449 221h1M444 222h2M444 223h2M222 246h2M222 247h2M234 250h1M224 256h16M352 256h16M400 256h16M224 257h16M352 257h16M400 257h14M415 257h1M224 258h16M352 258h16M400 258h16M224 259h16M352 259h16M400 259h16M224 260h16M352 260h16M400 260h16M430 260h1M224 261h16M352 261h16M400 261h16M180 262h2M224 262h16M352 262h16M400 262h16M180 263h2M224 263h16M352 263h16M400 263h16M224 264h16M352 264h16M400 264h14M212 265h1M224 265h2M227 265h13M352 265h16M400 265h14M224 266h16M352 266h16M400 266h13M414 266h2M224 267h16M352 267h16M400 267h16M189 268h1M224 268h16M352 268h16M400 268h16M224 269h16M352 269h16M400 269h16M224 270h16M352 270h16M400 270h16M224 271h16M352 271h16M400 271h16M80 272h16M352 272h16M80 273h12M93 273h3M216 273h1M352 273h4M357 273h1M359 273h9M80 274h16M352 274h16M80 275h16M352 275h16M80 276h16M352 276h16M80 277h16M352 277h16M80 278h10M91 278h5M203 278h1M352 278h9M362 278h2M365 278h3M80 279h16M352 279h16M80 280h16M352 280h11M364 280h4M80 281h16M352 281h16M80 282h3M84 282h12M354 282h14M80 283h16M354 283h14M80 284h16M352 284h16M80 285h16M352 285h9M362 285h6M80 286h16M352 286h16M80 287h16M167 287h1M352 287h16M144 288h16M176 288h16M208 288h16M336 288h1M338 288h30M144 289h16M176 289h16M208 289h16M336 289h32M144 290h16M176 290h16M208 290h16M336 290h32M144 291h16M176 291h13M190 291h2M208 291h16M336 291h32M144 292h2M148 292h8M158 292h2M176 292h16M208 292h16M336 292h32M144 293h2M148 293h8M158 293h2M176 293h16M208 293h16M336 293h32M144 294h16M176 294h16M208 294h16M336 294h28M366 294h2M144 295h16M176 295h16M208 295h16M336 295h28M366 295h2M144 296h16M176 296h15M208 296h16M336 296h18M355 296h13M140 297h1M144 297h16M176 297h16M208 297h16M336 297h32M144 298h16M176 298h16M208 298h3M212 298h12M336 298h32M144 299h16M176 299h16M208 299h16M336 299h32M144 300h16M176 300h2M179 300h13M208 300h16M336 300h32M144 301h10M155 301h5M176 301h16M208 301h16M336 301h32M144 302h16M176 302h16M208 302h16M336 302h32M144 303h16M176 303h16M208 303h16M336 303h32M112 304h16M144 304h32M112 305h4M117 305h11M144 305h32M112 306h16M144 306h32M112 307h16M144 307h32M112 308h16M144 308h32M112 309h12M125 309h3M144 309h32M112 310h16M144 310h32M188 310h1M112 311h3M116 311h12M144 311h32M112 312h16M144 312h8M153 312h23M112 313h16M144 313h32M112 314h16M144 314h24M169 314h7M268 314h1M112 315h16M144 315h32M347 315h1M112 316h16M144 316h31M112 317h16M144 317h32M268 317h1M112 318h16M144 318h32M112 319h16M144 319h32M64 320h16M176 320h16M336 320h16M64 321h10M75 321h5M176 321h16M336 321h16M64 322h16M176 322h16M336 322h16M64 323h16M176 323h16M336 323h16M64 324h16M176 324h16M336 324h16M64 325h16M176 325h16M336 325h16M64 326h16M90 326h1M176 326h16M336 326h16M64 327h16M176 327h16M336 327h16M64 328h16M176 328h16M336 328h16M64 329h16M176 329h16M336 329h16M64 330h16M176 330h16M336 330h16M64 331h16M176 331h16M336 331h16M64 332h16M176 332h16M336 332h16M64 333h16M176 333h16M336 333h16M64 334h16M176 334h16M336 334h3M340 334h12M64 335h16M176 335h16M336 335h12M349 335h3M160 336h16M352 336h16M160 337h16M352 337h16M160 338h16M352 338h16M160 339h16M352 339h16M160 340h16M352 340h16M160 341h16M352 341h16M160 342h16M352 342h16M160 343h16M352 343h16M160 344h16M352 344h16M160 345h16M352 345h16M160 346h16M352 346h10M364 346h4M160 347h16M352 347h10M364 347h4M160 348h16M352 348h16M160 349h16M352 349h16M160 350h16M352 350h16M160 351h16M352 351h16M176 352h16M176 353h16M176 354h16M176 355h16M176 356h16M176 357h16M176 358h5M182 358h10M176 359h16M176 360h16M176 361h16M176 362h16M176 363h16M176 364h16M176 365h16M176 366h16M176 367h16M160 368h16M336 368h16M160 369h16M336 369h4M341 369h11M160 370h16M232 370h1M239 370h1M336 370h5M342 370h10M160 371h16M336 371h16M160 372h9M170 372h6M336 372h16M160 373h16M336 373h16M160 374h16M234 374h1M336 374h16M160 375h16M224 375h1M336 375h16M160 376h16M219 376h1M336 376h16M358 376h1M160 377h16M336 377h16M160 378h16M336 378h16M160 379h5M166 379h10M336 379h3M340 379h12M160 380h16M336 380h16M160 381h16M336 381h16M160 382h16M336 382h16M160 383h16M336 383h16M208 384h9M218 384h6M243 384h1M208 385h16M208 386h7M216 386h8M208 387h16M208 388h16M208 389h16M208 390h16M208 391h16M208 392h16M208 393h16M208 394h16M180 395h1M208 395h16M395 395h1M208 396h16M336 396h2M208 397h16M336 397h2M208 398h16M208 399h16M339 399h1M143 400h1M339 406h1" />
<path stroke="#010100" d="M224 80h16M196 81h1M224 81h16M224 82h16M224 83h16M224 84h16M224 85h16M224 86h9M234 86h6M224 87h16M224 88h16M224 89h16M224 90h16M224 91h16M224 92h16M224 93h16M155 94h1M224 94h10M236 94h4M182 95h1M224 95h10M236 95h4M288 96h6M296 96h8M288 97h6M296 97h8M144 98h1M288 98h16M288 99h16M288 100h16M288 101h16M288 102h16M288 103h16M153 104h1M288 104h16M288 105h16M288 106h16M288 107h16M288 108h16M288 109h16M288 110h16M288 111h16M156 117h1M288 128h16M320 128h16M242 129h1M288 129h16M320 129h16M288 130h16M320 130h16M288 131h16M320 131h16M288 132h16M320 132h16M288 133h16M320 133h16M288 134h16M320 134h16M288 135h1M290 135h14M320 135h7M328 135h8M288 136h16M320 136h16M288 137h16M320 137h16M288 138h16M320 138h16M288 139h16M320 139h16M288 140h16M320 140h16M288 141h4M293 141h11M320 141h16M288 142h16M320 142h16M288 143h16M320 143h16M128 144h16M222 144h1M128 145h16M128 146h16M128 147h16M128 148h16M128 149h16M128 150h16M128 151h16M128 152h16M128 153h16M128 154h16M128 155h16M128 156h11M140 156h4M128 157h16M129 158h15M128 159h16M388 169h1M385 170h1M320 176h16M400 176h32M320 177h16M400 177h32M320 178h16M400 178h32M320 179h14M335 179h1M400 179h32M320 180h12M334 180h2M400 180h32M320 181h12M334 181h2M400 181h32M52 182h1M320 182h16M400 182h32M320 183h16M400 183h32M320 184h16M400 184h26M427 184h5M320 185h16M400 185h32M320 186h16M400 186h32M320 187h16M400 187h32M437 187h1M320 188h16M400 188h32M320 189h16M400 189h32M320 190h16M400 190h8M410 190h22M320 191h16M400 191h8M410 191h22M71 200h1M80 208h16M80 209h16M80 210h16M80 211h16M80 212h16M80 213h16M80 214h16M80 215h16M80 216h16M80 217h16M80 218h16M80 219h16M80 220h16M80 221h16M80 222h16M80 223h16M442 233h1M223 234h1M70 240h2M70 241h2M74 252h1M80 256h16M336 256h16M416 256h16M80 257h16M336 257h16M416 257h16M80 258h16M336 258h16M416 258h16M80 259h16M336 259h16M416 259h16M80 260h16M336 260h16M416 260h14M431 260h1M80 261h16M336 261h16M416 261h16M80 262h16M336 262h16M416 262h16M76 263h1M80 263h16M336 263h16M416 263h16M80 264h16M336 264h16M416 264h16M80 265h16M336 265h16M416 265h16M80 266h16M336 266h16M416 266h16M80 267h16M336 267h16M416 267h16M80 268h16M336 268h16M416 268h9M426 268h6M80 269h16M336 269h16M416 269h16M80 270h16M336 270h16M416 270h16M80 271h16M336 271h16M416 271h16M208 272h16M208 273h8M217 273h7M356 273h1M208 274h16M208 275h16M208 276h16M208 277h16M67 278h1M208 278h16M208 279h16M208 280h16M208 281h16M208 282h16M208 283h16M208 284h16M208 285h16M361 285h1M208 286h16M208 287h16M67 288h1M128 288h16M128 289h16M128 290h16M128 291h16M189 291h1M128 292h16M156 292h2M128 293h16M156 293h2M128 294h16M128 295h16M128 296h16M191 296h1M128 297h12M141 297h3M128 298h16M128 299h16M128 300h16M178 300h1M128 301h16M128 302h16M128 303h16M228 307h1M175 316h1M132 317h1M74 321h1M158 327h1M159 332h1M194 344h1M129 361h1M128 368h16M224 368h5M230 368h10M128 369h16M224 369h16M128 370h16M224 370h8M233 370h6M128 371h16M224 371h16M128 372h16M224 372h16M128 373h16M224 373h16M128 374h16M224 374h10M235 374h5M128 375h16M225 375h15M113 376h1M128 376h16M224 376h16M128 377h16M224 377h16M128 378h16M224 378h16M128 379h16M224 379h16M128 380h16M224 380h16M128 381h16M224 381h9M234 381h6M128 382h16M224 382h16M128 383h16M224 383h16M128 384h16M192 384h16M336 384h16M384 384h16M128 385h16M192 385h16M336 385h16M384 385h16M128 386h16M192 386h16M336 386h16M384 386h16M128 387h16M192 387h16M336 387h16M384 387h16M128 388h16M192 388h16M336 388h5M342 388h10M384 388h9M394 388h6M128 389h16M192 389h16M336 389h16M384 389h16M128 390h16M192 390h16M336 390h16M384 390h16M128 391h16M192 391h16M336 391h16M384 391h16M128 392h16M192 392h16M336 392h16M384 392h16M128 393h16M192 393h16M336 393h16M384 393h16M128 394h16M192 394h16M336 394h16M384 394h16M128 395h16M192 395h16M336 395h16M384 395h11M396 395h4M128 396h16M192 396h16M338 396h14M384 396h16M128 397h16M192 397h16M338 397h14M384 397h16M128 398h4M134 398h10M192 398h16M336 398h16M384 398h16M128 399h4M134 399h10M192 399h16M336 399h3M340 399h12M384 399h16M128 400h15M144 400h16M240 400h16M302 400h1M384 400h16M128 401h32M197 401h1M240 401h16M384 401h16M128 402h32M240 402h2M244 402h12M384 402h16M128 403h32M196 403h1M240 403h2M244 403h12M384 403h16M128 404h32M240 404h16M384 404h16M128 405h32M240 405h16M384 405h16M128 406h32M240 406h16M384 406h16M128 407h32M240 407h16M384 407h16M128 408h32M240 408h16M384 408h16M128 409h32M240 409h16M384 409h16M128 410h32M240 410h16M384 410h16M128 411h32M240 411h16M384 411h16M128 412h32M240 412h16M384 412h16M128 413h32M240 413h16M384 413h16M128 414h32M240 414h16M384 414h6M391 414h9M128 415h32M240 415h16M384 415h16" />
<path stroke="#000000" d="M256 80h16M256 81h16M256 82h16M256 83h16M256 84h16M176 85h1M256 85h16M256 86h16M256 87h13M270 87h2M256 88h14M271 88h1M256 89h16M256 90h16M256 91h16M181 92h1M256 92h16M256 93h16M256 94h16M256 95h16M160 96h16M256 96h27M284 96h4M160 97h16M256 97h32M160 98h14M175 98h1M256 98h12M269 98h19M160 99h16M256 99h32M160 100h16M256 100h32M160 101h16M257 101h31M160 102h16M256 102h32M160 103h16M256 103h32M160 104h16M256 104h32M160 105h16M256 105h27M284 105h4M160 106h16M256 106h32M160 107h16M256 107h15M272 107h16M160 108h16M256 108h32M160 109h16M256 109h24M281 109h7M160 110h10M171 110h5M256 110h32M160 111h16M256 111h32M232 116h1M145 120h1M147 122h1M224 125h1M336 128h16M229 129h1M336 129h16M336 130h10M348 130h4M243 131h1M336 131h10M348 131h4M336 132h16M336 133h16M336 134h16M336 135h16M336 136h16M336 137h16M336 138h16M240 139h1M336 139h10M347 139h5M336 140h16M336 141h16M336 142h16M336 143h16M224 144h16M224 145h16M224 146h16M396 146h2M224 147h16M396 147h2M224 148h16M224 149h16M224 150h16M224 151h16M224 152h16M224 153h16M224 154h16M224 155h12M237 155h3M224 156h8M233 156h7M225 157h15M224 158h16M224 159h16M166 167h1M144 176h16M208 176h32M144 177h13M158 177h2M208 177h3M212 177h28M144 178h16M208 178h32M144 179h16M208 179h32M144 180h16M208 180h32M144 181h16M208 181h32M332 181h1M144 182h16M208 182h1M210 182h2M214 182h14M229 182h11M144 183h8M153 183h7M208 183h4M214 183h26M144 184h16M208 184h18M228 184h12M144 185h16M208 185h18M228 185h12M144 186h16M208 186h32M144 187h16M208 187h32M144 188h2M148 188h12M208 188h32M144 189h2M148 189h12M208 189h32M144 190h16M208 190h32M144 191h16M208 191h32M176 192h32M224 192h16M176 193h32M224 193h16M463 193h1M78 194h2M176 194h32M224 194h16M78 195h2M176 195h32M224 195h16M176 196h32M224 196h16M176 197h32M224 197h16M176 198h32M224 198h12M237 198h3M176 199h32M224 199h16M176 200h32M224 200h16M176 201h32M224 201h16M176 202h32M224 202h16M176 203h6M183 203h25M224 203h16M176 204h32M224 204h16M176 205h32M224 205h16M176 206h32M224 206h2M228 206h12M176 207h32M224 207h2M228 207h12M224 208h16M448 208h16M224 209h11M236 209h4M448 209h16M224 210h16M448 210h16M224 211h16M448 211h16M224 212h16M448 212h16M224 213h16M448 213h16M224 214h16M448 214h16M224 215h16M448 215h16M224 216h16M448 216h16M224 217h16M448 217h16M224 218h15M448 218h16M224 219h16M448 219h16M224 220h16M448 220h16M224 221h16M448 221h1M450 221h14M224 222h16M448 222h16M224 223h9M234 223h6M448 223h16M416 226h2M416 227h2M88 236h1M224 240h2M227 240h1M229 240h11M224 241h16M224 242h16M224 243h16M224 244h16M224 245h16M224 246h16M224 247h16M224 248h16M414 248h1M224 249h16M224 250h10M235 250h5M224 251h16M224 252h16M224 253h10M235 253h5M224 254h16M224 255h16M368 256h16M368 257h16M414 257h1M166 258h2M368 258h16M166 259h2M368 259h16M368 260h16M368 261h16M368 262h16M368 263h16M368 264h16M414 264h2M368 265h16M414 265h2M368 266h16M413 266h1M368 267h16M368 268h16M368 269h16M368 270h16M368 271h16M144 272h32M336 272h16M92 273h1M144 273h32M336 273h16M144 274h32M336 274h16M144 275h32M336 275h16M144 276h32M336 276h16M144 277h32M336 277h16M144 278h32M336 278h16M361 278h1M144 279h32M336 279h16M144 280h32M336 280h16M144 281h32M336 281h16M144 282h18M164 282h12M336 282h18M144 283h18M164 283h12M336 283h18M144 284h18M164 284h12M336 284h16M144 285h18M164 285h12M336 285h16M144 286h32M336 286h16M144 287h23M168 287h8M336 287h16M73 296h1M354 296h1M166 301h1M192 304h16M256 304h16M192 305h16M256 305h16M192 306h16M256 306h16M192 307h16M256 307h16M321 307h1M192 308h16M256 308h16M124 309h1M192 309h16M256 309h16M192 310h16M256 310h16M115 311h1M192 311h16M256 311h16M77 312h1M192 312h16M256 312h16M192 313h16M256 313h16M168 314h1M192 314h16M256 314h12M269 314h3M192 315h16M256 315h16M192 316h16M256 316h15M192 317h16M256 317h12M269 317h3M69 318h1M192 318h16M256 318h16M192 319h16M256 319h16M339 334h1M336 336h16M336 337h16M336 338h16M336 339h16M336 340h16M336 341h16M336 342h16M336 343h16M336 344h16M336 345h16M336 346h16M362 346h2M336 347h16M362 347h2M336 348h16M84 349h1M336 349h16M336 350h16M132 351h1M336 351h16M112 352h16M160 352h16M196 352h1M198 352h2M336 352h16M112 353h16M160 353h16M197 353h3M336 353h16M112 354h16M160 354h16M336 354h16M112 355h16M160 355h16M336 355h16M112 356h16M160 356h16M336 356h16M112 357h16M160 357h16M336 357h16M112 358h16M160 358h16M181 358h1M200 358h2M336 358h16M112 359h16M160 359h16M200 359h2M336 359h16M112 360h16M160 360h16M336 360h16M112 361h16M160 361h16M336 361h16M112 362h16M160 362h16M336 362h16M112 363h16M160 363h16M336 363h16M112 364h16M160 364h16M192 364h1M336 364h16M112 365h16M160 365h16M336 365h16M112 366h16M160 366h16M336 366h16M112 367h16M160 367h16M336 367h16M341 370h1M165 379h1M144 384h16M217 384h1M240 384h3M244 384h28M144 385h16M240 385h32M144 386h16M215 386h1M240 386h32M144 387h16M240 387h32M144 388h16M240 388h32M144 389h16M240 389h32M144 390h16M240 390h19M260 390h12M144 391h16M240 391h32M144 392h16M240 392h32M144 393h16M240 393h32M144 394h16M240 394h32M144 395h13M158 395h2M240 395h32M144 396h16M240 396h32M368 396h2M144 397h16M240 397h32M368 397h2M144 398h16M240 398h32M144 399h16M240 399h32M160 400h16M336 400h32M160 401h16M336 401h32M160 402h16M336 402h32M160 403h16M336 403h32M160 404h16M336 404h32M160 405h16M336 405h32M160 406h16M336 406h3M340 406h24M365 406h3M160 407h16M336 407h32M160 408h16M336 408h32M160 409h16M336 409h32M160 410h16M336 410h32M160 411h16M336 411h32M160 412h16M336 412h32M160 413h16M336 413h32M160 414h16M292 414h1M336 414h32M160 415h16M336 415h32" />
<path stroke="#000001" d="M272 80h16M304 80h16M272 81h16M304 81h16M272 82h8M281 82h7M304 82h16M272 83h13M286 83h2M304 83h16M272 84h16M304 84h16M272 85h16M304 85h16M272 86h16M304 86h16M269 87h1M272 87h16M304 87h16M272 88h16M304 88h16M272 89h16M304 89h16M272 90h16M304 90h16M272 91h16M304 91h16M272 92h16M304 92h16M272 93h16M304 93h16M272 94h16M304 94h16M272 95h16M304 95h16M180 98h2M180 99h2M208 105h1M283 105h1M224 112h16M255 112h1M224 113h16M322 113h1M224 114h16M224 115h16M224 116h8M233 116h7M336 116h1M224 117h16M224 118h16M330 118h2M224 119h16M330 119h2M224 120h16M224 121h16M224 122h16M224 123h15M139 124h1M224 124h16M157 125h1M225 125h15M224 126h16M296 126h1M224 127h16M325 127h1M224 128h16M256 128h16M224 129h5M230 129h10M256 129h16M224 130h16M256 130h16M224 131h16M256 131h16M224 132h16M256 132h16M314 132h1M224 133h16M256 133h16M224 134h16M256 134h16M224 135h16M256 135h16M224 136h16M256 136h16M225 137h15M256 137h16M224 138h16M256 138h16M224 139h16M256 139h16M224 140h16M256 140h16M224 141h16M256 141h16M224 142h8M234 142h6M256 142h15M224 143h8M234 143h6M256 143h16M168 144h1M236 155h1M160 160h16M160 161h16M160 162h16M160 163h16M160 164h16M160 165h16M160 166h16M160 167h6M167 167h4M172 167h4M160 168h16M160 169h16M160 170h16M160 171h16M160 172h16M160 173h16M160 174h16M160 175h16M176 176h16M368 176h16M157 177h1M176 177h16M315 177h1M368 177h2M371 177h13M176 178h16M368 178h16M176 179h16M368 179h16M176 180h16M368 180h16M176 181h16M368 181h16M176 182h16M209 182h1M368 182h16M152 183h1M176 183h16M368 183h16M176 184h16M368 184h16M176 185h16M306 185h1M368 185h16M176 186h16M368 186h16M176 187h16M369 187h15M146 188h2M176 188h16M368 188h16M146 189h2M176 189h16M368 189h16M176 190h16M368 190h16M176 191h16M368 191h16M48 192h16M320 192h16M432 192h32M48 193h16M320 193h16M432 193h31M48 194h16M320 194h16M432 194h32M48 195h16M320 195h16M432 195h32M48 196h16M320 196h16M432 196h32M48 197h16M320 197h16M432 197h21M454 197h10M48 198h16M236 198h1M320 198h16M432 198h32M48 199h16M320 199h16M432 199h32M48 200h14M320 200h16M432 200h32M48 201h14M320 201h16M432 201h32M48 202h16M320 202h16M432 202h32M48 203h3M52 203h12M182 203h1M320 203h16M432 203h32M48 204h16M320 204h16M432 204h32M48 205h10M59 205h5M320 205h16M432 205h32M48 206h16M320 206h16M432 206h32M48 207h16M320 207h16M432 207h32M64 208h16M192 208h16M304 208h16M328 208h1M64 209h16M192 209h16M304 209h16M64 210h16M192 210h16M304 210h16M64 211h16M192 211h16M304 211h16M64 212h16M192 212h16M304 212h16M64 213h16M192 213h16M304 213h16M64 214h16M192 214h16M304 214h1M306 214h14M64 215h16M192 215h16M304 215h16M64 216h16M192 216h16M304 216h16M64 217h16M192 217h16M304 217h16M327 217h1M64 218h16M192 218h16M304 218h16M64 219h16M192 219h16M304 219h16M64 220h16M192 220h16M304 220h11M316 220h4M64 221h16M192 221h16M304 221h16M64 222h16M192 222h16M304 222h16M64 223h16M192 223h16M304 223h16M80 224h16M176 224h16M416 224h16M80 225h16M176 225h16M416 225h16M80 226h16M176 226h16M418 226h11M430 226h2M80 227h16M176 227h16M418 227h14M80 228h16M176 228h16M416 228h16M80 229h16M176 229h16M416 229h16M80 230h16M176 230h16M416 230h16M80 231h16M176 231h16M416 231h16M80 232h16M176 232h16M416 232h16M80 233h16M176 233h16M416 233h16M80 234h16M176 234h7M184 234h8M416 234h16M80 235h16M176 235h8M185 235h7M416 235h16M80 236h8M89 236h7M176 236h16M416 236h16M80 237h16M176 237h16M416 237h16M80 238h16M176 238h16M416 238h16M80 239h16M176 239h16M416 239h14M431 239h1M80 240h16M194 240h2M228 240h1M400 240h32M80 241h16M194 241h2M400 241h32M80 242h16M400 242h32M80 243h16M400 243h32M80 244h16M400 244h32M80 245h16M400 245h32M80 246h16M400 246h32M80 247h16M400 247h32M80 248h16M400 248h14M415 248h17M80 249h16M400 249h32M80 250h16M400 250h32M80 251h16M400 251h32M80 252h16M400 252h2M404 252h28M80 253h16M400 253h2M404 253h28M80 254h16M400 254h32M80 255h16M400 255h8M409 255h23M160 256h9M170 256h2M173 256h3M160 257h16M160 258h2M163 258h3M168 258h8M160 259h6M168 259h8M160 260h16M160 261h16M160 262h16M160 263h16M160 264h16M160 265h16M160 266h16M160 267h16M160 268h16M160 269h16M160 270h16M160 271h16M112 288h16M192 288h16M112 289h16M192 289h16M112 290h15M192 290h16M112 291h16M192 291h16M112 292h16M192 292h16M112 293h16M192 293h16M112 294h16M192 294h16M112 295h16M192 295h16M112 296h16M192 296h16M112 297h16M192 297h16M112 298h16M192 298h16M112 299h16M192 299h16M112 300h16M192 300h14M207 300h1M112 301h16M192 301h16M112 302h16M192 302h16M112 303h16M192 303h16M361 305h1M216 310h2M216 311h2M192 320h16M192 321h16M192 322h14M207 322h1M80 323h1M192 323h16M80 324h2M192 324h16M80 325h2M192 325h16M192 326h16M135 327h1M192 327h8M201 327h7M192 328h16M112 329h1M192 329h16M192 330h16M192 331h16M192 332h15M112 333h1M192 333h16M116 334h1M192 334h16M192 335h16M112 336h32M176 336h16M112 337h32M176 337h16M112 338h32M176 338h16M112 339h32M176 339h16M112 340h32M176 340h16M112 341h32M176 341h16M112 342h32M176 342h16M112 343h32M176 343h16M112 344h32M176 344h16M112 345h32M176 345h13M190 345h2M112 346h32M176 346h16M112 347h32M148 347h1M176 347h16M112 348h11M124 348h21M176 348h16M112 349h32M176 349h16M112 350h24M137 350h7M176 350h16M112 351h20M133 351h11M176 351h16M224 352h16M352 352h16M224 353h16M352 353h16M224 354h16M352 354h16M224 355h4M229 355h11M352 355h16M224 356h16M352 356h16M224 357h16M352 357h16M224 358h16M352 358h16M224 359h16M352 359h16M224 360h16M352 360h16M224 361h16M352 361h16M224 362h16M352 362h16M224 363h16M352 363h16M224 364h16M352 364h16M224 365h16M352 365h16M224 366h16M352 366h16M224 367h16M352 367h16M192 368h16M192 369h16M214 369h1M192 370h16M192 371h16M192 372h16M192 373h16M192 374h16M192 375h16M362 375h1M192 376h16M157 377h1M192 377h16M192 378h16M192 379h16M192 380h16M192 381h16M192 382h16M192 383h16M224 384h16M368 384h16M224 385h16M368 385h16M224 386h16M368 386h16M224 387h16M368 387h16M224 388h16M368 388h16M224 389h16M368 389h16M224 390h9M234 390h6M259 390h1M368 390h16M224 391h16M366 391h1M368 391h16M224 392h9M234 392h6M364 392h1M368 392h16M224 393h16M368 393h16M224 394h16M364 394h2M368 394h16M157 395h1M224 395h16M364 395h2M368 395h16M224 396h16M370 396h14M224 397h16M370 397h14M224 398h16M368 398h16M224 399h16M368 399h16M272 400h5M279 400h9M272 401h16M272 402h16M272 403h16M272 404h16M272 405h16M272 406h16M272 407h16M272 408h16M272 409h16M272 410h16M272 411h16M272 412h16M273 413h6M280 413h8M272 414h16M272 415h16" />
<path stroke="#000101" d="M280 82h1M208 96h16M208 97h16M208 98h16M208 99h16M208 100h16M208 101h16M208 102h16M208 103h1M210 103h14M208 104h16M209 105h15M208 106h11M220 106h4M208 107h16M208 108h16M208 109h16M208 110h16M208 111h16M128 112h16M320 112h16M128 113h16M320 113h2M323 113h13M128 114h16M320 114h16M128 115h4M133 115h11M320 115h16M128 116h16M320 116h16M128 117h16M320 117h16M128 118h16M282 118h2M320 118h10M332 118h4M128 119h16M282 119h2M320 119h10M332 119h4M128 120h16M320 120h16M128 121h16M320 121h16M128 122h16M320 122h16M128 123h16M239 123h1M320 123h16M128 124h11M140 124h4M320 124h16M128 125h16M320 125h16M128 126h16M320 126h16M128 127h16M145 127h1M320 127h5M326 127h10M272 128h16M304 128h16M368 128h16M272 129h16M304 129h16M368 129h16M272 130h16M304 130h16M368 130h16M272 131h16M304 131h16M368 131h16M272 132h16M304 132h10M315 132h5M368 132h16M272 133h16M304 133h16M368 133h16M272 134h16M304 134h16M368 134h9M378 134h6M272 135h16M304 135h16M368 135h16M272 136h16M304 136h16M368 136h16M272 137h16M304 137h16M368 137h16M272 138h16M304 138h10M315 138h5M368 138h16M272 139h16M304 139h16M368 139h16M272 140h16M304 140h16M368 140h16M272 141h16M304 141h16M368 141h16M232 142h2M272 142h16M304 142h13M318 142h2M368 142h16M232 143h2M272 143h16M304 143h16M368 143h16M160 144h8M169 144h7M368 144h16M160 145h16M368 145h16M160 146h16M368 146h16M160 147h16M368 147h16M160 148h16M368 148h16M160 149h16M368 149h16M160 150h16M368 150h16M160 151h16M368 151h16M160 152h16M368 152h16M160 153h16M368 153h16M160 154h16M368 154h16M160 155h16M368 155h16M160 156h16M368 156h16M160 157h16M368 157h16M160 158h16M368 158h16M160 159h7M168 159h8M368 159h16M224 160h16M224 161h16M224 162h16M224 163h16M224 164h16M224 165h16M224 166h16M224 167h16M224 168h16M224 169h16M224 170h16M224 171h16M224 172h16M224 173h16M224 174h16M224 175h16M304 176h16M384 176h5M390 176h10M203 177h1M304 177h11M316 177h3M370 177h1M384 177h16M304 178h16M384 178h16M304 179h16M384 179h16M304 180h16M384 180h9M394 180h6M304 181h16M384 181h16M304 182h16M384 182h16M304 183h16M384 183h16M75 184h1M304 184h16M384 184h16M304 185h2M307 185h13M384 185h16M304 186h16M384 186h16M304 187h16M384 187h16M304 188h16M384 188h16M304 189h16M384 189h16M304 190h16M384 190h16M304 191h16M384 191h16M208 192h1M453 197h1M62 200h2M62 201h2M58 205h1M320 208h8M329 208h7M432 208h16M320 209h16M432 209h16M320 210h16M432 210h16M320 211h16M432 211h16M320 212h16M432 212h16M320 213h16M432 213h16M320 214h16M432 214h16M320 215h16M432 215h16M320 216h16M432 216h16M320 217h7M328 217h8M432 217h16M320 218h16M432 218h16M320 219h16M432 219h16M320 220h16M432 220h8M442 220h6M320 221h16M432 221h8M442 221h6M320 222h16M432 222h12M446 222h2M320 223h16M432 223h12M446 223h2M443 229h1M184 235h1M430 239h1M192 240h2M196 240h28M192 241h2M196 241h8M205 241h19M192 242h27M220 242h4M192 243h32M192 244h32M192 245h32M192 246h30M192 247h30M192 248h32M192 249h32M192 250h15M208 250h16M192 251h32M192 252h32M192 253h32M192 254h32M192 255h32M169 256h1M172 256h1M176 256h48M176 257h48M162 258h1M176 258h48M176 259h48M176 260h48M176 261h48M176 262h4M182 262h42M176 263h4M182 263h42M176 264h48M176 265h36M213 265h11M226 265h1M176 266h48M176 267h48M176 268h13M190 268h34M176 269h48M176 270h32M209 270h15M176 271h45M222 271h2M192 272h16M192 273h16M358 273h1M192 274h16M192 275h16M192 276h16M192 277h16M90 278h1M191 278h12M204 278h4M364 278h1M181 279h1M192 279h16M192 280h16M363 280h1M192 281h16M83 282h1M192 282h16M192 283h16M192 284h16M192 285h16M192 286h16M192 287h16M337 288h1M127 290h1M146 292h2M146 293h2M364 294h2M364 295h2M211 298h1M206 300h1M154 301h1M80 304h16M176 304h16M208 304h16M240 304h16M336 304h32M80 305h7M88 305h8M116 305h1M176 305h16M208 305h16M240 305h16M336 305h25M362 305h6M80 306h16M176 306h16M208 306h16M240 306h16M336 306h32M80 307h16M176 307h16M208 307h16M240 307h16M336 307h24M361 307h7M80 308h16M176 308h16M208 308h16M240 308h16M336 308h32M80 309h16M176 309h16M208 309h16M240 309h16M336 309h32M80 310h16M176 310h12M189 310h3M208 310h8M218 310h6M240 310h16M336 310h32M80 311h16M176 311h16M208 311h8M218 311h6M240 311h16M336 311h32M80 312h16M152 312h1M176 312h16M208 312h4M214 312h10M240 312h16M336 312h32M80 313h16M176 313h16M208 313h4M214 313h10M240 313h16M336 313h32M80 314h16M176 314h16M208 314h16M240 314h16M336 314h8M345 314h23M80 315h16M176 315h16M208 315h16M240 315h16M336 315h11M348 315h20M80 316h16M176 316h16M208 316h16M240 316h16M336 316h32M80 317h16M176 317h16M208 317h16M240 317h16M336 317h32M80 318h7M88 318h8M176 318h16M208 318h16M240 318h16M336 318h32M80 319h16M176 319h16M208 319h16M240 319h16M336 319h32M80 320h16M80 321h16M153 321h1M81 322h15M206 322h1M81 323h15M82 324h14M151 324h1M82 325h14M80 326h10M91 326h5M80 327h16M200 327h1M80 328h16M80 329h16M80 330h16M80 331h16M80 332h16M150 332h2M207 332h1M80 333h16M150 333h2M80 334h16M80 335h16M159 335h1M348 335h1M64 336h16M144 336h16M64 337h16M144 337h16M64 338h16M144 338h16M64 339h16M144 339h16M64 340h2M68 340h12M144 340h16M64 341h2M68 341h12M144 341h16M64 342h16M144 342h16M64 343h16M144 343h16M64 344h16M144 344h16M64 345h16M144 345h16M189 345h1M64 346h16M144 346h16M196 346h1M64 347h16M144 347h4M149 347h11M64 348h16M123 348h1M145 348h15M64 349h16M144 349h6M151 349h9M64 350h16M144 350h16M64 351h16M144 351h16M80 352h16M144 352h16M80 353h16M144 353h16M80 354h16M144 354h16M80 355h16M144 355h16M228 355h1M80 356h16M144 356h16M80 357h16M144 357h16M80 358h16M128 358h1M144 358h16M80 359h16M144 359h16M80 360h16M138 360h2M144 360h16M80 361h16M138 361h2M144 361h16M80 362h16M144 362h16M80 363h16M144 363h8M153 363h7M80 364h16M144 364h16M80 365h16M144 365h16M80 366h16M144 366h16M80 367h16M144 367h16M144 368h16M176 368h16M208 368h16M352 368h16M144 369h16M176 369h16M208 369h6M215 369h9M340 369h1M352 369h16M144 370h16M176 370h16M208 370h16M352 370h16M144 371h16M176 371h16M208 371h16M352 371h16M144 372h16M169 372h1M176 372h16M208 372h16M352 372h16M144 373h16M176 373h16M208 373h16M352 373h16M144 374h16M176 374h16M208 374h16M352 374h16M144 375h16M176 375h16M208 375h16M352 375h10M363 375h5M144 376h16M176 376h16M208 376h11M220 376h4M352 376h6M359 376h9M144 377h13M158 377h2M176 377h16M208 377h16M352 377h16M144 378h16M176 378h16M208 378h16M352 378h16M144 379h16M176 379h16M208 379h16M339 379h1M352 379h16M144 380h16M176 380h16M208 380h16M352 380h16M144 381h16M176 381h16M208 381h16M352 381h16M144 382h16M176 382h16M208 382h16M352 382h16M144 383h16M176 383h16M208 383h16M352 383h16M176 384h16M352 384h16M176 385h16M352 385h16M176 386h16M352 386h16M176 387h16M352 387h16M176 388h16M352 388h16M176 389h16M352 389h16M176 390h16M352 390h16M176 391h16M352 391h14M367 391h1M176 392h16M233 392h1M352 392h12M365 392h3M176 393h16M352 393h16M176 394h16M352 394h12M366 394h2M176 395h4M181 395h11M352 395h12M366 395h2M176 396h16M352 396h16M176 397h16M352 397h16M176 398h16M352 398h16M176 399h16M352 399h16M176 400h16M277 400h1M176 401h16M176 402h16M176 403h16M176 404h16M176 405h16M176 406h16M176 407h16M176 408h16M176 409h16M176 410h16M176 411h16M176 412h16M176 413h16M272 413h1M279 413h1M176 414h16M176 415h16" />
<path stroke="#fefffe" d="M435 90h1M190 118h1M256 144h16M256 145h16M256 146h16M256 147h16M256 148h16M256 149h16M256 150h16M256 151h16M256 152h16M292 152h1M256 153h16M256 154h16M256 155h16M256 156h16M256 157h16M256 158h16M318 158h1M256 159h16M192 160h16M192 161h16M192 162h16M360 162h2M192 163h16M360 163h2M365 163h1M192 164h16M192 165h16M192 166h11M204 166h4M192 167h16M192 168h8M201 168h7M192 169h3M196 169h12M283 169h1M192 170h16M192 171h16M192 172h16M192 173h16M192 174h16M192 175h16M256 192h16M256 193h16M256 194h16M256 195h16M256 196h16M256 197h16M256 198h16M256 199h16M256 200h16M354 200h1M256 201h16M256 202h16M256 203h16M257 204h15M256 205h16M256 206h16M256 207h16M368 224h16M368 225h16M368 226h16M368 227h16M368 228h16M368 229h16M368 230h16M368 231h16M368 232h10M380 232h4M368 233h10M380 233h4M368 234h16M368 235h16M368 236h13M382 236h2M368 237h16M368 238h16M368 239h16M331 246h1M294 247h1M334 251h1M302 259h1M278 268h1M262 320h2M262 321h2M308 330h1M277 335h1M265 339h1M268 341h1M288 352h32M279 353h1M288 353h26M315 353h5M288 354h26M315 354h5M288 355h32M279 356h1M288 356h32M288 357h32M288 358h32M288 359h32M288 360h14M304 360h16M288 361h14M304 361h16M288 362h17M306 362h14M274 363h1M288 363h32M288 364h32M288 365h32M288 366h16M305 366h15M288 367h32M272 368h16M320 368h16M272 369h16M320 369h16M272 370h13M286 370h2M320 370h16M272 371h16M320 371h16M272 372h16M320 372h16M272 373h16M320 373h16M272 374h16M320 374h16M272 375h16M320 375h16M272 376h16M320 376h16M272 377h16M320 377h16M255 378h1M272 378h16M320 378h16M272 379h16M320 379h16M272 380h16M320 380h16M272 381h16M320 381h16M272 382h16M320 382h16M272 383h16M320 383h16" />
<path stroke="#818080" d="M160 112h16M160 113h16M160 114h16M160 115h16M160 116h16M160 117h16M160 118h16M160 119h16M160 120h16M160 121h16M160 122h16M160 123h16M160 124h16M160 125h16M160 126h16M160 127h16M416 208h16M416 209h7M424 209h8M416 210h16M416 211h16M416 212h12M430 212h2M416 213h12M430 213h2M412 214h1M416 214h16M416 215h16M416 216h16M416 217h16M416 218h16M416 219h16M416 220h16M416 221h16M416 222h16M416 223h16M387 241h1M396 244h1M241 263h1M295 283h1M288 285h1M240 320h16M240 321h16M240 322h9M250 322h6M240 323h16M240 324h16M240 325h16M240 326h16M218 327h1M240 327h16M240 328h16M240 329h16M240 330h16M240 331h16M240 332h16M240 333h16M240 334h16M240 335h16M80 368h16M80 369h16M80 370h16M80 371h16M80 372h16M80 373h16M80 374h16M80 375h16M80 376h16M80 377h16M80 378h16M80 379h16M80 380h16M80 381h16M80 382h16M80 383h16M112 384h16M112 385h16M112 386h16M112 387h16M112 388h16M112 389h16M112 390h16M112 391h16M112 392h16M112 393h16M112 394h16M112 395h16M112 396h16M112 397h16M112 398h16M112 399h16M98 413h1" />
<path stroke="#fefeff" d="M176 117h1M240 144h16M320 144h16M240 145h16M320 145h16M240 146h14M320 146h16M240 147h14M320 147h16M240 148h16M320 148h16M240 149h16M320 149h16M240 150h16M320 150h16M240 151h16M320 151h16M240 152h16M320 152h3M324 152h12M240 153h16M320 153h16M240 154h16M320 154h16M240 155h16M320 155h16M240 156h16M320 156h16M240 157h16M320 157h16M240 158h16M320 158h16M240 159h16M320 159h10M331 159h5M176 160h8M185 160h7M176 161h16M176 162h16M176 163h16M176 164h16M176 165h16M176 166h16M176 167h16M176 168h16M176 169h16M176 170h16M176 171h16M176 172h16M176 173h16M176 174h16M176 175h16M336 176h16M336 177h16M336 178h16M336 179h16M336 180h16M336 181h16M336 182h16M336 183h16M336 184h16M336 185h16M336 186h16M336 187h16M336 188h16M336 189h16M336 190h16M336 191h16M240 192h12M254 192h2M240 193h12M254 193h2M240 194h6M248 194h8M240 195h6M248 195h8M240 196h16M348 196h1M240 197h16M240 198h10M251 198h2M254 198h2M240 199h16M240 200h16M240 201h16M240 202h16M240 203h16M240 204h16M240 205h16M240 206h16M240 207h16M352 208h16M352 209h16M352 210h12M366 210h2M352 211h12M366 211h2M352 212h2M355 212h13M352 213h16M352 214h16M352 215h16M352 216h16M241 217h1M352 217h16M352 218h16M352 219h16M352 220h16M352 221h16M352 222h16M352 223h16M304 224h16M304 225h16M304 226h16M304 227h16M304 228h16M304 229h16M304 230h16M304 231h16M304 232h16M352 232h1M304 233h16M304 234h8M313 234h7M304 235h16M260 236h1M304 236h16M304 237h16M304 238h15M304 239h16M336 240h16M336 241h16M336 242h16M332 243h1M336 243h16M336 244h16M336 245h16M336 246h10M349 246h3M336 247h10M348 247h4M278 248h1M336 248h13M350 248h2M336 249h16M336 250h16M336 251h16M336 252h16M336 253h16M291 254h1M336 254h16M336 255h16M288 322h1M307 334h1M320 336h16M320 337h5M326 337h10M320 338h3M324 338h12M320 339h12M333 339h3M320 340h16M320 341h16M320 342h16M320 343h16M320 344h16M320 345h16M320 346h16M320 347h16M320 348h16M320 349h16M320 350h12M333 350h3M320 351h16M333 353h1M274 361h1M302 378h2M305 378h1M302 379h2M304 384h16M304 385h16M304 386h16M304 387h16M304 388h16M304 389h16M304 390h6M311 390h9M304 391h16M304 392h16M304 393h16M304 394h16M304 395h16M304 396h16M304 397h16M304 398h16M304 399h16" />
<path stroke="#808180" d="M144 128h16M144 129h16M144 130h5M150 130h10M144 131h16M144 132h16M144 133h16M144 134h16M144 135h15M144 136h16M144 137h16M144 138h16M144 139h16M144 140h16M144 141h11M156 141h4M144 142h16M144 143h16M400 217h1M240 240h16M240 241h16M240 242h16M240 243h16M382 243h1M240 244h16M240 245h16M240 246h16M240 247h16M240 248h16M240 249h16M240 250h16M240 251h16M240 252h16M240 253h16M240 254h16M240 255h16M262 266h2M262 267h2M256 272h16M301 272h1M304 272h16M256 273h16M304 273h16M256 274h16M304 274h16M256 275h16M304 275h16M256 276h16M304 276h16M256 277h16M304 277h16M256 278h16M304 278h16M256 279h16M304 279h16M335 279h1M256 280h16M304 280h16M256 281h16M304 281h16M256 282h16M304 282h16M324 282h2M333 282h1M256 283h16M304 283h16M324 283h2M256 284h8M266 284h6M304 284h16M256 285h8M266 285h6M304 285h16M256 286h4M261 286h11M304 286h16M256 287h16M304 287h16M304 288h16M304 289h16M304 290h16M304 291h16M304 292h16M304 293h16M304 294h16M304 295h16M304 296h16M304 297h16M304 298h16M304 299h16M304 300h16M304 301h16M304 302h16M304 303h16M246 343h1M66 358h1M96 384h16M96 385h16M96 386h16M96 387h16M96 388h16M96 389h16M96 390h16M96 391h16M96 392h16M96 393h16M96 394h16M96 395h16M96 396h16M96 397h16M96 398h16M96 399h16M112 400h16M112 401h16M112 402h16M112 403h16M112 404h16M112 405h16M112 406h16M112 407h16M112 408h16M112 409h16M112 410h4M117 410h11M318 410h1M112 411h16M112 412h16M112 413h16M112 414h16M112 415h16" />
<path stroke="#818181" d="M160 128h16M160 129h16M160 130h16M160 131h16M160 132h16M160 133h16M161 134h15M160 135h16M160 136h16M160 137h16M160 138h16M160 139h16M160 140h16M160 141h16M160 142h16M160 143h16M416 192h16M416 193h16M416 194h16M416 195h16M416 196h16M416 197h16M416 198h7M424 198h8M416 199h16M416 200h16M416 201h16M416 202h16M416 203h16M416 204h16M416 205h16M416 206h2M419 206h13M416 207h16M410 214h1M384 224h16M384 225h16M384 226h12M397 226h1M384 227h14M384 228h9M394 228h6M384 229h16M384 230h16M384 231h16M384 232h16M384 233h16M384 234h16M384 235h16M384 236h16M384 237h16M384 238h16M384 239h16M320 275h1M288 288h16M288 289h16M288 290h16M288 291h16M288 292h16M288 293h16M288 294h16M288 295h16M288 296h16M288 297h16M288 298h16M288 299h16M288 300h16M288 301h16M244 302h1M288 302h4M294 302h10M288 303h4M294 303h10M208 336h16M208 337h16M208 338h16M208 339h8M217 339h7M208 340h16M208 341h16M208 342h16M208 343h16M208 344h16M208 345h16M208 346h16M208 347h16M208 348h16M208 349h16M208 350h16M208 351h16" />
<path stroke="#808080" d="M149 130h1M428 212h2M428 213h2M384 240h16M384 241h3M388 241h12M384 242h16M384 243h16M384 244h12M397 244h3M384 245h16M384 246h16M384 247h16M384 248h16M384 249h16M384 250h16M384 251h16M384 252h16M384 253h16M384 254h16M384 255h16M256 256h16M256 257h16M256 258h16M256 259h16M256 260h16M256 261h16M256 262h16M256 263h16M256 264h16M256 265h16M256 266h6M264 266h8M256 267h6M264 267h8M256 268h16M256 269h16M256 270h16M256 271h16M264 284h2M264 285h2M256 288h16M256 289h16M256 290h16M256 291h16M256 292h16M256 293h16M256 294h16M256 295h16M256 296h16M256 297h16M256 298h16M256 299h16M256 300h16M256 301h16M256 302h16M256 303h16M231 339h1M64 352h16M64 353h16M64 354h16M64 355h16M64 356h16M64 357h16M64 358h2M67 358h13M64 359h3M68 359h12M64 360h16M64 361h16M64 362h16M64 363h16M64 364h16M64 365h16M64 366h16M64 367h16M304 400h16M304 401h16M304 402h10M316 402h4M304 403h10M316 403h4M327 403h1M304 404h16M326 404h1M304 405h16M304 406h16M304 407h16M304 408h16M304 409h16M116 410h1M304 410h14M319 410h1M304 411h16M304 412h16M304 413h16M325 413h1M304 414h16M304 415h16M324 415h1" />
<path stroke="#808181" d="M160 134h1M155 141h1M423 198h1M393 228h1M368 240h16M368 241h16M368 242h16M368 243h14M383 243h1M368 244h16M368 245h16M368 246h16M368 247h16M368 248h16M368 249h16M368 250h16M368 251h16M368 252h16M368 253h16M368 254h16M368 255h16M240 288h16M240 289h16M240 290h16M240 291h16M240 292h16M240 293h16M240 294h16M240 295h16M240 296h16M240 297h16M240 298h16M240 299h16M282 299h1M240 300h16M240 301h16M240 302h4M245 302h11M240 303h16M320 384h16M320 385h16M320 386h16M320 387h16M320 388h16M320 389h16M320 390h16M320 391h16M320 392h16M320 393h16M320 394h16M320 395h16M320 396h16M320 397h14M335 397h1M320 398h10M331 398h5M320 399h16" />
<path stroke="#818180" d="M159 135h1M418 206h1M400 208h16M400 209h16M423 209h1M400 210h16M400 211h16M400 212h16M400 213h16M400 214h10M411 214h1M413 214h3M400 215h16M400 216h16M401 217h15M400 218h16M400 219h16M400 220h16M400 221h16M400 222h16M400 223h16M396 226h1M398 226h2M398 227h2M288 272h13M302 272h2M320 272h16M288 273h16M320 273h16M288 274h16M320 274h16M288 275h16M321 275h15M288 276h16M320 276h16M288 277h16M320 277h16M288 278h16M320 278h16M288 279h16M320 279h15M288 280h16M320 280h16M288 281h16M320 281h16M288 282h16M320 282h4M326 282h7M334 282h2M288 283h7M296 283h8M320 283h4M326 283h10M288 284h16M320 284h16M289 285h15M320 285h16M260 286h1M288 286h16M320 286h16M288 287h16M320 287h16M240 336h16M240 337h16M240 338h16M240 339h16M240 340h16M240 341h16M240 342h16M240 343h6M247 343h9M240 344h16M240 345h16M240 346h16M240 347h16M240 348h16M240 349h16M240 350h16M240 351h16" />
<path stroke="#fefefe" d="M288 144h32M288 145h32M254 146h2M288 146h32M254 147h2M288 147h32M288 148h32M288 149h32M288 150h32M288 151h32M288 152h4M293 152h6M300 152h20M288 153h13M302 153h18M288 154h32M288 155h32M288 156h32M288 157h32M288 158h30M319 158h1M288 159h32M272 160h16M336 160h16M272 161h16M336 161h16M272 162h16M336 162h16M272 163h16M336 163h16M272 164h16M336 164h16M272 165h6M279 165h9M336 165h16M272 166h16M336 166h16M272 167h16M336 167h16M272 168h16M336 168h16M272 169h11M284 169h4M336 169h16M272 170h16M336 170h16M272 171h16M336 171h16M272 172h16M336 172h16M272 173h16M336 173h16M272 174h16M336 174h16M272 175h16M336 175h16M252 192h2M252 193h2M399 203h1M392 206h1M256 208h16M256 209h16M256 210h2M259 210h13M256 211h16M256 212h16M256 213h16M256 214h16M256 215h16M256 216h16M256 217h16M256 218h16M256 219h16M256 220h16M256 221h16M256 222h16M256 223h16M240 224h5M246 224h26M240 225h32M240 226h32M240 227h32M240 228h32M240 229h32M240 230h32M240 231h32M240 232h32M240 233h32M240 234h32M240 235h32M240 236h20M261 236h11M240 237h32M240 238h32M240 239h32M288 240h16M352 240h16M288 241h16M352 241h16M288 242h16M352 242h16M288 243h16M352 243h16M288 244h16M352 244h16M288 245h16M352 245h16M288 246h16M346 246h3M352 246h16M288 247h6M295 247h9M346 247h2M352 247h16M288 248h16M352 248h16M288 249h16M352 249h16M288 250h16M352 250h16M288 251h16M352 251h7M360 251h8M288 252h16M352 252h16M288 253h16M352 253h16M288 254h3M292 254h12M352 254h16M288 255h16M352 255h16M288 256h16M288 257h16M288 258h16M288 259h14M303 259h1M288 260h16M288 261h16M288 262h16M288 263h16M288 264h16M288 265h16M288 266h16M288 267h16M288 268h16M288 269h16M288 270h16M288 271h16M304 304h16M304 305h16M304 306h16M304 307h16M304 308h16M304 309h16M304 310h16M304 311h16M304 312h16M304 313h16M304 314h16M304 315h16M304 316h16M304 317h16M304 318h16M304 319h16M272 320h16M304 320h16M272 321h16M304 321h16M272 322h16M304 322h16M272 323h16M304 323h16M272 324h16M304 324h16M272 325h16M304 325h16M272 326h16M304 326h16M272 327h16M304 327h16M272 328h16M304 328h16M272 329h16M304 329h16M272 330h16M304 330h4M309 330h11M272 331h16M304 331h16M272 332h16M304 332h16M272 333h16M304 333h16M272 334h16M304 334h3M308 334h12M272 335h5M278 335h10M304 335h16M288 336h16M288 337h16M288 338h4M294 338h10M288 339h4M294 339h10M288 340h16M288 341h16M288 342h16M288 343h16M288 344h16M288 345h16M288 346h16M288 347h16M288 348h16M288 349h16M288 350h16M288 351h16M272 352h16M272 353h7M280 353h8M314 353h1M272 354h16M272 355h16M272 356h7M280 356h8M272 357h16M272 358h16M272 359h16M272 360h16M272 361h2M275 361h13M272 362h16M305 362h1M272 363h2M275 363h13M272 364h16M272 365h16M272 366h16M272 367h16M288 368h16M288 369h16M288 370h16M288 371h16M288 372h16M288 373h16M288 374h16M288 375h16M288 376h4M294 376h10M288 377h4M294 377h10M288 378h14M288 379h14M288 380h16M288 381h16M288 382h16M288 383h16" />
<path stroke="#818081" d="M288 192h16M288 193h16M288 194h16M288 195h16M288 196h16M288 197h15M288 198h16M288 199h16M288 200h16M288 201h16M288 202h16M288 203h16M288 204h16M288 205h16M288 206h16M288 207h16M288 217h1M256 240h16M256 241h16M256 242h16M256 243h16M256 244h16M256 245h16M256 246h16M256 247h16M256 248h16M256 249h16M256 250h16M256 251h16M256 252h16M256 253h16M256 254h16M256 255h16M240 256h16M240 257h16M240 258h16M240 259h16M240 260h16M240 261h16M240 262h16M240 263h1M242 263h14M240 264h16M240 265h16M240 266h16M240 267h16M240 268h16M240 269h16M240 270h16M240 271h16M272 272h16M272 273h16M272 274h16M272 275h16M250 276h1M272 276h16M272 277h16M272 278h16M272 279h16M272 280h16M272 281h16M272 282h16M272 283h16M272 284h16M272 285h16M272 286h16M272 287h16M320 288h16M320 289h16M320 290h16M320 291h16M320 292h16M320 293h16M282 294h2M320 294h16M282 295h2M320 295h16M320 296h16M320 297h16M320 298h16M320 299h16M320 300h16M320 301h16M292 302h2M320 302h16M292 303h2M320 303h16M208 320h23M232 320h8M208 321h32M208 322h32M249 322h1M208 323h32M208 324h32M208 325h32M208 326h32M208 327h10M219 327h21M208 328h7M216 328h24M208 329h32M208 330h32M208 331h25M234 331h6M208 332h32M208 333h32M208 334h32M208 335h32M216 339h1M239 341h1M96 400h16M96 401h16M96 402h16M96 403h16M96 404h16M96 405h16M96 406h16M96 407h16M96 408h16M96 409h16M96 410h16M96 411h16M96 412h16M96 413h2M99 413h13M96 414h16M96 415h16" />
<path stroke="#808081" d="M303 197h1M288 208h16M288 209h16M288 210h16M288 211h16M288 212h16M288 213h16M288 214h16M288 215h16M288 216h16M289 217h15M288 218h16M288 219h16M288 220h16M288 221h16M288 222h16M288 223h16M240 272h16M240 273h16M240 274h16M240 275h16M240 276h10M251 276h5M240 277h16M240 278h16M240 279h16M240 280h16M240 281h16M240 282h16M240 283h16M240 284h16M240 285h16M240 286h16M240 287h16M272 288h16M272 289h16M272 290h16M272 291h16M272 292h16M272 293h16M272 294h10M284 294h4M272 295h10M284 295h4M272 296h16M272 297h16M272 298h16M272 299h10M283 299h5M272 300h16M272 301h16M272 302h16M272 303h16M231 320h1M215 328h1M233 331h1M224 336h16M224 337h16M224 338h16M224 339h7M232 339h8M224 340h16M224 341h15M224 342h16M224 343h16M224 344h16M224 345h16M224 346h16M224 347h16M224 348h16M224 349h16M224 350h16M224 351h16M67 359h1M334 397h1M330 398h1M320 400h16M320 401h16M314 402h2M320 402h16M314 403h2M320 403h7M328 403h8M320 404h6M327 404h9M320 405h16M320 406h16M320 407h16M320 408h16M320 409h16M320 410h16M320 411h16M320 412h16M320 413h5M326 413h10M320 414h16M320 415h4M325 415h11" />
</svg>