<svg xmlns="http://www.w3.org/2000/svg" viewBox="0 -0.5 192 192" shape-rendering="crispEdges">
    <path stroke="#fff" d="M48 29h15m1 0h20m6 0h13m1 0h5m1 0h4m-67 1h1m36 0h1m4 0h1m24 0h1m-68 1h1m36 0h1m4 0h1m24 0h1m-68 1h1m36 0h1m4 0h1m24 0h1m-68 1h1m36 0h1m4 0h1m24 0h1m-68 1h1m36 0h1m4 0h1m24 0h1m-68 1h1m36 0h1m4 0h1m24 0h1m-68 1h1m36 0h1m4 0h1m24 0h1m-68 1h1m36 0h1m4 0h1m24 0h1m-68 1h1m41 0h1m24 0h1m-68 1h1m36 0h1m4 0h1m24 0h1m-68 1h1m36 0h1m4 0h1m24 0h1m-73 1h6m36 0h6m24 0h6m1 0h3m-83 1h1m84 0h1m-86 1h1m84 0h1m-86 1h1m84 0h1m-1 1h1m-86 1h1m84 0h1m-86 1h1m84 0h12m-97 1h1m96 0h1m-98 1h1m96 0h1m-98 1h1m96 0h1m-98 1h1m96 0h1m-98 1h1m96 0h1m-98 1h1m96 0h4m1 0h1M41 54h1m102 0h1M41 55h1m21 0h1m80 0h1M41 56h1m21 0h1m80 0h1M41 57h1m102 0h1M41 58h1m102 0h1m-1 1h1M42 60h6m12 0h6m18 0h11m13 0h6m30 0h1m-98 1h1m12 0h6m18 0h12m12 0h6m30 0h1m-98 1h1m12 0h6m18 0h12m12 0h6m30 0h1m-98 1h1m12 0h6m18 0h12m12 0h6m30 0h1m-98 1h1m12 0h6m18 0h12m12 0h2m1 0h3m30 0h1M18 65h6m23 0h1m12 0h6m18 0h12m12 0h2m1 0h3m30 0h3m1 0h4m1 0h15M17 66h1m6 0h1m22 0h1m36 0h3m1 0h2m30 0h3m1 0h2m42 0h1M17 67h1m6 0h1m22 0h1m36 0h1m1 0h4m30 0h6m42 0h1M17 68h1m6 0h1m22 0h1m36 0h6m30 0h6m42 0h1M17 69h1m6 0h1m22 0h1m36 0h6m30 0h6m42 0h1M17 70h1m6 0h1m22 0h1m36 0h6m30 0h6m42 0h1M17 71h1m6 0h6m17 0h1m36 0h6m30 0h6m42 0h1M17 72h1m12 0h1m17 0h12m30 0h6m24 0h12m36 0h1M17 73h1m12 0h1m28 0h1m30 0h6m24 0h2m1 0h3m1 0h5m36 0h1M17 74h1m12 0h1m28 0h1m30 0h6m24 0h12m36 0h1M17 75h1m12 0h1m59 0h4m1 0h1m24 0h4m3 0h5m36 0h1M17 76h1m12 0h1m28 0h1m30 0h6m24 0h2m1 0h9m36 0h1M17 77h1m12 0h1m28 0h1m31 0h4m25 0h10m1 0h1m36 0h1M17 78h1m12 0h1m28 0h1m24 0h12m30 0h6m36 0h1M17 79h1m12 0h1m28 0h1m24 0h6m1 0h2m1 0h2m30 0h6m36 0h1M17 80h1m12 0h1m28 0h1m24 0h12m30 0h6m36 0h1M17 81h1m12 0h1m28 0h1m24 0h12m28 0h1m1 0h6m36 0h1M17 82h1m12 0h1m28 0h1m24 0h12m2 0h1m27 0h6m36 0h1M17 83h1m12 0h1m53 0h6m1 0h1m1 0h3m28 0h1m1 0h6m36 0h1M17 84h1m12 0h1m28 0h1m36 0h4m1 0h1m18 0h3m1 0h2m7 0h1m28 0h6M17 85h1m12 0h1m28 0h1m36 0h6m18 0h6m36 0h1M17 86h1m12 0h1m28 0h1m36 0h6m18 0h6m10 0h1m25 0h1M17 87h1m12 0h1m28 0h1m36 0h6m18 0h6M17 88h1m12 0h1m28 0h1m36 0h6m19 0h2m1 0h2m36 0h1M17 89h1m12 0h1m28 0h1m29 0h1m6 0h6m18 0h6m7 0h1m28 0h1M17 90h1m41 0h1m66 0h6m24 0h6M17 91h1m12 0h1m28 0h1m66 0h3m1 0h2m24 0h1M17 92h1m12 0h1m28 0h1m66 0h6m24 0h1M17 93h1m12 0h1m28 0h1m66 0h3m1 0h2m24 0h1M17 94h1m41 0h1m67 0h5m24 0h1M17 95h1m12 0h1m17 0h12m66 0h6m24 0h1M17 96h1m12 0h1m16 0h1m54 0h1m5 0h6m42 0h1M17 97h1m12 0h1m16 0h1m60 0h6m-97 1h1m12 0h1m16 0h1m60 0h6m42 0h1M17 99h1m12 0h1m16 0h1m60 0h6m42 0h1m-140 1h1m12 0h1m16 0h1m60 0h6m42 0h1m-140 1h1m12 0h1m16 0h1m60 0h6m42 0h1m-140 1h1m12 0h1m16 0h1m84 0h15m2 0h7m-139 1h1m12 0h1m16 0h1m84 0h1m-116 1h1m12 0h1m16 0h1m84 0h1m-116 1h1m12 0h1m16 0h1m84 0h1m-116 1h1m12 0h1m16 0h1m84 0h1m-116 1h1m12 0h1m5 0h2m1 0h9m84 0h1m-116 1h1m12 0h1m4 0h1m96 0h1m-116 1h1m12 0h1m4 0h1m96 0h1m-103 1h1m4 0h1m96 0h1m-116 1h1m12 0h1m4 0h1m96 0h1m-116 1h1m12 0h1m4 0h1m96 0h1m-116 1h1m12 0h1m4 0h1m96 0h1m-116 1h1m12 0h1m4 0h1m96 0h1m-116 1h1m12 0h1m4 0h1m96 0h1m-116 1h1m12 0h1m4 0h1m96 0h1m-116 1h1m12 0h1m4 0h1m96 0h1m-116 1h1m114 0h1m-116 1h1m12 0h1m4 0h1m96 0h1m-116 1h1m12 0h1m4 0h1m54 0h6m18 0h6m12 0h1m-116 1h1m12 0h1m4 0h1m54 0h6m18 0h6m12 0h1m-116 1h1m12 0h1m4 0h1m54 0h5m19 0h1m1 0h4m12 0h1m-116 1h1m12 0h1m4 0h1m54 0h6m18 0h6m12 0h1m-116 1h1m12 0h1m4 0h1m54 0h6m18 0h6m12 0h1m-116 1h1m12 0h1m4 0h1m54 0h3m2 0h1m18 0h2m1 0h3m12 0h1m-116 1h1m12 0h1m4 0h1m72 0h6m18 0h1m-116 1h1m12 0h1m4 0h1m72 0h6m18 0h1m-116 1h1m12 0h1m4 0h1m72 0h3m1 0h1m19 0h1m-116 1h1m12 0h1m4 0h1m72 0h6m18 0h1m-116 1h1m12 0h1m4 0h1m72 0h6m18 0h1m-116 1h1m12 0h6m57 0h1m14 0h6m18 0h1m-116 1h1m96 0h6m12 0h1m-116 1h1m96 0h6m12 0h1m-116 1h1m96 0h2m1 0h3m12 0h1m-116 1h1m96 0h6m12 0h1m-116 1h1m96 0h6m12 0h1m-116 1h1m96 0h6m12 0h1m-115 1h6m90 0h6m12 0h1m-110 1h1m90 0h6m12 0h1m-110 1h1m90 0h3m1 0h2m12 0h1m-110 1h1m90 0h6m12 0h1m-110 1h1m90 0h5m13 0h1m-110 1h1m90 0h6m12 0h6m1 0h5m-120 1h6m114 0h1m-116 1h1m114 0h1m-116 1h1m114 0h1m-116 1h1m114 0h1m-116 1h1m114 0h1m-116 1h1m114 0h4m1 0h1m-121 1h1m120 0h1m-122 1h1m120 0h1m-122 1h1m120 0h1m-122 1h1m120 0h1m-122 1h1m120 0h1m-122 1h1m120 0h1m-121 1h27m1 0h92"/>
    <path stroke="#fffffe" d="M63 29h1m20 9h1m35 3h1m-80 4h1m18 9h12m-12 1h3m1 0h8m-12 1h1m1 0h1m1 0h8m-12 1h12m-12 1h12m-12 1h12m31 0h1m2 0h1m3 5h1m14 0h1m-4 1h1m24 0h1m-61 1h1m35 0h1m-36 7h1m11 0h1m25 0h1m-2 2h2m-5 1h1m-33 1h1m5 1h6m36 0h6m-54 1h1m5 0h6m31 0h1m4 0h6m-48 1h6m36 0h6m-48 1h6m36 0h6m-48 1h2m1 0h3m36 0h6m-85 1h1m30 0h1m5 0h6m36 0h4m1 0h1m-60 1h12m12 0h6m-30 1h12m12 0h6m-30 1h7m2 0h3m12 0h6m-30 1h11m13 0h6m48 0h1m-79 1h12m12 0h6m6 0h1m-37 1h2m1 0h2m1 0h6m12 0h3m1 0h2m-84 1h1m98 3h1M30 94h1m95 0h1m-24 2h5m-6 1h6m-11 1h1m4 0h6m-6 1h6m-6 1h6m-6 1h6m39 1h1m-45 12h1m-11 11h1m-4 1h6m18 0h6m-30 1h6m18 0h6m-30 1h6m15 0h1m2 0h6m-30 1h6m18 0h6m-30 1h6m18 0h6m-30 1h3m1 0h2m18 0h6m-35 1h1m4 0h11m-11 1h12m-12 1h12m11 0h1m-24 1h10m1 0h1m-12 1h12m-12 1h4m1 0h7m-6 1h6m-6 1h6m-6 1h6m15 0h1m-22 1h6m-6 1h3m1 0h2m-6 1h6m6 1h6m-6 1h5m-5 1h6m-6 1h6m-6 1h4m1 0h1m-6 1h6"/>
    <path stroke="#fffeff" d="M103 29h1m5 0h1m14 12h1m-65 1h6m-6 1h5m-5 1h6m-6 1h6m-6 1h6m-6 1h6m0 1h6m-6 1h6m-6 1h6m-6 1h6m-6 1h2m1 0h3m-6 1h6m70 0h1m-23 1h6m-6 1h6m-6 1h6m-9 1h1m2 0h6m-12 1h1m5 0h6m-6 1h6m-30 1h6m-6 1h6m-6 1h6m-6 1h5m-5 1h6m-6 1h6m24 1h1m-42 1h1m46 5h6m-49 1h1m42 0h6m-6 1h6m-44 1h1m29 0h1m7 0h6m-6 1h6m-52 1h1m43 0h1m1 0h6m-18 1h6m-6 1h6m9 0h1m-16 1h6m-6 1h4m1 0h1m-6 1h6m-6 1h4m1 0h1m-26 1h1m1 0h6m24 0h1m1 0h4m-36 1h6m24 0h6m-36 1h6m24 0h3m2 0h1m-36 1h6m24 0h6m-36 1h6m24 0h6m-36 1h6m24 0h1m1 0h4m-22 6h1m31 7h1m-41 12h6m-6 1h6m-6 1h6m-9 1h1m2 0h6m-6 1h5m-5 1h6m1 3h1m-22 3h1m1 1h6m-6 1h6m-6 1h6m-6 1h6m-6 1h6m-6 1h6m6 7h2m1 0h3m-6 1h6m-6 1h6m-6 1h6m-6 1h6m-6 1h6m34 6h1"/>
    <path stroke="#010100" d="M48 30h12m42 0h2m1 0h3m-60 1h12m42 0h1m1 0h4m-60 1h10m1 0h1m42 0h6m-60 1h12m42 0h6m-60 1h12m42 0h1m1 0h4m-60 1h3m2 0h1m1 0h5m42 0h6m-30 1h6m-6 1h6m-26 1h1m19 0h6m-6 1h1m1 0h4m-6 1h5m-5 1h6m-36 1h6m36 0h6m-48 1h6m36 0h6m-48 1h6m36 0h6m-48 1h6m36 0h6m-48 1h6m36 0h6m-48 1h6m36 0h6m6 1h3m1 0h2m-6 1h6m-6 1h5m-19 1h1m13 0h6m29 0h1m-53 1h1m16 0h6m-18 1h1m11 0h6m-49 2h1m20 3h1m-3 2h6m-6 1h6m52 0h1m-59 1h6m-6 1h6m-6 1h6m-6 1h6m-6 1h4m32 0h6m47 0h1m-90 1h6m30 0h6m-42 1h6m31 0h5m-42 1h6m30 0h6m-42 1h6m27 0h1m2 0h6m-42 1h6m30 0h1m1 0h1m1 0h2m-60 1h6m12 0h3m1 0h2m-24 1h6m12 0h2m1 0h3m-24 1h6m12 0h2m1 0h3m-24 1h6m12 0h6m-22 1h4m12 0h6m-24 1h6m12 0h6m-58 1h1m45 0h6m-6 1h6m-6 1h3m1 0h2m-6 1h6m-6 1h6m-13 1h1m6 0h2m1 0h3m68 2h1m-84 7h1m56 4h6m-6 1h6m-6 1h6m-6 1h6m-6 1h6m-70 1h1m63 0h2m1 0h3m-105 1h1m50 0h6m-6 1h6m-6 1h6m-58 1h1m51 0h6m-6 1h6m4 0h1m-11 1h6m-42 1h6m6 0h6m-18 1h4m1 0h1m6 0h6m-18 1h6m7 0h5m21 0h1m-40 1h2m1 0h3m6 0h4m1 0h1m-18 1h6m6 0h5m-17 1h5m7 0h6m24 1h6m30 0h6m6 0h6m-96 1h1m41 0h6m30 0h6m6 0h6m-54 1h1m1 0h4m30 0h4m1 0h1m6 0h4m1 0h1m-113 1h1m19 0h1m38 0h6m30 0h6m6 0h2m1 0h3m-54 1h1m1 0h4m30 0h4m1 0h1m6 0h6m-54 1h6m30 0h6m6 0h6m-108 7h5m31 0h6m-42 1h6m30 0h6m-42 1h6m30 0h6m-42 1h4m1 0h1m30 0h6m-42 1h3m1 0h2m30 0h6m-42 1h6m30 0h6m-42 1h6m30 0h6m12 0h6m-60 1h1m1 0h4m11 0h1m18 0h6m12 0h5m-59 1h2m1 0h3m30 0h6m12 0h2m1 0h3m-60 1h6m30 0h5m13 0h6m-60 1h6m30 0h3m1 0h2m6 0h1m5 0h3m1 0h2m-60 1h6m30 0h6m13 0h5m-36 1h6m24 0h1m1 0h4m-51 1h1m13 0h5m1 0h1m24 0h6m-36 1h6m25 0h3m1 0h1m-54 1h1m17 0h6m6 0h1m17 0h6m-36 1h6m24 0h6m-36 1h6m24 0h6m12 1h6m36 0h6m-48 1h6m36 0h6m-65 1h1m16 0h4m1 0h1m22 0h1m13 0h5m-47 1h6m36 0h6m-48 1h1m1 0h4m22 0h1m3 0h1m9 0h2m1 0h3m-48 1h6m36 0h4m1 0h1m-23 2h1m-1 1h1"/>
    <path stroke="#000" d="M60 30h6m42 0h4m1 0h1m-54 1h6m42 0h6m-54 1h6m17 0h1m24 0h6m-54 1h6m17 0h1m24 0h5m-53 1h6m17 0h1m24 0h6m-54 1h6m14 0h1m27 0h6m-5 3h1m-56 1h1m23 3h12m-12 1h12m-12 1h10m1 0h1m-12 1h6m1 0h5m-12 1h9m1 0h1m16 0h1m-28 1h12m-18 1h6m1 0h5m30 0h12m-54 1h2m1 0h9m30 0h9m1 0h2m-54 1h12m30 0h12m-54 1h12m10 0h1m19 0h12m-53 1h7m1 0h3m30 0h7m1 0h4m-54 1h12m30 0h12m-78 1h6m-6 1h5m-5 1h1m1 0h4m-6 1h6m-6 1h6m-6 1h6m-4 2h1m2 2h1m-6 3h6m102 0h6M49 67h5m102 0h6M48 68h6m102 0h4m1 0h1M48 69h1m1 0h4m102 0h6M48 70h6m102 0h4m1 0h1m1 0h1M48 71h6m102 0h6m-43 2h1m-4 2h1m-99 3h6m42 0h6m6 0h4m1 0h1m24 0h3m1 0h2m-96 1h6m42 0h6m6 0h6m24 0h6m-96 1h6m42 0h6m6 0h6m24 0h6m-96 1h6m42 0h4m1 0h1m6 0h6m24 0h6m-96 1h2m1 0h3m42 0h6m6 0h6m24 0h6m-96 1h6m42 0h6m6 0h1m1 0h4m24 0h6m-36 1h6m61 0h1m10 0h6m-84 1h4m1 0h1m72 0h6m-84 1h6m61 0h1m10 0h5m-83 1h6m72 0h6m-84 1h3m1 0h2m72 0h6m-84 1h6m72 0h6m-84 1h6m-63 1h1m58 0h4m-6 1h6m-6 1h6m-6 1h6m-6 1h4m1 0h1m-66 1h6m31 0h1m94 0h6M18 97h6m126 0h6M18 98h6m120 0h1m5 0h6M18 99h6m126 0h6m-138 1h6m126 0h6m-138 1h6m126 0h6m-98 3h1m-1 2h1m24 0h1m38 0h1m-105 2h6m36 0h6m-48 1h6m36 0h6m-48 1h6m20 0h1m15 0h6m-48 1h6m36 0h6m-48 1h6m36 0h6m-48 1h6m36 0h4m1 0h1m27 3h1m-27 2h1m-26 2h6m6 0h6m66 0h1m-85 1h6m6 0h6m-31 1h1m12 0h6m6 0h6m-34 1h1m15 0h6m6 0h6m-36 1h1m17 0h6m6 0h6m-18 1h6m6 0h6m-24 1h6m-6 1h6m-6 1h4m1 0h1m79 0h1m-86 1h6m-6 1h2m1 0h3m-6 1h6m5 2h1m21 1h1m-19 1h1m-15 1h1m16 2h6m60 0h2m1 0h3m-72 1h6m60 0h6m-72 1h6m60 0h6m-72 1h2m1 0h3m60 0h6m-72 1h3m1 0h2m60 0h2m1 0h3m-72 1h6m60 0h6m-81 1h1m79 1h1m-1 3h1m-84 2h6m24 0h6m48 0h6m-90 1h6m9 0h1m14 0h6m48 0h5m-89 1h6m24 0h6m48 0h6m-89 1h5m24 0h3m1 0h2m26 0h1m21 0h6m-90 1h6m24 0h6m48 0h6m-90 1h6m24 0h6m48 0h6"/>
    <path stroke="#010000" d="M66 30h3m1 0h2m6 0h6m-18 1h6m6 0h6m19 0h1m-46 1h1m7 0h6m6 0h5m-17 1h6m6 0h5m30 0h1m-48 1h6m6 0h5m20 0h1m-52 1h1m13 0h6m6 0h2m1 0h3m-30 1h6m-6 1h6m-6 1h4m1 0h1m-5 1h5m19 0h1m13 0h1m-40 1h6m-6 1h6m30 0h1m-19 1h6m-5 1h5m-6 1h6m-6 1h6m-6 1h6m-6 1h6m6 1h6m-16 1h1m9 0h6m-6 1h6m-6 1h4m1 0h1m-10 1h1m3 0h1m1 0h4m-6 1h6m-48 1h6m-6 1h6m5 0h1m-12 1h6m-6 1h6m-6 1h6m-6 1h6m0 1h6m21 0h1m56 0h6m-90 1h2m1 0h3m78 0h4m1 0h1m-90 1h6m3 0h1m74 0h6m-90 1h5m79 0h6m-90 1h6m78 0h6m-90 1h6m78 0h6m-72 1h6m10 0h1m-17 1h6m-6 1h6m-6 1h6m-6 1h6m-6 1h6m43 0h1m-92 1h6m78 0h12m36 0h6M24 73h6m78 0h11m37 0h6M24 74h6m78 0h12m36 0h6M24 75h6m78 0h8m1 0h3m36 0h6M24 76h6m31 0h1m4 0h1m41 0h12m36 0h6M24 77h6m78 0h9m1 0h2m36 0h6M20 82h1m140 4h1m-85 1h1m-6 3h1m2 1h1m50 6h1m14 0h1m-16 3h1m-67 1h1m17 1h6m42 0h1m-49 1h6m-6 1h6m-6 1h6m45 0h1m-52 1h4m-4 1h6m-60 1h6m12 0h6m6 0h3m1 0h2m-36 1h6m10 0h1m1 0h6m6 0h6m9 0h1m-46 1h6m12 0h2m1 0h3m6 0h6m-36 1h6m12 0h6m4 0h1m1 0h6m-36 1h6m12 0h6m6 0h6m-36 1h6m12 0h6m6 0h6m-42 1h6m-6 1h6m-6 1h6m55 0h1m38 0h1m11 0h1m-113 1h1m1 0h4m-6 1h6m55 0h1m38 0h1m-101 1h6m0 1h6m8 0h1m-15 1h6m-6 1h5m7 0h1m-13 1h2m1 0h3m-5 1h5m-6 1h6m-2 4h1m9 1h1m3 2h6m-23 1h1m16 0h5m-5 1h6m-6 1h6m-6 1h6m-6 1h6m-12 1h6m37 0h1m42 0h1m-87 1h6m10 0h1m-17 1h6m40 0h1m-46 1h5m14 0h1m-21 1h6m80 0h1m-87 1h6m0 1h3m1 0h2m19 0h17m36 0h6m-84 1h6m18 0h18m36 0h5m-83 1h6m18 0h13m1 0h4m16 0h1m19 0h4m1 0h1m-84 1h7m14 0h1m2 0h18m36 0h6m-84 1h6m3 0h1m14 0h18m13 0h1m22 0h4m-82 1h6m18 0h18m36 0h6m16 0h1m-77 1h6m30 0h6m12 0h6m-60 1h6m30 0h6m12 0h1m1 0h4m5 0h1m-66 1h6m30 0h6m12 0h1m1 0h4m-60 1h6m30 0h2m1 0h3m12 0h6m-60 1h6m30 0h6m12 0h6m-60 1h6m30 0h6m12 0h6"/>
    <path stroke="#010001" d="M69 30h1m26 0h6m-6 1h6m-6 1h6m-6 1h6m-6 1h6m-6 1h6m-12 1h6m6 0h6m-18 1h6m6 0h6m-18 1h6m6 0h6m-39 1h1m20 0h3m1 0h2m6 0h6m-18 1h6m6 0h6m-17 1h5m6 0h6m12 1h6m-54 1h1m47 0h6m-6 1h6m-6 1h6m-6 1h6m-6 1h6m1 4h1m-32 2h1m-43 7h1m1 0h4m12 0h3m1 0h1m-23 1h6m12 0h6m65 0h1m-90 1h3m1 0h2m12 0h5m63 0h1m2 0h1m-90 1h6m12 0h6m-24 1h1m1 0h4m12 0h1m1 0h4m-24 1h6m12 0h6m-18 1h6m43 0h1m-53 1h1m2 0h6m-6 1h6m-6 1h6m-6 1h6m43 0h1m-50 1h6m0 1h6m90 0h1m1 0h4M66 73h6m90 0h6M66 74h6m90 0h5M66 75h6m5 0h1m84 0h6M67 76h5m90 0h5M66 77h6m45 0h1m44 0h6m-2 3h1M60 84h6m6 0h6m-18 1h6m6 0h6m-18 1h6m6 0h1m1 0h4m76 0h1m-95 1h6m6 0h5m-17 1h6m6 0h6m-18 1h6m6 0h6m-5 1h5m66 0h12m-84 1h1m1 0h1m1 0h2m66 0h1m1 0h10m-84 1h6m66 0h12M27 93h1m44 0h6m66 0h10m1 0h1m-84 1h6m66 0h12m-84 1h2m1 0h1m1 0h1m66 0h12M24 96h6m30 0h5m13 0h6m42 0h1m1 0h4m6 0h6M24 97h6m30 0h6m12 0h6m43 0h5m6 0h3m1 0h2M24 98h6m30 0h6m12 0h6m42 0h6m6 0h2m1 0h3M24 99h6m23 0h1m6 0h6m12 0h6m42 0h6m6 0h6m5 0h1m-126 1h6m30 0h6m5 0h1m6 0h6m43 0h1m1 0h3m6 0h6m-120 1h6m32 0h4m12 0h6m42 0h6m6 0h6m-96 1h6m73 0h5m-84 1h6m72 0h6m-84 1h6m68 0h1m3 0h6m-84 1h1m1 0h4m72 0h3m1 0h1m-83 1h6m72 0h6m-84 1h4m1 0h1m72 0h6m-75 1h1m8 0h6m59 0h1m-66 1h3m1 0h2m-6 1h6m-6 1h4m1 0h1m-6 1h6m10 0h1m-17 1h6m-47 1h1m51 2h1m-3 2h1m-40 2h2m1 0h3m-6 1h6m-5 1h3m1 0h1m-6 1h6m-6 1h5m-5 1h6m12 1h6m-6 1h6m-6 1h6m-6 1h6m-6 1h4m1 0h1m-6 1h1m1 0h4m-6 1h6m-6 1h6m11 0h1m-18 1h6m-6 1h1m1 0h3m-5 1h6m-6 1h6m4 2h1m-29 2h1m24 1h1m-14 2h19m35 0h6m-60 1h18m36 0h6m-60 1h18m36 0h6m-59 1h14m1 0h2m36 0h4m1 0h1m-60 1h3m1 0h14m36 0h6m-60 1h18m37 0h5m-30 1h6m12 0h1m1 0h4m-24 1h6m12 0h6m-24 1h6m12 0h6m-24 1h6m12 0h6m-43 1h1m18 0h6m12 0h6m-24 1h6m12 0h6"/>
    <path stroke="#010101" d="M72 30h6m12 0h6m-24 1h6m12 0h6m-24 1h6m12 0h6m-24 1h6m12 0h2m1 0h3m-24 1h6m12 0h6m-45 1h1m2 0h1m17 0h6m12 0h6m-48 1h6m-6 1h6m-6 1h6m-6 1h6m-6 1h6m-6 1h6m42 1h6m6 0h6m-18 1h6m6 0h6m-18 1h6m6 0h6m-18 1h6m6 0h6m-18 1h6m6 0h6m-18 1h6m6 0h6m-9 1h1m20 0h12m-12 1h12m-31 1h1m18 0h12m-12 1h1m1 0h9m-11 1h2m1 0h9m-12 1h12m-84 1h6m-6 1h5m-5 1h6m-6 1h6m-6 1h6m-6 1h6m-5 1h1m-1 4h1m17 0h1m-2 2h6m30 0h1m1 0h4m-42 1h2m1 0h3m30 0h6m-42 1h6m30 0h7m22 0h1m5 0h1M23 69h1m48 0h6m30 0h5m-41 1h6m30 0h1m1 0h1m1 0h2m-42 1h6m30 0h6m3 0h1m19 0h1m25 1h1m-8 6h12m-12 1h12m-93 1h1m80 0h10m1 0h1m-52 1h1m39 0h6m1 0h5m-12 1h12m-12 1h12M18 84h6m42 0h6m78 0h6M18 85h6m42 0h6m78 0h6M18 86h6m42 0h6m1 0h1m76 0h4m1 0h1M18 87h6m42 0h6m78 0h6M18 88h6m42 0h6m78 0h6M18 89h6m42 0h6m78 0h6m-96 1h6m-6 1h6m7 0h1m71 0h1m-86 1h3m1 0h2m-6 1h6m2 0h1m85 0h1m-95 1h6m-6 1h6m10 0h1m-5 1h6m49 0h1m-56 1h2m1 0h3m-6 1h6m-6 1h6m-6 1h6m-17 1h1m10 0h6m-29 4h1m15 0h1m-14 2h1m18 0h1m0 1h12m-12 1h12m-36 1h1m23 0h3m1 0h8m-14 1h1m1 0h12m-12 1h10m-10 1h5m1 0h6m-60 1h1m1 0h4m6 0h6m42 0h6m30 0h6m-102 1h6m7 0h5m42 0h6m30 0h6m-102 1h6m6 0h6m42 0h6m30 0h6m-102 1h6m6 0h3m1 0h2m42 0h6m11 0h1m18 0h6m-102 1h6m6 0h6m2 0h1m39 0h6m30 0h6m-102 1h6m6 0h6m42 0h6m30 0h6m-4 1h1m-83 2h1m-14 8h1m30 0h1m-4 1h1m-26 1h6m36 0h6m53 0h1m-101 1h1m1 0h3m36 0h6m44 0h1m-92 1h5m36 0h6m-48 1h6m19 0h1m16 0h6m-48 1h6m27 0h1m9 0h5m3 0h1m-52 1h6m36 0h7m49 0h1m-99 1h6m24 0h12m-42 1h3m1 0h2m24 0h4m1 0h7m-42 1h6m24 0h12m6 0h1m-48 1h5m25 0h2m1 0h7m-41 1h6m24 0h1m1 0h10m-42 1h6m24 0h12m12 1h6m-6 1h6m-6 1h6m-6 1h6m16 0h1m-23 1h6m-6 1h6m44 0h1m-87 1h6m6 0h6m18 0h6m7 0h1m40 0h12m-102 1h6m6 0h6m18 0h6m48 0h12m-102 1h6m6 0h6m18 0h6m48 0h12m-102 1h6m6 0h6m18 0h6m48 0h5m1 0h6m-102 1h6m6 0h6m18 0h6m48 0h12m-102 1h6m6 0h2m1 0h3m18 0h6m48 0h12"/>
    <path stroke="#000100" d="M104 30h1m7 0h1m-17 6h6m6 0h6m-18 1h6m7 0h5m-18 1h6m6 0h1m1 0h4m-18 1h3m1 0h2m6 0h6m-31 1h1m12 0h6m6 0h6m-18 1h5m7 0h6m-26 3h1m25 0h1m-73 3h1m47 1h6m12 0h6m-69 1h1m44 0h6m12 0h6m-72 1h1m47 0h6m12 0h6m-24 1h4m1 0h1m12 0h6m-24 1h6m12 0h6m7 0h1m-31 1h5m12 0h6m-36 1h6m-6 1h6m-35 1h1m28 0h6m-6 1h6m-6 1h2m1 0h3m-6 1h6m-1 7h1m66 0h6m6 0h5m-17 1h6m6 0h5m-17 1h6m4 0h1m1 0h6M49 69h1m91 0h1m9 0h5m6 0h6m-18 1h6m4 0h1m1 0h1m1 0h4m-24 1h1m5 0h6m6 0h6m-87 1h1m-2 1h1m-1 1h1m-57 4h2m1 0h3m30 0h6m16 0h1m-59 1h6m30 0h6m-42 1h6m30 0h6m-42 1h6m30 0h6m4 0h1m43 0h1m-91 1h6m30 0h6m-42 1h6m30 0h5m9 0h1m4 0h1m-56 1h6m114 0h1m1 0h4M24 85h6m52 0h1m61 0h2m1 0h3M24 86h6m114 0h1m1 0h4M24 87h6m114 0h6M24 88h6m114 0h6M24 89h6m114 0h6m-81 2h1m9 0h1m2 4h1m-29 1h1m1 0h4m-6 1h3m1 0h2m-6 1h6m-6 1h6m-6 1h6m-6 1h2m1 0h3m62 0h1m12 0h1m-118 1h3m1 0h8m24 0h6m-42 1h12m24 0h6m3 0h1m-46 1h12m24 0h4m1 0h1m-42 1h2m1 0h9m24 0h3m1 0h2m-42 1h12m24 0h4m1 0h1m-42 1h12m24 0h6m60 1h6m-6 1h6m-6 1h6m-88 1h1m81 0h6m-73 1h1m66 0h6m-85 1h1m22 0h1m55 0h6m-60 1h6m-6 1h6m-6 1h3m1 0h2m-27 1h1m20 0h6m56 0h1m-63 1h1m1 0h4m-6 1h6m-54 1h6m-6 1h6m42 0h1m-49 1h6m-6 1h6m45 0h1m-52 1h6m-6 1h3m1 0h2m5 1h1m12 0h6m72 0h6m-83 1h5m72 0h6m-108 1h1m21 0h1m1 0h6m72 0h1m1 0h4m-84 1h6m72 0h6m-84 1h6m72 0h6m-84 1h6m72 0h6m-90 1h6m-6 1h5m42 0h1m-58 1h1m9 0h6m38 0h1m42 0h1m-88 1h6m23 0h1m-30 1h1m1 0h4m-6 1h3m1 0h2m0 1h6m-6 1h3m1 0h1m-5 1h6m-6 1h5m-5 1h3m1 0h2m-6 1h6m42 1h6m30 0h6m-42 1h6m30 0h6m3 0h1m-46 1h6m30 0h6m11 0h1m-54 1h6m30 0h6m-42 1h6m30 0h2m1 0h3m8 0h1m-51 1h6m30 0h6m-42 5h1"/>
    <path stroke="#000101" d="M92 33h1m-33 3h6m-6 1h6m42 0h1m-49 1h6m7 0h1m-14 1h1m1 0h4m33 0h1m-40 1h6m-6 1h6m35 0h1m-60 1h6m66 0h6m-78 1h6m66 0h6m-78 1h6m67 0h5m-78 1h6m66 0h4m1 0h1m-78 1h6m66 0h6m-77 1h5m66 0h6m-78 1h6m-6 1h3m1 0h2m-5 1h5m-6 1h6m49 0h1m-56 1h6m80 0h1m-87 1h6m24 1h6m60 0h6m-72 1h6m60 0h6m-72 1h6m60 0h6m-72 1h6m60 0h6m-72 1h6m60 0h6m-72 1h6m60 0h6M18 66h6m108 0h18M18 67h6m50 0h1m57 0h18m17 0h1M18 68h6m108 0h5m1 0h5m1 0h6M18 69h5m32 0h1m57 0h1m18 0h9m1 0h9M18 70h6m108 0h18M18 71h6m108 0h5m1 0h6m1 0h5M18 72h6m-6 1h6m-6 1h6m-6 1h6m-6 1h6m36 0h1m-43 1h6m90 1h6m-6 1h6m-6 1h6m-5 1h1m1 0h3m42 0h1m-49 1h6m-6 1h1m1 0h4m-54 7h6m-6 1h3m1 0h2m-6 1h6m-6 1h2m1 0h3m-6 1h6m-6 1h4m1 0h1m60 1h6m-81 1h1m16 0h1m57 0h6m-6 1h6m10 0h1m-17 1h6m-89 1h1m82 0h6m-6 1h3m1 0h2m-78 1h12m-12 1h3m1 0h8m-12 1h12m-15 1h1m2 0h4m2 0h6m-12 1h12m-12 1h11m59 1h1m-4 2h1m-45 2h1m-7 1h1m-36 1h24m30 0h6m-60 1h24m28 0h1m1 0h6m-60 1h16m1 0h7m3 0h1m26 0h6m-60 1h3m1 0h20m30 0h5m-59 1h2m1 0h21m30 0h6m-60 1h1m1 0h8m1 0h13m25 0h1m4 0h6m-54 1h6m12 0h6m48 0h2m1 0h1m1 0h1m-78 1h6m13 0h5m48 0h6m-78 1h6m12 0h4m1 0h1m48 0h6m-78 1h6m12 0h3m1 0h2m48 0h6m-78 1h4m1 0h1m12 0h6m48 0h1m1 0h4m-105 1h1m26 0h6m12 0h6m48 0h6m-108 1h6m24 0h6m72 0h6m-114 1h6m18 0h1m5 0h6m72 0h6m-113 1h5m24 0h6m72 0h6m-114 1h6m24 0h6m72 0h6m-114 1h6m24 0h6m72 0h6m-114 1h6m24 0h1m1 0h4m72 0h6m-12 1h11m-101 1h1m1 0h1m87 0h2m1 0h9m-102 1h1m89 0h3m1 0h8m-12 1h12m-12 1h12m-93 1h1m80 0h8m1 0h3m-6 1h6m-87 1h1m80 0h6m-6 1h6m-85 1h1m15 0h1m7 0h1m54 0h6m-87 1h1m80 0h6m-6 1h6m0 1h6m-6 1h3m1 0h2m-6 1h6m-6 1h6m-6 1h6m-6 1h2m1 0h3m-48 1h6m-6 1h6m-38 1h1m31 0h6m-6 1h6m47 0h1m-52 1h4m-34 1h1m27 0h6"/>
    <path stroke="#000001" d="M66 36h12m-12 1h12m-12 1h7m1 0h4m-17 1h1m4 0h3m1 0h8m-12 1h12m-12 1h12m24 1h6m-6 1h6m-6 1h6m-24 1h1m17 0h6m10 0h1m-32 1h1m1 0h1m12 0h3m1 0h2m-6 1h6m-30 1h1m17 0h6m-6 1h6m21 0h1m-28 1h6m-6 1h1m1 0h4m-30 1h1m23 0h6m-5 1h5m30 1h6m-6 1h6m-6 1h6m-6 1h6m-6 1h6m-6 1h6m-61 1h1m60 0h6m-6 1h5m-66 1h1m60 0h2m1 0h2m-5 1h6m-6 1h6m-6 1h6m-90 1h6m-12 1h1m5 0h3m1 0h2m-6 1h6m-6 1h1m1 0h4m-6 1h6m-6 1h6m12 1h6m-6 1h6m-6 1h6m89 0h1m-96 1h5m-5 1h6m89 0h1m-96 1h6m33 1h1m3 5h1m-35 5h1m-64 2h12m-12 1h3m1 0h8m48 0h1m-61 1h12m-12 1h9m1 0h2m-12 1h12m-12 1h12m40 0h1m3 0h1m-27 1h6m11 0h7m72 0h6M48 97h6m12 0h6m72 0h6M48 98h6m12 0h6m68 0h1m4 0h3m1 0h1M48 99h5m13 0h6m72 0h5m-101 1h1m1 0h4m12 0h5m57 0h1m15 0h6m-102 1h6m12 0h6m72 0h6m-30 1h6m-6 1h6m-6 1h2m1 0h3m-62 1h1m55 0h6m5 0h1m-12 1h2m1 0h3m-6 1h6m0 1h4m-4 1h6m-6 1h1m1 0h4m-6 1h6m-6 1h6m-6 1h6m-60 1h6m12 0h6m-24 1h6m12 0h4m1 0h1m-38 1h1m13 0h5m13 0h3m1 0h2m-24 1h6m12 0h6m-24 1h3m1 0h2m12 0h6m-53 1h1m8 0h1m19 0h6m12 0h1m1 0h4m-36 1h6m58 0h1m2 0h5m-72 1h6m60 0h6m-72 1h6m4 0h1m55 0h6m-72 1h6m60 0h6m-91 1h1m10 0h1m7 0h6m55 0h1m4 0h6m-72 1h6m60 0h6m-66 1h6m-6 1h6m-6 1h6m-6 1h6m-6 1h6m-23 1h1m16 0h6m-24 1h6m12 0h6m-24 1h6m12 0h5m-23 1h6m12 0h3m1 0h2m-24 1h3m1 0h2m5 0h1m6 0h6m-24 1h6m12 0h6m-24 1h6m12 0h6m0 1h6m-6 1h6m-6 1h6m-6 1h6m-21 1h1m14 0h6m-6 1h6m24 6h1m-49 1h6m72 0h6m-84 1h3m1 0h2m72 0h6m-84 1h4m1 0h1m72 0h6m-96 1h1m11 0h6m15 0h1m56 0h6m-84 1h5m32 0h1m40 0h6m-84 1h6m72 0h6"/>
    <path stroke="#feffff" d="M125 41h1m-59 2h1m22 11h6m1 0h1m28 0h6m-42 1h6m30 0h4m1 0h1m-42 1h6m30 0h6m-47 1h1m4 0h6m30 0h6m-42 1h6m31 0h5m-91 1h1m48 0h6m30 0h6m-37 1h1m18 0h6m-54 1h1m47 0h6m-6 1h6m-6 1h6m-6 1h6m-10 1h1m3 0h4m1 0h1m32 0h1m-59 5h1m27 3h1m19 0h1m-84 2h1m35 2h1m-3 2h1m-2 4h1m30 1h1m2 0h6m-6 1h6m-6 1h5m-5 1h6m-9 1h1m2 0h6m-6 1h1m1 0h4m-36 1h12m-12 1h12m21 0h1m-34 1h12m-12 1h12m-12 1h12m-12 1h1m1 0h10m14 0h1m33 2h1M38 107h1m-22 3h1m12 8h1m4 0h1m60 2h6m-6 1h6m-7 1h7m-6 1h6m-6 1h6m-6 1h6m14 0h1m-11 1h1m6 2h1m2 6h1m-6 2h1m-28 5h1m34 1h1m18 1h1m-82 13h1"/>
    <path stroke="#808081" d="M54 42h6m-6 1h6m-6 1h6m-6 1h6m-6 1h6m-6 1h4m1 0h1m90 25h6m-6 1h3m1 0h2m-6 1h6m-6 1h6m-6 1h6m-6 1h6m-18 13h4m1 0h1m-6 1h6m-6 1h6m-6 1h6m-6 1h6m-6 1h6m-54 1h6m-6 1h1m1 0h4m-6 1h6m-6 1h6m-6 1h6m-6 1h6m-6 1h6m-6 1h6m-6 1h6m-6 1h6m-6 1h6m-6 1h3m1 0h2m-6 1h12m6 0h12m-30 1h9m1 0h2m6 0h12m-30 1h12m6 0h11m-29 1h3m1 0h8m6 0h12m-30 1h12m6 0h12m-30 1h12m2 0h1m3 0h12m-47 7h5m-6 1h6m-6 1h6m-6 1h5m-5 1h6m-6 1h6m-54 13h6m-6 1h3m1 0h2m-6 1h6m-6 1h2m1 0h3m-6 1h6m-6 1h6m87 3h1m-88 4h6m-6 1h6m-6 1h6m-6 1h6m-6 1h6m-6 1h5"/>
    <path stroke="#fefeff" d="M66 42h6m-7 1h2m1 0h4m-6 1h3m1 0h2m-6 1h6m-6 1h6m-6 1h6m-9 3h1m4 2h1m15 2h6m6 0h1m1 0h4m-18 1h6m7 0h5m28 0h1m-47 1h6m6 0h6m-18 1h1m1 0h4m6 0h6m-18 1h6m6 0h6m-18 1h6m6 0h6m24 1h6m-6 1h6m-6 1h6m-6 1h6m-6 1h6m-14 1h1m7 0h6m-42 1h6m-6 1h6m-6 1h6m-6 1h6m-6 1h4m1 0h1m-6 1h6m42 1h6m-6 1h4m1 0h1m-6 1h6m-6 1h6m-6 1h6m-6 1h6m-17 12h1m-20 1h1m5 0h3m1 0h2m-6 1h6m-6 1h6m-6 1h2m1 0h3m-6 1h3m1 0h2m-23 1h1m13 0h1m2 0h2m1 0h3m-6 1h6m-6 1h6m-6 1h6m-6 1h6m-6 1h6m-5 1h5m-7 17h1m-12 2h12m-12 1h12m-12 1h12m-12 1h12m-12 1h6m1 0h2m1 0h2m-12 1h12m-12 1h4m1 0h1m-6 1h6m-6 1h6m-6 1h6m-6 1h6m-5 1h5m2 7h1"/>
    <path stroke="#fefefe" d="M69 44h1m-10 4h6m-6 1h2m1 0h3m-6 1h3m1 0h2m-6 1h6m-6 1h6m-6 1h6m42 1h6m-18 1h1m11 0h6m-6 1h3m1 0h2m-6 1h6m-6 1h6m-6 1h6m-12 1h6m-6 1h6m-6 1h6m-6 1h6m-6 1h6m-6 1h4m1 0h1m23 1h1m-4 1h1m-25 3h1m2 0h1m-10 1h1m-10 1h1m11 0h1m-16 2h1m11 1h1m10 15h3m1 0h1m3 0h1m3 0h1m-14 1h6m-6 1h6m-6 1h6m2 0h1m-9 1h4m1 0h1m3 0h1m-10 1h3m1 0h2m-15 2h1m14 4h1m-8 14h1m0 9h1m2 0h1m-10 7h1m-1 1h6m-6 1h6m-6 1h6m-6 1h6m-6 1h6m1 0h1m-8 1h6m-5 5h1"/>
    <path stroke="#808181" d="M58 47h1m43 25h6m-6 1h3m1 0h2m-6 1h6m-6 1h6m-6 1h6m-6 1h6m34 13h1m-52 7h1m16 5h6m-6 1h6m-6 1h6m-6 1h6m-6 1h6m-6 1h6m-29 1h5m-6 1h6m-6 1h6m-6 1h6m-5 1h5m-5 1h5m-9 10h1m-4 5h1m2 1h1m26 21h6m-6 1h6m-6 1h6m-6 1h6m-75 1h1m68 0h2m1 0h3m-6 1h6"/>
    <path stroke="#818181" d="M48 48h6m-6 1h6m-6 1h6m-6 1h6m-6 1h6m-6 1h6m51 20h1m38 7h1m1 2h1M87 98h1m-10 22h6m-6 1h6m-6 1h6m-6 1h3m1 0h2m-6 1h6m-6 1h6m-48 20h1m2 3h1m74 2h4m1 0h1m-6 1h6m-6 1h6m-6 1h6m-10 1h1m3 0h6m-6 1h6"/>
    <path stroke="#818080" d="M54 48h6m-6 1h2m1 0h3m-6 1h6m-6 1h6m-6 1h6m-6 1h6m90 25h6m-5 1h5m-6 1h6m-6 1h6m-51 1h1m44 0h2m1 0h3m-6 1h6m-66 7h6m-6 1h4m1 0h1m-6 1h6m-6 1h6m-6 1h6m-6 1h6m0 7h1m1 0h10m6 0h6m-24 1h12m6 0h6m-24 1h12m6 0h2m1 0h3m-24 1h7m1 0h4m6 0h6m-24 1h11m7 0h6m-24 1h9m1 0h2m6 0h6m-35 13h5m-6 1h6m-6 1h6m-6 1h6m-6 1h6m-6 1h3m1 0h1m-68 10h1m-1 2h1m92 9h1m-83 2h1m84 1h1m1 0h1"/>
    <path stroke="gray" d="M56 49h1m96 24h1m-2 9h1m-69 8h6m-6 1h6m-6 1h6m-6 1h6m-6 1h6m-6 1h6m-6 7h6m-6 1h6m-6 1h6m26 0h1m-33 1h4m1 0h1m-6 1h6m17 0h1m-24 1h6m3 0h1m5 2h1m19 1h1m-27 1h1m-22 9h1m11 0h1m4 5h1m-17 5h1m-44 14h6m78 0h6m-90 1h6m78 0h6m-90 1h6m79 0h2m1 0h2m-90 1h6m78 0h6m-90 1h2m1 0h3m78 0h6m-90 1h6m78 0h3m1 0h1m-79 2h1m-6 4h1"/>
    <path stroke="#fffefe" d="M62 49h1m39 5h6m6 0h6m-18 1h6m6 0h6m-59 1h1m40 0h6m3 0h1m2 0h6m-18 1h6m6 0h3m1 0h2m-18 1h6m7 0h5m-18 1h1m1 0h2m1 0h1m6 0h6m-19 4h1m-6 3h12m19 0h4m-35 1h12m18 0h2m1 0h3m-36 1h12m18 0h6m-36 1h12m18 0h6m-36 1h8m1 0h2m19 0h6m-36 1h2m1 0h9m18 0h6m-48 1h5m7 0h5m-17 1h4m8 0h4m1 0h1m-18 1h2m1 0h3m6 0h6m-18 1h6m6 0h2m1 0h3m-18 1h6m6 0h6m-18 1h2m1 0h3m6 0h6m30 1h6m-6 1h1m1 0h1m1 0h2m-6 1h6m-6 1h6m-6 1h6m-6 1h6m4 0h1m-52 3h1m43 0h1M96 96h6m-6 1h3m1 0h2m-6 1h1m1 0h4m-6 1h6m-6 1h6m-6 1h6m0 13h1m1 0h4m-6 1h5m-5 1h6m-6 1h3m1 0h2m-6 1h6m-6 1h6m-24 13h1m1 0h4m-6 1h6m-6 1h6m-6 1h6m10 0h1m-17 1h6m-6 1h6m4 0h1m17 11h1"/>
    <path stroke="#fefffe" d="M126 58h1m-61 2h6m48 0h6m-59 1h5m48 0h6m-60 1h6m48 0h6m-60 1h6m48 0h6m-60 1h6m48 0h5m-59 1h6m34 0h1m13 0h2m1 0h3m18 7h6m-6 1h6m-6 1h6m-6 1h6m-6 1h6m-6 1h6m-36 7h6m-6 1h6m-28 1h1m21 0h6m11 0h1m-37 1h1m18 0h6m-6 1h6m-34 1h1m24 0h1m2 0h6m-8 1h1m7 0h1m1 0h4m-6 1h6m-6 1h6m-6 1h6m-14 1h1m7 0h6m-6 1h2m1 0h3m-25 37h1m6 0h6m-6 1h6m-6 1h5m-5 1h6m-6 1h1m1 0h1m1 0h2m-6 1h6m-30 1h12m6 0h6m-24 1h12m6 0h6m-24 1h12m6 0h6m-23 1h11m6 0h6m-24 1h12m3 0h1m2 0h1m1 0h4m-24 1h12m6 0h6m5 2h1"/>
    <path stroke="#818081" d="M102 78h6m-6 1h6m42 0h1m-49 1h6m-6 1h6m-6 1h3m1 0h2m-6 1h6m-3 24h1m-4 1h6m-6 1h6m-6 1h6m-6 1h6m-6 1h6m-6 1h2m1 0h3m-31 10h1m9 2h1m-4 1h6m-6 1h6m-6 1h6m-6 1h6m-6 1h6m-6 1h6m-72 1h6m-6 1h6m-6 1h6m-6 1h3m1 0h2m-6 1h6m-6 1h3m1 0h2m3 2h1m-2 2h1m91 9h1"/>
    <path stroke="#818180" d="M144 78h6m-6 1h6m-5 1h5m-6 1h6m-6 1h2m1 0h3m-6 1h6m-12 1h6m-6 1h6m-6 1h6m-6 1h6m-6 1h6m-6 1h6m-12 1h6m-44 1h1m37 0h6m-6 1h6m-6 1h6m-6 1h6m-6 1h6m-54 1h6m-6 1h6m-6 1h3m1 0h2m-6 1h6m-6 1h6m-6 1h6m7 1h1m5 3h1m-30 26h1m-39 13h6m-5 1h1m1 0h3m-6 1h6m-6 1h6m-6 1h3m1 0h2m-6 1h6m-4 5h1"/>
    <path stroke="#808180" d="M88 105h1m-5 3h1m-1 4h1m-1 1h1m-13 13h12m-12 1h12m-12 1h6m1 0h5m-12 1h9m1 0h2m-12 1h1m1 0h10m-12 1h2m1 0h9m-46 14h1m-3 5h6m-6 1h4m1 0h1m-6 1h6m-6 1h6m-6 1h2m2 0h2m-6 1h6"/>
</svg>
