<svg xmlns="http://www.w3.org/2000/svg" viewBox="0 -0.5 512 512" shape-rendering="crispEdges">
    <path stroke="#fff" d="M0 0h338m1 0h173M0 1h68m1 0h96m1 0h12m1 0h179m1 0h103m1 0h40m1 0h8M0 2h331m1 0h180M0 3h204m1 0h208m1 0h57m1 0h22m1 0h17M0 4h166m1 0h106m1 0h238M0 5h150m1 0h51m1 0h253m1 0h55M0 6h409m1 0h102M0 7h93m1 0h27m1 0h193m1 0h34m1 0h80m1 0h80M0 8h240m1 0h91m1 0h114m1 0h64M0 9h35m1 0h470m1 0h5M0 10h405m1 0h106M0 11h512M0 12h136m1 0h375M0 13h462m1 0h49M0 14h61m1 0h125m2 0h16m1 0h306M0 15h189m1 0h322M0 16h512M0 17h134m1 0h17m1 0h230m1 0h70m1 0h57M0 18h112m1 0h60m1 0h104m1 0h174m1 0h58M0 19h118m1 0h393M0 20h409m1 0h102M0 21h62m1 0h236m1 0h212M0 22h83m1 0h364m1 0h63M0 23h81m1 0h207m1 0h222M0 24h172m1 0h100m1 0h104m1 0h133M0 25h130m1 0h61m1 0h275m1 0h43M0 26h14m1 0h202m1 0h294M0 27h512M0 28h375m1 0h108m1 0h27M0 29h512M0 30h341m1 0h37m1 0h132M0 31h153m1 0h36m1 0h181m1 0h139M0 32h512M0 33h410m1 0h39m1 0h61M0 34h184m1 0h119m1 0h92m1 0h114M0 35h201m1 0h194m1 0h115M0 36h125m1 0h17m1 0h71m1 0h296M0 37h44m1 0h182m1 0h167m1 0h116M0 38h512M0 39h412m1 0h75m1 0h23M0 40h512M0 41h398m1 0h26m1 0h86M0 42h176m1 0h55m1 0h279M0 43h87m1 0h232m1 0h191M0 44h135m1 0h31m1 0h344M0 45h211m1 0h57m1 0h242M0 46h512M0 47h152m1 0h6m1 0h352M0 48h512M0 49h35m1 0h178m1 0h29m1 0h267M0 50h512M0 51h394m1 0h29m1 0h87M0 52h28m1 0h53m1 0h84m1 0h266m1 0h77M0 53h512M0 54h200m1 0h311M0 55h314m1 0h197M0 56h208m1 0h146m1 0h61m1 0h94M0 57h238m1 0h3m1 0h213m1 0h55M0 58h244m1 0h81m1 0h185M0 59h210m1 0h301M0 60h197m1 0h305m1 0h8M0 61h59m1 0h237m1 0h214M0 62h275m1 0h236M0 63h486m1 0h25M0 64h36m1 0h475M0 65h163m1 0h348M0 66h184m1 0h327M0 67h512M0 68h368m1 0h143M0 69h25m1 0h257m1 0h69m1 0h22m1 0h135M0 70h512M0 71h280m1 0h227m1 0h3M0 72h287m1 0h80m1 0h82m1 0h60M0 73h183m1 0h328M0 74h88m1 0h256m1 0h98m1 0h67M0 75h263m1 0h14m1 0h222m1 0h10M0 76h512M0 77h512M0 78h9m1 0h59m1 0h215m1 0h207m1 0h18M0 79h312m1 0h146m1 0h52M0 80h144m96 0h16m64 0h84m1 0h107M0 81h144m96 0h16m64 0h170m1 0h21M0 82h144m96 0h16m64 0h192M0 83h101m1 0h42m96 0h16m64 0h19m1 0h1m1 0h170M0 84h144m96 0h8m1 0h7m64 0h33m1 0h111m1 0h46M0 85h144m96 0h16m64 0h192M0 86h144m96 0h16m64 0h163m1 0h28M0 87h53m1 0h74m1 0h15m96 0h16m64 0h192M0 88h13m1 0h1m1 0h128m96 0h16m64 0h14m1 0h78m1 0h27m1 0h70M0 89h144m96 0h15m65 0h192M0 90h1m1 0h142m96 0h16m64 0h115m1 0h76M0 91h144m96 0h16m64 0h12m1 0h179M0 92h60m1 0h83m96 0h16m64 0h7m1 0h184M0 93h144m96 0h16m64 0h120m1 0h71M0 94h125m1 0h18m96 0h16m64 0h192M0 95h144m96 0h16m64 0h108m1 0h77m1 0h5M0 96h144m96 0h16m64 0h167m1 0h24M0 97h144m96 0h16m64 0h192M0 98h70m1 0h73m96 0h16m64 0h169m1 0h22M0 99h144m96 0h11m1 0h4m64 0h192M0 100h2m1 0h141m96 0h16m64 0h192M0 101h144m96 0h16m64 0h192M0 102h144m96 0h16m64 0h192M0 103h144m96 0h16m64 0h16m1 0h16m1 0h74m1 0h83M0 104h57m1 0h86m96 0h16m64 0h192M0 105h144m96 0h16m64 0h192M0 106h144m96 0h16m64 0h192M0 107h144m96 0h16m64 0h105m1 0h86M0 108h144m96 0h16m64 0h56m1 0h23m1 0h111M0 109h144m96 0h16m64 0h172m1 0h19M0 110h132m1 0h11m96 0h16m64 0h192M0 111h144m96 0h16m64 0h181m1 0h10M0 112h103m1 0h24m64 0h16m144 0h160M0 113h128m64 0h6m1 0h9m144 0h64m1 0h95M0 114h55m1 0h72m64 0h4m1 0h11m144 0h132m1 0h27M0 115h128m64 0h16m144 0h48m1 0h43m1 0h67M0 116h14m1 0h113m48 0h1m15 0h16m144 0h132m1 0h4m1 0h22M0 117h84m1 0h19m1 0h23m64 0h16m144 0h32m1 0h127M0 118h66m1 0h61m64 0h16m144 0h160M0 119h128m64 0h16m144 0h10m1 0h149M0 120h128m64 0h16m144 0h160M0 121h80m1 0h47m64 0h16m144 0h142m1 0h17M0 122h128m64 0h16m144 0h143m1 0h16M0 123h24m1 0h58m1 0h44m64 0h16m144 0h51m1 0h108M0 124h128m64 0h15m145 0h96m1 0h63M0 125h103m1 0h24m64 0h16m144 0h83m1 0h76M0 126h128m64 0h8m2 0h6m144 0h160M0 127h128m64 0h8m2 0h6m144 0h160M0 128h72m1 0h11m1 0h1m1 0h41m256 0h128M0 129h128m256 0h23m1 0h104M0 130h120m1 0h7m256 0h128M0 131h128m256 0h128M0 132h128m256 0h128M0 133h65m1 0h62m256 0h128M0 134h128m256 0h74m1 0h53M0 135h128m256 0h34m1 0h3m1 0h89M0 136h128m256 0h127M0 137h128m256 0h98m1 0h29M0 138h128m256 0h128M0 139h33m1 0h21m1 0h72m256 0h128M0 140h128m256 0h128M0 141h41m1 0h86m256 0h128M0 142h128m256 0h128M0 143h128m256 0h121m1 0h6M0 144h128m64 0h16m144 0h16m32 0h112M0 145h128m64 0h16m131 0h1m12 0h16m32 0h112M0 146h128m64 0h16m144 0h16m32 0h112M0 147h128m64 0h16m144 0h16m32 0h112M0 148h128m64 0h16m144 0h16m32 0h112M0 149h128m64 0h16m144 0h16m32 0h112M0 150h89m1 0h38m64 0h16m144 0h16m32 0h67m1 0h44M0 151h45m1 0h82m64 0h16m144 0h16m32 0h91m1 0h20M0 152h121m1 0h6m64 0h16m144 0h16m32 0h36m1 0h75M0 153h128m64 0h16m144 0h16m32 0h112M0 154h128m64 0h6m1 0h9m144 0h16m32 0h112M0 155h33m1 0h60m1 0h33m64 0h16m144 0h16m32 0h112M0 156h128m64 0h16m144 0h16m32 0h112M0 157h44m1 0h13m1 0h25m1 0h43m64 0h16m144 0h16m32 0h77m1 0h18m1 0h15M0 158h128m64 0h16m144 0h16m32 0h112M0 159h34m1 0h8m1 0h68m1 0h15m56 0h1m7 0h16m144 0h16m32 0h19m1 0h92M0 160h144m112 0h16m16 0h32m80 0h60m1 0h51M0 161h144m112 0h16m16 0h2m1 0h5m1 0h12m1 0h10m80 0h112M0 162h144m112 0h16m16 0h32m80 0h112M0 163h45m1 0h92m1 0h5m112 0h16m16 0h32m80 0h68m1 0h43M0 164h42m1 0h101m112 0h16m16 0h32m80 0h112M0 165h49m1 0h85m1 0h8m112 0h12m1 0h3m16 0h32m80 0h112M0 166h80m1 0h63m112 0h16m16 0h17m1 0h14m80 0h62m1 0h49M0 167h139m1 0h4m103 0h1m8 0h16m16 0h32m80 0h112M0 168h115m1 0h28m112 0h16m16 0h32m80 0h97m1 0h14M0 169h144m112 0h16m16 0h32m80 0h112M0 170h144m112 0h16m16 0h32m80 0h6m1 0h105M0 171h144m112 0h16m16 0h32m80 0h112M0 172h7m1 0h16m1 0h72m1 0h46m112 0h16m16 0h32m80 0h112M0 173h144m112 0h16m16 0h32m80 0h112M0 174h106m1 0h37m112 0h16m16 0h32m80 0h93m1 0h18M0 175h27m1 0h116m112 0h16m16 0h32m80 0h112M0 176h27m1 0h20m32 0h18m1 0h45m128 0h16m176 0h48M0 177h29m1 0h18m32 0h64m128 0h16m176 0h48M0 178h48m32 0h64m128 0h16m176 0h48M0 179h48m32 0h64m128 0h16m176 0h48M0 180h48m32 0h64m128 0h16m176 0h48M0 181h48m32 0h64m128 0h16m176 0h48M0 182h48m32 0h64m128 0h6m2 0h8m176 0h48M0 183h48m32 0h64m128 0h6m2 0h8m176 0h48M0 184h3m1 0h44m32 0h34m1 0h6m1 0h22m102 0h1m25 0h16m176 0h48M0 185h48m32 0h62m1 0h1m128 0h16m176 0h2m1 0h45M0 186h48m32 0h64m128 0h16m176 0h48M0 187h48m32 0h64m128 0h16m176 0h48M0 188h48m32 0h64m122 0h2m4 0h1m1 0h14m176 0h48M0 189h48m32 0h64m122 0h2m4 0h16m176 0h48M0 190h48m32 0h64m128 0h16m176 0h48M0 191h48m32 0h64m128 0h16m176 0h48M0 192h48m48 0h12m1 0h67m288 0h48M0 193h48m48 0h80m288 0h48M0 194h48m48 0h80m288 0h48M0 195h21m1 0h25m49 0h20m1 0h38m1 0h20m288 0h48M0 196h48m48 0h21m1 0h58m288 0h44m1 0h3M0 197h25m1 0h22m48 0h80m288 0h3m1 0h44M0 198h48m48 0h80m288 0h39m1 0h8M0 199h48m48 0h80m288 0h48M0 200h5m1 0h10m1 0h31m48 0h80m200 0h2m86 0h48M0 201h48m48 0h80m200 0h2m86 0h48M0 202h18m1 0h29m48 0h80m288 0h27m1 0h20M0 203h1m1 0h46m48 0h80m288 0h47M0 204h48m48 0h80m187 0h1m100 0h48M0 205h48m48 0h80m224 0h1m63 0h48M0 206h48m48 0h80m188 0h2m98 0h48M0 207h48m48 0h80m188 0h2m98 0h48M0 208h64m32 0h80m100 0h2m186 0h48M0 209h64m32 0h60m1 0h19m100 0h2m186 0h48M0 210h64m32 0h80m288 0h48M0 211h64m32 0h80m206 0h1m81 0h48M0 212h64m32 0h80m288 0h33m1 0h14M0 213h64m32 0h14m1 0h65m288 0h48M0 214h64m32 0h80m288 0h48M0 215h64m32 0h80m288 0h48M0 216h64m32 0h80m208 0h1m79 0h48M0 217h64m32 0h80m288 0h48M0 218h64m32 0h80m198 0h2m88 0h48M0 219h64m32 0h80m198 0h2m88 0h48M0 220h30m1 0h33m32 0h80m288 0h48M0 221h64m32 0h80m288 0h48M0 222h64m32 0h27m1 0h52m288 0h48M0 223h64m32 0h80m288 0h27m1 0h20M0 224h14m1 0h47m1 0h1m32 0h52m1 0h27m96 0h32m32 0h16m96 0h11m1 0h52M0 225h64m32 0h80m96 0h32m32 0h16m96 0h64M0 226h64m32 0h80m96 0h32m32 0h4m2 0h6m2 0h2m96 0h64M0 227h64m32 0h37m1 0h42m96 0h32m16 0h1m15 0h4m2 0h6m2 0h2m96 0h64M0 228h64m32 0h14m1 0h65m96 0h10m2 0h20m32 0h16m96 0h17m1 0h46M0 229h59m1 0h4m32 0h80m96 0h10m2 0h20m32 0h16m96 0h9m1 0h54M0 230h64m32 0h80m96 0h32m32 0h16m96 0h64M0 231h64m32 0h27m1 0h52m96 0h32m25 0h1m6 0h16m96 0h64M0 232h17m1 0h46m32 0h80m96 0h32m32 0h16m96 0h16m1 0h47M0 233h64m32 0h80m96 0h32m32 0h16m96 0h8m1 0h55M0 234h50m1 0h13m32 0h80m96 0h32m32 0h16m96 0h64M0 235h64m32 0h80m96 0h32m32 0h16m96 0h64M0 236h64m32 0h80m96 0h32m32 0h16m96 0h64M0 237h64m32 0h80m96 0h32m32 0h16m96 0h64M0 238h64m32 0h80m96 0h32m32 0h16m96 0h64M0 239h64m32 0h80m96 0h32m32 0h13m1 0h2m96 0h64M0 240h64m32 0h80m256 0h80M0 241h64m32 0h80m256 0h80M0 242h1m1 0h35m1 0h24m1 0h1m32 0h80m256 0h80M0 243h64m32 0h80m256 0h80M0 244h64m32 0h80m256 0h80M0 245h64m32 0h2m1 0h75m1 0h1m256 0h80M0 246h49m1 0h14m32 0h80m256 0h80M0 247h64m32 0h80m256 0h80M0 248h64m32 0h80m256 0h80M0 249h64m32 0h80m256 0h80M0 250h64m32 0h80m256 0h65m1 0h14M0 251h64m32 0h80m256 0h80M0 252h64m32 0h80m256 0h80M0 253h64m32 0h80m256 0h80M0 254h64m32 0h80m256 0h80M0 255h64m32 0h80m101 0h1m154 0h80M0 256h64m32 0h48m160 0h14m1 0h17m96 0h3m1 0h51m1 0h13m1 0h10M0 257h41m1 0h22m32 0h48m160 0h19m1 0h12m96 0h80M0 258h64m32 0h48m160 0h32m96 0h26m1 0h53M0 259h64m32 0h48m160 0h32m96 0h80M0 260h64m32 0h48m160 0h32m96 0h80M0 261h64m32 0h6m1 0h41m160 0h32m96 0h80M0 262h64m32 0h48m160 0h32m96 0h55m1 0h24M0 263h44m1 0h19m32 0h48m160 0h32m96 0h80M0 264h64m32 0h48m160 0h32m96 0h80M0 265h64m32 0h20m1 0h27m130 0h1m29 0h11m1 0h20m96 0h80M0 266h64m32 0h34m1 0h13m160 0h32m96 0h80M0 267h64m32 0h48m160 0h32m96 0h80M0 268h64m32 0h48m160 0h32m96 0h35m1 0h44M0 269h7m1 0h56m32 0h48m160 0h32m96 0h80M0 270h64m32 0h8m1 0h39m160 0h15m1 0h16m96 0h80M0 271h64m32 0h46m1 0h1m160 0h32m96 0h80M0 272h64m32 0h48m224 0h93m1 0h50M0 273h64m32 0h48m224 0h143M0 274h64m32 0h48m224 0h1m1 0h142M0 275h64m32 0h48m224 0h144M0 276h64m32 0h48m224 0h19m1 0h67m1 0h56M0 277h64m32 0h48m224 0h48m1 0h95M0 278h3m1 0h60m32 0h7m1 0h40m224 0h22m1 0h89m1 0h31M0 279h64m32 0h48m224 0h144M0 280h64m32 0h48m224 0h144M0 281h64m32 0h48m224 0h65m1 0h78M0 282h64m32 0h48m224 0h122m1 0h21M0 283h64m32 0h48m224 0h109m1 0h34M0 284h64m32 0h48m224 0h144M0 285h3m1 0h60m32 0h48m224 0h144M0 286h64m32 0h2m1 0h45m224 0h144M0 287h51m1 0h12m32 0h48m224 0h144M0 288h64m32 0h16m256 0h144M0 289h45m1 0h18m32 0h16m256 0h2m1 0h117m1 0h23M0 290h64m32 0h16m256 0h144M0 291h64m32 0h16m256 0h144M0 292h64m32 0h16m256 0h80m1 0h63M0 293h64m32 0h16m256 0h144M0 294h64m32 0h16m256 0h144M0 295h4m1 0h59m32 0h16m256 0h144M0 296h47m1 0h16m32 0h16m256 0h107m1 0h36M0 297h64m32 0h16m256 0h77m1 0h66M0 298h28m1 0h32m1 0h2m32 0h16m256 0h144M0 299h64m32 0h16m256 0h144M0 300h7m1 0h56m32 0h16m256 0h144M0 301h64m32 0h16m256 0h144M0 302h30m1 0h33m32 0h16m256 0h144M0 303h62m1 0h1m32 0h16m256 0h141m1 0h2M0 304h64m32 0h16m256 0h144M0 305h64m32 0h16m256 0h13m1 0h130M0 306h1m1 0h62m32 0h16m256 0h61m1 0h82M0 307h64m32 0h16m256 0h64m1 0h79M0 308h23m1 0h40m32 0h16m256 0h144M0 309h64m32 0h16m256 0h144M0 310h64m32 0h16m256 0h104m1 0h39M0 311h64m32 0h16m256 0h34m1 0h109M0 312h37m1 0h13m1 0h12m32 0h16m256 0h144M0 313h64m32 0h16m256 0h144M0 314h64m32 0h16m256 0h80m1 0h63M0 315h64m32 0h16m256 0h74m1 0h48m1 0h20M0 316h64m32 0h16m256 0h144M0 317h64m32 0h16m256 0h89m1 0h54M0 318h64m32 0h16m257 0h143M0 319h64m32 0h16m256 0h144M0 320h43m1 0h20m32 0h16m256 0h91m1 0h52M0 321h64m32 0h16m256 0h144M0 322h64m32 0h16m256 0h144M0 323h64m32 0h10m1 0h5m256 0h32m1 0h111M0 324h64m32 0h16m256 0h129m1 0h14M0 325h62m1 0h1m32 0h16m144 0h1m111 0h144M0 326h64m32 0h16m256 0h144M0 327h64m32 0h16m256 0h28m1 0h28m1 0h86M0 328h64m32 0h15m257 0h144M0 329h64m32 0h16m256 0h144M0 330h64m32 0h2m1 0h13m256 0h144M0 331h25m1 0h38m32 0h16m256 0h144M0 332h35m1 0h28m32 0h16m256 0h38m1 0h85m1 0h19M0 333h64m32 0h3m1 0h12m256 0h144M0 334h64m32 0h16m257 0h135m1 0h7M0 335h64m32 0h16m256 0h120m1 0h23M0 336h64m32 0h16m256 0h144M0 337h64m32 0h16m256 0h144M0 338h64m32 0h16m256 0h22m1 0h4m1 0h116M0 339h40m1 0h23m32 0h16m256 0h144M0 340h64m32 0h16m256 0h144M0 341h64m32 0h16m256 0h144M0 342h3m1 0h60m32 0h16m256 0h144M0 343h64m32 0h16m256 0h49m1 0h94M0 344h49m1 0h14m32 0h16m256 0h144M0 345h64m32 0h16m256 0h144M0 346h64m32 0h16m256 0h84m1 0h59M0 347h64m32 0h16m256 0h31m1 0h78m1 0h33M0 348h57m1 0h6m32 0h16m256 0h144M0 349h2m1 0h61m32 0h16m256 0h144M0 350h64m32 0h16m256 0h144M0 351h61m1 0h2m32 0h16m256 0h144M0 352h63m305 0h144M0 353h64m304 0h144M0 354h57m1 0h6m304 0h39m1 0h104M0 355h64m304 0h144M0 356h35m1 0h28m304 0h144M0 357h64m304 0h143M0 358h64m304 0h144M0 359h64m304 0h144M0 360h5m1 0h58m304 0h5m1 0h138M0 361h13m1 0h50m304 0h144M0 362h64m304 0h89m1 0h54M0 363h64m304 0h144M0 364h64m304 0h88m1 0h55M0 365h64m304 0h144M0 366h15m1 0h48m304 0h144M0 367h64m304 0h144M0 368h7m1 0h72m176 0h16m96 0h144M0 369h67m1 0h12m176 0h16m96 0h144M0 370h34m1 0h45m176 0h16m96 0h144M0 371h80m176 0h16m45 0h1m50 0h144M0 372h8m1 0h71m176 0h13m1 0h2m96 0h103m1 0h40M0 373h80m176 0h16m96 0h144M0 374h44m1 0h35m176 0h16m96 0h144M0 375h80m176 0h16m96 0h144M0 376h80m176 0h16m96 0h144M0 377h17m1 0h62m176 0h16m96 0h54m1 0h89M0 378h80m176 0h16m96 0h144M0 379h80m176 0h16m96 0h144M0 380h80m176 0h16m96 0h144M0 381h80m176 0h16m96 0h55m1 0h34m1 0h53M0 382h37m1 0h42m176 0h16m96 0h144M0 383h80m176 0h16m96 0h120m1 0h23M0 384h96m304 0h112M0 385h96m304 0h112M0 386h96m304 0h112M0 387h96m304 0h2m1 0h109M0 388h96m304 0h112M0 389h96m304 0h112M0 390h94m1 0h1m304 0h112M0 391h96m304 0h112M0 392h96m304 0h112M0 393h53m1 0h42m304 0h112M0 394h96m304 0h64m1 0h47M0 395h95m305 0h22m2 0h88M0 396h96m304 0h101m1 0h10M0 397h20m1 0h75m304 0h94m1 0h17M0 398h96m304 0h112M0 399h96m304 0h112M0 400h10m1 0h85m320 0h25m1 0h70M0 401h96m320 0h96M0 402h92m1 0h3m320 0h96M0 403h96m320 0h96M0 404h36m1 0h59m320 0h53m1 0h42M0 405h96m320 0h96M0 406h3m1 0h92m320 0h96M0 407h96m320 0h94m1 0h1M0 408h96m320 0h30m1 0h65M0 409h2m1 0h93m320 0h96M0 410h38m1 0h57m320 0h96M0 411h96m320 0h96M0 412h96m320 0h79m1 0h16M0 413h96m320 0h85m1 0h10M0 414h96m320 0h96M0 415h96m320 0h96M0 416h21m1 0h47m1 0h45m1 0h69m1 0h146m1 0h179M0 417h456m1 0h55M0 418h248m1 0h63m1 0h157m1 0h41M0 419h150m1 0h172m1 0h11m1 0h20m1 0h155M0 420h512M0 421h154m1 0h165m1 0h191M0 422h17m1 0h56m1 0h332m1 0h104M0 423h252m1 0h82m1 0h94m1 0h81M0 424h138m1 0h64m1 0h308M0 425h197m1 0h23m1 0h98m1 0h59m1 0h61m1 0h10m1 0h58M0 426h375m1 0h14m1 0h121M0 427h512M0 428h512M0 429h98m1 0h127m1 0h81m1 0h186m1 0h16M0 430h28m1 0h483M0 431h166m1 0h75m1 0h269M0 432h354m1 0h40m1 0h26m1 0h89M0 433h28m1 0h41m1 0h441M0 434h139m1 0h165m1 0h206M0 435h64m1 0h224m1 0h46m1 0h175M0 436h186m1 0h75m1 0h216m1 0h32M0 437h88m1 0h139m1 0h283M0 438h288m1 0h223M0 439h433m1 0h78M0 440h15m1 0h45m1 0h450M0 441h119m1 0h50m1 0h341M0 442h84m1 0h108m1 0h318M0 443h512M0 444h56m1 0h189m1 0h265M0 445h512M0 446h151m1 0h360M0 447h186m1 0h325M0 448h28m1 0h483M0 449h512M0 450h512M0 451h129m1 0h152m1 0h229M0 452h177m1 0h93m1 0h240M0 453h190m1 0h49m1 0h106m1 0h164M0 454h94m1 0h146m1 0h270M0 455h128m1 0h36m1 0h191m1 0h154M0 456h4m1 0h134m1 0h11m1 0h68m1 0h29m1 0h261M0 457h129m1 0h124m1 0h99m1 0h37m1 0h119M0 458h512M0 459h317m1 0h194M0 460h223m1 0h288M0 461h19m1 0h492M0 462h247m1 0h258m1 0h5M0 463h146m1 0h365M0 464h34m1 0h22m1 0h108m1 0h151m1 0h165m1 0h27M0 465h124m1 0h18m1 0h187m1 0h180M0 466h156m1 0h164m1 0h11m1 0h178M0 467h123m1 0h276m1 0h22m1 0h47m1 0h40M0 468h69m1 0h266m1 0h29m1 0h27m1 0h82m1 0h34M0 469h512M0 470h45m1 0h119m1 0h346M0 471h14m1 0h150m1 0h233m1 0h112M0 472h265m1 0h246M0 473h424m1 0h87M0 474h300m1 0h211M0 475h144m1 0h367M0 476h7m1 0h504M0 477h155m1 0h67m1 0h90m1 0h69m1 0h127M0 478h155m1 0h312m1 0h43M0 479h265m1 0h246M0 480h453m1 0h58M0 481h367m1 0h144M0 482h512M0 483h468m1 0h43M0 484h2m1 0h66m1 0h5m1 0h49m1 0h386M0 485h117m1 0h1m1 0h294m1 0h97M0 486h512M0 487h152m1 0h290m1 0h68M0 488h159m1 0h158m1 0h8m1 0h184M0 489h78m1 0h202m1 0h35m1 0h191m1 0h2M0 490h34m1 0h162m1 0h43m1 0h107m1 0h162M0 491h263m1 0h191m1 0h56M0 492h98m1 0h413M0 493h512M0 494h277m1 0h36m1 0h18m1 0h178M0 495h512M0 496h454m1 0h57M0 497h45m1 0h466M0 498h463m1 0h48M0 499h55m1 0h456M0 500h41m1 0h37m1 0h83m1 0h46m1 0h301M0 501h119m1 0h177m1 0h123m1 0h3m1 0h86M0 502h72m1 0h439M0 503h157m1 0h48m1 0h90m1 0h214M0 504h149m1 0h77m1 0h284M0 505h512M0 506h404m1 0h61m1 0h1m1 0h43M0 507h512M0 508h113m1 0h257m1 0h25m1 0h114M0 509h10m1 0h41m1 0h459M0 510h198m1 0h77m1 0h235M0 511h99m1 0h30m1 0h174m1 0h15m1 0h94m1 0h95"/>
    <path stroke="#fffeff" d="M338 0h1m19 1h1m-28 1h1M204 3h1m266 0h1m22 0h1M202 5h1M61 14h1m125 0h2m0 1h1m-78 3h1m186 3h1M83 22h1m-3 1h1m207 0h1m-118 1h1m19 1h1m275 0h1M14 26h1m202 0h1m-65 5h1m296 2h1m-250 2h1m-77 1h1m101 1h1m260 2h1m-91 2h1m-264 3h1m16 3h1M35 49h1m358 2h1M28 52h1m138 0h1m266 0h1m-80 4h1m61 0h1m-92 2h1m-52 4h1M36 64h1m331 4h1M25 69h1m261 3h1m205 6h1m-90 2h1m85 1h1m-150 2h1m11 1h1m111 0h1m-338 3h1m312 1h1m64 7h1m-20 1h1M2 100h1m333 3h1m16 0h1m74 0h1m-4 4h1m66 2h1m-390 3h1m312 1h1m27 2h1m44 1h1m-106 1h1m-305 4h1m413 0h1m-412 2h1m2 5h1m424 8h1m-457 3h1m139 0h1m-15 1h1m285 10h1m-145 2h1m-290 7h1m149 1h1m275 0h1m-323 3h1m329 0h1m-201 2h1m-130 2h1m357 1h1m-92 2h1m-383 2h1m2 4h1m228 0h16m-243 1h1m226 0h16m-16 1h16m-16 1h16m-16 1h16m-16 1h16m87 0h1m-104 1h16m-16 1h16M3 184h1m117 0h1m134 0h14m1 0h1m-130 1h1m113 0h16m-16 1h16m-16 1h16m-16 1h10m2 0h4m-16 1h10m2 0h4m-16 1h16m-16 1h16m96 1h16m16 0h16m-48 1h16m16 0h16m-170 1h2m120 0h16m16 0h16m-395 1h1m94 0h1m38 0h1m90 0h2m120 0h16m16 0h16m-48 1h16m16 0h16m-48 1h16m16 0h16m-166 1h1m2 0h1m114 0h16m16 0h16m87 0h1m-136 1h16m16 0h16m-48 1h8m2 0h6m16 0h16m-48 1h8m2 0h6m16 0h16m-48 1h16m16 0h16m75 0h1m-124 1h16m16 0h16m95 0h1m-144 1h16m16 0h16m-48 1h16m17 0h15m-48 1h16m16 0h16m-48 1h16m16 0h16m-32 1h16m-16 1h16m-36 1h2m18 0h16m-36 1h2m18 0h16m-46 1h1m29 0h16m-16 1h16m-16 1h16m-16 1h16m-15 1h15m-16 1h16m-16 1h16m-16 1h16m-16 1h16m-16 1h16m-277 1h1m260 0h16m-16 1h16m-338 1h1m289 0h16m-16 1h16m-28 1h2m10 0h16m-28 1h2m10 0h16m-86 1h2m68 0h16m-309 1h1m222 0h2m68 0h16m89 0h1m-106 1h16m-16 1h16m-351 1h1m335 0h15m-16 1h16m88 0h1m-105 1h1m1 0h10m2 0h2m-16 1h12m2 0h2m-16 1h16m-16 1h16m-16 1h15m-15 1h16m-96 1h16m-16 1h7m1 0h8m-251 1h1m24 0h1m209 0h16m-16 1h16m-16 1h16m-16 1h16m-16 1h16m-16 1h16m-16 1h6m1 0h9m61 0h1m-78 1h16m-16 1h16m209 0h1m-226 1h16m-16 1h16m-16 1h16m-16 1h16m-16 1h5m1 0h10m-244 8h1m71 2h1m198 0h1m100 12h1m16 4h1m43 2h1m-380 3h1m-54 3h1m15 9h1m-55 2h1m54 3h1m446 0h1M1 306h1m455 11h1m-62 10h1m-362 5h1m452 3h1m-99 3h1M3 342h1m474 5h1m-416 5h1m176 0h16m64 0h16m-96 1h16m64 0h13m1 0h2m-279 1h1m182 0h16m64 0h16m71 0h1m-168 1h16m64 0h16m-96 1h16m64 0h16m-96 1h5m1 0h10m64 0h16m-96 1h16m64 0h16m-96 1h16m64 0h16m-96 1h16m64 0h16m-96 1h16m64 0h16m-96 1h16m64 0h16m-96 1h16m64 0h16m-96 1h16m64 0h16m-96 1h16m64 0h16m-321 1h1m224 0h16m64 0h16m-96 1h16m64 0h16m-32 1h16m-16 1h16m-286 1h1m269 0h16m-16 1h13m1 0h2m-16 1h16m-16 1h16m-16 1h16m-16 1h16m-16 1h16m-16 1h16m102 0h1m-119 1h1m1 0h14m-16 1h16m-16 1h16m-16 1h16m103 0h1m34 0h1m-422 1h1m266 0h16m-16 1h16m-10 7h1m-258 3h1m41 2h1m405 1h1m-1 17h1m-481 3h1m310 0h1m-85 2h1m-95 3h1m165 0h1m54 5h1m-348 4h1m137 1h1m187 1h1m67 0h1m-118 2h1m-17 1h1m-104 1h1m41 1h1m59 1h1m-228 2h1m131 2h1m-138 2h1m72 7h1m110 2h1m106 0h1m-220 2h1m36 0h1m-27 1h1m114 1h1m99 0h1m-336 4h1m14 3h1m22 0h1m108 0h1m151 0h1m-176 1h1m187 0h1m1 1h1m-211 1h1m347 0h1m-106 1h1m-353 3h1m250 1h1m34 2h1m-78 3h1m-69 1h1m312 0h1m-16 2h1m-40 5h1m28 2h1m-410 3h1m279 4h1m-270 3h1m-5 3h1m121 0h1m46 0h1m86 1h1m123 0h1m3 0h1m-354 1h1m84 1h1m48 0h1m-9 7h1m77 0h1m28 1h1"/>
    <path stroke="#fffffe" d="M68 1h1m96 0h1m12 0h1m283 0h1m40 0h1m-91 2h1M150 5h1m305 0h1M93 7h1m27 0h1m193 0h1m16 1h1m72 2h1m-270 2h1m325 1h1m-258 1h1m-54 3h1m300 1h1m-45 2h1m-137 4h1m-144 1h1m353 3h1m-144 2h1m-152 1h1m181 0h1m37 2h1m-107 1h1m92 0h1m-2 1h1M44 37h1m350 0h1m16 2h1m12 2h1m-259 3h1m101 1h1m-56 4h1M82 52h1m373 5h1m-213 1h1m-35 1h1M59 61h1m426 2h1m-324 2h1m119 4h1m69 0h1m-74 2h1m227 0h1m-326 2h1m-96 1h1m256 0h1m98 0h1m-182 1h1m14 0h1m222 0h1M69 78h1m215 0h1m26 1h1m146 0h1m-121 4h1m-92 1h1M13 88h1m1 0h1m318 0h1M1 90h1m330 1h1M60 92h1m9 6h1m418 0h1m-114 10h1m-245 2h1m368 1h1m-18 3h1m-85 1h1m83 1h1m-381 1h1m257 2h1m-156 5h1m240 0h1m-377 4h1m334 1h1m-343 4h1m110 1h1m281 0h1m-41 1h1m-226 3h1m-161 1h1m7 2h1m463 2h1m-330 1h16m144 0h16m-176 1h16m144 0h3m1 0h12m-176 1h16m144 0h16m-176 1h16m144 0h16m-176 1h1m1 0h14m144 0h16m-176 1h16m144 0h16m-263 1h1m86 0h16m144 0h16m-307 1h1m130 0h16m144 0h16m139 0h1m-371 1h1m54 0h16m144 0h16m84 0h1m-261 1h16m144 0h16m-176 1h16m6 0h1m137 0h16m-319 1h1m142 0h16m144 0h16m-176 1h16m144 0h16m-176 1h16m144 0h16m125 0h1m18 0h1m-321 1h16m144 0h16m-240 1h1m63 0h8m1 0h7m144 0h16m-112 1h16m64 0h16m16 0h16m-128 1h16m34 0h1m18 0h1m10 0h16m16 0h16m-128 1h16m64 0h16m16 0h8m2 0h6m-128 1h16m64 0h16m16 0h8m2 0h3m1 0h2m-326 1h1m197 0h16m64 0h16m16 0h16m-319 1h1m85 0h1m104 0h16m64 0h16m16 0h16m-288 1h1m122 0h1m36 0h16m49 0h1m14 0h16m16 0h16m94 0h1m-223 1h7m1 0h8m64 0h16m16 0h16m-168 1h1m39 0h4m1 0h11m64 0h16m16 0h16m-128 1h16m64 0h16m16 0h16m-128 1h16m64 0h16m16 0h16m-128 1h16m64 0h16m16 0h16m-128 1h16m64 0h16m16 0h3m1 0h12m-128 1h16m64 0h16m16 0h16m-262 1h1m133 0h16m64 0h16m16 0h16m-341 1h1m212 0h16m64 0h16m16 0h16m-270 1h1m189 0h16m-16 1h16m-16 1h16m-16 1h16m-16 1h16m-16 1h16m-16 1h16m-16 1h16m-16 1h16m-16 1h16m162 0h1m-179 1h13m1 0h2m-16 1h16m-16 1h16m-16 1h16m-16 1h16m-16 1h16m-32 1h16m64 0h16m-96 1h16m64 0h16m-96 1h16m64 0h7m1 0h8m-321 1h1m224 0h16m64 0h16m-96 1h16m64 0h10m2 0h4m-343 1h1m246 0h16m64 0h10m2 0h4m-96 1h16m64 0h16m-96 1h16m64 0h16M5 200h1m10 0h1m255 0h16m64 0h2m1 0h13m-96 1h16m64 0h16m-350 1h1m253 0h16m64 0h16M1 203h1m270 0h16m64 0h16m-112 1h1m15 0h16m64 0h11m1 0h4m-96 1h16m64 0h16m-96 1h16m64 0h12m2 0h2m-96 1h16m64 0h12m2 0h2m-96 1h4m2 0h10m-132 1h1m115 0h4m2 0h10m-16 1h16m-16 1h16m-14 1h14m-178 1h1m163 0h14m-16 1h12m2 0h2m-16 1h12m2 0h2m-16 1h16m-16 1h16m-16 1h16m-16 1h16m-16 1h16m-16 1h16m-16 1h16m-16 1h16m203 0h1m-344 1h1m229 8h2m84 0h1m-87 1h2m-31 6h1m-46 1h16m-16 1h16m-16 1h16m-16 1h16m-16 1h16m-222 1h1m205 0h16m-16 1h16m-16 1h16m-16 1h16m-16 1h16m-16 1h16m-16 1h16m-16 1h16m-16 1h16m-16 1h16m-16 1h16m115 1h1m51 0h1m-1 6h1M7 269h1m96 1h1m37 1h1M3 278h1m386 0h1M3 285h1m47 2h1m-24 11h1m400 8h1m2 1h1m-410 1h1m448 2h1m-436 2h1m13 0h1m396 2h1m-81 4h1m-326 2h1m276 0h16m123 0h1m-140 1h16m-16 1h16m-16 1h16m64 0h1m-81 1h16m161 0h1m-436 1h1m257 0h16m-16 1h16m-16 1h16m89 0h1m-315 1h1m208 0h16m-16 1h16m-16 1h16m-16 1h16m-16 1h16m156 0h1m-394 1h1m220 0h16m-16 1h16m32 0h1m135 0h1m-185 1h16m-80 1h32m-32 1h32m-32 1h32m-248 1h1m215 0h9m1 0h22m-32 1h32m-32 1h12m1 0h19m-32 1h32m-32 1h32m129 0h1m-162 1h32m-32 1h32m-32 1h32m164 0h1m-197 1h32m-231 1h1m198 0h32m26 0h1m-59 1h32m-32 1h32m-227 1h1m194 0h32m26 3h1m-302 7h1m250 1h2m191 0h1m-194 1h2m-26 5h2m1 0h13m-189 1h1m172 0h16m-16 1h16m29 0h1m-46 1h16M8 372h1m231 0h16m13 0h1m-30 1h16m-212 1h1m195 0h16m-16 1h16m-16 1h16m-16 1h16m-16 1h15m-15 1h16m-16 1h16m-16 1h16m-16 1h16m-16 1h16m232 0h1m-395 7h1m327 5h1m71 2h1m-54 3h1m27 4h1M3 406h1m506 1h1m-55 10h1m-145 1h1m-163 1h1m184 0h1m71 3h1m-156 1h1m-115 1h1m181 1h1m59 0h1m61 0h1m10 0h1m-64 1h1m-293 3h1m296 3h1m-368 1h1m41 0h1m265 2h1m-75 1h1m216 0h1m-392 1h1m-74 3h1m154 1h1m-87 1h1m101 5h1m-159 1h1m148 4h1m93 0h1m-31 2h1m-22 2h1m29 0h1m-122 1h1m16 6h1m337 1h1m-164 2h1m78 1h1m-2 4h1m24 2h1M7 476h1m147 1h1m158 0h1m-50 2h1m101 2h1m100 2h1M2 484h1m66 0h1m248 4h1m8 0h1m-250 1h1m118 1h1m257 1h1m-358 1h1m178 2h1m55 0h1m120 2h1m-158 7h1m-71 1h1m176 2h1m63 0h1m-356 2h1m283 0h1m-388 1h1m88 2h1m221 0h1m94 0h1"/>
    <path stroke="#feffff" d="M166 4h1m106 0h1m135 2h1m-60 1h1m80 0h1M240 8h1m206 0h1M35 9h1m470 0h1m-373 8h1m248 0h1m70 0h1m-282 1h1m104 0h1m-161 1h1m-57 2h1m385 1h1m-71 2h1m-4 4h1m3 2h1m-196 4h1m-42 2h1m71 0h1m-40 6h1m55 0h1M87 43h1m232 0h1m-110 2h1m-53 2h1m264 4h1m-225 3h1m113 1h1m-107 1h1m29 1h1m3 0h1m-46 3h1m305 0h1m-207 1h1m-114 5h1m191 3h1m-9 3h1m82 0h1M9 78h1m91 5h1m381 3h1M53 87h1m359 1h1m-159 1h1m71 3h1m112 1h1m-316 1h1m302 1h1m-178 4h1m-195 5h1m342 4h1m-225 4h16m-16 1h16m6 0h1m-144 1h1m120 0h16m4 0h1m-21 1h16m-178 1h1m162 0h15m-108 1h1m92 0h15m-126 1h1m109 0h14m1 0h1m-16 1h16m-16 1h16m-16 1h16m-16 1h16m303 0h1m-472 1h1m151 0h16m211 0h1m-228 1h16m-89 1h1m72 0h16m243 0h1m-260 1h16m8 0h2m-26 1h16m8 0h2m-118 1h1m35 2h1m301 5h1m59 2h1M94 155h1m-51 2h1m13 0h1m25 0h1m-42 2h1m286 0h1m88 0h1m-124 2h1m-252 2h1m69 5h1m79 1h1M7 172h1m89 0h1m395 2h1m-254 2h16m-16 1h16m-16 1h16m-16 1h16m-16 1h16m-16 1h16m-16 1h16m22 0h2m-40 1h16m22 0h2m-166 1h1m125 0h6m1 0h9m-16 1h16m-16 1h16m-16 1h16m-16 1h16m17 0h1m-34 1h16m-16 1h16m-16 1h16m-148 1h1m227 0h16m-16 1h16m-16 1h16m-16 1h16m-235 1h1m218 0h12m1 0h3m156 0h1m-173 1h16m115 0h1m-132 1h16m-16 1h16m-16 1h16m-16 1h16m-16 1h16m-16 1h16m-16 1h16m-16 1h16m-16 1h16m-16 1h16m-112 1h16m112 0h16m-144 1h16m112 0h16m-144 1h16m112 0h16m-144 1h16m112 0h14m1 0h1m-144 1h16m112 0h16m113 0h1m-258 1h16m112 0h16m-144 1h16m112 0h16m-144 1h16m112 0h16m-144 1h16m112 0h16m-144 1h1m1 0h14m112 0h16m-144 1h16m112 0h6m2 0h8m-144 1h16m112 0h6m2 0h8m-354 1h1m209 0h16m112 0h16m-144 1h16m112 0h16m-144 1h16m112 0h16m-144 1h16m112 0h16m-370 1h1m305 0h16m123 0h1m-140 1h16m-16 1h16m12 0h2m-217 1h1m187 0h15m12 0h2m-240 1h1m209 0h16m129 0h1m-146 1h16m-16 1h16m-213 1h1m196 0h9m1 0h6m-16 1h16m-16 1h16m-286 1h1m261 0h1m7 0h16m-16 1h16m-16 1h16m45 0h1m-62 1h16m-17 1h17m-16 1h16m-16 1h16m-16 1h16M1 242h1m318 0h16m-16 1h12m1 0h3m-16 1h16m-162 1h1m145 0h16m-287 1h1m270 0h11m1 0h4m-16 1h16m-16 1h16m-16 1h16m-16 1h16m-16 1h14m1 0h1m-16 1h16m-16 1h16m-16 1h16m-16 1h16m-64 1h16m30 0h1m182 0h1m-461 1h1m230 0h16m35 0h1m-52 1h16m170 0h1m-187 1h16m-16 1h16m-186 1h1m169 0h16m-16 1h16m-16 1h16m-16 1h16m-16 1h2m1 0h13m-158 1h1m141 0h16m-16 1h16m-16 1h6m1 0h9m179 0h1m-196 1h16m-16 1h16m31 0h1m-48 1h16m173 1h1m49 1h1m-143 1h1m17 2h1m67 0h1m-353 2h1m376 0h1m9 4h1m-121 7h1m117 0h1m-41 3h1M4 295h1m42 1h1m427 0h1m-31 1h1m-416 5h1m257 2h16m-16 1h16m77 0h1m-94 1h16m-16 1h16m-16 1h16m-16 1h16m-16 1h16m-16 1h16m98 0h1m-115 1h16m-16 1h16m-16 1h16m-16 1h16m138 0h1m48 0h1m-204 1h16m-16 1h16m-16 1h16m-16 1h16m-48 1h6m2 0h8m16 0h16m-48 1h6m2 0h8m16 0h16m-48 1h16m17 0h15m-198 1h1m149 0h16m16 0h16m-48 1h16m16 0h16m-47 1h15m16 0h16m-48 1h16m16 0h16m-48 1h16m16 0h16m-48 1h16m16 0h16m-48 1h16m16 0h16m-206 1h1m157 0h16m16 0h16m-279 1h1m230 0h16m16 0h16m-48 1h16m16 0h16m102 0h1m-151 1h16m16 0h16m-48 1h16m16 0h16m-48 1h16m16 0h16m21 2h1m-3 1h1m71 0h1m-64 1h1m-284 5h1m349 3h1M2 349h1m329 1h1m-298 6h1m475 1h1M5 360h1m296 0h2m69 0h1m-72 1h2m152 3h1m-153 2h1M7 368h1m463 4h1m-455 5h1m384 10h1m61 7h1m-42 1h1m-404 2h1m-11 3h1m81 2h1m-57 2h1m409 4h1M2 409h1m35 1h1m456 2h1m-427 4h1m45 0h1m69 0h1m284 2h1m-148 1h1m32 0h1m-340 3h1m56 0h1m260 1h1m94 0h1m-228 1h1m-7 1h1m23 0h1m4 4h1m81 0h1m186 0h1m-254 2h1m-104 3h1m-76 1h1m368 4h1m-315 2h1m126 3h1m-96 2h1m130 5h1m-93 2h1m-97 1h1m262 1h1M4 456h1m146 0h1m240 1h1m-76 2h1m-95 1h1m23 2h1m258 0h1m-383 3h1m31 1h1m266 1h1m-355 1h1m266 0h1m57 0h1m82 0h1m-433 2h1m119 0h1m-1 1h1m-22 4h1m239 2h1m-310 7h1m49 0h1m-9 1h1m1 0h1m32 2h1m6 1h1m121 1h1m35 0h1m191 0h1m-269 1h1m107 0h1m-87 1h1m199 7h1m-409 1h1m23 1h1m39 1h1m29 3h1m316 2h1m-96 2h1m-320 1h1m77 2h1"/>
    <path stroke="#fffefe" d="M244 49h1m-69 79h32m-32 1h32m-32 1h32m-32 1h32m-32 1h32m-32 1h32m-31 1h31m-32 1h32m-32 1h32m-32 1h32m-32 1h17m1 0h14m-32 1h19m1 0h12m-32 1h5m1 0h26m-32 1h32m-32 1h32m-32 1h32m64 1h16m-16 1h16m-16 1h16m-16 1h16m-111 1h1m94 0h16m-16 1h16m-16 1h16m-16 1h16m-16 1h16m11 0h1m-28 1h16m13 0h1m-30 1h16m-16 1h16m-16 1h16m-16 1h16m-16 1h16m-16 1h16m-10 6h1m-35 3h1m110 4h1m-4 4h16m-16 1h16m-16 1h16m-16 1h16m-16 1h16m-16 1h7m1 0h8m-16 1h16m-16 1h16m-98 1h1m81 0h16m-16 1h16m-67 1h1m50 0h16m-16 1h16m-16 1h16m-16 1h16m-16 1h16m-16 1h16m16 1h16m-16 1h16m-41 1h1m24 0h16m-16 1h16m-38 1h2m20 0h16m-38 1h2m20 0h16m-16 1h16m-16 1h16m-16 1h16m-16 1h16m-16 1h16m-16 1h15m-15 1h16m-16 1h16m-16 1h8m1 0h7m-16 1h16m-64 1h16m-16 1h16m-94 1h1m77 0h16m-16 1h16m-80 1h2m62 0h16m-80 1h2m62 0h16m-68 1h2m50 0h16m-68 1h2m50 0h16m-16 1h16m-16 1h16m-16 1h16m-16 1h16m-16 1h16m-16 1h16m-16 1h16m-16 1h16m-107 1h1m107 10h1m10 0h2m-2 1h2m1 3h1m-89 3h1m79 10h1m-56 85h16m-16 1h16m-28 1h2m10 0h16m-28 1h2m10 0h16m-16 1h16m-16 1h16m-16 1h16m-16 1h16m-16 1h16m-16 1h16m-16 1h16m-16 1h16m-16 1h10m1 0h5m-16 1h16m-16 1h16m-16 1h16m-64 1h16m-16 1h16m-16 1h16m-16 1h16m-16 1h16m-27 1h1m10 0h16m-16 1h16m-16 1h16m-16 1h16m-16 1h16m-16 1h8m2 0h6m-16 1h8m2 0h6m-16 1h16m-16 1h16m-16 1h16m-16 1h16m-30 1h1m49 8h2m-2 1h2"/>
    <path stroke="#010000" d="M144 80h2m1 0h13m32 0h32m64 0h16m-160 1h16m32 0h4m1 0h27m64 0h16m-160 1h16m32 0h32m64 0h16m-160 1h16m32 0h32m64 0h16m-160 1h16m32 0h32m64 0h16m-160 1h16m32 0h32m64 0h16m-160 1h16m32 0h32m64 0h16m-160 1h16m32 0h32m64 0h16m-160 1h16m32 0h32m46 0h1m17 0h16m-160 1h16m32 0h32m64 0h13m1 0h2m-160 1h16m32 0h32m64 0h16m-160 1h16m32 0h32m64 0h16m-160 1h16m32 0h32m64 0h16m-160 1h16m32 0h23m1 0h8m64 0h16m-160 1h11m1 0h4m32 0h32m64 0h16m-160 1h16m32 0h32m64 0h16m-160 1h16m64 0h16m43 0h1m20 0h16m-176 1h16m64 0h16m64 0h16m-175 1h15m64 0h8m1 0h7m64 0h16m-176 1h16m64 0h15m65 0h16m-176 1h16m17 0h1m46 0h16m64 0h16m-176 1h16m64 0h16m64 0h16m-176 1h16m64 0h16m64 0h16m-176 1h16m64 0h16m64 0h16m-176 1h9m1 0h6m64 0h16m64 0h16m-176 1h16m64 0h16m64 0h16m-176 1h16m64 0h16m64 0h16m-176 1h16m64 0h16m31 0h1m32 0h16m-176 1h16m64 0h16m64 0h16m-176 1h16m64 0h16m64 0h16m-176 1h16m10 0h1m53 0h16m64 0h16m-176 1h16m64 0h16m64 0h16m-70 11h1m95 8h2m-2 1h2m-59 4h1m2 6h1m-165 17h1m79 2h16m144 0h16m-176 1h16m144 0h16m-176 1h16m144 0h16m-176 1h16m144 0h16m-176 1h16m144 0h16m-176 1h16m144 0h16m-176 1h16m144 0h16m-231 1h1m54 0h16m144 0h16m-176 1h16m144 0h16m-176 1h16m144 0h16m-176 1h16m144 0h16m-176 1h16m144 0h16m-176 1h16m144 0h16m-176 1h16m144 0h16m-176 1h16m144 0h16m-176 1h16m144 0h16m48 1h16m-16 1h16m-16 1h16m-16 1h16m-16 1h16m-16 1h16m-220 1h1m203 0h16m-16 1h16m-222 1h2m204 0h16m-222 1h2m204 0h16m-16 1h16m-16 1h5m1 0h10m-16 1h16m-16 1h16m-16 1h16m-16 1h16m-144 1h16m-16 1h16m-16 1h16m-16 1h16m-16 1h16m-16 1h16m-16 1h16m-16 1h16m-16 1h16m-16 1h16m-16 1h16m-16 1h16m-16 1h16m-16 1h16m-16 1h16m-16 1h16m-144 1h16m-16 1h16m-16 1h16m-16 1h16m-16 1h16m-16 1h16m-16 1h16m-16 1h16m-16 1h16m-16 1h16m-16 1h16m-16 1h16m-16 1h16m-16 1h16m-16 1h16m-16 1h16m41 0h1m-170 1h16m127 0h33m-176 1h16m128 0h32m-176 1h16m128 0h32m-176 1h16m128 0h32m-176 1h16m128 0h32m-176 1h16m128 0h32m-176 1h16m128 0h12m1 0h19m-176 1h16m128 0h32m-176 1h16m128 0h32m-176 1h16m128 0h32m-176 1h16m128 0h15m1 0h16m-176 1h16m128 0h32m-176 1h16m128 0h32m-176 1h16m128 0h32m-176 1h16m128 0h32m-176 1h16m128 0h5m1 0h26m-176 1h6m2 0h8m146 0h1m-163 1h6m2 0h8m-16 1h8m2 0h6m-16 1h8m2 0h6m-16 1h16m-16 1h16m-16 1h16m-16 1h16m-16 1h16m-16 1h16m-16 1h16m-16 1h16m-16 1h10m1 0h5m-16 1h16m154 0h1m-171 1h16m-16 1h16m-16 1h16m65 0h1m-82 1h16m-16 1h16m-16 1h16m-16 1h16m-16 1h16m-16 1h16m-16 1h12m1 0h3m-16 1h16m-16 1h16m-16 1h16m-16 1h16m-16 1h16m345 0h1m-362 1h16m-16 1h16m-16 1h16m82 11h2m-2 1h2m-2 1h2m-2 1h2m-100 3h3m1 0h28m64 0h16m-112 1h32m64 0h16m-112 1h32m64 0h16m-112 1h32m64 0h16m-112 1h32m64 0h16m-112 1h32m64 0h16m-112 1h14m1 0h17m64 0h16m-112 1h32m64 0h16m-112 1h9m1 0h22m64 0h16m-112 1h32m64 0h16m-112 1h32m64 0h16m-112 1h32m64 0h16m-112 1h32m64 0h16m-112 1h32m64 0h6m1 0h9m-112 1h32m64 0h16m-112 1h32m64 0h16m-112 1h16m144 0h16m32 0h16m32 0h16m-272 1h16m144 0h16m32 0h16m32 0h16m-272 1h16m144 0h16m32 0h16m32 0h16m-272 1h16m144 0h4m1 0h11m32 0h16m32 0h1m1 0h14m-272 1h16m144 0h9m1 0h6m32 0h16m32 0h16m-272 1h16m144 0h16m32 0h16m32 0h16m-272 1h3m1 0h12m144 0h16m32 0h16m32 0h16m-272 1h16m144 0h16m32 0h16m32 0h16m-272 1h13m1 0h2m144 0h16m32 0h6m1 0h9m32 0h16m-272 1h16m144 0h16m32 0h16m32 0h16m-272 1h16m144 0h16m32 0h16m32 0h16m-272 1h16m144 0h16m32 0h16m32 0h16m-272 1h16m144 0h16m31 0h17m32 0h16m-272 1h16m144 0h16m32 0h16m32 0h16m-272 1h5m1 0h10m145 0h15m32 0h16m32 0h16m-272 1h16m144 0h16m32 0h16m32 0h16m-198 1h1m-11 11h1m-49 5h16m-16 1h16m-16 1h16m-16 1h16m-16 1h16m-16 1h16m-16 1h16m-16 1h16m-16 1h16m-16 1h16m-16 1h16m-16 1h16m-16 1h16m-16 1h4m1 0h11m-16 1h16m-16 1h16m96 1h4m1 0h1m2 0h8m-16 1h5m3 0h8m-16 1h16m-16 1h16m-16 1h16m-16 1h16m-16 1h8m2 0h6m-16 1h8m2 0h6m-16 1h16m-16 1h16m-16 1h16m-16 1h16m-15 1h15m-16 1h16m-16 1h16m-16 1h16m21 1h1m3 13h1m54 3h16m-16 1h16m-16 1h16m-16 1h16m-16 1h16m37 0h1m-54 1h16m-16 1h16m-16 1h16m-16 1h16m-16 1h16m-16 1h16m-16 1h16m-16 1h16m-16 1h16m-172 1h2m154 0h16m-172 1h2m154 0h16m-112 1h16m48 0h16m16 0h14m1 0h1m96 0h16m-224 1h5m1 0h10m48 0h16m16 0h16m96 0h16m-224 1h16m48 0h16m16 0h16m96 0h16m-224 1h4m1 0h11m48 0h16m16 0h16m96 0h16m-224 1h16m48 0h16m16 0h16m96 0h16m-224 1h16m48 0h16m16 0h16m96 0h16m-224 1h16m48 0h16m16 0h16m60 0h1m35 0h16m-224 1h16m48 0h16m16 0h16m96 0h16m-224 1h16m48 0h16m16 0h16m96 0h16m-224 1h16m48 0h16m16 0h16m96 0h16m-224 1h16m48 0h16m16 0h16m96 0h16m-224 1h16m48 0h16m16 0h16m96 0h16m-224 1h16m48 0h13m1 0h2m16 0h16m96 0h16m-224 1h16m48 0h16m16 0h16m96 0h16m-224 1h16m48 0h16m16 0h4m1 0h11m86 0h1m9 0h16m-224 1h16m28 0h1m19 0h16m16 0h16m96 0h16"/>
    <path stroke="#010001" d="M146 80h1m138 3h1m-111 3h1m125 3h1m-87 4h1m-40 3h16m-16 1h16m-16 1h4m2 0h10m40 0h1m-57 1h4m2 0h10m47 0h1m-64 1h1m1 0h14m-16 1h16m-16 1h5m1 0h10m-16 1h16m4 0h1m-21 1h16m-16 1h16m-16 1h16m-16 1h16m-16 1h16m-16 1h16m-16 1h16m-16 1h16m48 1h15m33 0h17m1 0h14m16 0h16m-112 1h16m32 0h32m16 0h16m-112 1h16m32 0h32m16 0h16m-112 1h16m32 0h32m16 0h16m-112 1h16m32 0h32m17 0h15m-112 1h16m32 0h32m16 0h16m-112 1h16m32 0h32m16 0h16m-112 1h16m32 0h32m16 0h16m-112 1h16m32 0h32m16 0h14m1 0h1m-112 1h16m32 0h32m16 0h16m-112 1h10m1 0h5m32 0h32m16 0h16m-112 1h16m32 0h32m16 0h16m-112 1h16m32 0h32m16 0h16m-112 1h16m32 0h32m16 0h16m-112 1h16m17 0h1m14 0h8m1 0h23m16 0h16m-112 1h16m32 0h32m16 0h16m-224 1h16m-16 1h16m-16 1h16m-16 1h16m-16 1h16m-16 1h16m-16 1h16m-16 1h16m-16 1h16m-16 1h16m80 0h1m-97 1h16m-16 1h16m-16 1h16m-16 1h16m-16 1h16m127 0h1m-144 1h16m0 1h16m-16 1h16m-16 1h16m-16 1h16m-16 1h16m-16 1h16m-16 1h16m-16 1h16m-16 1h16m-16 1h16m-16 1h16m-16 1h16m-16 1h16m-16 1h16m-16 1h16m-16 1h16m-16 1h16m-16 1h16m-16 1h16m-16 1h16m-16 1h16m-16 1h16m-16 1h16m-16 1h9m1 0h6m11 0h1m-28 1h16m-16 1h16m-16 1h16m-16 1h16m-16 1h16m-16 1h16m-16 1h13m1 0h2m-16 1h16m0 1h16m-16 1h16m-16 1h16m-16 1h16m-16 1h16m-16 1h16m-16 1h16m-16 1h16m-16 1h16m-16 1h16m-16 1h16m-16 1h16m192 0h1m-209 1h16m-16 1h16m282 0h1m-299 1h16m-16 1h16M51 203h1m253 11h1m9 6h1m-124 4h15m-15 1h16m-16 1h16m221 0h1m-238 1h16m-16 1h16m-16 1h16m-16 1h16m12 0h1m-29 1h16m-16 1h16m-16 1h16m-25 1h1m8 0h16m-16 1h16m-16 1h16m-16 1h16m-16 1h16m-16 1h16m5 0h1m-142 3h2m-2 1h2m328 9h2m-2 1h2m-219 1h1m222 1h1m-265 1h1m1 0h14m224 0h16m-256 1h16m224 0h16m-256 1h16m224 0h16m-256 1h16m224 0h16m-256 1h16m224 0h16m-256 1h16m224 0h16m-256 1h16m224 0h16m-256 1h16m224 0h16m-256 1h16m224 0h16m-256 1h16m224 0h16m-256 1h16m224 0h16m-256 1h16m224 0h16m-256 1h16m224 0h16m-256 1h16m224 0h16m-256 1h16m224 0h16m-256 1h16m224 0h16m-176 1h16m-16 1h16m-16 1h16m-16 1h16m-16 1h16m-16 1h16m-16 1h16m-16 1h16m-16 1h16m-16 1h16m-60 1h1m43 0h2m2 0h12m-16 1h2m2 0h12m-16 1h16m-16 1h16m-16 1h16m-16 1h16m-14 5h2m-2 1h2m-150 1h1m55 11h1m98 3h1m-167 2h1m210 2h1m-55 6h1m-113 2h26m1 0h5m16 0h16m-64 1h32m16 0h16m-64 1h32m16 0h16m-64 1h32m16 0h16m-64 1h32m16 0h16m-64 1h1m1 0h30m16 0h16m-64 1h32m16 0h16m-64 1h23m1 0h8m16 0h16m-64 1h32m16 0h16m-63 1h31m16 0h16m-64 1h32m16 0h16m-64 1h16m1 0h15m16 0h16m-64 1h32m5 0h1m10 0h16m-63 1h31m16 0h16m-64 1h4m1 0h27m16 0h16m-64 1h32m16 0h16m24 5h2m-10 1h1m7 0h2m-66 9h1m-41 2h16m96 0h16m-128 1h16m96 0h16m-128 1h16m96 0h16m-128 1h16m96 0h16m-128 1h16m96 0h16m-128 1h16m96 0h16m-128 1h16m96 0h16m-128 1h16m96 0h16m-128 1h16m96 0h16m-128 1h16m96 0h16m-128 1h16m96 0h3m1 0h2m2 0h8m-128 1h16m96 0h6m2 0h8m-128 1h9m1 0h6m96 0h16m-128 1h16m96 0h16m-128 1h16m96 0h16m-128 1h16m96 0h16m-115 10h1m50 7h16m96 0h16m-128 1h16m96 0h16m-128 1h16m96 0h12m2 0h2m-128 1h16m96 0h12m2 0h2m-128 1h16m96 0h16m-128 1h16m96 0h16m-128 1h16m57 0h1m38 0h16m-128 1h16m96 0h16m-128 1h16m96 0h16m-128 1h16m96 0h16m-128 1h16m96 0h16m-128 1h16m96 0h16m-128 1h16m96 0h16m-128 1h6m1 0h9m96 0h16m-128 1h16m96 0h16m-128 1h16m96 0h16m-80 1h32m38 0h1m-71 1h32m-32 1h32m-32 1h32m139 0h1m-172 1h32m-32 1h32m-32 1h32m-32 1h32m-32 1h32m-32 1h32m-32 1h32m-32 1h32m-32 1h32m29 0h1m-62 1h32m-32 1h32m-32 1h28m1 0h3"/>
    <path stroke="#010101" d="M160 80h16m-16 1h16m-16 1h16m-16 1h16m-16 1h16m-16 1h16m-16 1h15m58 0h1m-74 1h16m-16 1h16m-16 1h16m-16 1h16m-16 1h16m-16 1h16m-16 1h16m-16 1h16m58 0h2m-76 1h16m58 0h2m-44 1h16m86 0h2m-104 1h16m86 0h2m-104 1h16m-16 1h16m-16 1h16m-16 1h16m-27 1h1m10 0h16m-16 1h4m1 0h11m1 0h1m-18 1h16m-16 1h16m-16 1h16m-16 1h16m-16 1h16m-16 1h16m-16 1h16m-16 1h16m0 1h16m48 0h16m17 0h1m-98 1h16m48 0h16m-80 1h16m48 0h16m-156 1h1m75 0h16m48 0h16m-80 1h16m48 0h16m-80 1h16m48 0h16m-80 1h16m48 0h10m2 0h4m-80 1h16m48 0h10m2 0h4m-80 1h16m48 0h16m62 0h1m-143 1h16m48 0h16m-80 1h16m48 0h16m-80 1h16m48 0h16m-80 1h16m48 0h16m-80 1h16m48 0h16m-80 1h16m48 0h1m1 0h14m-80 1h16m48 0h16m64 1h16m-16 1h16m-16 1h16m-16 1h16m-16 1h16m-16 1h16m-16 1h16m-41 1h1m24 0h16m-16 1h16m-16 1h16m-16 1h16m-16 1h16m-16 1h16m-16 1h16m-16 1h16m-16 1h16m-160 1h14m1 0h1m-16 1h16m-16 1h16m-16 1h16m-16 1h16m-16 1h16m-16 1h16m-16 1h16m-16 1h16m-16 1h16m-16 1h16m-16 1h16m-85 1h1m68 0h16m-16 1h16m-16 1h16m-16 1h16m-67 15h1m-110 2h16m128 0h16m240 0h16m-416 1h16m128 0h11m1 0h4m111 0h1m128 0h16m-416 1h16m128 0h16m240 0h16m-416 1h16m128 0h16m240 0h16m-416 1h16m128 0h16m185 0h1m54 0h16m-416 1h16m128 0h16m240 0h16m-416 1h4m1 0h11m128 0h16m240 0h16m-416 1h16m128 0h16m240 0h16m-416 1h16m128 0h16m240 0h16m-416 1h16m128 0h16m240 0h16m-416 1h16m128 0h16m240 0h16m-416 1h16m128 0h16m240 0h16m-416 1h16m128 0h16m240 0h16m-416 1h16m128 0h16m240 0h10m1 0h5m-416 1h16m128 0h16m200 0h2m38 0h16m-416 1h16m128 0h16m200 0h2m38 0h16m-384 1h16m-16 1h16m-16 1h16m-16 1h16m-16 1h16m-16 1h16m-16 1h16m-16 1h16m-16 1h16m-16 1h16m-16 1h16m-16 1h16m-16 1h16m-16 1h16m-16 1h16m-16 1h16m112 1h16m-16 1h16m-16 1h16m-16 1h16m-16 1h16m-16 1h16m-16 1h16m-16 1h16m-16 1h16m-16 1h16m-16 1h16m-16 1h16m-16 1h16m216 0h2m-234 1h16m216 0h2m-234 1h16m-16 1h16m176 1h16m16 0h16m-48 1h16m16 0h16m-48 1h16m16 0h16m-48 1h16m16 0h16m-48 1h16m16 0h16m-48 1h16m16 0h11m1 0h4m-48 1h16m16 0h16m-48 1h16m16 0h16m-48 1h16m16 0h16m-48 1h16m16 0h10m1 0h5m-48 1h16m16 0h16m-48 1h16m16 0h16m-48 1h16m16 0h16m-48 1h16m16 0h16m-48 1h16m16 0h16m-48 1h16m16 0h16m-272 1h16m-16 1h16m12 0h1m-29 1h16m27 0h1m-44 1h16m-16 1h16m-16 1h16m-16 1h16m-16 1h16m-16 1h16m-16 1h16m-16 1h16m15 0h1m-32 1h16m-16 1h16m-16 1h16m-16 1h9m1 0h6m-16 1h16m16 15h1m12 1h1m-158 1h16m96 0h16m-128 1h16m96 0h16m-128 1h16m96 0h16m-128 1h16m96 0h16m-128 1h16m96 0h16m-128 1h16m96 0h16m-128 1h3m1 0h12m96 0h15m-127 1h16m96 0h5m1 0h10m-128 1h16m96 0h16m-128 1h16m96 0h16m-128 1h16m96 0h4m1 0h11m34 0h2m-164 1h16m96 0h16m34 0h2m-164 1h16m96 0h16m-128 1h16m96 0h16m-128 1h16m96 0h16m-128 1h16m96 0h16m32 1h16m-16 1h16m-16 1h16m-16 1h16m-16 1h2m2 0h12m-16 1h2m2 0h12m-16 1h16m-16 1h16m-16 1h16m-16 1h16m-16 1h16m-16 1h16m-16 1h16m-16 1h16m-16 1h16m-16 1h16m-112 1h16m-57 1h1m40 0h6m1 0h9m-16 1h16m-16 1h16m216 0h1m-233 1h16m-16 1h16m-16 1h16m-16 1h16m-16 1h16m68 0h2m-86 1h16m68 0h2m-86 1h16m200 0h1m-217 1h16m-16 1h16m-16 1h4m1 0h11m-57 1h1m40 0h16m-16 1h16m0 1h16m192 0h16m-224 1h9m1 0h6m192 0h16m-288 1h1m63 0h16m192 0h16m-224 1h16m192 0h16m-224 1h7m1 0h8m192 0h16m-255 1h1m30 0h16m192 0h16m-224 1h16m192 0h16m-224 1h14m1 0h1m192 0h16m-224 1h16m192 0h16m-224 1h16m192 0h16m-224 1h16m192 0h16m-224 1h16m192 0h16m-224 1h5m3 0h7m193 0h16m-224 1h6m2 0h8m192 0h16m-224 1h16m192 0h16m-224 1h15m193 0h16m-176 1h16m-16 1h16m-16 1h16m-16 1h16m-142 1h2m124 0h8m2 0h6m-142 1h2m125 0h7m2 0h6m-16 1h16m-16 1h16m-16 1h2m1 0h13m-16 1h16m-16 1h4m1 0h11m-16 1h16m-16 1h16m-58 1h1m41 0h16m-16 1h16m-16 1h16m-80 1h16m-16 1h16m-16 1h16m-16 1h16m-16 1h16m-16 1h16m-15 1h15m-16 1h16m-16 1h10m2 0h4m-16 1h1m1 0h8m2 0h4m-16 1h16m67 0h1m2 0h2m-88 1h16m8 0h1m61 0h2m-111 1h1m22 0h16m-16 1h16m-16 1h16m-16 1h16m-48 1h32m-32 1h32m-32 1h32m-32 1h32m-32 1h32m-32 1h32m-32 1h32m-32 1h32m-32 1h17m1 0h14m-32 1h13m1 0h18m-32 1h32m-32 1h32m-32 1h32m-32 1h32m-32 1h32m-32 1h32m156 3h2m-2 1h2m107 1h1m-228 9h1m201 3h16m-16 1h16m-142 1h2m124 0h16m-142 1h2m124 0h11m1 0h4m-16 1h16m-16 1h16m-16 1h16m-16 1h16m-16 1h16m-16 1h16m-16 1h16m-16 1h16m-16 1h16m-16 1h16m-16 1h16m-16 1h16"/>
    <path stroke="#000100" d="M176 80h16m-16 1h16m-16 1h16m-16 1h16m-16 1h16m-15 1h15m-16 1h16m-16 1h16m-16 1h16m-16 1h16m-16 1h16m-16 1h16m-16 1h5m1 0h10m-16 1h16m-16 1h16m-16 1h6m1 0h9m-18 3h1m93 0h1m-13 3h1m-38 5h1m60 3h1m-137 3h16m96 0h16m-128 1h16m96 0h16m-128 1h16m96 0h16m-128 1h16m96 0h16m-128 1h16m96 0h16m-128 1h12m1 0h3m96 0h16m-128 1h16m96 0h16m-128 1h16m96 0h16m-128 1h1m1 0h14m96 0h16m-128 1h16m96 0h16m-128 1h3m1 0h12m96 0h16m-128 1h16m96 0h16m-128 1h16m96 0h16m-128 1h13m1 0h2m96 0h16m-128 1h16m96 0h16m-128 1h1m1 0h14m96 0h16m-64 1h16m16 0h16m-48 1h16m16 0h2m1 0h13m-48 1h16m16 0h16m-48 1h16m16 0h3m1 0h12m-48 1h16m16 0h16m-48 1h16m16 0h16m-48 1h16m16 0h16m121 0h1m-170 1h16m16 0h16m-48 1h16m16 0h16m-48 1h16m16 0h16m-48 1h16m16 0h16m58 0h1m-107 1h16m17 0h15m90 0h1m-139 1h16m16 0h16m-48 1h16m16 0h16m-48 1h16m16 0h16m61 0h1m-110 1h16m16 0h16m128 1h16m-16 1h16m-16 1h12m2 0h2m-16 1h12m2 0h2m-16 1h16m-16 1h16m-16 1h16m-16 1h16m-16 1h16m-16 1h16m-16 1h16m-16 1h16m-168 1h1m151 0h16m-176 1h1m159 0h16m-16 1h16m-233 1h1m216 0h16m-16 1h16m-16 1h16m-16 1h16m-16 1h16m-16 1h16m-16 1h16m-16 1h16m-16 1h16m-16 1h16m-16 1h4m1 0h11m-16 1h1m1 0h14m-16 1h16m-16 1h16m-16 1h16m-16 1h16m-16 1h16m-336 1h16m309 0h1m-326 1h16m131 0h1m-148 1h16m-16 1h16m254 0h1m-271 1h16m252 0h2m-270 1h16m253 0h1m-270 1h16m132 0h2m-150 1h16m132 0h2m-150 1h11m1 0h4m346 0h1m-363 1h16m-16 1h16m-16 1h16m-16 1h16m-16 1h16m-16 1h16m-16 1h16m-16 1h16m129 0h15m-160 1h16m128 0h16m-160 1h14m130 0h16m-160 1h14m130 0h16m-160 1h16m128 0h16m-160 1h16m128 0h16m-160 1h16m128 0h16m-160 1h16m128 0h16m-160 1h7m1 0h8m128 0h16m-160 1h16m128 0h16m-160 1h16m128 0h16m-160 1h16m128 0h16m-160 1h16m128 0h16m-160 1h16m128 0h16m-160 1h16m128 0h16m2 0h2m-164 1h16m128 0h16m2 0h2m7 2h1m3 9h1m209 3h1m-6 1h2m-2 1h2m-224 23h2m-2 1h2m10 3h1m-11 6h16m112 0h16m32 0h16m-192 1h16m112 0h16m32 0h14m1 0h1m-192 1h16m112 0h16m32 0h16m-192 1h16m112 0h16m32 0h16m-192 1h16m112 0h16m32 0h16m14 0h1m-207 1h16m112 0h16m32 0h16m-236 1h2m42 0h16m112 0h16m32 0h16m-236 1h2m42 0h16m112 0h16m32 0h16m-192 1h16m112 0h16m32 0h14m-202 1h1m11 0h2m1 0h13m112 0h16m32 0h14m-190 1h16m112 0h16m32 0h13m1 0h2m-192 1h16m112 0h16m32 0h16m-227 1h1m34 0h16m112 0h16m32 0h16m-192 1h16m112 0h16m32 0h16m-192 1h16m112 0h16m32 0h16m-192 1h16m112 0h16m32 0h16m-336 1h16m256 0h16m-288 1h12m1 0h3m120 0h1m135 0h4m1 0h1m1 0h9m-288 1h16m256 0h16m-288 1h16m256 0h16m-288 1h16m256 0h16m-288 1h16m256 0h16m-288 1h10m1 0h5m107 0h1m148 0h9m1 0h2m1 0h3m-288 1h16m256 0h16m-288 1h16m256 0h11m1 0h4m-288 1h16m256 0h16m-288 1h3m1 0h12m258 0h14m-288 1h16m258 0h14m-288 1h16m256 0h16m-288 1h16m256 0h9m1 0h6m-288 1h16m256 0h16m-288 1h16m71 0h1m184 0h16m-224 1h16m16 0h16m16 0h16m112 0h1m1 0h30m-224 1h16m16 0h16m16 0h16m112 0h32m-224 1h16m16 0h16m16 0h16m112 0h32m-224 1h16m16 0h13m1 0h2m16 0h16m112 0h32m-224 1h2m2 0h8m2 0h2m16 0h16m16 0h16m112 0h32m-224 1h2m2 0h8m2 0h2m16 0h16m16 0h16m112 0h32m-224 1h16m16 0h16m16 0h16m112 0h28m2 0h2m-224 1h16m16 0h16m16 0h16m112 0h28m2 0h2m-224 1h16m16 0h15m17 0h16m112 0h18m1 0h13m-228 1h1m3 0h16m16 0h16m16 0h16m112 0h32m-224 1h16m16 0h16m16 0h3m1 0h12m112 0h32m-224 1h16m16 0h16m16 0h16m112 0h32m-224 1h16m16 0h2m1 0h13m16 0h16m112 0h32m-224 1h10m1 0h5m16 0h16m16 0h16m112 0h32m-224 1h16m16 0h16m16 0h16m112 0h32m-224 1h16m16 0h16m16 0h16m112 0h32m-256 1h16m16 0h32m-64 1h4m1 0h11m16 0h32m-64 1h16m16 0h32m-64 1h16m16 0h32m-64 1h16m16 0h32m-64 1h12m1 0h3m16 0h32m-64 1h16m16 0h32m12 0h1m-77 1h3m1 0h12m16 0h32m-64 1h16m16 0h8m1 0h23m-64 1h16m16 0h32m-64 1h16m16 0h24m1 0h7m92 0h1m-157 1h16m16 0h32m171 0h1m-236 1h16m16 0h31m-63 1h16m16 0h32m92 0h1m-157 1h16m16 0h32m-64 1h16m16 0h32m-112 1h16m96 0h16m144 0h16m-288 1h10m1 0h5m96 0h16m144 0h16m-288 1h16m96 0h16m144 0h16m-288 1h16m96 0h16m144 0h16m-288 1h16m96 0h16m144 0h16m-288 1h16m96 0h16m144 0h16m-288 1h16m10 0h1m85 0h16m144 0h16m-288 1h16m96 0h16m144 0h16m-288 1h16m96 0h16m144 0h16m-288 1h16m96 0h16m144 0h16m-288 1h16m96 0h16m144 0h16m-288 1h16m96 0h16m144 0h16m-288 1h16m96 0h16m144 0h16m-288 1h16m96 0h16m144 0h16m-288 1h16m96 0h16m144 0h3m1 0h12m-288 1h16m96 0h16m144 0h12m1 0h3m-192 1h16m176 0h16m-208 1h16m176 0h16m-208 1h16m176 0h16m-208 1h16m176 0h16m-208 1h16m176 0h16m-208 1h16m176 0h16m-208 1h16m176 0h16m-208 1h16m176 0h16m-208 1h16m176 0h16m-208 1h16m176 0h16m-208 1h16m176 0h10m2 0h4m-208 1h16m176 0h10m2 0h4m-208 1h16m176 0h16m-208 1h16m176 0h16m-208 1h16m176 0h16m-208 1h16m176 0h16m-192 1h16m-16 1h16m-16 1h16m-16 1h16m-16 1h16m-16 1h16m-16 1h5m1 0h10m-16 1h16m-16 1h16m-16 1h16m-16 1h16m-16 1h16m-16 1h16m-16 1h16m-16 1h16m-16 1h16m-32 1h16m160 0h16m-192 1h16m160 0h4m1 0h11m-192 1h16m56 0h1m6 0h1m96 0h5m1 0h10m-192 1h16m160 0h16m-192 1h9m1 0h6m160 0h16m-192 1h16m160 0h16m-192 1h16m58 0h1m101 0h16m-192 1h16m48 0h1m111 0h16m-192 1h16m43 0h1m116 0h16m6 0h1m-199 1h16m160 0h16m-192 1h16m160 0h16m-192 1h5m1 0h10m160 0h3m1 0h12m-192 1h16m160 0h16m-192 1h16m160 0h16m-192 1h16m160 0h16m-192 1h16m160 0h16m-144 1h9m1 0h6m19 0h1m-36 1h16m-16 1h7m1 0h8m-16 1h16m-16 1h16m-16 1h16m-16 1h16m-16 1h16m-16 1h16m-16 1h16m-16 1h16m-44 1h1m27 0h16m171 0h1m-188 1h16m112 0h2m-130 1h16m112 0h2m-130 1h16m-16 1h16m115 0h1m-197 1h1m195 6h1"/>
    <path stroke="#010100" d="M224 80h16m-44 1h1m27 0h16m-16 1h16m-16 1h16m-16 1h16m-16 1h16m-16 1h9m1 0h6m-16 1h16m-16 1h16m-16 1h16m-16 1h16m-16 1h16m-16 1h16m-16 1h16m-85 1h1m68 0h10m2 0h4m-58 1h1m41 0h10m2 0h4m48 1h6m2 0h8m-16 1h6m2 0h8m-160 1h1m143 0h16m-16 1h16m-16 1h16m-16 1h16m-16 1h16m-16 1h16m-151 1h1m134 0h16m-16 1h16m-16 1h16m-16 1h16m-16 1h16m-16 1h16m-16 1h16m-16 1h16m-148 6h1m131 11h16m16 0h16m-94 1h1m45 0h16m16 0h16m-48 1h16m16 0h16m-48 1h16m16 0h16m-48 1h16m16 0h16m-48 1h16m16 0h16m-48 1h16m16 0h16m-48 1h1m1 0h14m16 0h7m1 0h8m-48 1h16m16 0h16m-48 1h16m16 0h16m-48 1h16m16 0h16m-48 1h16m16 0h16m-48 1h16m16 0h16m-48 1h4m1 0h11m16 0h16m-48 1h16m16 0h16m-48 1h16m16 0h16m-208 1h16m78 0h1m-95 1h16m-16 1h16m-16 1h16m-16 1h16m-16 1h16m-16 1h16m-16 1h16m-16 1h16m-16 1h16m-16 1h16m-16 1h16m-16 1h11m1 0h4m-16 1h16m-15 1h15m-16 1h16m244 10h1m-4 1h1m-66 6h16m64 0h32m-112 1h16m64 0h32m-112 1h16m64 0h32m-112 1h14m1 0h1m64 0h32m-112 1h12m2 0h2m64 0h32m-112 1h12m2 0h2m64 0h32m-380 1h1m267 0h16m64 0h32m-112 1h16m64 0h32m-112 1h16m64 0h26m1 0h5m-112 1h16m64 0h32m-112 1h16m64 0h32m-112 1h16m64 0h32m5 0h1m-118 1h16m64 0h32m-112 1h16m64 0h32m-112 1h16m64 0h8m2 0h22m-112 1h16m64 0h8m2 0h22m-361 9h1m8 8h16m-16 1h16m-16 1h16m-16 1h16m-16 1h16m-16 1h16m-16 1h16m-16 1h16m-16 1h16m-16 1h16m-16 1h16m-16 1h16m-16 1h16m-16 1h16m-16 1h16m-16 1h16m346 10h1m-220 1h1m-154 6h2m-2 1h2m2 11h1m5 4h16m240 0h16m64 0h16m-352 1h16m240 0h16m64 0h16m-352 1h16m240 0h16m64 0h16m-352 1h16m240 0h16m64 0h16m-352 1h16m240 0h16m64 0h14m1 0h1m-352 1h16m240 0h16m64 0h16m-352 1h16m240 0h16m64 0h16m-356 1h1m3 0h16m240 0h16m64 0h16m-352 1h16m240 0h16m64 0h16m-352 1h16m240 0h16m64 0h16m-352 1h16m240 0h16m64 0h16m-352 1h16m240 0h16m64 0h16m-352 1h16m240 0h16m64 0h9m1 0h6m-352 1h16m240 0h16m64 0h16m-352 1h16m240 0h16m64 0h16m-352 1h16m240 0h16m64 0h16m-224 1h16m-16 1h8m1 0h7m132 0h1m-149 1h16m-16 1h16m-16 1h16m-16 1h16m-157 1h1m140 0h16m-16 1h16m-16 1h16m-16 1h16m-16 1h16m-16 1h16m-16 1h16m-16 1h16m137 0h1m-154 1h16m-16 1h16m-157 1h1m60 0h16m-16 1h16m-16 1h16m-16 1h16m45 0h1m-62 1h16m12 0h2m-30 1h16m12 0h2m-30 1h16m-16 1h16m-16 1h16m47 0h1m-64 1h12m1 0h3m-16 1h16m-16 1h16m-16 1h16m34 0h1m-51 1h16m-16 1h16m-16 1h16m84 4h1m-54 9h1m-44 1h1m-59 4h1m83 6h1m0 5h1m34 12h1m-66 17h1m-2 7h16m80 0h5m1 0h10m-112 1h16m80 0h16m-112 1h16m80 0h8m1 0h6m-111 1h16m80 0h16m-112 1h16m80 0h16m-112 1h16m80 0h16m-112 1h16m80 0h10m1 0h5m-112 1h16m81 0h15m-127 1h1m14 0h16m80 0h16m-112 1h16m80 0h16m-112 1h16m80 0h16m-112 1h16m80 0h16m-112 1h16m80 0h16m-112 1h16m80 0h9m1 0h6m-112 1h16m80 0h16m-112 1h16m80 0h16m-112 1h16m48 0h16m128 0h16m32 0h16m-272 1h16m48 0h16m128 0h16m32 0h16m-272 1h16m48 0h16m128 0h16m32 0h16m-272 1h16m48 0h16m128 0h16m32 0h16m-272 1h16m48 0h16m128 0h5m1 0h10m32 0h9m1 0h6m-272 1h16m48 0h16m128 0h16m32 0h16m-272 1h16m48 0h16m128 0h16m32 0h16m-272 1h16m48 0h16m128 0h16m32 0h16m-272 1h16m48 0h16m128 0h16m32 0h16m-272 1h16m48 0h16m128 0h16m32 0h16m-272 1h16m48 0h16m128 0h16m32 0h16m-272 1h16m48 0h16m128 0h16m32 0h11m1 0h4m-272 1h16m48 0h16m130 0h14m32 0h16m-272 1h16m48 0h16m130 0h14m32 0h16m-272 1h4m2 0h10m48 0h16m128 0h16m32 0h16m-272 1h4m2 0h10m48 0h16m128 0h3m1 0h12m32 0h16m-272 1h15m1 0h16m80 0h16m46 0h1m81 0h16m-272 1h32m37 0h1m42 0h16m128 0h16m-272 1h32m80 0h2m2 0h12m128 0h16m-272 1h32m36 0h1m43 0h2m2 0h12m128 0h16m-272 1h32m80 0h16m128 0h16m-272 1h32m80 0h16m128 0h16m-272 1h32m80 0h16m128 0h16m-272 1h32m80 0h16m128 0h16m-272 1h32m80 0h16m128 0h16m-272 1h32m80 0h16m128 0h16m-272 1h32m80 0h16m128 0h16m-272 1h32m80 0h16m128 0h16m-272 1h32m80 0h16m128 0h16m-272 1h32m80 0h16m128 0h16m-272 1h32m80 0h16m128 0h6m1 0h9m-272 1h32m80 0h16m128 0h16"/>
    <path stroke="#000" d="M256 80h16m-16 1h16m-16 1h16m-16 1h16m-16 1h16m-96 1h1m79 0h16m-16 1h16m-16 1h13m1 0h2m-16 1h14m1 0h1m-16 1h16m-16 1h16m-16 1h16m-91 1h1m74 0h16m-16 1h16m-16 1h16m-16 1h16m-112 1h16m80 0h27m1 0h4m-128 1h16m80 0h32m-128 1h14m1 0h1m80 0h12m1 0h19m-128 1h16m80 0h32m-128 1h16m80 0h32m-128 1h16m81 0h31m-128 1h16m80 0h32m-128 1h16m80 0h32m-128 1h16m80 0h32m-128 1h16m80 0h27m1 0h4m-128 1h16m80 0h32m-128 1h16m80 0h15m1 0h16m-128 1h16m80 0h32m-128 1h16m80 0h24m1 0h7m-128 1h10m1 0h5m80 0h32m-128 1h16m80 0h32m-56 5h1m-88 4h1m1 2h1m76 3h1m111 3h16m-123 1h1m106 0h16m-16 1h10m2 0h4m-109 1h1m92 0h10m2 0h4m-16 1h16m-16 1h16m-16 1h16m-16 1h16m-16 1h16m-16 1h16m-16 1h16m-112 1h1m95 0h10m1 0h5m-16 1h16m-16 1h16m-16 1h16m-16 1h16m-128 1h16m-16 1h16m-16 1h16m156 0h2m-174 1h16m156 0h2m-174 1h16m-16 1h16m-16 1h16m-16 1h16m-16 1h16m-16 1h16m-16 1h16m-16 1h12m1 0h3m-16 1h8m1 0h7m-15 1h15m-16 1h16m-16 1h16m-74 8h1m-23 9h16m48 0h32m-96 1h13m1 0h2m48 0h3m1 0h28m-96 1h16m48 0h32m-96 1h16m48 0h32m-96 1h16m48 0h32m-96 1h16m48 0h32m92 0h1m-189 1h16m48 0h1m1 0h2m2 0h14m1 0h11m-96 1h8m1 0h7m48 0h4m2 0h26m-96 1h16m48 0h18m2 0h12m-96 1h16m48 0h18m2 0h12m-96 1h16m48 0h32m-96 1h16m48 0h32m-96 1h2m2 0h12m48 0h32m-96 1h2m2 0h12m48 0h32m-96 1h16m48 0h32m-96 1h16m48 0h32m-64 1h32m16 0h16m-64 1h32m16 0h16m223 0h1m-386 1h2m96 0h32m16 0h16m-162 1h2m96 0h32m16 0h16m-64 1h32m16 0h16m-64 1h32m16 0h16m-64 1h32m16 0h12m1 0h3m-64 1h32m16 0h16m-64 1h32m16 0h16m-64 1h32m16 0h16m-64 1h32m16 0h16m-64 1h6m1 0h25m16 0h16m-64 1h32m16 0h16m-64 1h32m16 0h16m-64 1h32m16 0h2m2 0h12m-64 1h32m16 0h2m2 0h12m-16 1h16m208 0h16m-240 1h11m1 0h4m208 0h16m-240 1h16m208 0h16m-240 1h16m208 0h16m-240 1h16m208 0h16m-240 1h16m208 0h16m-240 1h16m208 0h16m-240 1h16m208 0h16m-240 1h16m208 0h16m-240 1h16m208 0h16m-240 1h15m209 0h16m-240 1h16m208 0h16m-240 1h16m208 0h16m-240 1h16m208 0h1m1 0h14m-240 1h16m208 0h16m-240 1h9m1 0h6m208 0h16m-48 3h2m-2 1h2m-330 9h1m135 4h2m1 0h1m1 0h11m-16 1h16m-16 1h16m-16 1h16m-16 1h16m-16 1h16m-16 1h16m-16 1h16m-16 1h16m174 0h1m-191 1h16m-16 1h10m1 0h5m-16 1h16m-16 1h16m-16 1h10m1 0h5m-16 1h16m-16 1h16m128 1h16m-16 1h16m30 0h1m-249 1h2m200 0h16m-218 1h2m200 0h16m-16 1h16m-16 1h16m-16 1h16m-16 1h16m-16 1h16m30 0h2m-48 1h16m30 0h2m-48 1h16m29 0h1m-46 1h16m-16 1h16m-16 1h16m-16 1h16m-16 1h16m-240 1h32m160 0h16m-260 1h1m51 0h32m160 0h16m-208 1h32m160 0h16m-208 1h32m160 0h16m-208 1h32m160 0h16m-208 1h32m160 0h16m-208 1h32m160 0h16m9 0h1m-218 1h32m160 0h16m-208 1h32m160 0h16m-208 1h32m160 0h16m-208 1h18m2 0h12m160 0h18m-210 1h18m2 0h12m160 0h18m-210 1h18m2 0h12m160 0h16m-208 1h18m2 0h12m160 0h16m-208 1h32m160 0h16m-208 1h23m1 0h8m160 0h16m-279 9h1m280 0h1m-189 5h1m25 3h16m48 0h16m-80 1h16m48 0h16m-80 1h16m48 0h16m-80 1h16m48 0h16m49 0h1m-130 1h16m48 0h16m-148 1h1m67 0h16m48 0h16m-80 1h16m48 0h16m-157 1h1m76 0h16m48 0h16m-195 1h1m114 0h16m48 0h16m-80 1h16m48 0h16m-104 1h1m23 0h16m48 0h12m1 0h3m-80 1h16m48 0h16m-80 1h16m48 0h15m-79 1h16m48 0h12m1 0h3m-203 1h1m122 0h16m48 0h16m-80 1h16m48 0h16m67 15h1m-4 2h16m-16 1h16m-16 1h16m-16 1h16m-16 1h16m-16 1h16m-16 1h16m-16 1h16m-16 1h16m-16 1h16m-16 1h16m10 0h2m-28 1h16m10 0h2m-28 1h16m-268 1h1m251 0h16m-16 1h16m-220 1h1m203 0h16m-240 1h16m32 0h16m20 0h1m1 0h2m136 0h16m-240 1h16m32 0h16m21 0h3m136 0h16m-240 1h16m32 0h16m160 0h16m-240 1h16m32 0h16m160 0h16m-240 1h16m32 0h16m160 0h16m-240 1h16m32 0h16m160 0h16m-240 1h16m32 0h16m5 0h1m18 0h2m134 0h16m-240 1h16m32 0h16m24 0h2m134 0h16m-240 1h16m32 0h16m160 0h16m-240 1h16m32 0h16m160 0h16m-240 1h16m32 0h16m160 0h16m-240 1h16m32 0h16m160 0h16m-240 1h16m32 0h16m16 0h1m143 0h16m-240 1h16m32 0h16m160 0h16m-240 1h16m32 0h16m160 0h16m-240 1h16m32 0h16m160 0h16m-11 3h1m-177 9h1m-22 5h16m57 0h1m22 0h3m1 0h28m-128 1h16m80 0h32m-128 1h16m55 0h1m24 0h32m-128 1h16m80 0h32m-128 1h16m80 0h32m-128 1h16m80 0h32m-128 1h16m80 0h19m1 0h12m-128 1h16m80 0h32m-128 1h16m80 0h32m-128 1h16m80 0h32m-128 1h16m80 0h32m-128 1h13m1 0h2m80 0h32m-128 1h16m80 0h32m96 0h2m-226 1h16m80 0h32m96 0h2m-226 1h16m80 0h32m-128 1h16m80 0h32m-112 1h16m160 0h32m-208 1h16m160 0h32m-208 1h16m160 0h32m-208 1h16m160 0h32m-208 1h16m160 0h32m-208 1h16m160 0h32m-208 1h16m160 0h3m1 0h24m1 0h3m-208 1h16m160 0h32m-208 1h16m160 0h32m-208 1h16m160 0h32m-208 1h16m160 0h32m-208 1h16m160 0h32m-208 1h16m160 0h32m-208 1h16m160 0h32m-208 1h16m116 0h1m43 0h32m-208 1h16m160 0h32"/>
    <path stroke="#000001" d="M272 80h16m16 0h16m-48 1h16m16 0h16m-48 1h8m1 0h7m16 0h16m-48 1h13m1 0h2m16 0h16m-48 1h16m16 0h16m-48 1h16m16 0h16m-48 1h16m16 0h16m-51 1h1m2 0h16m16 0h16m-48 1h16m16 0h16m-48 1h16m16 0h16m-48 1h16m16 0h16m-48 1h16m16 0h16m-48 1h16m16 0h16m-48 1h16m16 0h16m-48 1h16m16 0h16m-48 1h16m16 0h16m-140 3h2m-2 1h2m26 6h1m74 0h1m-60 7h16m15 0h1m-32 1h16m82 0h1m-99 1h16m-16 1h16m-16 1h8m1 0h7m96 0h1m-113 1h16m-16 1h16m90 0h2m-108 1h16m90 0h2m-108 1h16m-16 1h16m-16 1h16m-16 1h15m-100 1h1m84 0h16m-83 1h1m67 0h15m-16 1h16m56 0h1m-73 1h16m85 0h1m-102 1h16m16 0h16m-48 1h5m1 0h10m16 0h16m-48 1h16m16 0h16m-48 1h16m16 0h16m-48 1h16m16 0h16m42 0h1m-91 1h16m16 0h16m-48 1h16m16 0h16m-48 1h16m16 0h16m-48 1h16m16 0h16m-47 1h15m16 0h16m-48 1h16m16 0h16m-48 1h16m16 0h16m-48 1h16m16 0h16m-48 1h16m16 0h16m-48 1h8m2 0h6m16 0h15m-47 1h8m2 0h6m16 0h16m-104 1h1m67 11h1m-77 5h16m-16 1h16m-16 1h16m-16 1h16m-16 1h16m-16 1h16m-16 1h16m-16 1h6m1 0h4m1 0h4m-16 1h16m-16 1h16m-16 1h16m-16 1h16m-16 1h16m-16 1h16m-16 1h16m-16 1h16m0 1h16m176 0h16m-227 1h1m18 0h16m123 0h1m52 0h2m1 0h13m-208 1h16m176 0h16m-208 1h16m176 0h16m-208 1h16m176 0h16m-208 1h16m176 0h16m-208 1h16m17 0h1m158 0h16m-232 1h1m23 0h16m176 0h16m-208 1h16m176 0h16m-208 1h16m114 0h1m61 0h16m-208 1h16m176 0h16m-208 1h16m177 0h15m-238 1h2m28 0h16m176 0h16m-238 1h2m28 0h16m176 0h16m-208 1h16m176 0h16m-208 1h16m176 0h16m-336 1h16m256 0h16m96 0h32m-416 1h16m256 0h16m96 0h31m-415 1h16m256 0h16m96 0h32m-416 1h16m256 0h16m96 0h32m-416 1h16m256 0h16m96 0h32m-416 1h16m256 0h16m96 0h21m1 0h10m-416 1h16m172 0h1m83 0h16m96 0h32m-416 1h16m256 0h16m96 0h32m-416 1h14m258 0h16m96 0h32m-416 1h14m258 0h16m96 0h32m-416 1h16m256 0h16m96 0h32m-416 1h3m1 0h12m118 0h1m137 0h16m96 0h32m-416 1h16m256 0h16m96 0h32m-416 1h10m1 0h5m256 0h16m96 0h32m-416 1h16m256 0h16m96 0h32m-416 1h16m256 0h16m96 0h32m-400 1h16m112 0h16m96 0h16m8 0h1m-265 1h16m112 0h16m96 0h16m-256 1h16m112 0h16m96 0h16m-256 1h16m112 0h16m96 0h16m-256 1h16m112 0h16m96 0h16m-256 1h16m112 0h16m96 0h16m-256 1h16m112 0h16m96 0h1m1 0h14m-256 1h16m112 0h16m96 0h16m-256 1h16m112 0h16m96 0h16m-256 1h16m112 0h16m96 0h16m7 0h1m-264 1h16m112 0h16m96 0h16m-256 1h16m112 0h16m96 0h16m-256 1h16m112 0h16m96 0h11m1 0h4m-256 1h16m112 0h16m96 0h16m-256 1h16m112 0h16m96 0h16m-256 1h16m112 0h16m96 0h16m-240 1h16m80 0h16m224 0h16m-352 1h16m80 0h16m224 0h16m-352 1h16m80 0h16m226 0h11m1 0h2m-352 1h16m80 0h16m226 0h14m-352 1h16m80 0h16m224 0h16m-352 1h16m80 0h16m224 0h16m-352 1h16m80 0h16m224 0h16m-352 1h16m80 0h16m224 0h16m-352 1h16m80 0h16m224 0h16m-352 1h16m80 0h16m224 0h16m-352 1h16m80 0h7m1 0h8m224 0h16m-352 1h16m80 0h8m1 0h7m224 0h16m-352 1h8m1 0h7m80 0h16m224 0h16m-352 1h16m80 0h16m224 0h16m-352 1h16m80 0h16m224 0h16m-352 1h16m80 0h16m224 0h14m1 0h1m-352 1h16m98 0h2m32 0h1m171 0h32m-352 1h16m98 0h2m204 0h32m-352 1h16m304 0h32m-352 1h16m304 0h32m-352 1h16m304 0h32m-352 1h16m304 0h32m-352 1h16m304 0h32m-352 1h16m304 0h32m-352 1h16m304 0h14m1 0h17m-352 1h16m304 0h32m-352 1h16m304 0h32m-352 1h16m304 0h32m-352 1h16m304 0h2m2 0h28m-352 1h16m304 0h2m2 0h28m-352 1h16m304 0h32m-352 1h16m304 0h8m1 0h23m-272 1h9m1 0h2m1 0h3m-16 1h16m-16 1h2m1 0h3m2 0h8m-16 1h6m2 0h8m-16 1h16m-16 1h16m-16 1h16m-16 1h16m-16 1h16m-16 1h16m-16 1h16m-16 1h16m-16 1h16m-16 1h16m-16 1h16m-16 1h16m-64 17h16m64 0h16m-96 1h16m64 0h16m-96 1h15m65 0h16m-96 1h16m64 0h16m-96 1h16m64 0h16m-96 1h16m64 0h16m-96 1h16m64 0h16m-96 1h16m64 0h16m-96 1h16m64 0h16m-96 1h16m64 0h16m-96 1h16m64 0h16m-96 1h16m64 0h16m-96 1h16m64 0h14m1 0h1m-96 1h16m64 0h16m-96 1h16m64 0h16m-96 1h16m64 0h16m153 2h1m-146 5h2m-2 1h2m-26 9h16m-16 1h16m-16 1h14m1 0h1m-128 1h1m111 0h16m-128 1h2m110 0h16m-128 1h2m110 0h16m-16 1h16m-73 1h1m56 0h8m1 0h7m-16 1h16m-96 1h1m79 0h16m-16 1h16m-16 1h16m-16 1h15m-95 1h1m79 0h16m-92 1h1m75 0h16m-16 1h16m-96 1h32m32 0h16m-80 1h32m32 0h16m-80 1h32m32 0h16m-80 1h32m32 0h16m-80 1h32m32 0h16m-80 1h32m32 0h16m-80 1h32m32 0h16m-80 1h32m32 0h16m-80 1h32m32 0h16m-80 1h32m32 0h13m1 0h2m-80 1h32m32 0h16m-80 1h32m4 0h1m27 0h16m-80 1h11m1 0h21m31 0h16m-80 1h32m32 0h16m-80 1h24m1 0h7m32 0h16m-80 1h20m1 0h11m32 0h16m32 1h16m112 0h16m-144 1h16m112 0h16m-144 1h16m112 0h16m-144 1h4m1 0h11m112 0h16m-144 1h16m112 0h16m-144 1h16m112 0h16m-144 1h16m112 0h16m-144 1h16m112 0h16m-144 1h16m112 0h16m-144 1h16m112 0h16m-144 1h16m112 0h16m-144 1h16m112 0h16m-144 1h16m112 0h16m-144 1h16m112 0h16m-144 1h16m112 0h16m-144 1h16m112 0h16m-176 1h16m-16 1h16m6 0h1m-23 1h16m-16 1h16m-16 1h16m-16 1h16m-16 1h16m-16 1h16m154 0h1m-171 1h16m-51 1h1m34 0h16m-16 1h16m-16 1h16m-16 1h16m-16 1h16m-16 1h16m-16 1h16m16 1h16m128 0h16m-160 1h16m128 0h16m-160 1h16m128 0h16m-160 1h16m128 0h16m-160 1h16m128 0h16m-160 1h16m128 0h16m-160 1h9m1 0h6m19 0h1m108 0h16m-160 1h16m126 0h1m1 0h16m-160 1h9m1 0h6m124 0h1m3 0h16m-160 1h16m128 0h16m-160 1h16m124 0h2m2 0h16m-227 1h1m66 0h16m124 0h2m2 0h16m-160 1h16m130 0h14m-160 1h16m130 0h14m-160 1h16m128 0h16m-160 1h16m128 0h16m-112 1h5m2 0h9m-16 1h16m-16 1h16m-16 1h16m-16 1h16m-16 1h16m-16 1h16m-16 1h16m-16 1h16m-16 1h16m-16 1h16m-16 1h16m-16 1h16m-15 1h6m1 0h8m-16 1h16m-16 1h16"/>
    <path stroke="#000101" d="M280 82h1m-73 14h16m-16 1h16m-16 1h16m-16 1h16m-16 1h16m-16 1h16m-16 1h16m-16 1h1m1 0h14m-16 1h16m-15 1h15m-16 1h11m1 0h4m-16 1h16m-16 1h16m-16 1h16m-16 1h16m-16 1h16m-96 1h16m176 0h16m-208 1h16m176 0h2m1 0h13m-208 1h16m176 0h16m-208 1h4m1 0h11m176 0h16m-208 1h16m176 0h16m-208 1h16m176 0h16m-208 1h16m138 0h2m36 0h10m2 0h4m-208 1h16m138 0h2m36 0h10m2 0h4m-208 1h16m176 0h16m-208 1h16m176 0h16m-208 1h16m176 0h16m-208 1h16m95 0h1m80 0h16m-208 1h11m1 0h4m176 0h16m-208 1h16m176 0h16m-208 1h16m176 0h16m-208 1h16m1 0h1m174 0h5m1 0h10m-64 1h16m16 0h16m48 0h16m-112 1h16m16 0h16m48 0h16m-112 1h16m16 0h16m48 0h16m-112 1h16m16 0h16m48 0h16m-112 1h16m16 0h10m1 0h5m48 0h16m-112 1h16m16 0h16m48 0h16m-112 1h16m16 0h16m48 0h9m1 0h6m-112 1h16m16 0h16m48 0h16m-112 1h16m16 0h16m48 0h16m-112 1h16m16 0h16m48 0h16m-112 1h16m16 0h10m1 0h5m48 0h16m-112 1h16m16 0h16m48 0h16m-112 1h16m16 0h16m48 0h16m-112 1h16m16 0h16m48 0h16m-152 1h2m38 0h16m16 0h13m1 0h2m48 0h16m-152 1h2m38 0h16m16 0h16m48 0h16m-224 1h8m1 0h7m192 0h16m-224 1h16m192 0h16m-224 1h16m192 0h16m-224 1h16m192 0h16m-224 1h16m192 0h16m-224 1h16m192 0h16m-224 1h16m192 0h16m-224 1h16m192 0h16m-224 1h16m192 0h16m-224 1h16m192 0h16m-224 1h16m192 0h16m-224 1h16m192 0h16m-224 1h16m192 0h16m-224 1h16m192 0h16m-224 1h16m192 0h16m-224 1h7m1 0h8m192 0h16m-160 1h16m-16 1h16m-16 1h16m-16 1h16m-16 1h16m-16 1h16m-16 1h16m-16 1h16m-16 1h16m-16 1h16m-16 1h16m-16 1h16m-16 1h16m-16 1h16m-16 1h16m-16 1h16m64 1h16m64 0h5m1 0h10m-197 1h1m100 0h11m1 0h3m51 0h1m13 0h16m-96 1h16m64 0h16m-96 1h16m64 0h16m-96 1h16m64 0h9m1 0h6m-96 1h16m64 0h16m-96 1h16m64 0h16m-96 1h16m64 0h16m-325 1h1m228 0h16m64 0h16m-96 1h2m1 0h13m64 0h16m-96 1h16m64 0h16m-96 1h16m64 0h16m-96 1h16m64 0h16m-96 1h16m64 0h16m-96 1h16m64 0h16m-96 1h16m64 0h16m-192 1h1m244 5h1m-392 3h2m-2 1h2m-6 4h1m261 3h8m1 0h7m96 0h16m-128 1h16m96 0h16m-128 1h16m96 0h16m-128 1h16m96 0h16m-128 1h16m96 0h16m-128 1h16m96 0h16m-128 1h16m96 0h16m-128 1h16m96 0h16m-128 1h16m96 0h16m-128 1h7m1 0h8m96 0h16m-128 1h16m96 0h16m-128 1h16m96 0h16m-128 1h16m96 0h8m2 0h6m-128 1h16m96 0h8m2 0h6m-128 1h16m96 0h12m2 0h2m-128 1h16m96 0h12m2 0h2m-5 6h1m-260 6h1m245 4h1m-239 1h2m2 0h28m-32 1h2m2 0h8m1 0h19m-32 1h27m1 0h4m-32 1h32m-32 1h32m-32 1h32m-32 1h30m-30 1h30m-30 1h32m-32 1h32m-32 1h15m1 0h16m-32 1h32m-32 1h32m-32 1h32m-32 1h32m-32 1h32m-55 1h1m2 0h1m3 0h48m-48 1h48m-62 1h1m13 0h48m-48 1h48m-48 1h48m-48 1h48m-48 1h4m2 0h42m-48 1h4m2 0h42m-48 1h48m-48 1h36m1 0h11m2 0h1m-51 1h48m-48 1h48m-48 1h13m1 0h34m-48 1h48m-48 1h32m1 0h15m-48 1h45m1 0h2m-32 1h16m-16 1h16m150 0h1m-167 1h16m-16 1h16m-16 1h16m-16 1h16m-118 1h1m100 0h12m1 0h4m156 0h1m-184 1h1m10 0h16m-16 1h16m155 0h1m-172 1h16m-125 1h1m108 0h16m-16 1h16m-16 1h16m-16 1h16m-16 1h16m-16 1h16m129 1h1m-211 2h1m18 2h2m-2 1h2m216 1h2m-2 1h2m-155 3h1m-6 2h1m-53 1h1m-75 3h16m80 0h16m16 0h16m16 0h16m80 0h32m-288 1h7m1 0h8m20 0h1m59 0h16m16 0h16m16 0h16m80 0h25m1 0h6m-288 1h16m80 0h16m16 0h16m16 0h16m80 0h32m-288 1h16m80 0h16m16 0h16m16 0h16m80 0h24m1 0h7m-288 1h16m80 0h16m16 0h16m16 0h16m80 0h32m-288 1h16m80 0h16m16 0h16m16 0h16m80 0h32m-288 1h16m80 0h12m1 0h3m16 0h8m2 0h6m16 0h16m80 0h32m-288 1h16m80 0h16m16 0h8m2 0h6m16 0h16m80 0h32m-288 1h16m56 0h1m23 0h16m16 0h4m2 0h10m16 0h16m80 0h32m-288 1h16m80 0h16m16 0h4m2 0h10m16 0h16m80 0h32m-288 1h16m80 0h16m16 0h16m16 0h16m80 0h8m1 0h23m-288 1h16m80 0h16m16 0h16m16 0h16m80 0h11m1 0h20m-288 1h16m80 0h16m16 0h16m16 0h16m80 0h32m-288 1h16m80 0h16m16 0h16m16 0h16m80 0h32m-288 1h7m1 0h8m80 0h16m16 0h16m16 0h16m80 0h32m-288 1h16m80 0h16m16 0h16m16 0h16m80 0h32m-288 1h16m-16 1h16m57 0h1m-73 1h15m110 0h1m-126 1h15m-14 1h14m55 0h1m-70 1h14m-16 1h10m1 0h5m-16 1h16m104 0h1m-121 1h16m-16 1h16m-16 1h16m-16 1h16m-16 1h16m54 0h2m55 0h1m-128 1h16m54 0h2m-72 1h16m-16 1h16m63 0h1m188 0h1m-285 1h16m64 0h16m-96 1h16m64 0h16m-96 1h16m64 0h16m-96 1h16m64 0h16m-96 1h2m2 0h12m64 0h16m-96 1h2m2 0h12m64 0h16m-96 1h16m64 0h16m-96 1h16m64 0h16m-96 1h16m64 0h16m-96 1h16m64 0h16m29 0h1m-126 1h16m64 0h16m36 0h1m-133 1h16m64 0h4m1 0h11m-96 1h16m43 0h1m21 0h15m-96 1h16m64 0h6m1 0h9m-96 1h16m64 0h16m-96 1h16m64 0h16m-80 1h16m48 0h16m-80 1h16m48 0h16m-80 1h16m48 0h16m-80 1h16m48 0h16m68 0h1m-149 1h16m48 0h16m-80 1h16m48 0h16m-80 1h16m32 0h1m15 0h16m-80 1h16m48 0h16m-80 1h16m42 0h2m4 0h16m-80 1h16m42 0h2m4 0h16m-80 1h16m48 0h16m-80 1h16m48 0h8m1 0h7m-80 1h16m48 0h16m-80 1h16m48 0h16m-80 1h16m48 0h16m-80 1h16m48 0h16m-16 1h16m16 0h16m16 0h16m128 0h16m-224 1h16m16 0h16m16 0h6m1 0h9m116 0h1m11 0h16m-224 1h16m16 0h16m16 0h16m128 0h16m-224 1h16m16 0h16m16 0h16m128 0h16m-224 1h16m9 0h1m6 0h16m16 0h16m128 0h16m-224 1h16m16 0h16m16 0h16m128 0h16m-224 1h16m16 0h16m16 0h16m128 0h16m-224 1h16m16 0h16m16 0h16m128 0h10m1 0h5m-224 1h16m16 0h16m16 0h11m1 0h4m128 0h6m1 0h9m-224 1h13m1 0h2m16 0h16m16 0h16m128 0h16m-224 1h16m16 0h16m16 0h16m128 0h16m-224 1h16m16 0h16m16 0h16m115 0h1m12 0h16m-224 1h16m16 0h16m16 0h16m128 0h16m-224 1h16m16 0h16m16 0h16m128 0h16m-224 1h16m16 0h16m16 0h16m128 0h16m-224 1h16m16 0h16m16 0h16m128 0h16m-192 1h16m160 0h16m-192 1h16m160 0h16m-192 1h16m160 0h16m-192 1h16m160 0h16m-192 1h16m160 0h16m-192 1h16m160 0h16m-192 1h16m160 0h16m-192 1h16m160 0h14m1 0h1m-192 1h16m41 0h1m118 0h12m1 0h3m-192 1h16m160 0h16m-192 1h16m160 0h12m2 0h2m-192 1h4m1 0h11m160 0h12m2 0h2m-192 1h16m160 0h16m-192 1h16m160 0h16m-192 1h16m160 0h16m-192 1h16m160 0h16m-192 1h16m85 0h1m-102 1h16m-16 1h16m-16 1h16m-16 1h16m-16 1h16m-16 1h16m-16 1h16m-16 1h16m-16 1h16m-16 1h16m-16 1h16m-16 1h16m-16 1h16m80 0h1m6 0h1m-104 1h16m-16 1h16"/>
    <path stroke="#fefffe" d="M435 90h1m-246 28h1m65 26h16m-16 1h16m-16 1h16m-16 1h16m-16 1h16m-16 1h16m-16 1h16m-16 1h16m-16 1h16m20 0h1m-37 1h16m-16 1h16m-16 1h16m-16 1h16m-16 1h16m-16 1h16m46 0h1m-63 1h16m-80 1h16m-16 1h16m-16 1h16m152 0h2m-170 1h16m152 0h2m3 0h1m-174 1h16m-16 1h16m-16 1h11m1 0h4m-16 1h16m-16 1h8m1 0h7m-16 1h3m1 0h12m75 0h1m-92 1h16m-16 1h16m-16 1h16m-16 1h16m-16 1h16m-16 1h16m48 17h16m-16 1h16m-16 1h16m-16 1h16m-16 1h16m-16 1h16m-16 1h16m-16 1h16m-16 1h16m82 0h1m-99 1h16m-16 1h16m-16 1h16m-15 1h15m-16 1h16m-16 1h16m-16 1h16m96 17h16m-16 1h16m-16 1h16m-16 1h16m-16 1h16m-16 1h16m-16 1h16m-16 1h16m-16 1h10m2 0h4m-16 1h10m2 0h4m-16 1h16m-16 1h16m-16 1h13m1 0h2m-16 1h16m-16 1h16m-16 1h16m-53 7h1m-38 1h1m39 4h1m-33 8h1m-25 9h1m-17 52h2m-2 1h2m44 9h1m-32 5h1m-13 4h1m2 2h1m19 11h32m-41 1h1m8 0h26m1 0h5m-32 1h26m1 0h5m-32 1h32m-41 1h1m8 0h32m-32 1h32m-32 1h32m-32 1h32m-32 1h14m2 0h16m-32 1h14m2 0h16m-32 1h17m1 0h14m-46 1h1m13 0h32m-32 1h32m-32 1h32m-32 1h16m1 0h15m-32 1h32m-48 1h16m32 0h16m-64 1h16m32 0h16m-64 1h13m1 0h2m32 0h16m-64 1h16m32 0h16m-64 1h16m32 0h16m-64 1h16m32 0h16m-64 1h16m32 0h16m-64 1h16m32 0h16m-64 1h16m32 0h16m-64 1h16m32 0h16m-81 1h1m16 0h16m32 0h16m-64 1h16m32 0h16m-64 1h16m32 0h16m-64 1h16m32 0h16m-64 1h16m32 0h16m-64 1h16m32 0h16"/>
    <path stroke="#818080" d="M160 112h16m-16 1h16m-16 1h16m-16 1h16m-16 1h16m-16 1h16m-16 1h16m-16 1h16m-16 1h16m-16 1h16m-16 1h16m-16 1h16m-16 1h16m-16 1h16m-16 1h16m-16 1h16m240 81h16m-16 1h7m1 0h8m-16 1h16m-16 1h16m-16 1h12m2 0h2m-16 1h12m2 0h2m-20 1h1m3 0h16m-16 1h16m-16 1h16m-16 1h16m-16 1h16m-16 1h16m-16 1h16m-16 1h16m-16 1h16m-16 1h16m-45 18h1m8 3h1m-156 19h1m53 20h1m-8 2h1m-49 35h16m-16 1h16m-16 1h9m1 0h6m-16 1h16m-16 1h16m-16 1h16m-16 1h16m-38 1h1m21 0h16m-16 1h16m-16 1h16m-16 1h16m-16 1h16m-16 1h16m-16 1h16m-16 1h16m-16 1h16M80 368h16m-16 1h16m-16 1h16m-16 1h16m-16 1h16m-16 1h16m-16 1h16m-16 1h16m-16 1h16m-16 1h16m-16 1h16m-16 1h16m-16 1h16m-16 1h16m-16 1h16m-16 1h16m16 1h16m-16 1h16m-16 1h16m-16 1h16m-16 1h16m-16 1h16m-16 1h16m-16 1h16m-16 1h16m-16 1h16m-16 1h16m-16 1h16m-16 1h16m-16 1h16m-16 1h16m-16 1h16m-30 14h1"/>
    <path stroke="#fefeff" d="M176 117h1m63 27h16m64 0h16m-96 1h16m64 0h16m-96 1h14m66 0h16m-96 1h14m66 0h16m-96 1h16m64 0h16m-96 1h16m64 0h16m-96 1h16m64 0h16m-96 1h16m64 0h16m-96 1h16m64 0h3m1 0h12m-96 1h16m64 0h16m-96 1h16m64 0h16m-96 1h16m64 0h16m-96 1h16m64 0h16m-96 1h16m64 0h16m-96 1h16m64 0h16m-96 1h16m64 0h10m1 0h5m-160 1h8m1 0h7m-16 1h16m-16 1h16m-16 1h16m-16 1h16m-16 1h16m-16 1h16m-16 1h16m-16 1h16m-16 1h16m-16 1h16m-16 1h16m-16 1h16m-16 1h16m-16 1h16m-16 1h16m144 1h16m-16 1h16m-16 1h16m-16 1h16m-16 1h16m-16 1h16m-16 1h16m-16 1h16m-16 1h16m-16 1h16m-16 1h16m-16 1h16m-16 1h16m-16 1h16m-16 1h16m-16 1h16m-112 1h12m2 0h2m-16 1h12m2 0h2m-16 1h6m2 0h8m-16 1h6m2 0h8m-16 1h16m92 0h1m-109 1h16m-16 1h10m1 0h2m1 0h2m-16 1h16m-16 1h16m-16 1h16m-16 1h16m-16 1h16m-16 1h16m-16 1h16m-16 1h16m-16 1h16m96 1h16m-16 1h16m-16 1h12m2 0h2m-16 1h12m2 0h2m-16 1h2m1 0h13m-16 1h16m-16 1h16m-16 1h16m-16 1h16m-127 1h1m110 0h16m-16 1h16m-16 1h16m-16 1h16m-16 1h16m-16 1h16m-16 1h16m-64 1h16m-16 1h16m-16 1h16m-16 1h16m-16 1h16m-16 1h16m-16 1h16m-16 1h16m-16 1h16m32 0h1m-49 1h16m-16 1h8m1 0h7m-16 1h16m-60 1h1m43 0h16m-16 1h16m-16 1h15m-15 1h16m16 1h16m-16 1h16m-16 1h16m-20 1h1m3 0h16m-16 1h16m-16 1h16m-16 1h10m3 0h3m-16 1h10m2 0h4m-74 1h1m57 0h13m1 0h2m-16 1h16m-16 1h16m-16 1h16m-16 1h16m-16 1h16m-61 1h1m44 0h16m-16 1h16m-64 67h1m18 12h1m12 2h16m-16 1h5m1 0h10m-16 1h3m1 0h12m-16 1h12m1 0h3m-16 1h16m-16 1h16m-16 1h16m-16 1h16m-16 1h16m-16 1h16m-16 1h16m-16 1h16m-16 1h16m-16 1h16m-16 1h12m1 0h3m-16 1h16m-3 2h1m-60 8h1m27 17h2m1 0h1m-4 1h2m0 5h16m-16 1h16m-16 1h16m-16 1h16m-16 1h16m-16 1h16m-16 1h6m1 0h9m-16 1h16m-16 1h16m-16 1h16m-16 1h16m-16 1h16m-16 1h16m-16 1h16m-16 1h16m-16 1h16"/>
    <path stroke="#808180" d="M144 128h16m-16 1h16m-16 1h5m1 0h10m-16 1h16m-16 1h16m-16 1h16m-16 1h16m-16 1h15m-15 1h16m-16 1h16m-16 1h16m-16 1h16m-16 1h16m-16 1h11m1 0h4m-16 1h16m-16 1h16m240 74h1m-161 23h16m-16 1h16m-16 1h16m-16 1h16m126 0h1m-143 1h16m-16 1h16m-16 1h16m-16 1h16m-16 1h16m-16 1h16m-16 1h16m-16 1h16m-16 1h16m-16 1h16m-16 1h16m-16 1h16m6 11h2m-2 1h2m-8 5h16m29 0h1m2 0h16m-64 1h16m32 0h16m-64 1h16m32 0h16m-64 1h16m32 0h16m-64 1h16m32 0h16m-64 1h16m32 0h16m-64 1h16m32 0h16m-64 1h16m32 0h16m15 0h1m-80 1h16m32 0h16m-64 1h16m32 0h16m-64 1h16m32 0h16m4 0h2m7 0h1m-78 1h16m32 0h16m4 0h2m-70 1h8m2 0h6m32 0h16m-64 1h8m2 0h6m32 0h16m-64 1h4m1 0h11m32 0h16m-64 1h16m32 0h16m-16 1h16m-16 1h16m-16 1h16m-16 1h16m-16 1h16m-16 1h16m-16 1h16m-16 1h16m-16 1h16m-16 1h16m-16 1h16m-16 1h16m-16 1h16m-16 1h16m-16 1h16m-16 1h16m-74 40h1M66 358h1m29 26h16m-16 1h16m-16 1h16m-16 1h16m-16 1h16m-16 1h16m-16 1h16m-16 1h16m-16 1h16m-16 1h16m-16 1h16m-16 1h16m-16 1h16m-16 1h16m-16 1h16m-16 1h16m0 1h16m-16 1h16m-16 1h16m-16 1h16m-16 1h16m-16 1h16m-16 1h16m-16 1h16m-16 1h16m-16 1h16m-16 1h4m1 0h11m190 0h1m-207 1h16m-16 1h16m-16 1h16m-16 1h16m-16 1h16"/>
    <path stroke="#818181" d="M160 128h16m-16 1h16m-16 1h16m-16 1h16m-16 1h16m-16 1h16m-15 1h15m-16 1h16m-16 1h16m-16 1h16m-16 1h16m-16 1h16m-16 1h16m-16 1h16m-16 1h16m-16 1h16m240 49h16m-16 1h16m-16 1h16m-16 1h16m-16 1h16m-16 1h16m-16 1h7m1 0h8m-16 1h16m-16 1h16m-16 1h16m-16 1h16m-16 1h16m-16 1h16m-16 1h16m-16 1h2m1 0h13m-16 1h16m-22 7h1m-27 10h16m-16 1h16m-16 1h12m1 0h1m-14 1h14m-14 1h9m1 0h6m-16 1h16m-16 1h16m-16 1h16m-16 1h16m-16 1h16m-16 1h16m-16 1h16m-16 1h16m-16 1h16m-16 1h16m-16 1h16m-80 36h1m-33 13h16m-16 1h16m-16 1h16m-16 1h16m-16 1h16m-16 1h16m-16 1h16m-16 1h16m-16 1h16m-16 1h16m-16 1h16m-16 1h16m-16 1h16m-16 1h16m-60 1h1m43 0h4m2 0h10m-16 1h4m2 0h10m-96 33h16m-16 1h16m-16 1h16m-16 1h8m1 0h7m-16 1h16m-16 1h16m-16 1h16m-16 1h16m-16 1h16m-16 1h16m-16 1h16m-16 1h16m-16 1h16m-16 1h16m-16 1h16m-16 1h16"/>
    <path stroke="gray" d="M149 130h1m278 82h2m-2 1h2m-46 27h16m-16 1h3m1 0h12m-16 1h16m-16 1h16m-16 1h12m1 0h3m-16 1h16m-16 1h16m-16 1h16m-16 1h16m-16 1h16m-16 1h16m-16 1h16m-16 1h16m-16 1h16m-16 1h16m-16 1h16m-144 1h16m-16 1h16m-16 1h16m-16 1h16m-16 1h16m-16 1h16m-16 1h16m-16 1h16m-16 1h16m-16 1h16m-16 1h6m2 0h8m-16 1h6m2 0h8m-16 1h16m-16 1h16m-16 1h16m-16 1h16m-8 13h2m-2 1h2m-10 3h16m-16 1h16m-16 1h16m-16 1h16m-16 1h16m-16 1h16m-16 1h16m-16 1h16m-16 1h16m-16 1h16m-16 1h16m-16 1h16m-16 1h16m-16 1h16m-16 1h16m-16 1h16m-41 36h1M64 352h16m-16 1h16m-16 1h16m-16 1h16m-16 1h16m-16 1h16m-16 1h2m1 0h13m-16 1h3m1 0h12m-16 1h16m-16 1h16m-16 1h16m-16 1h16m-16 1h16m-16 1h16m-16 1h16m-16 1h16m224 33h16m-16 1h16m-16 1h10m2 0h4m-16 1h10m2 0h4m7 0h1m-24 1h16m6 0h1m-23 1h16m-16 1h16m-16 1h16m-16 1h16m-16 1h16m-204 1h1m187 0h14m1 0h1m-16 1h16m-16 1h16m-16 1h16m5 0h1m-22 1h16m-16 1h16m4 0h1"/>
    <path stroke="#808181" d="M160 134h1m-6 7h1m267 57h1m-31 30h1m-26 12h16m-16 1h16m-16 1h16m-16 1h14m1 0h1m-16 1h16m-16 1h16m-16 1h16m-16 1h16m-16 1h16m-16 1h16m-16 1h16m-16 1h16m-16 1h16m-16 1h16m-16 1h16m-16 1h16m-144 33h16m-16 1h16m-16 1h16m-16 1h16m-16 1h16m-16 1h16m-16 1h16m-16 1h16m-16 1h16m-16 1h16m-16 1h16m-16 1h16m26 0h1m-43 1h16m-16 1h16m-16 1h4m1 0h11m-16 1h16m64 81h16m-16 1h16m-16 1h16m-16 1h16m-16 1h16m-16 1h16m-16 1h16m-16 1h16m-16 1h16m-16 1h16m-16 1h16m-16 1h16m-16 1h16m-16 1h14m1 0h1m-16 1h10m1 0h5m-16 1h16"/>
    <path stroke="#818180" d="M159 135h1m258 71h1m-19 2h16m-16 1h16m7 0h1m-24 1h16m-16 1h16m-16 1h16m-16 1h16m-16 1h10m1 0h1m1 0h3m-16 1h16m-16 1h16m-15 1h15m-16 1h16m-16 1h16m-16 1h16m-16 1h16m-16 1h16m-16 1h16m-20 3h1m1 0h2m-2 1h2m-112 45h13m1 0h2m16 0h16m-48 1h16m16 0h16m-48 1h16m16 0h16m-48 1h16m17 0h15m-48 1h16m16 0h16m-48 1h16m16 0h16m-48 1h16m16 0h16m-48 1h16m16 0h15m-47 1h16m16 0h16m-48 1h16m16 0h16m-48 1h16m16 0h4m2 0h7m1 0h2m-48 1h7m1 0h8m16 0h4m2 0h10m-48 1h16m16 0h16m-47 1h15m16 0h16m-76 1h1m27 0h16m16 0h16m-48 1h16m16 0h16m-96 49h16m-16 1h16m-16 1h16m-16 1h16m-16 1h16m-16 1h16m-16 1h16m-16 1h6m1 0h9m-16 1h16m-16 1h16m-16 1h16m-16 1h16m-16 1h16m-16 1h16m-16 1h16m-16 1h16"/>
    <path stroke="#fefefe" d="M288 144h32m-32 1h32m-66 1h2m32 0h32m-66 1h2m32 0h32m-32 1h32m-32 1h32m-32 1h32m-32 1h32m-32 1h4m1 0h6m1 0h20m-32 1h13m1 0h18m-32 1h32m-32 1h32m-32 1h32m-32 1h32m-32 1h30m1 0h1m-32 1h32m-48 1h16m48 0h16m-80 1h16m48 0h16m-80 1h16m48 0h16m-80 1h16m48 0h16m-80 1h16m48 0h16m-80 1h6m1 0h9m48 0h16m-80 1h16m48 0h16m-80 1h16m48 0h16m-80 1h16m48 0h16m-80 1h11m1 0h4m48 0h16m-80 1h16m48 0h16m-80 1h16m48 0h16m-80 1h16m48 0h16m-80 1h16m48 0h16m-80 1h16m48 0h16m-80 1h16m48 0h16m-100 17h2m-2 1h2m145 10h1m-8 3h1m-137 2h16m-16 1h16m-16 1h2m1 0h13m-16 1h16m-16 1h16m-16 1h16m-16 1h16m-16 1h16m-16 1h16m-16 1h16m-16 1h16m-16 1h16m-16 1h16m-16 1h16m-16 1h16m-16 1h16m-32 1h5m1 0h26m-32 1h32m-32 1h32m-32 1h32m-32 1h32m-32 1h32m-32 1h32m-32 1h32m-32 1h32m-32 1h32m-32 1h32m-32 1h32m-32 1h20m1 0h11m-32 1h32m-32 1h32m-32 1h32m16 1h16m48 0h16m-80 1h16m48 0h16m-80 1h16m48 0h16m-80 1h16m48 0h16m-80 1h16m48 0h16m-80 1h16m48 0h16m-80 1h16m42 0h3m3 0h16m-80 1h6m1 0h9m42 0h2m4 0h16m-80 1h16m48 0h16m-80 1h16m48 0h16m-80 1h16m48 0h16m-80 1h16m48 0h7m1 0h8m-80 1h16m48 0h16m-80 1h16m48 0h16m-80 1h3m1 0h12m48 0h16m-80 1h16m48 0h16m-80 1h16m-16 1h16m-16 1h16m-16 1h14m1 0h1m-16 1h16m-16 1h16m-16 1h16m-16 1h16m-16 1h16m-16 1h16m-16 1h16m-16 1h16m-16 1h16m-16 1h16m-16 1h16m-16 1h16m0 33h16m-16 1h16m-16 1h16m-16 1h16m-16 1h16m-16 1h16m-16 1h16m-16 1h16m-16 1h16m-16 1h16m-16 1h16m-16 1h16m-16 1h16m-16 1h16m-16 1h16m-16 1h16m-48 1h16m16 0h16m-48 1h16m16 0h16m-48 1h16m16 0h16m-48 1h16m16 0h16m-48 1h16m16 0h16m-48 1h16m16 0h16m-48 1h16m16 0h16m-48 1h16m16 0h16m-48 1h16m16 0h16m-48 1h16m16 0h16m-48 1h16m16 0h4m1 0h11m-48 1h16m16 0h16m-48 1h16m16 0h16m-48 1h16m16 0h16m-48 1h16m16 0h3m1 0h12m-48 1h5m1 0h10m16 0h16m-32 1h16m-16 1h16m-16 1h4m2 0h10m-16 1h4m2 0h10m-16 1h16m-16 1h16m-16 1h16m-16 1h16m-16 1h16m-16 1h16m-16 1h16m-16 1h16m-16 1h16m-16 1h16m-16 1h16m-16 1h16m-32 1h16m-16 1h7m1 0h8m26 0h1m-43 1h16m-16 1h16m-16 1h7m1 0h8m-16 1h16m-16 1h16m-16 1h16m-16 1h16m-16 1h2m1 0h13m-16 1h16m17 0h1m-34 1h2m1 0h13m-16 1h16m-16 1h16m-16 1h16m-16 1h16m0 1h16m-16 1h16m-16 1h16m-16 1h16m-16 1h16m-16 1h16m-16 1h16m-16 1h16m-16 1h4m2 0h10m-16 1h4m2 0h10m-16 1h14m-14 1h14m-14 1h16m-16 1h16m-16 1h16m-16 1h16"/>
    <path stroke="#818081" d="M288 192h16m-16 1h16m-16 1h16m-16 1h16m-16 1h16m-16 1h15m-15 1h16m-16 1h16m-16 1h16m-16 1h16m-16 1h16m-16 1h16m-16 1h16m-16 1h16m-16 1h16m-16 1h16m-16 10h1m-33 23h16m-16 1h16m-16 1h16m-16 1h16m-16 1h16m-16 1h16m-16 1h16m-16 1h16m-16 1h16m-16 1h16m-16 1h16m-16 1h16m-16 1h16m-16 1h16m-16 1h16m-16 1h16m-32 1h16m-16 1h16m-16 1h16m-16 1h16m-16 1h16m-16 1h16m-16 1h16m-16 1h1m1 0h14m-16 1h16m-16 1h16m-16 1h16m-16 1h16m-16 1h16m-16 1h16m-16 1h16m-16 1h16m16 1h16m-16 1h16m-16 1h16m-16 1h16m-38 1h1m21 0h16m-16 1h16m-16 1h16m-16 1h16m-16 1h16m-16 1h16m-16 1h16m-16 1h16m-16 1h16m-16 1h16m-16 1h16m-16 1h16m32 1h16m-16 1h16m-16 1h16m-16 1h16m-16 1h16m-16 1h16m-54 1h2m36 0h16m-54 1h2m36 0h16m-16 1h16m-16 1h16m-16 1h16m-16 1h16m-16 1h16m-16 1h16m-44 1h2m26 0h16m-44 1h2m26 0h16m-128 17h23m1 0h8m-32 1h32m-32 1h32m9 0h1m-42 1h32m-32 1h32m-32 1h32m-32 1h32m-32 1h10m1 0h21m-32 1h7m1 0h24m-32 1h32m-32 1h32m-32 1h25m1 0h6m-32 1h32m-32 1h32m-32 1h32m-32 1h32m-24 4h1m22 2h1M96 400h16m-16 1h16m-16 1h16m-16 1h16m-16 1h16m-16 1h16m-16 1h16m-16 1h16m-16 1h16m-16 1h16m-16 1h16m-16 1h16m-16 1h16m-16 1h2m1 0h13m-16 1h16m-16 1h16"/>
    <path stroke="#808081" d="M303 197h1m-16 11h16m-16 1h16m-16 1h16m-16 1h16m-16 1h16m-16 1h16m-16 1h16m-16 1h16m-16 1h16m-15 1h15m-16 1h16m-16 1h16m-16 1h16m-16 1h16m-16 1h16m-16 1h16m-64 49h16m-16 1h16m-16 1h16m-16 1h16m-16 1h10m1 0h5m-16 1h16m-16 1h16m-16 1h16m-16 1h16m-16 1h16m-16 1h16m-16 1h16m-16 1h16m-16 1h16m-16 1h16m-16 1h16m16 1h16m-16 1h16m-16 1h16m-16 1h16m-16 1h16m-16 1h16m-16 1h10m2 0h4m-16 1h10m2 0h4m-16 1h16m-16 1h16m-16 1h16m-16 1h10m1 0h5m-16 1h16m-16 1h16m-16 1h16m-16 1h16m-57 17h1m-17 8h1m17 3h1m-10 5h16m-16 1h16m-16 1h16m-16 1h7m1 0h8m-16 1h16m-16 1h15m-15 1h16m-16 1h16m-16 1h16m-16 1h16m-16 1h16m-16 1h16m-16 1h16m-16 1h16m-16 1h16m-16 1h16m-173 8h1m266 38h1m-5 1h1m-11 2h16m-16 1h16m-22 1h2m4 0h16m-22 1h2m4 0h7m1 0h8m-16 1h6m1 0h9m-16 1h16m-16 1h16m-16 1h16m-16 1h16m-16 1h16m-16 1h16m-16 1h16m-16 1h16m-16 1h5m1 0h10m-16 1h16m-16 1h4m1 0h11"/>
</svg>
