<svg xmlns="http://www.w3.org/2000/svg" viewBox="0 -0.5 256 256" shape-rendering="crispEdges">
    <path stroke="#010000" d="M72 40h8m16 0h16m32 0h8m-80 1h8m16 0h16m32 0h8m-80 1h8m16 0h16m32 0h8m-80 1h8m16 0h16m32 0h8m-80 1h8m16 0h16m32 0h6m1 0h1m-80 1h8m16 0h16m32 0h8m-80 1h7m17 0h16m32 0h8m-80 1h8m16 0h16m32 0h5m1 0h2m-80 1h8m32 0h8m32 0h8m-88 1h3m1 0h4m32 0h8m32 0h8m-88 1h8m32 0h8m32 0h8m-88 1h8m32 0h8m32 0h8m-88 1h8m32 0h8m32 0h8m-88 1h8m32 0h8m32 0h1m1 0h6m-88 1h8m32 0h8m32 0h7m-87 1h8m33 0h7m32 0h8m13 10h1m-70 15h8m72 0h8m-88 1h8m72 0h8m-88 1h8m72 0h8m-88 1h8m72 0h8m-88 1h8m72 0h8m-88 1h8m72 0h8m-88 1h8m72 0h8m-88 1h8m72 0h8m24 1h8m-24 1h1m15 0h8m-8 1h8m-8 1h8m-111 1h1m89 0h1m12 0h8m-8 1h5m1 0h2m-16 1h1m7 0h8M82 95h1m133 0h8m-72 1h8m-8 1h8m-8 1h8m-8 1h8m-8 1h8m-8 1h8m-62 1h1m53 0h8m-8 1h8m-72 1h8m-8 1h8m-8 1h8m-8 1h8m-8 1h8m-8 1h5m1 0h2m-8 1h7m-7 1h8m-64 1h8m64 0h16m-88 1h8m64 0h16m-88 1h8m64 0h16m-88 1h8m64 0h16m-88 1h8m64 0h16m-88 1h8m64 0h16m-88 1h8m64 0h16m-88 1h8m64 0h14m1 0h1m-88 1h3m1 0h4m-8 1h4m1 0h3m-8 1h8m-8 1h8m-8 1h8m-8 1h8m-8 1h8m-8 1h8m-8 1h8m-8 1h8m-8 1h8m130 0h1m-139 1h8m-8 1h8m-8 1h8m-8 1h8m-8 1h8m67 1h1m10 2h1m-3 1h1m-36 2h1m-1 1h1m-50 2h16m32 0h8m-56 1h16m32 0h8m-56 1h16m32 0h8m-56 1h16m32 0h8m-56 1h16m32 0h8m-56 1h16m32 0h8m-56 1h16m32 0h2m1 0h5m-56 1h7m1 0h8m32 0h8m-56 1h8m72 0h8m16 0h8m16 0h8m-136 1h8m72 0h5m1 0h2m16 0h2m1 0h5m16 0h8m-136 1h8m72 0h8m16 0h8m16 0h8m-136 1h8m72 0h8m16 0h8m16 0h8m-136 1h8m72 0h8m16 0h8m16 0h8m-136 1h8m72 0h8m16 0h8m16 0h8m-136 1h8m72 0h8m16 0h8m16 0h8m-136 1h8m72 0h8m16 0h8m16 0h8m-85 4h1m-44 5h8m-8 1h8m-8 1h8m-8 1h8m-8 1h8m-8 1h8m-8 1h8m-8 1h8m48 1h3m1 0h4m-8 1h8m65 0h1m-73 1h7m-55 1h1m46 0h4m1 0h3m1 0h1m-10 1h8m-8 1h8m-8 1h8m-8 1h8m9 6h1m30 3h8m-8 1h8m-8 1h8m-8 1h8m-8 1h8m-8 1h8m-8 1h8m-86 1h1m77 0h8m-56 1h8m24 0h8m8 0h8m47 0h9m-112 1h6m1 0h1m25 0h7m8 0h1m1 0h6m48 0h8m-112 1h8m24 0h8m8 0h8m48 0h6m1 0h1m-112 1h8m24 0h7m9 0h8m21 0h1m26 0h8m-112 1h8m24 0h8m8 0h8m45 0h1m2 0h5m1 0h2m-112 1h8m24 0h8m8 0h8m48 0h8m-112 1h8m24 0h8m8 0h8m48 0h8m-112 1h7m25 0h8m8 0h8m48 0h8"/>
    <path stroke="#010101" d="M80 40h8m-8 1h8m-8 1h8m-8 1h8m-8 1h8m-8 1h8m-8 1h8m-8 1h8m29 0h1m-22 1h8m43 0h1m-52 1h8m-8 1h8m-8 1h8m-8 1h8m-8 1h8m-8 1h8m-8 1h8m0 1h8m24 0h8m-40 1h8m24 0h8m-40 1h8m24 0h8m-40 1h8m24 0h5m1 0h2m8 0h1m-49 1h6m1 0h1m24 0h8m-40 1h8m24 0h8m-40 1h8m24 0h8m-40 1h8m24 0h8m32 1h8m-8 1h8m-8 1h8m-8 1h8m-8 1h8m-39 1h1m30 0h8m2 0h1m-27 1h1m15 0h8m-8 1h8m-80 1h8m-8 1h8m-8 1h8m-8 1h8m-8 1h8m-8 1h8m-8 1h8m-7 1h7m-88 9h8m64 0h8m120 0h8M24 89h1m1 0h6m64 0h8m120 0h1m1 0h6M24 90h8m64 0h8m120 0h8M24 91h2m1 0h5m64 0h8m120 0h8M24 92h8m64 0h8m120 0h8M24 93h8m64 0h8m97 0h1m22 0h8M24 94h8m64 0h8m120 0h8M24 95h8m64 0h8m100 0h1m19 0h8M40 96h8m-8 1h8m-8 1h8m-8 1h8m-8 1h8m-8 1h8m-8 1h8m-8 1h8m56 1h8m-8 1h8m-8 1h8m-8 1h8m-8 1h8m-8 1h8m-8 1h8m108 0h1m-117 1h8m88 1h8m8 0h8m-24 1h8m8 0h8m-24 1h1m1 0h6m8 0h8m-24 1h8m8 0h8m-24 1h8m8 0h8m-24 1h8m8 0h8m-24 1h8m8 0h8m-24 1h8m8 0h8m-136 1h8m14 0h1m-23 1h8m-8 1h8m-8 1h8m-8 1h8m-8 1h8m-8 1h8m6 0h1m-15 1h8m-64 9h8m48 0h8m-64 1h8m48 0h8m-64 1h8m48 0h4m1 0h3m-64 1h8m48 0h1m1 0h6m-64 1h8m48 0h8m-64 1h8m48 0h8m17 0h1m-82 1h8m48 0h8m-64 1h5m1 0h2m48 0h7m17 1h8m-8 1h8m-8 1h1m1 0h6m-8 1h8m-8 1h8m-8 1h7m-7 1h8m-8 1h8m-56 1h8m-8 1h8m99 0h1m-108 1h8m-8 1h8m-8 1h8m34 0h1m-43 1h8m-8 1h8m-8 1h8m0 1h8m96 0h8m-112 1h8m96 0h8m-112 1h8m96 0h8m-112 1h8m96 0h8m-112 1h8m96 0h8m-112 1h8m96 0h8m-112 1h3m1 0h4m96 0h8m-112 1h8m96 0h8m-111 1h1m22 0h8m-8 1h8m-71 1h1m62 0h4m1 0h3m-8 1h8m-8 1h8m-8 1h8m-8 1h5m1 0h2m-8 1h8m-40 1h8m-8 1h8m-8 1h8m-8 1h8m-8 1h5m1 0h2m38 0h1m-47 1h8m35 0h1m-44 1h8m-8 1h8m-24 1h5m1 0h10m-16 1h16m-16 1h16m-16 1h16m115 0h1m-132 1h16m-16 1h16m-16 1h16m-16 1h16m21 2h1m56 0h1m41 7h8m-71 1h1m62 0h8m-8 1h3m1 0h4m-8 1h8m-8 1h8m-8 1h8m-122 1h1m113 0h9m-9 1h8"/>
    <path stroke="#000100" d="M88 40h8m-8 1h8m-8 1h8m-8 1h8m-8 1h8m-8 1h1m1 0h6m-8 1h8m-8 1h8m14 6h1m-6 2h1m-34 1h8m48 0h8m28 0h1m-93 1h8m48 0h8m-64 1h8m48 0h4m1 0h3m-64 1h8m48 0h8m-64 1h8m48 0h8m-64 1h8m48 0h8m-64 1h8m48 0h8m-64 1h8m48 0h8m-32 1h8m8 0h8m-24 1h8m8 0h8m-24 1h8m8 0h8m-24 1h8m8 0h3m1 0h4m-24 1h8m8 0h8m-24 1h8m8 0h8m14 0h1m29 0h1m-69 1h8m8 0h8m-24 1h8m8 0h8m64 1h8m-8 1h6m1 0h1m-8 1h8m-8 1h8m-8 1h8m-8 1h8m-8 1h8m-11 1h1m2 0h8m-8 1h8m-8 1h8m-8 1h8m-8 1h8m-8 1h8m-8 1h8m-8 1h8m-8 1h8M32 88h8m-8 1h8m-8 1h8m126 0h1M32 91h8m66 0h1m-75 1h8m-8 1h8m-8 1h8m-8 1h8m-8 1h8m64 0h8m-80 1h7m65 0h8m-80 1h8m64 0h8m-80 1h8m64 0h8m-80 1h8m64 0h8m-80 1h8m64 0h8m-80 1h8m64 0h2m1 0h5m-80 1h3m1 0h4m52 0h1m3 0h1m6 0h9m1 0h1m107 3h1m0 5h1m-112 12h1m0 5h8m56 0h8m16 0h8m-96 1h8m56 0h8m16 0h2m1 0h5m-96 1h8m56 0h8m16 0h8m-118 1h1m21 0h8m56 0h8m16 0h8m-96 1h8m56 0h8m16 0h7m-95 1h8m56 0h8m16 0h8m-96 1h8m56 0h3m1 0h4m16 0h8m-96 1h8m56 0h8m16 0h8m-168 1h8m128 0h8m-144 1h8m128 0h8m-144 1h8m128 0h8m-144 1h6m1 0h1m128 0h8m-144 1h8m128 0h8m-144 1h8m129 0h7m-144 1h8m128 0h8m-144 1h8m128 0h8m-112 1h3m1 0h4m8 0h8m8 0h8m56 0h16m-119 1h1m6 0h8m8 0h8m8 0h8m56 0h16m-112 1h1m1 0h4m1 0h1m8 0h8m8 0h8m56 0h1m1 0h14m-112 1h8m8 0h8m8 0h8m56 0h14m1 0h1m-112 1h8m8 0h8m8 0h8m56 0h16m-112 1h8m8 0h8m8 0h8m56 0h16m-112 1h3m1 0h4m8 0h8m8 0h6m1 0h1m56 0h16m-112 1h8m8 0h2m1 0h5m8 0h8m56 0h16m-128 1h6m1 0h1m8 0h16m-32 1h8m8 0h16m-32 1h8m8 0h16m-32 1h8m8 0h16m-32 1h8m8 0h10m1 0h5m-32 1h8m8 0h16m-32 1h8m8 0h16m-32 1h8m8 0h16m-56 1h8m48 0h8m72 0h8m-144 1h8m48 0h8m72 0h8m-144 1h8m48 0h1m1 0h6m72 0h8m-144 1h8m6 0h1m41 0h8m72 0h5m1 0h2m-144 1h8m48 0h3m1 0h4m72 0h8m-144 1h8m48 0h8m72 0h8m-144 1h8m48 0h8m72 0h8m-144 1h8m48 0h8m72 0h8m-96 1h8m88 0h8m-104 1h8m88 0h8m-104 1h8m88 0h8m-104 1h8m88 0h8m-104 1h8m88 0h8m-104 1h8m88 0h5m1 0h2m-104 1h8m88 0h8m-104 1h8m88 0h8m-96 1h8m-8 1h8m-8 1h8m-8 1h8m-8 1h1m1 0h6m-8 1h8m-8 1h8m-8 1h8m-16 1h8m80 0h8m-96 1h8m80 0h8m-96 1h8m80 0h8m-96 1h8m80 0h8m-96 1h8m80 0h8m-96 1h5m1 0h2m80 0h8m-96 1h8m80 0h8m-96 1h8m80 0h8m-72 1h8m59 0h1m-68 1h8m-8 1h8m-8 1h1m1 0h6m-8 1h8m-8 1h8m-8 1h8m56 0h1m-65 1h8m-17 1h1m-26 3h2m22 1h1m85 0h1"/>
    <path stroke="#010100" d="M112 40h8m-8 1h8m-8 1h8m-8 1h8m-8 1h8m30 0h1m-39 1h8m-8 1h8m-8 1h5m1 0h2m29 0h1m-6 1h3m1 0h4m-8 1h8m-8 1h8m-8 1h8m-8 1h8m-8 1h8m-8 1h8m7 0h1m-48 1h1m31 0h8m-20 3h1m11 6h8m8 0h8m-24 1h8m8 0h8m-24 1h8m8 0h8m-45 1h1m20 0h8m8 0h8m-24 1h8m8 0h8m-24 1h1m1 0h6m8 0h8m-24 1h8m9 0h7m-24 1h8m8 0h8M64 72h8m-8 1h8m-8 1h8m-8 1h8m-8 1h8m-8 1h8m-8 1h8m-8 1h8m32 0h1m55 9h8m32 0h16M25 89h1m134 0h8m33 0h15m-56 1h6m1 0h1m32 0h16m-56 1h8m32 0h16m-56 1h8m32 0h3m1 0h12m-56 1h8m32 0h1m1 0h14m-56 1h8m32 0h8m1 0h7m-56 1h8m32 0h4m1 0h11m-110 7h1m-67 2h8m-8 1h8m-8 1h8m-8 1h8m-8 1h8m-8 1h8m-8 1h8m47 0h1m-56 1h8m153 3h1m-167 6h1m4 8h8m120 0h8m32 0h8m-176 1h8m120 0h8m32 0h8m-176 1h8m120 0h2m1 0h5m32 0h8m-176 1h8m120 0h8m32 0h8m-176 1h8m120 0h8m32 0h8m-176 1h8m120 0h8m32 0h8m-176 1h8m120 0h8m3 0h1m28 0h8m-176 1h8m120 0h8m32 0h8m-112 1h3m1 0h4m-8 1h8m-20 1h1m11 0h8m-66 1h1m42 0h1m14 0h8m-8 1h8m-8 1h8m-8 1h8m-75 1h1m66 0h8m-48 1h8m-8 1h1m1 0h6m-8 1h8m6 0h1m90 0h1m-106 1h8m-8 1h8m-8 1h8m-8 1h8m3 0h1m6 0h1m27 0h1m-72 1h1m24 0h8m45 2h1m20 0h1m-57 3h1m13 22h1m-8 2h1m-26 4h8m40 0h8m-56 1h8m40 0h8m-56 1h8m40 0h8m-56 1h8m40 0h8m-56 1h8m40 0h8m-56 1h8m40 0h1m1 0h6m-56 1h8m40 0h8m-56 1h8m40 0h8m-56 1h8m24 0h8m64 0h3m1 0h4m16 0h8m-136 1h8m24 0h8m64 0h8m16 0h8m-136 1h8m24 0h8m64 0h8m16 0h8m-136 1h8m24 0h8m1 0h1m62 0h8m16 0h8m-136 1h8m24 0h8m64 0h8m16 0h8m-136 1h8m24 0h8m64 0h8m16 0h8m-136 1h8m24 0h8m65 0h7m16 0h8m-136 1h2m1 0h5m24 0h8m64 0h8m16 0h8m-136 1h16m40 0h8m64 0h7m-135 1h16m40 0h1m1 0h7m16 0h1m46 0h8m-136 1h16m40 0h8m59 0h1m4 0h8m-136 1h6m2 0h8m40 0h8m64 0h8m-136 1h16m40 0h8m64 0h5m1 0h2m-136 1h16m40 0h8m64 0h8m-136 1h6m1 0h9m40 0h8m65 0h7m-136 1h16m40 0h8m64 0h8"/>
    <path stroke="#000" d="M128 40h8m-8 1h8m-8 1h8m-8 1h8m-8 1h8m-8 1h8m-8 1h8m-8 1h8m-56 1h8m40 0h16m-64 1h8m40 0h16m-64 1h8m40 0h16m-64 1h8m40 0h16m-64 1h8m40 0h16m-64 1h8m40 0h16m-64 1h8m40 0h16m-64 1h8m40 0h16m24 9h8m-8 1h5m1 0h2m-8 1h8m-8 1h8m-8 1h8m-8 1h4m1 0h3m-8 1h8m-8 1h8m-64 1h8m-8 1h8m78 0h1m-87 1h8m-8 1h8m-8 1h8m-8 1h8m-8 1h8m-8 1h8m-48 9h8m24 0h16m-48 1h1m1 0h6m24 0h16m-48 1h8m24 0h16m-48 1h8m24 0h2m1 0h13m-48 1h8m24 0h9m1 0h6m-48 1h8m24 0h16m101 0h1M72 94h1m1 0h6m24 0h16m-48 1h8m24 0h16m-32 1h16m8 0h8m-81 1h1m48 0h16m8 0h8m-32 1h16m8 0h8m-32 1h16m8 0h8m-32 1h16m8 0h8m-32 1h15m9 0h8m-32 1h10m1 0h5m8 0h8m-32 1h4m1 0h3m1 0h6m9 0h1m1 0h6m-8 1h8m104 0h8m-120 1h8m104 0h8m-120 1h8m104 0h8m-120 1h8m104 0h8m-120 1h8m104 0h8m-120 1h8m104 0h8m-120 1h8m104 0h8m-120 1h8m104 0h8m-24 2h1m-91 6h1m-7 1h8m-78 1h1m69 0h8m83 0h1m-92 1h8m-8 1h8m-8 1h8m-8 1h8m-8 1h8m-8 1h8m64 1h8m-109 1h1m100 0h8m10 0h1m-19 1h8m-108 1h1m99 0h8m-8 1h8m15 0h1m-24 1h8m-8 1h8m-8 1h8m-120 1h16m80 0h8m-104 1h16m80 0h8m-104 1h16m80 0h8m-104 1h16m80 0h8m-104 1h16m80 0h8m-104 1h9m1 0h6m80 0h9m-105 1h9m1 0h6m80 0h8m-104 1h16m80 0h8m-101 1h1m20 8h8m24 0h8m-40 1h8m24 0h8m-40 1h8m24 0h8m-40 1h8m24 0h8m-40 1h8m24 0h8m-40 1h8m24 0h8m-40 1h8m24 0h8m-40 1h8m24 0h8m-47 3h1m1 2h1m76 4h8m-8 1h8m-8 1h8m-8 1h8m-8 1h8m-112 1h1m103 0h8m5 0h1m-14 1h8m-8 1h8m-120 1h8m16 0h8m11 0h1m68 0h8m-120 1h8m16 0h8m80 0h1m1 0h6m-119 1h7m16 0h8m80 0h8m-120 1h8m16 0h8m12 0h1m67 0h8m-120 1h8m16 0h8m29 0h1m50 0h8m-120 1h8m16 0h8m80 0h8m-120 1h8m16 0h8m80 0h6m1 0h1m-120 1h8m16 0h6m1 0h1m80 0h8m-91 6h1m-14 3h8m39 0h17m-64 1h8m40 0h16m-64 1h8m40 0h16m-64 1h8m32 0h1m7 0h16m-64 1h8m40 0h16m-64 1h8m40 0h16m-64 1h8m40 0h11m1 0h4m48 0h1m-113 1h8m40 0h16m-56 1h8m80 0h16m-104 1h8m80 0h16m-104 1h8m80 0h16m-104 1h8m47 0h1m2 0h1m29 0h5m1 0h10m-104 1h2m1 0h5m80 0h12m1 0h3m21 0h1m-126 1h8m80 0h16m-104 1h8m80 0h16m-104 1h8m15 0h1m64 0h16"/>
    <path stroke="#000001" d="M136 40h8m8 0h8m-24 1h8m8 0h8m-24 1h8m8 0h8m-24 1h8m8 0h8m-24 1h6m1 0h1m8 0h8m-24 1h5m1 0h2m8 0h8m-24 1h8m8 0h8m-24 1h8m8 0h8m-70 2h1m21 7h8m-8 1h1m1 0h6m-8 1h8m-8 1h8m45 0h1m-54 1h8m29 0h1m-38 1h8m37 0h1m-46 1h8m-8 1h8m-8 1h8m8 0h8m-24 1h8m8 0h8m-24 1h8m8 0h8m-24 1h8m8 0h8m-24 1h8m8 0h8m-24 1h8m8 0h8m55 0h1m-80 1h8m8 0h8m-24 1h4m1 0h3m8 0h8m-64 2h1m0 4h1m3 2h1m2 1h8m-8 1h8m-8 1h8m-8 1h8m-8 1h8m-8 1h7m-7 1h8m-8 1h8m26 0h1m-27 1h8m88 0h8M73 89h1m14 0h1m1 0h6m56 0h1m31 0h8M88 90h8m88 0h8M88 91h8m88 0h8M88 92h8m88 0h8M88 93h8m88 0h8M73 94h1m14 0h8m88 0h8M88 95h8m88 0h8M24 96h8m128 0h8m48 0h16M24 97h8m128 0h8m48 0h16M24 98h8m128 0h2m1 0h5m48 0h16M24 99h8m128 0h8m48 0h16m-208 1h7m129 0h8m48 0h16m-208 1h8m71 0h1m56 0h3m1 0h4m48 0h16m-208 1h8m128 0h8m48 0h16m-208 1h8m128 0h8m48 0h16m-200 1h8m56 0h8m48 0h8m-128 1h8m56 0h8m48 0h8m-128 1h8m56 0h3m1 0h4m48 0h8m-128 1h8m56 0h8m48 0h8m-128 1h8m56 0h8m48 0h8m-128 1h8m56 0h8m48 0h8m-127 1h7m56 0h8m48 0h8m-128 1h8m57 0h7m48 0h8m-120 1h8m40 0h8m112 0h8m-176 1h8m40 0h8m113 0h7m-176 1h8m40 0h8m112 0h1m1 0h3m1 0h2m-176 1h5m1 0h2m40 0h8m112 0h8m-176 1h8m40 0h8m112 0h8m-176 1h8m40 0h8m112 0h8m-176 1h8m40 0h8m112 0h5m1 0h2m-176 1h8m40 0h8m112 0h8m-176 1h8m49 0h1m102 0h16m-176 1h2m1 0h5m152 0h3m1 0h12m-176 1h8m152 0h16m-176 1h8m152 0h16m-176 1h8m152 0h16m-176 1h8m152 0h15m-175 1h8m152 0h1m1 0h14m-176 1h8m152 0h16m-136 1h8m-8 1h3m1 0h3m-7 1h8m-8 1h4m1 0h3m-8 1h8m-8 1h8m-8 1h8m-8 1h8m12 2h1m-45 7h8m32 0h8m-48 1h8m32 0h8m-48 1h8m32 0h8m-48 1h8m32 0h8m-48 1h8m32 0h8m-48 1h8m32 0h8m-48 1h8m32 0h8m-48 1h8m32 0h8m64 1h1m-61 3h1m17 0h1m-31 5h8m-59 1h1m50 0h8m-64 1h1m4 0h1m50 0h8m-8 1h8m-8 1h8m-8 1h8m-8 1h8m-59 1h1m50 0h8m-48 1h16m16 0h8m-40 1h5m1 0h10m16 0h8m-40 1h16m16 0h8m-40 1h4m1 0h11m16 0h8m-40 1h16m16 0h8m-40 1h8m1 0h7m16 0h8m-40 1h12m1 0h3m16 0h8m-40 1h16m16 0h8m16 1h8m56 0h8m-72 1h8m56 0h8m-128 1h1m55 0h8m56 0h8m-72 1h7m57 0h8m-72 1h5m1 0h2m56 0h8m-72 1h7m57 0h8m-72 1h8m54 0h1m1 0h8m-98 1h1m25 0h8m56 0h8m-88 1h8m-8 1h4m1 0h3m-8 1h8m-8 1h8m-8 1h8m-8 1h8m-8 1h8m-8 1h8m8 1h7m65 0h8m-80 1h8m64 0h8m-80 1h8m64 0h8m-79 1h1m1 0h5m64 0h8m-80 1h8m64 0h8m-80 1h8m62 0h1m1 0h8m-80 1h8m11 0h1m53 0h7m-112 1h1m31 0h8m64 0h8m-56 1h3m1 0h4m-8 1h8m-8 1h8m-8 1h2m1 0h5m-62 1h1m54 0h7m-8 1h8m-8 1h8m-8 1h8"/>
    <path stroke="#010001" d="M142 44h1m-64 2h1m8 2h8m-21 1h1m12 0h2m1 0h5m-8 1h8m-8 1h8m-8 1h8m-8 1h8m57 0h1m-66 1h8m-8 1h8m24 1h8m16 0h16m8 0h8m-56 1h8m16 0h16m8 0h8m-56 1h8m16 0h16m8 0h8m-56 1h8m16 0h8m1 0h7m8 0h8m-66 1h1m9 0h8m16 0h5m1 0h10m8 0h8m-56 1h8m16 0h13m1 0h2m8 0h8m-56 1h8m16 0h16m8 0h8m-56 1h8m16 0h16m8 0h8M64 64h8m-8 1h8m-8 1h8m-8 1h8m-8 1h8m-8 1h8m-8 1h8m-8 1h8m0 1h8m-7 1h7m-8 1h8m-8 1h8m-8 1h8m-8 1h1m1 0h6m-8 1h8m-8 1h5m1 0h2m-8 1h8m-8 1h8m-8 1h8m-8 1h8m-8 1h8m-8 1h8m-8 1h8m-8 1h8m0 1h8m-8 1h8m1 0h1m135 0h1M80 90h8m-62 1h1m53 0h8m-8 1h8m-8 1h8m-8 1h8m-8 1h2m1 0h5m74 3h1m-64 8h1m-7 3h1m2 3h8m-8 1h8m-8 1h8m109 0h1m-118 1h8m-8 1h8m-8 1h8m-8 1h8m109 0h1m-118 1h8m-68 2h1m178 4h1m-15 1h1m-130 2h8m112 0h8m-128 1h8m7 0h1m104 0h8m-128 1h8m112 0h8m-128 1h8m112 0h8m-128 1h8m112 0h8m-128 1h8m112 0h8m-128 1h8m112 0h8m-128 1h8m112 0h8m-88 1h8m-8 1h8m-8 1h6m1 0h1m-8 1h4m1 0h3m-8 1h8m-8 1h1m1 0h6m-8 1h8m-25 1h1m16 0h8m-7 3h1m5 3h1m-64 11h16m8 0h8m-32 1h16m8 0h8m-32 1h16m8 0h8m-32 1h16m8 0h3m1 0h4m-32 1h16m8 0h8m-32 1h16m8 0h8m-32 1h16m8 0h8m-32 1h16m8 0h8m-27 2h1m38 1h1m-41 1h1m-13 5h8m48 0h8m-64 1h8m48 0h8m-64 1h8m48 0h8m-64 1h1m1 0h6m48 0h1m1 0h6m7 0h1m-72 1h8m48 0h6m1 0h1m-64 1h8m48 0h3m1 0h4m-64 1h8m48 0h8m-64 1h8m48 0h8m-59 1h1m26 8h8m48 0h8m-64 1h5m1 0h2m48 0h6m1 0h1m-64 1h8m48 0h8m-64 1h8m26 0h1m21 0h8m-64 1h8m48 0h8m-64 1h8m48 0h8m-64 1h8m48 0h8m-63 1h7m48 0h8m-40 1h16m19 0h1m-38 1h1m1 0h16m-16 1h16m86 0h1m-103 1h16m-16 1h16m-16 1h16m-16 1h16m-16 1h16"/>
    <path stroke="#000101" d="M89 45h1m51 0h1m-38 3h8m-8 1h8m-8 1h8m-8 1h8m-8 1h8m-8 1h6m1 0h1m-8 1h8m-8 1h1m1 0h6m-48 1h8m88 0h4m1 0h3M64 57h8m41 0h1m46 0h8M64 58h8m88 0h8M64 59h8m69 0h1m18 0h5m1 0h2M64 60h8m88 0h8M64 61h8m88 0h8M64 62h8m88 0h8M64 63h8m88 0h8m-32 1h8m8 0h8m24 0h8m-56 1h8m8 0h8m24 0h8m-56 1h8m8 0h8m24 0h8m-56 1h8m8 0h8m24 0h8m-56 1h8m8 0h8m24 0h8m-56 1h6m1 0h1m8 0h8m24 0h2m1 0h4m-55 1h8m8 0h8m24 0h8m-76 1h1m19 0h8m8 0h8m24 0h8M80 72h8m96 0h8M80 73h8m96 0h8M80 74h8m96 0h8M80 75h8m96 0h8M80 76h8m96 0h8M80 77h8m96 0h8M80 78h8m96 0h8M80 79h8m96 0h5m1 0h2m-80 1h8m-8 1h8m-8 1h8m-8 1h8m-8 1h8m-33 1h1m24 0h8m-8 1h8m-8 1h2m1 0h5m32 1h8m32 0h8m-47 1h7m32 0h8m-48 1h8m32 0h8m-48 1h8m32 0h8m-48 1h8m32 0h8m-48 1h8m32 0h8m-48 1h8m32 0h8m-48 1h8m32 0h8m-169 5h1m131 1h1m-129 2h1m124 1h8m48 0h8m-64 1h8m48 0h8m-64 1h8m48 0h5m1 0h2m-64 1h8m48 0h8m-64 1h8m48 0h8m-64 1h8m48 0h8m-192 1h1m127 0h8m48 0h4m1 0h3m-128 1h1m63 0h8m48 0h6m1 0h1m-15 3h1m-165 1h1m50 5h1m1 0h12m1 0h1m-16 1h16m-16 1h16m-16 1h15m-15 1h16m-16 1h16m-16 1h6m1 0h9m-16 1h16m-24 1h24m-24 1h24m-24 1h24m-24 1h2m1 0h21m-24 1h24m-24 1h24m-24 1h24m-24 1h24m-16 1h8m-8 1h4m1 0h3m-8 1h8m-8 1h8m-8 1h8m-8 1h8m-8 1h8m-8 1h8m-31 3h1m108 1h1m-93 4h1m-51 1h8m14 0h1m25 0h8m8 0h8m8 0h8m41 0h15m-144 1h8m40 0h8m8 0h8m8 0h8m40 0h3m1 0h12m-144 1h8m40 0h8m8 0h8m8 0h8m40 0h16m-144 1h8m40 0h8m8 0h4m1 0h3m8 0h6m1 0h1m40 0h16m-144 1h8m40 0h8m8 0h2m1 0h5m8 0h8m40 0h16m-144 1h8m40 0h8m8 0h8m8 0h8m40 0h16m-144 1h8m40 0h8m8 0h8m8 0h8m40 0h16m-144 1h8m40 0h8m8 0h8m8 0h8m40 0h16m-144 1h8m-8 1h5m1 0h2m-7 1h4m1 0h2m-8 1h6m1 0h1m125 0h1m-134 1h8m-8 1h8m-8 1h8m27 0h1m-36 1h5m1 0h2m-16 1h8m32 0h1m1 0h6m-48 1h8m32 0h8m-48 1h1m1 0h6m32 0h8m-48 1h8m32 0h8m-48 1h8m32 0h8m-48 1h8m32 0h8m-48 1h8m28 0h1m3 0h8m21 0h1m-70 1h8m32 0h8m-40 1h8m24 0h8m-40 1h8m24 0h8m-40 1h8m24 0h8m-40 1h8m24 0h8m-40 1h8m21 0h1m2 0h8m-40 1h8m24 0h8m39 0h1m-80 1h8m24 0h8m-40 1h8m24 0h8m-8 1h8m8 0h8m8 0h8m64 0h8m-112 1h8m8 0h8m4 0h1m3 0h8m64 0h8m-112 1h8m8 0h8m8 0h8m64 0h8m-112 1h8m8 0h8m8 0h8m64 0h3m1 0h4m-112 1h8m8 0h8m8 0h8m64 0h8m-112 1h8m8 0h8m8 0h8m64 0h8m-112 1h8m8 0h8m8 0h8m64 0h8m-112 1h8m8 0h8m8 0h8m64 0h8m-96 1h8m80 0h8m-96 1h8m80 0h8m-96 1h8m80 0h8m-96 1h8m80 0h8m-96 1h8m80 0h8m-96 1h8m80 0h6m1 0h1m-96 1h8m80 0h8m-96 1h8m80 0h8m-96 1h7m-7 1h8m-8 1h8m-8 1h8m-8 1h6m1 0h1m40 0h1m-49 1h8m-8 1h8m-8 1h8"/>
    <path stroke="#818080" d="M80 56h8m-8 1h8m-8 1h8m-8 1h8m-8 1h8m-8 1h8m-8 1h8m-8 1h8m120 41h8m-8 1h8m-8 1h6m1 0h1m-8 1h8m-8 1h8m-8 1h8m-8 1h8m-8 1h8m-96 49h8m-8 1h8m-8 1h8m-8 1h8m-8 1h8m-8 1h8m-8 1h8m-19 1h1m10 0h8m-91 13h1m2 4h8m-8 1h8m-8 1h8m-8 1h8m-8 1h8m-8 1h8m-8 1h8m-8 1h8m8 1h8m-8 1h8m-8 1h8m-8 1h8m-8 1h8m-8 1h8m-8 1h8m-8 1h8"/>
    <path stroke="#feffff" d="M88 56h8m-8 1h4m1 0h3m-8 1h8m-8 1h8m-8 1h8m-8 1h8m-8 1h8m-8 1h8m4 0h1m82 9h1m-17 2h1m-65 5h1m16 9h8m-8 1h8m-8 1h8m-8 1h8m11 0h1m-20 1h8m-8 1h8m-8 1h8m-8 1h8m40 1h2m1 0h5m-8 1h8m-8 1h8m-7 1h7m-8 1h8m-8 1h8m-8 1h5m1 0h2m-8 1h8m-56 1h7m57 0h8m-72 1h5m1 0h2m56 0h8m-72 1h8m56 0h8m-72 1h8m56 0h8m-72 1h8m56 0h8m-72 1h8m56 0h3m1 0h4m-72 1h8m55 0h9m-72 1h8m56 0h8m-32 1h8m-8 1h8m6 0h1m-15 1h8m-8 1h8m-8 1h8m-8 1h8m-17 1h1m8 0h8m-8 1h8m-8 1h8m-8 1h8m-8 1h8m-8 1h8m-8 1h8m-8 1h3m1 0h4m-8 1h2m1 0h5m-8 1h5m1 0h2m2 0h1m-35 1h8m-8 1h8m-8 1h8m-8 1h8m-8 1h8m-8 1h8m-8 1h8m-8 1h8m0 17h8m-8 1h8m-8 1h8m-8 1h8m-8 1h8m-8 1h8m-8 1h8m-8 1h8m-24 1h3m1 0h4m8 0h8m-24 1h8m8 0h8m-24 1h8m8 0h8m-24 1h8m8 0h8m-24 1h8m8 0h8m-24 1h8m8 0h4m1 0h3m-24 1h1m1 0h6m8 0h8m-24 1h8m8 0h8m15 3h1m-17 10h1m15 4h1m-3 6h1"/>
    <path stroke="#fff" d="M96 56h8m-12 1h1m3 0h8m-8 1h8m-8 1h8m-8 1h8m-8 1h8m-8 1h7m-7 1h4m1 0h3m-8 9h8m72 0h5m1 0h1m-87 1h8m72 0h8m-88 1h8m72 0h8m-88 1h3m1 0h4m72 0h8m-88 1h8m72 0h8m-88 1h8m72 0h8m-88 1h8m72 0h8m-88 1h7m73 0h8m-56 1h8m8 0h2m1 0h13m-32 1h8m8 0h16m-36 1h1m3 0h8m8 0h16m-32 1h8m8 0h6m1 0h9m-32 1h8m8 0h16m-32 1h8m8 0h16m-32 1h8m8 0h16m-32 1h8m8 0h16m-24 1h8m-8 1h3m1 0h4m-8 1h8m-8 1h3m1 0h4m-7 1h7m-8 1h8m-11 1h1m2 0h8m-8 1h8m26 1h1m30 3h1m-23 1h1m8 0h1m-16 2h1m8 1h1m-56 1h1m10 0h1m-14 1h1m61 4h1m-52 3h16m16 0h8m-40 1h16m16 0h2m1 0h3m1 0h1m-40 1h5m1 0h10m16 0h8m-40 1h16m16 0h8m-40 1h16m16 0h8m-40 1h16m17 0h7m-40 1h15m17 0h8m-40 1h16m16 0h4m1 0h3m-24 9h16m-16 1h16m-16 1h16m-16 1h16m-16 1h16m-16 1h16m-16 1h16m-16 1h16m-40 49h8m-8 1h8m-8 1h8m-8 1h8m-8 1h8m-8 1h8m-8 1h8m-8 1h8"/>
    <path stroke="#fffeff" d="M103 62h1m-11 8h1m-3 1h1m89 1h1m-83 3h1m28 13h8m-8 1h8m-8 1h8m-8 1h8m-8 1h8m-8 1h8m-8 1h5m1 0h2m-8 1h8m48 1h8m8 0h8m-85 1h1m60 0h8m8 0h8m-24 1h8m8 0h8m-24 1h8m8 0h1m1 0h6m-24 1h4m1 0h3m8 0h8m-24 1h8m8 0h8m-24 1h8m8 0h8m-24 1h8m8 0h8m-16 1h8m-18 1h1m9 0h8m-8 1h8m-8 1h8m-8 1h8m-8 1h8m-8 1h8m-8 1h8m-24 1h8m-14 1h1m5 0h8m-43 1h1m34 0h8m-8 1h8m-8 1h8m-8 1h6m1 0h1m-8 1h8m-28 1h1m19 0h8m-48 1h8m-8 1h8m-8 1h8m-8 1h8m-8 1h8m-8 1h8m-8 1h8m-8 1h8m14 44h1m-39 5h8m32 0h8m-48 1h8m32 0h8m-48 1h8m32 0h8m-48 1h8m32 0h8m-48 1h8m32 0h8m-48 1h8m32 0h8m-48 1h8m32 0h8m-48 1h1m1 0h6m32 0h8m-16 1h8m-8 1h8m-8 1h8m-8 1h8m-8 1h8m-8 1h8m-8 1h8m-8 1h8"/>
    <path stroke="#808180" d="M72 64h8m-8 1h8m-8 1h8m-8 1h8m-8 1h8m-8 1h8m-8 1h8m-8 1h8m124 40h1m-85 9h8m-8 1h8m-8 1h8m-8 1h8m-8 1h8m-8 1h8m-8 1h8m-8 1h8m3 6h1m-4 3h8m16 0h8m-32 1h8m16 0h8m-32 1h8m16 0h8m-32 1h8m16 0h8m-32 1h8m16 0h8m-32 1h8m16 0h8m2 0h1m-35 1h4m1 0h3m16 0h8m-32 1h8m16 0h8m-8 1h8m-8 1h8m-8 1h8m-8 1h8m-8 1h7m-7 1h4m1 0h3m-8 1h8m-34 1h1m25 0h8M48 192h8m-8 1h8m-8 1h8m-8 1h8m-8 1h8m-8 1h8m-8 1h8m-8 1h8m0 1h8m-8 1h8m-8 1h8m-8 1h8m-8 1h8m-8 1h8m-8 1h8m-8 1h8"/>
    <path stroke="#818181" d="M80 64h8m-8 1h8m-8 1h8m-8 1h8m-8 1h8m-8 1h8m-8 1h8m-8 1h8m120 25h8m-8 1h8m-8 1h8m-8 1h7m-7 1h8m-8 1h8m-8 1h8m-8 1h8m-24 9h8m-8 1h7m-7 1h8m-8 1h8m-8 1h8m-8 1h8m-8 1h8m-8 1h8m-63 19h1m6 6h8m-8 1h8m-8 1h1m1 0h6m-8 1h8m-8 1h8m-8 1h8m-8 1h8m-8 1h2m1 0h5m-48 17h8m-8 1h8m-8 1h8m-8 1h8m-8 1h8m-8 1h8m-8 1h8m-8 1h8"/>
    <path stroke="#fffefe" d="M88 64h16m-16 1h16m-16 1h3m1 0h12m-16 1h1m1 0h14m-16 1h16m-16 1h16m-16 1h5m1 0h10m-16 1h3m1 0h12m32 1h8m-8 1h8m-8 1h8m-8 1h8m-8 1h2m1 0h5m-8 1h8m-8 1h8m-8 1h8m32 9h8m-8 1h8m-8 1h3m1 0h4m-8 1h8m-8 1h8m-8 1h8m-8 1h8m-8 1h8m8 1h8m-8 1h8m-19 1h1m10 0h8m-8 1h8m-7 1h7m-8 1h8m-8 1h8m-8 1h8m-32 1h8m-8 1h8m-40 1h1m31 0h8m-34 1h1m25 0h8m-8 1h8m-8 1h8m-8 1h4m1 0h3m-8 1h8m6 6h1m-27 40h1m7 9h1m-26 2h1m10 0h1m1 0h8m-14 1h1m5 0h8m-8 1h8m-8 1h6m1 0h1m-20 1h1m11 0h8m-8 1h8m-8 1h8m-8 1h8m-32 1h8m-8 1h8m-8 1h8m-8 1h8m2 0h1m-11 1h8m-8 1h4m1 0h3m-8 1h8m-8 1h8m-15 1h1m3 0h1m20 4h1"/>
    <path stroke="#fefefe" d="M91 66h1m52 6h16m-33 1h1m16 0h16m-16 1h16m-16 1h3m1 0h12m-22 1h1m5 0h16m-16 1h16m-16 1h16m-16 1h16m-24 1h8m24 0h8m-40 1h8m24 0h8m-40 1h8m24 0h8m-40 1h8m24 0h8m-40 1h8m24 0h8m-40 1h8m24 0h8m-40 1h8m24 0h8m-40 1h8m24 0h8m-50 9h1m2 3h2m61 1h1m-65 4h8m42 0h1m-51 1h8m-8 1h8m-8 1h8m-8 1h8m-8 1h8m-8 1h6m1 0h1m36 0h1m-45 1h8m-16 1h16m-16 1h16m-16 1h16m-16 1h16m-16 1h16m-16 1h16m-16 1h16m-16 1h16m8 1h8m24 0h8m-40 1h8m24 0h8m-40 1h8m24 0h8m-40 1h8m21 0h1m2 0h8m-40 1h8m24 0h8m-40 1h1m1 0h6m24 0h8m-40 1h8m24 0h8m-40 1h8m24 0h8m-40 1h8m-8 1h8m-8 1h8m-8 1h8m-8 1h4m1 0h3m-8 1h8m-8 1h8m-8 1h8m0 17h8m-8 1h8m-8 1h8m-8 1h8m-8 1h8m-8 1h4m1 0h3m-8 1h8m-8 1h8m-24 1h8m8 0h8m-24 1h7m9 0h8m-24 1h8m8 0h8m-24 1h8m8 0h8m-24 1h8m8 0h8m-24 1h8m8 0h8m-24 1h8m8 0h8m-24 1h8m8 0h8m-16 1h6m1 0h1m-8 1h2m1 0h5m-8 1h8m-8 1h8m-8 1h8m-8 1h8m-8 1h8m-8 1h8m-16 1h8m-8 1h8m-8 1h8m-8 1h2m1 0h5m-8 1h8m-8 1h8m1 0h1m-10 1h8m-8 1h8m0 1h8m-8 1h8m-8 1h8m-8 1h8m-8 1h2m1 0h5m-8 1h7m-7 1h8m12 0h1m-21 1h8m11 0h1"/>
    <path stroke="#fffffe" d="M89 67h1m-2 5h8m72 0h8m-88 1h8m72 0h8m-88 1h8m72 0h8m-88 1h8m72 0h8m-88 1h8m72 0h8m-88 1h8m72 0h8m-88 1h8m72 0h8m-88 1h8m72 0h8m-56 1h7m19 0h1m13 0h8m8 0h8m-64 1h8m32 0h8m8 0h4m1 0h3m-64 1h3m2 0h3m32 0h8m8 0h8m-64 1h8m22 0h1m9 0h8m8 0h8m-64 1h8m32 0h8m8 0h8m-64 1h8m32 0h8m8 0h8m-64 1h8m32 0h8m8 0h8m-64 1h8m32 0h8m8 0h8m-40 1h8m-13 1h1m4 0h1m1 0h6m-8 1h8m27 0h1m-36 1h8m-16 1h1m7 0h8m-8 1h8m-8 1h8m-8 1h8m-16 1h8m32 0h8m-48 1h8m32 0h8m-48 1h8m32 0h5m1 0h2m-48 1h8m32 0h8m-48 1h8m32 0h3m1 0h4m-48 1h8m32 0h8m-48 1h8m32 0h8m-48 1h8m32 0h6m1 0h1m-48 1h2m1 0h5m-8 1h8m-7 1h7m-8 1h6m1 0h1m-8 1h8m-8 1h8m-8 1h8m-8 1h8m45 5h1m-22 1h1m3 2h1m-21 1h8m-8 1h8m-8 1h8m-8 1h8m-8 1h8m-8 1h8m-8 1h8m-8 1h8m0 33h8m-8 1h8m-8 1h8m-8 1h8m-8 1h8m-8 1h8m-8 1h4m1 0h3m-8 1h8m-40 1h11m1 0h4m-16 1h15m-15 1h16m-16 1h16m-16 1h12m1 0h3m-16 1h2m1 0h13m-16 1h16m-16 1h16m-12 6h1m-13 3h1m1 0h3m1 0h2m-8 1h8m-8 1h8m-8 1h8m-8 1h8m-8 1h8m-8 1h8m-8 1h8"/>
    <path stroke="#fefeff" d="M120 72h8m32 0h8m-48 1h7m33 0h8m-48 1h8m32 0h7m-47 1h8m19 0h1m12 0h8m-48 1h8m32 0h8m-48 1h8m32 0h8m-48 1h8m32 0h8m-48 1h8m32 0h8m-80 1h8m-8 1h8m-8 1h8m-8 1h8m-8 1h8m-8 1h8m-8 1h8m-8 1h8m72 1h8m-8 1h8m-8 1h8m-8 1h8m-8 1h8m-8 1h8m-8 1h8m-8 1h8m-56 1h6m1 0h1m-8 1h3m1 0h4m-8 1h8m-8 1h8m40 0h1m-49 1h8m-8 1h8m-8 1h8m-8 1h8m48 1h2m1 0h5m-8 1h6m1 0h1m-8 1h8m-8 1h8m-8 1h8m-8 1h8m-50 1h1m41 0h7m-7 1h8m-32 1h8m-8 1h8m-8 1h8m-8 1h8m-8 1h8m-8 1h8m-8 1h8m-8 1h4m1 0h3m8 1h8m-8 1h8m-8 1h8m-8 1h5m1 0h2m-8 1h8m-8 1h8m-8 1h8m-11 1h1m2 0h2m1 0h5m-28 5h1m-6 29h1m16 7h8m-8 1h8m-8 1h7m-7 1h8m-8 1h8m-8 1h8m-8 1h8m-8 1h8m-47 8h1m29 6h1m0 3h8m-8 1h8m-8 1h8m-8 1h8m-8 1h8m-8 1h8m-8 1h8m-8 1h8"/>
    <path stroke="#fefffe" d="M128 72h8m-8 1h8m-8 1h8m-8 1h8m-8 1h8m-8 1h8m-8 1h8m-8 1h8m-40 1h8m23 0h1m-32 1h8m76 0h1m-85 1h8m19 0h1m-28 1h8m-8 1h8m-8 1h8m-8 1h8m-8 1h8m41 2h1m-18 7h8m-8 1h8m-8 1h8m-8 1h1m2 0h5m-8 1h8m-8 1h8m-8 1h8m-8 1h8m48 9h8m-8 1h8m-8 1h8m-8 1h8m-8 1h5m1 0h2m-8 1h8m-8 1h8m-8 1h8m-47 6h1m17 0h1m-2 1h1m-32 34h1m16 5h1m-20 1h1m13 3h1m-14 4h1m13 3h16m-16 1h16m-16 1h16m-16 1h16m-16 1h7m1 0h8m-16 1h1m1 0h14m-16 1h16m-16 1h16m-24 1h8m16 0h7m-31 1h8m16 0h8m-32 1h8m16 0h8m-32 1h8m16 0h8m-32 1h8m16 0h8m-32 1h8m16 0h8m-32 1h8m16 0h4m2 0h2m-32 1h8m16 0h3m1 0h4"/>
    <path stroke="#818081" d="M144 96h8m-8 1h8m-8 1h8m-8 1h8m63 0h1m-72 1h8m-8 1h8m-8 1h8m-8 1h8m-24 17h8m-8 1h8m-8 1h8m-8 1h8m-8 1h8m-8 1h8m-8 1h8m-8 1h8m-16 1h8m-8 1h8m-8 1h8m-8 1h8m-8 1h8m-8 1h8m-7 1h7m-8 1h8m8 1h8m-8 1h8m-8 1h1m1 0h6m-17 1h1m8 0h8m-8 1h8m-8 1h8m-8 1h8m-8 1h8m16 1h8m-8 1h8m-8 1h8m-27 1h1m18 0h8m-8 1h8m-8 1h8m-8 1h8m-22 1h1m13 0h8m-64 9h16m-16 1h16m-16 1h16m-16 1h16m-16 1h16m-16 1h16m-16 1h16m-16 1h5m1 0h10m-72 33h8m-8 1h8m-8 1h8m-8 1h8m-8 1h8m-8 1h8m-8 1h8m-8 1h8"/>
    <path stroke="#808081" d="M144 104h8m-8 1h8m-8 1h8m-8 1h8m-8 1h8m-8 1h8m-8 1h8m-8 1h8m-32 23h1m-1 2h8m-8 1h8m-8 1h8m-8 1h7m-7 1h8m-8 1h8m-8 1h8m-8 1h8m8 1h8m-8 1h8m-8 1h8m-8 1h5m1 0h2m-16 1h1m7 0h3m1 0h4m-8 1h8m-8 1h8m-8 1h8m-32 17h8m-8 1h8m-8 1h1m2 0h5m-8 1h7m-7 1h8m-8 1h8m-8 1h8m-8 1h8m-86 1h1m-1 2h1m125 22h8m-11 1h1m2 0h8m-8 1h8m-8 1h8m-8 1h8m-8 1h5m1 0h2m-8 1h8m-8 1h8"/>
    <path stroke="#818180" d="M200 104h8m-8 1h8m-8 1h8m-8 1h8m-8 1h8m-8 1h8m-8 1h8m-8 1h4m1 0h3m-9 2h1m-56 23h8m8 0h8m-24 1h8m8 0h8m-24 1h8m8 0h8m-24 1h8m8 0h8m-24 1h8m8 0h8m-24 1h8m8 0h2m1 0h5m-24 1h8m8 0h8m-24 1h8m8 0h8m-12 6h1m-37 19h8m-8 1h8m-8 1h8m-8 1h8m-8 1h8m-8 1h8m-8 1h8m-8 1h8"/>
    <path stroke="gray" d="M214 106h1m-23 14h8m-8 1h8m-8 1h8m-8 1h8m-8 1h8m-8 1h8m-8 1h8m-8 1h8m-72 1h8m-8 1h8m-8 1h8m-8 1h8m-8 1h8m-8 1h3m1 0h4m-8 1h8m-8 1h8m-4 7h1m-5 2h8m-8 1h8m-8 1h8m-8 1h8m-7 1h7m3 0h1m19 0h1m-32 1h8m-8 1h8m-8 1h8M32 176h2m1 0h5m-8 1h8m-8 1h2m1 0h5m-8 1h8m-8 1h5m1 0h2m-8 1h8m-8 1h8m-8 1h8m112 17h8m-8 1h5m1 0h2m-8 1h8m-8 1h8m-8 1h8m-8 1h8m-8 1h8m-8 1h8"/>
    <path stroke="#808181" d="M184 120h8m-8 1h8m-8 1h8m-8 1h8m-8 1h8m-8 1h8m-8 1h8m-8 1h8m-72 17h8m-8 1h8m-8 1h8m17 0h1m-26 1h8m-8 1h8m-8 1h8m-8 1h8m-8 1h6m1 0h1m-15 19h2m4 1h1m40 21h8m-8 1h8m-8 1h8m-8 1h8m-8 1h8m-8 1h8m-8 1h8m-8 1h8m-3 6h1"/>
</svg>
