<svg xmlns="http://www.w3.org/2000/svg" viewBox="0 -0.5 192 192" shape-rendering="crispEdges">
<metadata>Made with Pixels to Svg https://codepen.io/shshaw/pen/XbxvNj</metadata>
<path stroke="#ffffff" d="M0 0h34M35 0h136M172 0h2M175 0h17M0 1h18M19 1h69M89 1h7M97 1h42M140 1h10M151 1h20M172 1h20M0 2h27M28 2h56M85 2h92M178 2h14M0 3h32M33 3h6M40 3h46M87 3h14M102 3h60M163 3h9M173 3h19M0 4h2M3 4h51M55 4h24M80 4h69M150 4h19M170 4h10M181 4h6M188 4h4M0 5h13M14 5h15M30 5h14M45 5h78M124 5h32M158 5h6M165 5h27M0 6h12M13 6h110M124 6h1M126 6h14M141 6h32M175 6h5M181 6h11M0 7h97M98 7h27M126 7h5M132 7h60M0 8h33M34 8h8M43 8h19M63 8h19M84 8h29M114 8h67M182 8h10M0 9h45M46 9h7M54 9h26M81 9h63M145 9h5M151 9h18M170 9h5M176 9h7M184 9h8M0 10h43M44 10h45M90 10h8M99 10h43M143 10h12M157 10h16M174 10h4M179 10h13M0 11h5M6 11h57M64 11h1M67 11h2M70 11h57M128 11h8M137 11h55M0 12h25M27 12h19M47 12h60M108 12h39M148 12h38M187 12h5M0 13h12M13 13h70M84 13h58M143 13h22M166 13h1M168 13h1M170 13h22M0 14h148M149 14h20M170 14h22M0 15h62M63 15h8M72 15h4M77 15h16M94 15h2M97 15h15M113 15h12M127 15h56M184 15h8M0 16h42M45 16h4M50 16h6M57 16h33M91 16h36M128 16h7M136 16h21M158 16h9M168 16h24M0 17h10M11 17h33M45 17h26M72 17h7M80 17h56M137 17h23M161 17h31M0 18h52M53 18h7M61 18h51M113 18h41M155 18h6M162 18h18M181 18h11M0 19h22M23 19h73M97 19h8M106 19h17M124 19h9M134 19h58M0 20h10M11 20h18M30 20h4M35 20h37M73 20h13M87 20h11M99 20h10M110 20h40M151 20h34M186 20h6M0 21h28M29 21h1M31 21h10M42 21h96M139 21h3M143 21h49M0 22h3M4 22h15M20 22h34M55 22h11M67 22h7M75 22h1M77 22h14M92 22h21M114 22h12M127 22h4M132 22h47M180 22h12M0 23h25M26 23h12M39 23h26M66 23h26M93 23h2M96 23h33M130 23h35M166 23h20M187 23h3M191 23h1M0 24h5M6 24h30M37 24h42M81 24h36M118 24h7M126 24h15M142 24h34M177 24h9M187 24h5M0 25h13M14 25h8M23 25h18M42 25h4M47 25h2M50 25h42M93 25h19M113 25h22M136 25h8M145 25h47M0 26h9M10 26h25M36 26h8M45 26h16M62 26h7M70 26h40M111 26h12M124 26h23M148 26h14M163 26h4M168 26h2M171 26h8M180 26h12M0 27h44M45 27h60M106 27h36M143 27h19M163 27h25M189 27h3M0 28h52M53 28h71M125 28h30M156 28h5M162 28h6M169 28h23M0 29h86M87 29h13M101 29h4M106 29h42M149 29h43M0 30h29M30 30h3M34 30h20M90 30h6M120 30h5M126 30h16M143 30h1M145 30h7M153 30h13M167 30h13M181 30h5M187 30h5M0 31h1M2 31h4M7 31h15M23 31h31M90 31h6M120 31h37M158 31h17M177 31h5M183 31h9M0 32h21M22 32h8M31 32h8M40 32h11M52 32h2M90 32h6M120 32h2M123 32h46M170 32h4M175 32h5M181 32h10M0 33h7M8 33h19M28 33h26M90 33h6M120 33h20M141 33h15M157 33h35M0 34h8M9 34h6M16 34h38M90 34h3M94 34h2M121 34h20M143 34h1M145 34h14M160 34h13M174 34h18M0 35h51M52 35h2M90 35h6M120 35h34M155 35h37M0 36h6M7 36h4M12 36h42M90 36h1M92 36h4M121 36h71M0 37h2M3 37h30M34 37h19M90 37h1M92 37h4M120 37h52M173 37h19M0 38h54M91 38h5M120 38h46M167 38h22M190 38h2M0 39h1M2 39h52M90 39h6M120 39h10M131 39h61M0 40h20M21 40h16M38 40h3M42 40h12M90 40h6M120 40h72M0 41h53M90 41h6M120 41h58M179 41h13M0 42h48M66 42h9M76 42h2M132 42h12M145 42h38M184 42h8M0 43h12M13 43h24M38 43h10M66 43h12M132 43h3M136 43h8M146 43h3M150 43h42M0 44h30M31 44h17M66 44h12M132 44h4M137 44h46M184 44h7M0 45h48M67 45h3M71 45h6M132 45h27M160 45h6M167 45h25M0 46h3M5 46h40M46 46h1M66 46h12M132 46h28M161 46h5M167 46h4M172 46h13M186 46h4M191 46h1M0 47h45M46 47h2M66 47h12M132 47h38M171 47h21M0 48h18M20 48h28M66 48h12M144 48h25M170 48h9M180 48h12M0 49h48M66 49h2M69 49h9M144 49h48M0 50h13M14 50h14M29 50h3M33 50h15M66 50h2M69 50h6M76 50h2M144 50h11M156 50h28M185 50h7M0 51h33M34 51h4M39 51h3M43 51h5M67 51h8M76 51h2M144 51h10M155 51h13M169 51h8M178 51h14M0 52h31M33 52h15M66 52h4M71 52h7M144 52h2M147 52h7M155 52h11M167 52h25M0 53h48M66 53h12M144 53h23M168 53h5M174 53h18M0 54h48M66 54h12M90 54h2M93 54h45M150 54h23M174 54h3M178 54h14M0 55h19M20 55h27M66 55h12M90 55h22M113 55h23M137 55h1M150 55h2M153 55h30M185 55h7M0 56h44M46 56h2M66 56h3M70 56h8M90 56h19M110 56h7M118 56h20M150 56h39M190 56h2M0 57h27M28 57h20M66 57h6M73 57h5M90 57h40M131 57h7M150 57h15M166 57h26M0 58h48M66 58h12M90 58h9M100 58h38M150 58h42M0 59h3M4 59h44M66 59h1M68 59h10M90 59h11M102 59h2M105 59h33M150 59h42M0 60h27M28 60h22M51 60h3M66 60h12M90 60h48M150 60h10M161 60h14M176 60h16M0 61h9M10 61h10M21 61h33M66 61h12M90 61h23M114 61h24M150 61h2M153 61h14M169 61h23M0 62h54M66 62h1M68 62h10M90 62h19M110 62h6M117 62h21M150 62h42M0 63h6M7 63h47M66 63h12M90 63h23M115 63h23M150 63h1M152 63h9M162 63h30M0 64h7M8 64h21M30 64h24M66 64h12M90 64h12M103 64h18M122 64h1M124 64h14M150 64h6M157 64h35M0 65h45M46 65h8M66 65h2M69 65h9M90 65h48M150 65h19M170 65h5M176 65h2M179 65h13M0 66h18M30 66h24M90 66h24M127 66h4M132 66h2M135 66h3M174 66h5M180 66h12M0 67h18M30 67h16M47 67h7M90 67h14M105 67h9M126 67h12M174 67h18M0 68h3M4 68h14M31 68h23M90 68h13M104 68h10M126 68h3M130 68h2M133 68h5M174 68h3M178 68h14M0 69h18M30 69h19M50 69h4M90 69h6M97 69h13M111 69h3M126 69h1M128 69h10M174 69h18M0 70h18M30 70h24M90 70h11M102 70h1M104 70h10M126 70h10M137 70h1M174 70h18M0 71h8M9 71h9M30 71h2M34 71h20M90 71h24M126 71h8M135 71h3M174 71h18M0 72h6M7 72h11M36 72h30M90 72h18M126 72h18M145 72h11M174 72h8M183 72h9M0 73h16M17 73h1M36 73h13M50 73h16M90 73h18M126 73h30M174 73h13M188 73h4M0 74h7M8 74h10M36 74h30M90 74h8M99 74h9M126 74h30M174 74h2M177 74h6M184 74h7M0 75h18M36 75h5M42 75h24M90 75h18M126 75h26M153 75h3M174 75h18M0 76h18M36 76h1M38 76h28M90 76h7M98 76h10M126 76h6M133 76h23M174 76h18M0 77h18M36 77h30M90 77h3M94 77h14M126 77h21M148 77h8M174 77h18M0 78h6M7 78h13M21 78h1M23 78h1M36 78h16M53 78h1M55 78h11M90 78h7M98 78h7M106 78h2M126 78h24M174 78h17M0 79h18M19 79h5M36 79h8M45 79h3M49 79h9M59 79h6M90 79h18M126 79h24M174 79h12M187 79h5M0 80h14M15 80h9M36 80h4M41 80h24M90 80h18M126 80h20M147 80h3M174 80h18M0 81h24M36 81h30M90 81h18M126 81h24M174 81h18M0 82h10M11 82h13M36 82h6M43 82h10M54 82h12M90 82h2M93 82h15M126 82h13M140 82h10M174 82h13M188 82h4M0 83h14M15 83h9M36 83h30M90 83h11M102 83h6M126 83h10M137 83h9M147 83h3M174 83h18M0 84h7M8 84h3M12 84h12M36 84h30M90 84h3M94 84h21M116 84h26M143 84h1M168 84h6M175 84h12M188 84h4M0 85h6M7 85h17M36 85h30M90 85h11M102 85h20M123 85h7M131 85h6M138 85h6M168 85h6M175 85h17M0 86h9M10 86h10M21 86h3M36 86h20M57 86h9M90 86h54M168 86h2M171 86h19M191 86h1M0 87h24M36 87h30M90 87h32M123 87h21M168 87h21M190 87h2M0 88h12M13 88h11M37 88h29M90 88h5M96 88h48M168 88h11M180 88h12M0 89h24M36 89h11M48 89h18M90 89h22M114 89h9M124 89h7M132 89h12M168 89h7M176 89h6M183 89h9M0 90h22M23 90h1M36 90h30M102 90h7M110 90h15M126 90h12M162 90h21M184 90h8M0 91h5M6 91h18M36 91h3M40 91h7M48 91h18M103 91h35M162 91h24M187 91h5M0 92h4M5 92h19M36 92h21M58 92h8M102 92h2M105 92h33M162 92h25M188 92h4M0 93h24M36 93h17M54 93h12M102 93h27M130 93h8M162 93h17M180 93h12M0 94h3M4 94h20M36 94h30M102 94h10M113 94h25M162 94h16M179 94h7M187 94h5M0 95h24M36 95h30M102 95h17M121 95h17M162 95h30M0 96h8M9 96h15M36 96h18M102 96h24M162 96h8M171 96h21M0 97h24M36 97h18M102 97h24M162 97h30M0 98h21M22 98h2M36 98h18M102 98h19M122 98h4M162 98h13M176 98h6M183 98h9M0 99h24M36 99h18M102 99h24M162 99h30M0 100h13M14 100h10M36 100h18M102 100h15M118 100h8M162 100h14M177 100h15M0 101h24M36 101h18M102 101h6M109 101h8M119 101h7M162 101h8M171 101h6M178 101h14M0 102h22M23 102h1M36 102h5M42 102h12M138 102h38M177 102h5M183 102h3M187 102h5M0 103h8M9 103h15M36 103h18M138 103h6M145 103h43M189 103h2M0 104h24M36 104h18M138 104h2M143 104h10M154 104h18M174 104h18M0 105h19M20 105h4M36 105h6M43 105h11M138 105h7M146 105h2M149 105h43M0 106h24M36 106h18M138 106h29M168 106h24M0 107h24M36 107h18M138 107h20M159 107h26M186 107h4M191 107h1M0 108h1M2 108h22M36 108h6M138 108h43M182 108h10M0 109h6M7 109h17M36 109h6M138 109h25M164 109h14M179 109h4M184 109h8M0 110h24M36 110h6M138 110h20M159 110h24M184 110h3M188 110h4M0 111h24M36 111h6M138 111h21M160 111h10M171 111h6M178 111h14M0 112h18M20 112h4M36 112h6M138 112h1M140 112h15M156 112h36M0 113h7M8 113h16M36 113h6M138 113h54M0 114h24M36 114h6M108 114h12M138 114h2M141 114h2M144 114h48M0 115h24M37 115h5M108 115h1M110 115h10M138 115h18M157 115h35M0 116h24M36 116h6M108 116h12M138 116h36M175 116h17M0 117h2M3 117h5M9 117h15M36 117h4M41 117h1M108 117h12M138 117h25M164 117h25M190 117h2M0 118h24M36 118h6M108 118h12M138 118h18M157 118h35M0 119h16M17 119h6M36 119h6M108 119h12M138 119h3M142 119h7M150 119h32M183 119h9M0 120h21M22 120h2M36 120h6M96 120h30M138 120h25M164 120h28M0 121h16M17 121h6M36 121h6M96 121h25M122 121h4M138 121h2M141 121h51M0 122h5M6 122h18M36 122h6M96 122h30M138 122h47M186 122h6M0 123h6M7 123h4M12 123h12M36 123h6M96 123h16M113 123h6M120 123h6M139 123h13M153 123h39M0 124h24M36 124h6M96 124h30M138 124h28M168 124h4M173 124h13M187 124h5M0 125h24M36 125h4M41 125h1M97 125h29M138 125h25M164 125h28M0 126h24M36 126h5M96 126h2M99 126h24M124 126h2M138 126h3M142 126h50M0 127h10M11 127h13M36 127h6M96 127h18M115 127h10M138 127h54M0 128h24M36 128h6M96 128h30M138 128h17M156 128h36M0 129h8M9 129h8M18 129h6M37 129h5M96 129h25M122 129h4M138 129h10M149 129h27M177 129h15M0 130h11M12 130h12M36 130h6M96 130h24M121 130h3M125 130h1M139 130h12M152 130h36M189 130h3M0 131h9M10 131h3M14 131h10M36 131h6M96 131h5M102 131h10M113 131h13M138 131h18M157 131h1M159 131h9M169 131h23M0 132h2M3 132h21M90 132h12M103 132h7M111 132h1M113 132h11M125 132h1M138 132h19M158 132h7M166 132h26M0 133h24M90 133h36M138 133h54M0 134h24M90 134h36M138 134h17M156 134h9M166 134h26M0 135h3M4 135h20M90 135h36M138 135h54M0 136h12M13 136h11M90 136h9M100 136h26M138 136h44M183 136h9M0 137h24M90 137h23M114 137h12M138 137h2M141 137h36M178 137h11M190 137h2M0 138h30M90 138h36M138 138h37M176 138h16M0 139h30M90 139h25M116 139h3M120 139h6M138 139h28M167 139h8M176 139h10M187 139h5M0 140h30M90 140h36M138 140h17M156 140h36M0 141h4M5 141h6M12 141h1M15 141h15M90 141h1M92 141h3M96 141h19M116 141h10M138 141h19M158 141h25M184 141h1M186 141h6M0 142h30M90 142h6M97 142h29M138 142h17M156 142h36M0 143h30M90 143h2M93 143h33M138 143h46M185 143h7M0 144h15M16 144h9M26 144h10M114 144h3M118 144h2M150 144h17M168 144h9M178 144h14M0 145h27M28 145h8M114 145h6M150 145h42M0 146h36M114 146h6M150 146h42M0 147h10M11 147h9M21 147h15M114 147h6M150 147h9M160 147h8M169 147h1M171 147h4M176 147h16M0 148h14M15 148h21M114 148h3M118 148h2M150 148h18M170 148h10M181 148h11M0 149h36M114 149h6M150 149h9M160 149h8M169 149h2M172 149h3M176 149h16M0 150h36M156 150h1M158 150h34M0 151h36M156 151h10M167 151h25M0 152h12M13 152h23M156 152h5M162 152h30M0 153h2M3 153h33M156 153h25M182 153h10M0 154h10M11 154h25M156 154h30M187 154h5M0 155h23M24 155h3M28 155h8M156 155h15M172 155h9M182 155h5M188 155h4M0 156h34M35 156h32M68 156h33M102 156h2M105 156h17M123 156h10M134 156h35M170 156h22M0 157h8M9 157h41M51 157h28M80 157h2M83 157h35M119 157h2M122 157h70M0 158h13M14 158h2M17 158h34M52 158h37M90 158h27M119 158h30M150 158h42M0 159h12M13 159h58M72 159h18M91 159h101M0 160h81M82 160h24M107 160h20M128 160h14M143 160h4M148 160h36M185 160h7M0 161h36M37 161h23M61 161h7M69 161h15M85 161h18M104 161h8M113 161h57M171 161h21M0 162h13M14 162h22M37 162h16M54 162h4M59 162h38M98 162h8M107 162h67M175 162h17M0 163h9M10 163h9M20 163h39M60 163h6M67 163h13M81 163h38M120 163h22M143 163h49M0 164h10M11 164h45M57 164h25M83 164h32M116 164h18M135 164h12M148 164h33M182 164h10M0 165h21M22 165h15M38 165h6M45 165h1M47 165h52M100 165h58M159 165h3M163 165h20M184 165h1M186 165h6M0 166h9M10 166h55M66 166h29M96 166h6M103 166h20M124 166h14M139 166h4M144 166h10M155 166h27M183 166h9M0 167h5M6 167h20M27 167h15M43 167h6M50 167h31M82 167h3M86 167h17M104 167h27M132 167h9M143 167h27M171 167h2M174 167h18M0 168h23M24 168h20M45 168h95M141 168h2M144 168h14M159 168h7M167 168h25M0 169h7M8 169h69M78 169h11M90 169h32M123 169h28M152 169h13M166 169h9M176 169h16M0 170h71M72 170h23M96 170h85M182 170h10M0 171h7M8 171h7M16 171h41M58 171h41M100 171h1M102 171h11M114 171h34M149 171h21M171 171h8M180 171h12M0 172h1M2 172h26M29 172h12M42 172h6M49 172h31M81 172h22M104 172h4M109 172h4M114 172h15M130 172h62M0 173h6M7 173h3M11 173h10M22 173h4M27 173h11M39 173h7M47 173h4M52 173h10M63 173h21M85 173h107M0 174h26M27 174h61M89 174h5M95 174h41M137 174h19M157 174h12M170 174h22M0 175h1M2 175h6M9 175h33M43 175h11M56 175h3M60 175h15M76 175h10M87 175h55M143 175h6M150 175h15M166 175h26M0 176h13M14 176h27M42 176h105M148 176h4M153 176h33M187 176h5M0 177h2M4 177h5M10 177h77M88 177h12M101 177h13M115 177h55M171 177h21M0 178h24M25 178h3M29 178h6M36 178h24M61 178h6M68 178h2M71 178h7M79 178h2M82 178h67M150 178h23M174 178h18M0 179h7M8 179h7M16 179h16M33 179h21M55 179h5M61 179h49M111 179h47M159 179h16M176 179h16M0 180h13M14 180h57M72 180h26M100 180h6M107 180h35M143 180h49M0 181h34M36 181h10M47 181h77M125 181h27M153 181h4M158 181h7M166 181h26M0 182h1M2 182h38M41 182h10M52 182h10M63 182h5M69 182h9M79 182h15M95 182h5M101 182h13M115 182h31M147 182h10M158 182h23M182 182h4M187 182h5M0 183h62M63 183h4M68 183h32M102 183h82M185 183h7M0 184h5M6 184h15M22 184h99M122 184h17M140 184h14M155 184h37M0 185h35M36 185h4M41 185h41M83 185h16M100 185h6M107 185h12M120 185h45M166 185h26M0 186h6M7 186h22M30 186h9M40 186h31M72 186h100M173 186h19M1 187h38M40 187h3M44 187h31M76 187h91M168 187h6M175 187h12M188 187h4M0 188h6M7 188h5M13 188h9M23 188h26M50 188h10M61 188h15M77 188h73M151 188h41M0 189h33M34 189h25M60 189h52M113 189h58M172 189h20M0 190h11M12 190h12M25 190h13M39 190h48M88 190h56M145 190h11M157 190h35M0 191h12M13 191h33M47 191h7M55 191h14M70 191h86M157 191h35" />
<path stroke="#fffeff" d="M34 0h1M88 1h1M139 1h1M172 3h1M79 4h1M169 4h1M187 4h1M13 5h1M157 5h1M97 7h1M82 8h1M181 8h1M169 9h1M43 10h1M142 10h1M178 10h1M136 11h1M25 12h1M46 12h1M142 13h1M169 13h1M148 14h1M169 14h1M76 15h1M112 15h1M49 16h1M127 16h1M157 16h1M79 17h1M136 17h1M52 18h1M112 18h1M154 18h1M22 19h1M133 19h1M10 20h1M34 20h1M72 20h1M109 20h1M28 21h1M30 21h1M142 21h1M3 22h1M19 22h1M76 22h1M91 22h1M25 23h1M190 23h1M79 24h1M13 25h1M22 25h1M46 25h1M44 26h1M61 26h1M142 27h1M162 27h1M52 28h1M124 28h1M100 29h1M148 29h1M142 30h1M166 30h1M1 31h1M22 31h1M157 31h1M175 31h1M30 32h1M122 32h1M169 32h1M191 32h1M7 33h1M142 34h1M154 35h1M91 36h1M91 37h1M172 37h1M166 38h1M1 39h1M130 39h1M37 40h1M178 41h1M144 42h1M145 43h1M70 45h1M160 46h1M166 46h1M190 46h1M19 48h1M169 48h1M28 50h1M184 50h1M33 51h1M42 51h1M177 51h1M31 52h1M70 52h1M154 52h1M166 52h1M19 55h1M112 55h1M136 55h1M184 55h1M109 56h1M130 57h1M67 59h1M160 60h1M175 60h1M67 62h1M113 63h1M121 64h1M123 64h1M169 65h1M175 65h1M178 65h1M46 67h1M103 68h1M49 69h1M127 69h1M103 70h1M136 70h1M6 72h1M16 73h1M49 73h1M187 73h1M7 74h1M183 74h1M37 76h1M97 76h1M22 78h1M52 78h1M97 78h1M105 78h1M58 79h1M186 79h1M146 80h1M10 82h1M42 82h1M139 82h1M187 82h1M136 83h1M115 84h1M187 84h1M130 85h1M190 86h1M95 88h1M112 89h2M175 89h1M22 90h1M109 90h1M4 92h1M187 92h1M112 94h1M178 94h1M8 96h1M170 96h1M121 98h1M13 100h1M118 101h1M22 102h1M176 102h1M140 104h1M172 104h1M145 105h1M148 105h1M190 107h1M1 108h1M181 108h1M163 109h1M178 109h1M19 112h1M139 112h1M7 113h1M36 115h1M109 115h1M40 117h1M163 117h1M16 119h1M141 119h1M21 120h1M163 120h1M16 121h1M121 121h1M112 123h1M166 124h1M172 124h1M163 125h1M141 126h1M10 127h1M121 129h1M148 129h1M138 130h1M151 130h1M13 131h1M112 131h1M112 132h1M124 132h1M157 132h1M99 136h1M182 136h1M175 138h1M115 139h1M166 139h1M175 139h1M13 141h1M91 141h1M115 141h1M157 141h1M96 142h1M184 143h1M15 144h1M25 144h1M10 147h1M20 147h1M175 147h1M169 148h1M159 149h1M171 149h1M175 149h1M157 150h1M166 151h1M181 153h1M10 154h1M181 155h1M187 155h1M67 156h1M101 156h1M133 156h1M169 156h1M79 157h1M82 157h1M118 157h1M121 157h1M13 158h1M16 158h1M118 158h1M106 160h1M142 160h1M184 160h1M103 161h1M112 161h1M13 162h1M106 162h1M19 163h1M80 163h1M142 163h1M10 164h1M82 164h1M115 164h1M181 164h1M182 166h1M49 167h1M85 167h1M142 167h1M166 168h1M7 169h1M151 169h1M175 169h1M181 170h1M7 171h1M148 171h1M1 172h1M28 172h1M103 172h1M10 173h1M46 173h1M88 174h1M94 174h1M136 174h1M169 174h1M1 175h1M13 176h1M41 176h1M100 177h1M28 178h1M67 178h1M70 178h1M7 179h1M175 179h1M13 180h1M106 180h1M142 180h1M34 181h1M46 181h1M124 181h1M157 181h1M1 182h1M40 182h1M94 182h1M157 182h1M181 182h1M67 183h1M100 183h2M184 183h1M121 184h1M139 184h1M154 184h1M40 185h1M82 185h1M106 185h1M172 186h1M187 187h1M22 188h1M49 188h1M76 188h1M112 189h1M171 189h1M87 190h1M46 191h1" />
<path stroke="#feffff" d="M171 0h1M150 1h1M171 1h1M27 2h1M177 2h1M32 3h1M39 3h1M86 3h1M2 4h1M54 4h1M149 4h1M180 4h1M44 5h1M123 5h1M125 6h1M140 6h1M173 6h1M180 6h1M125 7h1M131 7h1M42 8h1M62 8h1M113 8h1M80 9h1M175 9h1M89 10h1M98 10h1M173 10h1M5 11h1M65 11h1M127 11h1M26 12h1M107 12h1M165 13h1M167 13h1M62 15h1M71 15h1M93 15h1M125 15h1M42 16h3M56 16h1M90 16h1M10 17h1M44 17h1M71 17h1M160 17h1M60 18h1M161 18h1M180 18h1M123 19h1M86 20h1M98 20h1M185 20h1M41 21h1M54 22h1M66 22h1M74 22h1M131 22h1M179 22h1M38 23h1M65 23h1M92 23h1M95 23h1M129 23h1M165 23h1M5 24h1M80 24h1M125 24h1M49 25h1M92 25h1M35 26h1M69 26h1M110 26h1M170 26h1M179 26h1M188 27h1M155 28h1M168 28h1M125 30h1M144 30h1M186 30h1M176 31h1M182 31h1M174 32h1M8 34h1M15 34h1M159 34h1M51 35h1M11 36h1M120 36h1M2 37h1M33 37h1M53 37h1M90 38h1M189 38h1M41 40h1M149 43h1M30 44h1M183 44h1M191 44h1M77 45h1M4 46h1M45 46h1M47 46h1M185 46h1M45 47h1M170 47h1M179 48h1M68 49h1M13 50h1M32 50h1M68 50h1M75 51h1M32 52h1M167 53h1M173 54h1M177 54h1M47 55h1M45 56h1M69 56h1M117 56h1M189 56h1M27 57h1M165 57h1M101 59h1M104 59h1M20 61h1M152 61h1M167 61h1M116 62h1M151 63h1M161 63h1M29 64h1M102 64h1M45 65h1M68 65h1M179 66h1M104 67h1M30 68h1M110 69h1M101 70h1M8 71h1M134 71h1M182 72h1M98 74h1M176 74h1M191 74h1M41 75h1M152 75h1M93 77h1M147 77h1M20 78h1M54 78h1M191 78h1M18 79h1M14 80h1M65 80h1M92 82h1M14 83h1M101 83h1M146 83h1M7 84h1M11 84h1M93 84h1M101 85h1M122 85h1M137 85h1M9 86h1M20 86h1M56 86h1M170 86h1M122 87h1M36 88h1M179 88h1M47 89h1M131 89h1M125 90h1M5 91h1M47 91h1M102 91h1M57 92h1M53 93h1M179 93h1M3 94h1M119 95h2M182 98h1M170 101h1M41 102h1M186 102h1M8 103h1M188 103h1M191 103h1M142 104h1M153 104h1M158 107h1M185 107h1M6 109h1M183 109h1M158 110h1M183 110h1M187 110h1M159 111h1M170 111h1M18 112h1M155 112h1M140 114h1M143 114h1M174 116h1M23 119h1M149 119h1M182 119h1M140 121h1M185 122h1M6 123h1M11 123h1M119 123h1M152 123h1M167 124h1M41 126h1M125 127h1M8 129h1M17 129h1M36 129h1M176 129h1M120 130h1M124 130h1M9 131h1M101 131h1M156 131h1M102 132h1M110 132h1M155 134h1M113 137h1M119 139h1M11 141h1M95 141h1M183 141h1M185 141h1M155 142h1M92 143h1M117 144h1M27 145h1M170 147h1M14 148h1M161 152h1M2 153h1M23 155h1M27 155h1M171 155h1M104 156h1M8 157h1M50 157h1M149 158h1M81 160h1M147 160h1M60 161h1M170 161h1M97 162h1M59 163h1M119 163h1M56 164h1M134 164h1M21 165h1M37 165h1M44 165h1M46 165h1M99 165h1M162 165h1M183 165h1M65 166h1M95 166h1M143 166h1M154 166h1M5 167h1M26 167h1M42 167h1M81 167h1M131 167h1M170 167h1M173 167h1M23 168h1M44 168h1M140 168h1M143 168h1M77 169h1M89 169h1M122 169h1M57 171h1M99 171h1M101 171h1M113 171h1M170 171h1M179 171h1M41 172h1M80 172h1M113 172h1M42 175h1M59 175h1M86 175h1M149 175h1M186 176h1M2 177h1M114 177h1M35 178h1M60 178h1M78 178h1M149 178h1M15 179h1M32 179h1M71 180h1M98 180h1M152 181h1M62 182h1M114 182h1M146 182h1M62 183h1M99 185h1M119 185h1M165 185h1M39 186h1M167 187h1M6 188h1M60 188h1M59 189h1M38 190h1M156 190h1M54 191h1" />
<path stroke="#fffffe" d="M174 0h1M18 1h1M96 1h1M84 2h1M101 3h1M162 3h1M156 5h1M164 5h1M12 6h1M123 6h1M174 6h1M33 8h1M83 8h1M45 9h1M53 9h1M144 9h1M150 9h1M183 9h1M155 10h2M63 11h1M66 11h1M69 11h1M147 12h1M186 12h1M12 13h1M83 13h1M96 15h1M126 15h1M183 15h1M135 16h1M167 16h1M96 19h1M105 19h1M29 20h1M150 20h1M138 21h1M113 22h1M126 22h1M186 23h1M36 24h1M117 24h1M141 24h1M176 24h1M186 24h1M41 25h1M112 25h1M135 25h1M144 25h1M9 26h1M123 26h1M147 26h1M162 26h1M167 26h1M44 27h1M105 27h1M161 28h1M86 29h1M105 29h1M29 30h1M33 30h1M152 30h1M180 30h1M6 31h1M21 32h1M39 32h1M180 32h1M27 33h1M140 33h1M156 33h1M93 34h1M120 34h1M141 34h1M144 34h1M173 34h1M6 36h1M20 40h1M53 41h1M75 42h1M183 42h1M12 43h1M37 43h1M135 43h1M144 43h1M136 44h1M66 45h1M159 45h1M166 45h1M3 46h1M171 46h1M18 48h1M75 50h1M155 50h1M38 51h1M66 51h1M154 51h1M168 51h1M146 52h1M173 53h1M92 54h1M152 55h1M183 55h1M44 56h1M72 57h1M99 58h1M3 59h1M27 60h1M50 60h1M9 61h1M113 61h1M168 61h1M109 62h1M6 63h1M114 63h1M7 64h1M156 64h1M126 66h1M131 66h1M134 66h1M3 68h1M129 68h1M132 68h1M177 68h1M96 69h1M32 71h2M144 72h1M132 76h1M6 78h1M44 79h1M48 79h1M65 79h1M53 82h1M142 84h1M174 84h1M6 85h1M174 85h1M189 87h1M12 88h1M123 89h1M182 89h1M183 90h1M39 91h1M186 91h1M104 92h1M129 93h1M186 94h1M21 98h1M175 98h1M117 100h1M176 100h1M108 101h1M117 101h1M182 102h1M144 103h1M141 104h1M173 104h1M19 105h1M42 105h1M177 111h1M156 115h1M2 117h1M8 117h1M189 117h1M156 118h1M23 121h1M5 122h1M138 123h1M186 124h1M96 125h1M98 126h1M123 126h1M114 127h1M155 128h1M11 130h1M188 130h1M158 131h1M168 131h1M2 132h1M165 132h1M165 134h1M3 135h1M12 136h1M140 137h1M189 137h1M186 139h1M155 140h1M4 141h1M14 141h1M167 144h1M177 144h1M159 147h1M168 147h1M117 148h1M168 148h1M180 148h1M168 149h1M12 152h1M186 154h1M34 156h1M122 156h1M51 158h1M89 158h1M117 158h1M12 159h1M71 159h1M90 159h1M127 160h1M36 161h1M68 161h1M84 161h1M36 162h1M53 162h1M58 162h1M174 162h1M9 163h1M66 163h1M147 164h1M158 165h1M185 165h1M9 166h1M102 166h1M123 166h1M138 166h1M103 167h1M141 167h1M158 168h1M165 169h1M71 170h1M95 170h1M15 171h1M48 172h1M108 172h1M129 172h1M6 173h1M21 173h1M26 173h1M38 173h1M51 173h1M62 173h1M84 173h1M26 174h1M156 174h1M8 175h1M54 175h2M75 175h1M142 175h1M165 175h1M147 176h1M152 176h1M3 177h1M9 177h1M87 177h1M170 177h1M24 178h1M81 178h1M173 178h1M54 179h1M60 179h1M110 179h1M158 179h1M99 180h1M35 181h1M165 181h1M51 182h1M68 182h1M78 182h1M100 182h1M186 182h1M5 184h1M21 184h1M35 185h1M6 186h1M29 186h1M71 186h1M0 187h1M39 187h1M43 187h1M75 187h1M174 187h1M12 188h1M150 188h1M33 189h1M24 190h1M144 190h1M12 191h1M69 191h1M156 191h1" />
<path stroke="#fefeff" d="M29 5h1M40 80h1M167 106h1" />
<path stroke="#010000" d="M54 30h6M72 30h1M75 30h5M81 30h3M108 30h6M54 31h6M72 31h12M85 31h1M108 31h6M54 32h3M58 32h2M72 32h12M108 32h6M54 33h6M72 33h4M77 33h2M80 33h1M82 33h2M108 33h5M54 34h5M72 34h12M108 34h6M54 35h1M56 35h4M72 35h11M108 35h4M113 35h1M54 36h6M84 36h6M104 36h1M114 36h6M54 37h6M66 37h1M84 37h6M100 37h1M114 37h2M117 37h3M54 38h6M84 38h6M114 38h6M55 39h5M84 39h6M104 39h1M114 39h6M54 40h6M84 40h4M89 40h1M114 40h3M118 40h2M54 41h6M84 41h3M89 41h1M114 41h6M110 44h1M131 48h1M52 57h1M57 57h1M78 60h2M81 60h3M138 60h6M78 61h6M138 61h6M78 62h5M138 62h3M142 62h2M78 63h6M138 63h6M78 64h6M138 64h6M57 65h1M78 65h6M138 65h6M63 66h1M162 66h4M167 66h1M162 67h6M162 68h6M162 69h5M162 70h6M162 71h6M114 72h6M114 73h6M114 74h5M114 75h2M117 75h3M114 76h4M119 76h1M115 77h4M66 78h6M66 79h6M34 80h1M67 80h4M66 81h6M31 82h1M66 82h6M66 83h6M24 84h6M78 84h12M24 85h6M78 85h12M25 86h5M78 86h12M24 87h5M79 87h11M24 88h6M78 88h12M25 89h5M78 89h12M24 90h2M27 90h3M24 91h6M24 92h6M24 93h4M29 93h1M24 94h6M24 95h6M24 96h5M24 97h1M26 97h4M24 98h1M26 98h4M24 99h1M26 99h3M24 100h6M31 100h1M24 101h6M79 103h1M131 104h1M87 107h1M24 108h12M60 108h6M24 109h12M60 109h6M24 110h5M30 110h6M60 110h6M24 111h5M30 111h2M33 111h3M60 111h6M24 112h2M27 112h9M60 112h6M24 113h12M61 113h5M24 114h6M84 114h6M102 114h6M120 114h6M24 115h6M84 115h3M88 115h2M96 115h1M102 115h6M120 115h6M24 116h6M84 116h6M102 116h6M120 116h6M24 117h6M84 117h6M102 117h6M120 117h6M24 118h6M84 118h6M102 118h6M120 118h6M24 119h6M84 119h6M102 119h6M120 119h6M31 126h5M30 127h6M30 128h6M30 129h6M30 130h6M30 131h2M33 131h3M73 132h1M75 132h3M72 133h5M72 134h1M74 134h1M76 134h2M72 135h6M72 136h4M77 136h1M72 137h6M85 138h1M89 143h1M108 144h6M108 145h2M111 145h3M130 145h1M108 146h1M110 146h2M113 146h1M54 147h1M101 147h1M108 147h3M112 147h2M52 148h1M108 148h6M49 149h1M108 149h6M72 150h6M84 150h1M96 150h6M108 150h6M150 150h6M54 151h1M72 151h6M96 151h6M108 151h4M113 151h1M150 151h6M58 152h1M72 152h6M96 152h3M100 152h2M108 152h6M150 152h6M72 153h6M96 153h6M108 153h6M150 153h6M72 154h6M96 154h6M109 154h5M150 154h6M72 155h1M74 155h4M96 155h6M108 155h1M110 155h4M146 155h1M150 155h4M155 155h1" />
<path stroke="#010101" d="M60 30h6M60 31h6M60 32h6M87 32h1M60 33h2M63 33h3M60 34h6M60 35h6M87 35h1M72 36h6M110 36h1M72 37h1M74 37h4M72 38h6M72 39h6M72 40h6M72 41h6M78 42h5M102 42h6M78 43h6M102 43h6M78 44h6M102 44h6M127 44h1M78 45h6M102 45h6M78 46h6M102 46h6M78 47h6M102 47h6M132 48h3M136 48h2M132 49h2M135 49h3M52 50h1M105 50h1M133 50h5M132 51h6M132 52h6M132 53h6M78 54h6M65 55h1M78 55h1M80 55h4M78 56h6M78 57h6M64 58h1M78 58h6M78 59h6M18 66h6M72 66h6M159 66h1M168 66h6M18 67h6M72 67h6M168 67h6M18 68h6M72 68h6M116 68h1M168 68h6M18 69h6M72 69h6M153 69h1M168 69h6M18 70h6M72 70h6M168 70h6M19 71h5M73 71h5M153 71h1M168 71h6M30 72h6M30 73h2M33 73h3M30 74h3M34 74h2M30 75h6M30 76h6M30 77h6M78 78h6M78 79h6M78 80h6M78 81h6M78 82h3M82 82h2M165 82h1M78 83h6M151 84h5M162 84h6M150 85h6M162 85h4M167 85h1M150 86h6M162 86h6M150 87h6M162 87h1M164 87h4M150 88h6M162 88h6M150 89h6M162 89h6M66 90h6M76 90h1M66 91h4M71 91h1M67 92h5M66 93h6M75 93h1M66 94h6M66 95h3M70 95h2M147 96h1M71 99h1M83 99h1M33 101h1M24 102h6M66 102h6M24 103h4M29 103h1M66 103h1M68 103h4M24 104h6M66 104h1M68 104h4M24 105h6M66 105h6M74 105h1M24 106h6M66 106h6M24 107h1M26 107h4M66 107h6M84 108h6M84 109h6M84 110h6M84 111h6M84 112h6M84 113h5M48 114h6M48 115h6M83 115h1M48 116h6M71 116h1M93 116h1M48 117h6M79 117h1M48 118h6M95 118h1M48 119h6M55 120h5M132 120h6M54 121h6M65 121h1M132 121h6M54 122h6M132 122h6M54 123h6M132 123h6M54 124h2M57 124h3M132 124h2M135 124h3M54 125h6M132 125h6M29 126h1M72 126h6M73 127h2M76 127h2M72 128h6M72 129h6M72 130h6M72 131h6M48 132h6M48 133h6M48 134h4M53 134h1M59 134h1M49 135h5M48 136h6M48 137h6M36 138h1M38 138h10M36 139h12M36 140h12M36 141h12M36 142h12M36 143h12M147 145h1M135 147h1M138 150h6M138 151h6M138 152h6M138 153h6M138 154h6M66 155h1M138 155h6" />
<path stroke="#000100" d="M66 30h1M68 30h4M87 30h1M66 31h6M67 32h5M86 32h1M66 33h1M68 33h4M66 34h6M66 35h2M69 35h3M54 42h4M59 42h1M96 42h3M100 42h2M54 43h6M96 43h6M54 44h6M96 44h6M54 45h5M96 45h6M54 46h6M96 46h6M54 47h6M96 47h6M78 48h6M90 48h6M125 48h1M78 49h1M80 49h4M90 49h6M78 50h6M90 50h6M141 50h1M78 51h1M80 51h4M90 51h6M78 52h4M83 52h1M90 52h6M78 53h6M90 53h6M144 54h6M144 55h6M65 56h1M85 56h1M144 56h6M143 57h1M145 57h5M141 58h1M144 58h6M144 59h6M144 60h6M144 61h6M144 62h6M144 63h1M146 63h4M144 64h6M144 65h6M24 66h6M114 66h1M24 67h5M82 67h1M124 67h1M24 68h6M79 68h1M24 69h6M24 70h6M24 71h6M80 71h2M120 71h1M24 72h6M78 72h5M88 72h1M24 73h4M29 73h1M78 73h6M24 74h6M78 74h6M23 75h7M78 75h6M24 76h6M78 76h6M118 76h1M24 77h5M78 77h6M35 79h1M170 82h1M123 83h1M166 83h1M85 91h1M83 92h1M69 96h1M84 96h6M132 96h6M150 96h6M84 97h6M132 97h5M142 97h1M150 97h6M161 97h1M67 98h1M84 98h5M132 98h5M150 98h6M161 98h1M66 99h1M79 99h1M84 99h2M88 99h2M132 99h6M150 99h5M77 100h1M84 100h6M132 100h4M137 100h1M150 100h6M84 101h6M132 101h6M150 101h5M30 102h6M132 102h2M135 102h3M31 103h5M58 103h1M132 103h6M30 104h6M132 104h4M137 104h1M30 105h6M132 105h6M30 106h6M132 106h6M30 107h6M132 107h6M54 108h6M66 108h6M78 108h5M126 108h12M54 109h4M59 109h1M66 109h6M78 109h6M126 109h8M135 109h3M54 110h6M66 110h6M78 110h6M126 110h10M137 110h1M54 111h6M66 111h6M78 111h2M81 111h3M126 111h12M54 112h6M66 112h6M78 112h6M126 112h12M54 113h6M67 113h5M78 113h6M127 113h11M42 114h1M44 114h4M55 114h6M62 114h4M135 114h1M42 115h6M54 115h12M42 116h6M55 116h11M42 117h1M44 117h4M54 117h12M81 117h1M42 118h4M47 118h1M54 118h12M42 119h6M54 119h12M81 119h1M24 120h6M66 120h6M126 120h4M24 121h6M66 121h3M70 121h2M126 121h3M130 121h2M24 122h6M66 122h6M126 122h6M25 123h5M66 123h6M126 123h6M24 124h6M66 124h6M126 124h3M130 124h2M24 125h6M66 125h6M126 125h6M60 126h1M62 126h4M132 126h6M60 127h6M127 127h1M132 127h6M60 128h6M132 128h6M60 129h6M132 129h6M60 130h4M65 130h1M132 130h5M60 131h2M63 131h3M133 131h5M66 132h6M66 133h6M66 134h6M67 135h5M66 136h6M66 137h6M49 138h1M60 138h6M126 138h6M60 139h3M64 139h2M126 139h6M60 140h3M64 140h2M126 140h3M130 140h2M59 141h7M126 141h5M60 142h6M126 142h6M48 143h1M60 143h6M126 143h6M78 144h6M78 145h6M97 145h1M78 146h6M78 147h6M100 147h1M78 148h6M126 148h1M78 149h6M100 149h1M137 149h1M50 155h1" />
<path stroke="#000101" d="M67 30h1M66 32h1M106 33h1M78 36h6M78 37h6M78 38h6M78 39h6M78 40h6M78 41h6M48 42h6M99 42h1M120 42h6M48 43h6M120 43h6M48 44h6M120 44h6M48 45h6M120 45h6M48 46h6M120 46h6M48 47h6M120 47h6M102 48h1M104 48h4M114 48h6M135 48h1M138 48h6M85 49h1M102 49h6M114 49h6M134 49h1M138 49h6M88 50h1M102 50h3M106 50h2M114 50h6M138 50h1M140 50h1M142 50h2M88 51h1M102 51h6M114 51h6M138 51h6M100 52h1M102 52h6M114 52h6M138 52h6M87 53h1M102 53h6M114 53h6M138 53h1M140 53h4M60 54h6M138 54h6M60 55h5M138 55h6M60 56h5M138 56h6M60 57h6M138 57h5M60 58h4M65 58h1M138 58h3M142 58h2M60 59h1M62 59h2M65 59h1M138 59h6M84 60h6M84 61h6M64 62h1M84 62h5M84 63h6M84 64h1M86 64h4M84 65h1M86 65h4M115 66h5M144 66h6M29 67h1M114 67h6M142 67h1M144 67h6M68 68h1M114 68h2M117 68h3M144 68h6M114 69h6M144 69h6M114 70h6M144 70h6M114 71h6M144 71h1M146 71h4M83 72h1M32 73h1M33 74h1M25 78h1M120 78h6M162 78h6M120 79h6M162 79h6M120 80h6M162 80h6M73 81h1M120 81h6M162 81h6M120 82h6M162 82h3M166 82h2M75 83h1M120 83h3M124 83h2M162 83h4M167 83h1M72 90h4M77 90h7M72 91h12M72 92h11M72 93h3M76 93h8M151 93h1M72 94h12M72 95h12M66 96h3M70 96h1M72 96h9M82 96h2M66 97h4M71 97h13M66 98h1M68 98h16M89 98h1M67 99h4M72 99h7M80 99h3M87 99h1M66 100h11M78 100h6M66 101h7M74 101h10M72 102h6M134 102h1M72 103h6M72 104h6M136 104h1M72 105h2M75 105h3M72 106h6M72 107h6M83 108h1M74 110h1M136 110h1M126 113h1M30 114h6M43 114h1M66 114h6M78 114h6M90 114h6M126 114h9M136 114h2M30 115h6M66 115h6M78 115h5M90 115h6M126 115h12M30 116h6M66 116h5M78 116h3M82 116h2M90 116h3M94 116h2M126 116h7M134 116h4M30 117h6M66 117h6M78 117h1M80 117h1M82 117h2M90 117h1M92 117h4M126 117h12M30 118h6M66 118h6M78 118h1M80 118h4M90 118h5M126 118h12M30 119h6M66 119h6M78 119h3M82 119h2M90 119h6M126 119h12M30 120h6M131 120h1M31 121h5M30 122h6M30 123h6M30 124h6M56 124h1M129 124h1M30 125h6M43 125h1M24 126h1M26 126h3M54 126h6M24 127h6M54 127h6M24 128h6M54 128h6M24 129h6M54 129h6M24 130h5M46 130h1M54 130h6M24 131h6M54 131h6M132 131h1M30 132h6M54 132h6M30 133h6M54 133h6M30 134h6M54 134h5M30 135h6M54 135h6M30 136h6M54 136h6M30 137h6M54 137h6M54 138h6M66 138h6M78 138h2M81 138h3M132 138h6M54 139h6M66 139h6M78 139h6M132 139h6M54 140h6M63 140h1M66 140h6M78 140h4M83 140h1M132 140h6M54 141h5M66 141h6M76 141h1M78 141h6M132 141h6M54 142h6M66 142h6M78 142h6M132 142h6M54 143h6M66 143h1M68 143h2M71 143h1M78 143h6M132 143h6M66 144h6M132 144h6M66 145h6M132 145h6M66 146h6M132 146h6M66 147h4M71 147h1M132 147h3M136 147h2M66 148h6M132 148h6M142 148h1M66 149h6M132 149h5M66 150h6M66 151h6M66 152h6M66 153h6M66 154h6M67 155h5" />
<path stroke="#010100" d="M73 30h1M84 30h3M88 30h2M84 31h1M86 31h4M84 32h2M88 32h2M62 33h1M76 33h1M79 33h1M84 33h6M84 34h6M68 35h1M84 35h3M88 35h2M112 35h1M108 36h2M111 36h3M108 37h6M108 38h6M108 39h6M88 40h1M108 40h6M88 41h1M108 41h6M83 42h1M59 45h1M108 48h6M120 48h5M108 49h6M120 49h6M108 50h6M120 50h6M132 50h1M108 51h6M120 51h6M108 52h6M120 52h6M108 53h6M120 53h6M48 54h6M48 55h6M48 56h6M48 57h4M53 57h1M144 57h1M48 58h6M48 59h6M145 63h1M120 66h6M150 66h9M160 66h2M120 67h4M125 67h1M150 67h12M120 68h6M150 68h12M120 69h6M150 69h3M154 69h8M120 70h6M150 70h12M72 71h1M121 71h5M150 71h3M154 71h8M28 73h1M119 74h1M29 77h1M30 78h6M30 79h5M30 80h4M35 80h1M30 81h6M30 82h1M32 82h4M81 82h1M30 83h6M150 84h1M26 90h1M66 92h1M28 93h1M30 96h6M126 96h6M156 96h6M25 97h1M30 97h6M126 97h6M137 97h1M156 97h5M30 98h6M126 98h6M137 98h1M156 98h5M25 99h1M29 99h7M86 99h1M126 99h6M156 99h6M30 100h1M32 100h4M126 100h6M156 100h6M30 101h3M34 101h2M126 101h6M156 101h6M78 102h6M28 103h1M30 103h1M78 103h1M80 103h4M78 104h6M78 105h6M78 106h6M78 107h6M48 108h6M48 109h6M58 109h1M48 110h6M48 111h6M80 111h1M48 112h6M48 113h6M89 113h1M54 114h1M54 116h1M54 120h1M69 121h1M129 121h1M24 123h1M134 124h1M30 126h1M72 127h1M137 130h1M62 131h1M52 134h1M73 134h1M48 135h1M66 135h1M76 136h1M48 138h1M50 138h4M84 138h1M86 138h4M48 139h6M63 139h1M84 139h6M48 140h6M84 140h6M129 140h1M48 141h6M84 141h6M131 141h1M48 142h6M84 142h6M49 143h5M84 143h5M48 144h6M72 144h6M126 144h6M144 144h6M48 145h6M72 145h6M126 145h4M131 145h1M144 145h3M148 145h2M48 146h6M72 146h6M109 146h1M112 146h1M126 146h6M144 146h6M48 147h6M72 147h6M126 147h6M144 147h6M48 148h4M53 148h1M72 148h6M127 148h5M144 148h6M48 149h1M50 149h4M72 149h6M126 149h6M144 149h6M48 150h12M90 150h6M144 150h6M48 151h6M55 151h5M90 151h6M112 151h1M144 151h6M48 152h10M59 152h1M90 152h6M144 152h6M48 153h12M90 153h6M144 153h6M48 154h12M90 154h6M108 154h1M144 154h6M48 155h2M51 155h9M90 155h6M144 155h2M147 155h3M154 155h1" />
<path stroke="#010001" d="M74 30h1M80 30h1M57 32h1M81 33h1M119 33h1M83 35h1M66 36h6M67 37h5M73 37h1M66 38h6M66 39h6M66 40h6M117 40h1M66 41h6M87 41h1M90 42h6M108 42h12M126 42h6M90 43h6M108 43h12M126 43h6M90 44h2M93 44h3M108 44h2M111 44h9M126 44h1M128 44h4M90 45h6M108 45h12M126 45h6M90 46h6M108 46h12M126 46h6M90 47h6M108 47h6M115 47h5M126 47h6M48 48h6M48 49h6M48 50h4M53 50h1M48 51h2M51 51h3M48 52h6M48 53h6M54 54h6M54 55h6M79 55h1M54 56h6M54 57h3M58 57h2M54 58h6M54 59h6M54 60h6M54 61h6M54 62h6M83 62h1M141 62h1M54 63h6M54 64h6M54 65h3M58 65h3M60 66h3M64 66h2M60 67h6M60 68h6M141 68h1M60 69h6M60 70h6M18 71h1M60 71h6M123 73h1M21 75h1M116 75h1M162 76h1M66 80h1M72 84h6M72 85h6M166 85h1M24 86h1M72 86h6M72 87h7M163 87h1M73 88h5M72 89h6M153 90h1M70 91h1M69 95h1M54 96h6M144 96h3M148 96h2M54 97h6M144 97h2M147 97h3M55 98h5M144 98h6M54 99h6M144 99h6M54 100h6M144 100h6M54 101h6M144 101h6M84 102h6M67 103h1M85 103h5M67 104h1M84 104h6M84 105h6M84 106h3M88 106h2M25 107h1M84 107h3M88 107h2M29 110h1M60 113h1M87 115h1M42 120h12M60 120h6M74 120h1M42 121h12M60 121h5M42 122h12M60 122h6M42 123h12M60 123h6M42 124h12M60 124h5M42 125h1M44 125h10M60 125h6M75 127h1M53 128h1M32 131h1M36 132h6M72 132h1M78 132h6M36 133h6M78 133h6M36 134h6M78 134h6M36 135h6M78 135h6M36 136h6M78 136h6M36 137h6M78 137h6M37 138h1M60 144h6M102 144h6M60 145h6M102 145h6M60 146h5M102 146h6M60 147h6M102 147h6M60 148h6M102 148h6M60 149h6M102 149h6M78 150h6M85 150h5M78 151h12M78 152h12M78 153h3M82 153h8M78 154h12M78 155h12M102 155h1" />
<path stroke="#000000" d="M96 30h6M96 31h6M96 32h6M67 33h1M96 33h6M113 33h1M59 34h1M96 34h6M117 34h1M55 35h1M96 35h6M60 36h6M96 36h8M106 36h2M60 37h6M96 37h4M101 37h7M116 37h1M60 38h6M96 38h12M54 39h1M60 39h6M96 39h8M105 39h3M60 40h6M96 40h12M60 41h6M96 41h12M58 42h1M98 48h1M126 48h5M79 49h1M126 49h6M126 50h6M79 51h1M126 51h6M82 52h1M126 52h6M89 53h1M126 53h6M84 54h6M84 55h6M84 56h1M86 56h4M84 57h6M84 58h6M84 59h6M80 60h1M63 63h1M54 66h6M78 66h12M166 66h1M54 67h6M78 67h4M83 67h7M54 68h6M80 68h10M54 69h5M78 69h9M88 69h2M167 69h1M54 70h6M78 70h12M54 71h6M78 71h2M82 71h8M66 72h12M84 72h4M89 72h1M66 73h12M84 73h6M66 74h12M84 74h6M66 75h12M84 75h6M170 75h1M66 76h12M84 76h6M66 77h12M84 77h6M114 77h1M119 77h1M73 78h1M84 78h6M168 78h6M84 79h6M168 79h6M71 80h1M84 80h6M168 80h6M84 81h6M168 81h6M84 82h6M119 82h1M168 82h2M171 82h3M84 83h6M168 83h6M156 84h1M161 85h1M29 87h1M158 87h1M24 89h1M66 89h1M84 90h6M84 91h1M86 91h4M84 92h6M84 93h6M84 94h6M84 95h6M29 96h1M138 96h2M141 96h3M138 97h4M143 97h1M25 98h1M138 98h6M138 99h6M155 99h1M136 100h1M138 100h6M138 101h6M155 101h1M54 102h12M126 102h6M54 103h4M59 103h4M64 103h2M126 103h6M54 104h12M126 104h5M54 105h12M126 105h6M54 106h12M126 106h6M54 107h12M126 107h6M134 109h1M29 111h1M32 111h1M42 111h1M26 112h1M66 113h1M61 114h1M72 114h6M96 114h6M72 115h6M97 115h5M72 116h6M96 116h6M43 117h1M72 117h6M96 117h6M46 118h1M72 118h6M96 118h6M72 119h6M96 119h6M130 120h1M61 126h1M126 126h6M126 127h1M128 127h4M126 128h6M126 129h6M42 130h1M51 130h1M64 130h1M126 130h6M126 131h3M130 131h2M42 132h6M60 132h6M74 132h1M126 132h6M42 133h6M60 133h6M77 133h1M126 133h6M42 134h6M60 134h6M75 134h1M126 134h6M42 135h6M60 135h6M126 135h6M42 136h6M60 136h6M126 136h6M42 137h6M60 137h6M126 137h6M55 144h5M90 144h12M54 145h6M90 145h7M98 145h4M110 145h1M54 146h6M84 146h1M90 146h12M55 147h5M90 147h10M111 147h1M54 148h6M90 148h12M138 148h1M54 149h6M90 149h10M101 149h1M60 150h6M126 150h12M60 151h6M126 151h12M60 152h6M99 152h1M126 152h12M60 153h6M126 153h12M60 154h6M126 154h12M60 155h6M73 155h1M109 155h1M126 155h12" />
<path stroke="#000001" d="M102 30h6M114 30h6M102 31h6M114 31h6M102 32h6M114 32h6M102 33h4M107 33h1M114 33h5M102 34h6M114 34h3M118 34h2M102 35h6M114 35h6M105 36h1M84 42h6M84 43h6M84 44h6M92 44h1M84 45h6M84 46h6M84 47h6M114 47h1M84 48h6M96 48h2M99 48h3M103 48h1M84 49h1M86 49h4M96 49h6M84 50h4M89 50h1M96 50h6M139 50h1M50 51h1M84 51h4M89 51h1M96 51h6M84 52h6M96 52h4M101 52h1M84 53h3M88 53h1M96 53h6M139 53h1M61 59h1M64 59h1M60 60h6M60 61h6M60 62h4M65 62h1M89 62h1M60 63h3M64 63h2M60 64h6M85 64h1M61 65h5M85 65h1M66 66h6M138 66h6M66 67h6M138 67h4M143 67h1M66 68h2M69 68h3M78 68h1M138 68h3M142 68h2M59 69h1M66 69h6M87 69h1M138 69h6M66 70h6M138 70h6M66 71h6M138 71h6M145 71h1M18 72h6M120 72h6M162 72h12M18 73h6M120 73h3M124 73h2M162 73h12M18 74h6M120 74h6M162 74h12M18 75h3M22 75h1M120 75h6M162 75h8M171 75h3M18 76h6M120 76h6M163 76h11M18 77h6M120 77h6M162 77h12M24 78h1M26 78h4M72 78h1M74 78h4M114 78h6M24 79h6M72 79h6M114 79h6M24 80h6M72 80h6M114 80h6M24 81h6M72 81h1M74 81h4M114 81h6M24 82h6M72 82h6M114 82h5M24 83h6M72 83h3M76 83h2M114 83h6M30 84h6M66 84h6M157 84h5M30 85h6M66 85h6M156 85h5M30 86h6M66 86h6M156 86h6M30 87h6M66 87h6M156 87h2M159 87h3M30 88h6M66 88h7M156 88h6M30 89h6M67 89h5M156 89h6M30 90h6M150 90h3M154 90h8M30 91h6M150 91h12M30 92h6M150 92h12M30 93h6M150 93h1M152 93h10M30 94h6M150 94h12M30 95h6M150 95h12M60 96h6M71 96h1M81 96h1M140 96h1M60 97h6M70 97h1M146 97h1M54 98h1M60 98h6M60 99h6M60 100h6M60 101h6M73 101h1M63 103h1M84 103h1M87 106h1M42 108h6M72 108h6M42 109h6M72 109h6M42 110h6M72 110h2M75 110h3M43 111h5M72 111h6M42 112h6M72 112h6M42 113h6M72 113h6M81 116h1M133 116h1M91 117h1M79 118h1M72 120h2M75 120h3M30 121h1M72 121h6M72 122h6M72 123h6M65 124h1M72 124h6M72 125h6M25 126h1M42 126h12M66 126h6M42 127h12M66 127h6M42 128h11M66 128h6M42 129h12M66 129h6M29 130h1M43 130h3M47 130h4M52 130h2M66 130h6M42 131h12M66 131h6M129 131h1M84 132h6M132 132h6M84 133h6M132 133h6M84 134h6M132 134h6M84 135h6M132 135h6M84 136h6M132 136h6M84 137h6M132 137h6M72 138h6M80 138h1M72 139h6M72 140h6M82 140h1M72 141h4M77 141h1M72 142h6M67 143h1M70 143h1M72 143h6M54 144h1M84 144h6M138 144h6M84 145h6M138 145h6M65 146h1M85 146h5M138 146h6M70 147h1M84 147h6M138 147h6M84 148h6M139 148h3M143 148h1M84 149h6M138 149h6M102 150h6M102 151h6M102 152h6M81 153h1M102 153h6M102 154h6M103 155h5" />
<path stroke="#fefffe" d="M51 32h1M177 101h1M177 137h1M11 190h1" />
<path stroke="#818080" d="M60 42h6M60 43h6M60 44h6M60 45h6M60 46h6M60 47h6M156 78h6M156 79h4M161 79h1M156 80h6M156 81h6M156 82h6M156 83h6M101 101h1M104 104h1M107 105h1M98 109h1M107 111h1M90 120h6M90 121h6M83 122h1M90 122h6M90 123h6M90 124h6M91 125h5M27 137h1M30 138h6M30 139h6M31 140h5M30 141h6M30 142h2M33 142h3M30 143h6M42 144h6M42 145h6M42 146h6M42 147h6M42 148h6M42 149h6M36 151h1M37 152h1M119 152h1" />
<path stroke="#808180" d="M54 48h6M54 49h6M54 50h6M54 51h6M54 52h6M54 53h6M90 90h6M90 91h6M90 92h5M90 93h6M90 94h6M90 95h6M100 98h1M96 102h6M114 102h6M96 103h6M114 103h6M96 104h6M114 104h6M96 105h6M114 105h6M96 106h3M100 106h2M114 106h6M96 107h6M114 107h1M116 107h4M114 108h6M114 109h6M114 110h1M116 110h4M114 111h6M114 112h6M114 113h6M36 144h6M36 145h1M38 145h4M36 146h6M36 147h6M36 148h1M38 148h4M36 149h6M42 150h6M42 151h6M42 152h1M44 152h4M42 153h6M42 154h6M42 155h6" />
<path stroke="#818181" d="M60 48h6M60 49h6M60 50h6M60 51h6M60 52h6M60 53h6M156 72h6M156 73h6M156 74h6M156 75h6M156 76h6M156 77h6M144 84h1M146 84h4M144 85h3M148 85h2M144 86h6M144 87h6M144 88h6M144 89h6M142 91h1M91 101h1M108 106h1M108 108h6M108 109h1M110 109h4M90 110h1M108 110h6M108 111h5M108 112h6M121 112h1M91 113h1M110 113h4M78 126h6M78 127h6M78 128h6M78 129h6M78 130h6M78 131h6M40 151h1" />
<path stroke="#818081" d="M108 72h6M108 73h6M108 74h2M111 74h3M108 75h6M108 76h6M108 77h6M145 84h1M96 90h6M96 91h6M96 92h6M96 93h6M96 94h6M96 95h6M90 96h6M90 97h6M90 98h6M90 99h6M90 100h6M90 101h1M92 101h4M102 102h6M102 103h6M102 104h2M105 104h3M102 105h5M102 106h6M102 107h6M120 108h6M109 109h1M120 109h6M120 110h6M120 111h6M120 112h1M122 112h3M109 113h1M120 113h6M78 120h12M78 121h12M78 122h5M84 122h6M78 123h12M78 124h12M78 125h13M86 129h1M32 142h1M36 150h6M37 151h3M41 151h1M36 152h1M38 152h4M122 152h1M36 153h6M36 154h6M36 155h6" />
<path stroke="#808081" d="M110 74h1M108 78h6M108 79h6M108 80h6M108 81h6M108 82h6M108 83h6M90 102h6M90 103h6M90 104h6M90 105h6M90 106h6M90 107h6M102 108h6M102 109h6M102 110h6M101 111h6M91 112h1M102 112h6M125 112h1M102 113h6M84 126h6M84 127h6M84 128h6M84 129h2M87 129h3M86 130h4M84 131h6M124 149h1M120 150h6M120 151h6M120 152h2M123 152h3M120 153h6M120 154h6M120 155h4M125 155h1" />
<path stroke="#818180" d="M150 78h6M150 79h6M150 80h6M150 81h6M150 82h6M150 83h6M95 92h1M108 102h6M120 102h6M108 103h6M120 103h6M108 104h6M120 104h6M108 105h6M120 105h6M109 106h5M120 106h6M108 107h6M120 107h6M113 111h1M108 113h1M90 126h6M90 127h6M90 128h6M90 129h6M90 130h6M90 131h6" />
<path stroke="#808080" d="M160 79h1M144 90h6M144 91h6M144 92h6M144 93h6M144 94h6M144 95h6M96 96h6M96 97h6M96 98h4M101 98h1M96 99h6M96 100h6M96 101h5M99 106h1M115 107h1M96 108h6M96 109h2M99 109h3M96 110h6M115 110h1M96 111h5M96 112h6M96 113h6M84 130h1M24 132h6M24 133h6M24 134h6M24 135h6M24 136h6M24 137h3M28 137h2M30 140h1M37 145h1M37 148h1M114 150h6M114 151h6M43 152h1M114 152h5M114 153h6M114 154h6M114 155h6M124 155h1" />
<path stroke="#808181" d="M147 85h1M138 90h6M138 91h4M143 91h1M138 92h6M138 93h6M138 94h6M138 95h6M90 108h6M90 109h6M91 110h5M90 111h6M90 112h1M92 112h4M90 113h1M92 113h4M85 130h1M120 144h6M120 145h6M120 146h6M120 147h6M120 148h6M120 149h4M125 149h1" />
<path stroke="#fffefe" d="M40 125h1" />
</svg>