<svg xmlns="http://www.w3.org/2000/svg" viewBox="0 -0.5 256 384" shape-rendering="crispEdges">
    <path stroke="#fff" d="M0 0h512M0 1h512M0 2h250m1 0h261M0 3h512M0 4h512M0 5h13m1 0h86m1 0h115m1 0h209m1 0h85M0 6h32m1 0h248m1 0h230M0 7h167m1 0h344M0 8h214m1 0h150m1 0h146M0 9h512M0 10h97m1 0h212m1 0h201M0 11h512M0 12h65m1 0h111m1 0h11m1 0h322M0 13h357m1 0h154M0 14h131m1 0h131m1 0h71m1 0h114m1 0h61M0 15h82m1 0h429M0 16h512M0 17h512M0 18h512M0 19h478m1 0h33M0 20h401m1 0h110M0 21h183m1 0h28m1 0h299M0 22h512M0 23h86m1 0h148m1 0h276M0 24h375m1 0h136M0 25h12m1 0h499M0 26h49m1 0h462M0 27h512M0 28h263m1 0h248M0 29h180m1 0h1m1 0h173m1 0h155M0 30h470m1 0h41M0 31h43m1 0h166m1 0h135m1 0h165M0 32h512M0 33h416m1 0h95M0 34h437m1 0h74M0 35h220m1 0h165m1 0h125M0 36h512M0 37h306m1 0h205M0 38h5m1 0h119m1 0h386M0 39h55m1 0h427m1 0h28M0 40h93m1 0h10m1 0h407M0 41h512M0 42h366m1 0h145M0 43h52m1 0h459M0 44h512M0 45h58m1 0h453M0 46h471m1 0h40M0 47h331m1 0h180M0 48h512M0 49h171m1 0h66m1 0h6m1 0h224m1 0h41M0 50h118m1 0h65m1 0h42m1 0h284M0 51h512M0 52h200m1 0h311M0 53h85m1 0h426M0 54h512M0 55h330m1 0h8m1 0h172M0 56h148m1 0h320m1 0h42M0 57h15m1 0h496M0 58h157m1 0h354M0 59h267m1 0h244M0 60h45m1 0h466M0 61h118m1 0h59m1 0h73m1 0h198m1 0h60M0 62h86m1 0h425M0 63h216m1 0h63m1 0h99m1 0h131M0 64h166m1 0h130m1 0h182m1 0h31M0 65h412m1 0h64m1 0h34M0 66h512M0 67h77m1 0h243m1 0h190M0 68h512M0 69h512M0 70h85m1 0h426M0 71h351m1 0h160M0 72h122m1 0h386m1 0h2M0 73h437m1 0h74M0 74h512M0 75h276m1 0h235M0 76h245m1 0h36m1 0h229M0 77h428m1 0h83M0 78h344m1 0h167M0 79h438m1 0h4m1 0h10m1 0h57M0 80h41m1 0h167m1 0h302M0 81h164m1 0h347M0 82h512M0 83h307m1 0h112m1 0h91M0 84h234m1 0h164m1 0h112M0 85h370m1 0h141M0 86h512M0 87h512M0 88h512M0 89h232m1 0h67m1 0h186m1 0h24M0 90h449m1 0h62M0 91h189m1 0h322M0 92h512M0 93h512M0 94h358m1 0h153M0 95h151m1 0h360M0 96h512M0 97h166m1 0h345M0 98h49m1 0h116m1 0h345M0 99h161m1 0h216m1 0h4m1 0h84m1 0h22m1 0h20M0 100h267m1 0h244M0 101h282m1 0h229M0 102h512M0 103h102m1 0h409M0 104h37m1 0h64m1 0h297m1 0h111M0 105h275m1 0h102m1 0h133M0 106h5m1 0h506M0 107h512M0 108h160m1 0h78m1 0h47m1 0h76m1 0h147M0 109h247m1 0h49m1 0h214M0 110h42m1 0h230m1 0h51m1 0h186M0 111h166m1 0h345M0 112h342m1 0h169M0 113h512M0 114h76m1 0h435M0 115h111m1 0h400M0 116h137m1 0h374M0 117h122m1 0h96m1 0h292M0 118h67m1 0h252m1 0h191M0 119h19m1 0h2m1 0h56m1 0h432M0 120h231m1 0h280M0 121h512M0 122h170m1 0h97m1 0h64m1 0h74m1 0h103M0 123h239m1 0h150m1 0h121M0 124h30m1 0h481M0 125h157m1 0h298m1 0h55M0 126h159m1 0h352M0 127h49m1 0h462M0 128h348m1 0h163M0 129h45m1 0h93m1 0h95m1 0h213m2 0h14m1 0h46M0 130h45m1 0h232m1 0h156m1 0h76M0 131h313m1 0h33m1 0h76m1 0h19m1 0h12m1 0h54M0 132h90m1 0h75m1 0h22m1 0h118m1 0h15m1 0h187M0 133h45m1 0h204m1 0h107m1 0h13m1 0h58m1 0h80M0 134h131m1 0h186m1 0h193M0 135h39m1 0h351m1 0h44m1 0h6m1 0h15m1 0h52M0 136h92m1 0h43m1 0h84m1 0h29m1 0h68m1 0h11m1 0h179M0 137h105m1 0h30m1 0h15m1 0h148m1 0h84m1 0h117m1 0h7M0 138h90m1 0h113m1 0h28m1 0h219m1 0h47m1 0h10M0 139h275m1 0h47m1 0h27m1 0h160M0 140h44m1 0h164m1 0h135m1 0h144m1 0h21M0 141h124m1 0h224m1 0h18m1 0h72m1 0h45m1 0h24M0 142h78m1 0h347m1 0h85M0 143h119m1 0h58m1 0h12m1 0h103m1 0h183m1 0h32M0 144h118m1 0h65m1 0h22m1 0h304M0 145h88m1 0h12m1 0h333m1 0h43m1 0h32M0 146h127m1 0h242m1 0h88m1 0h52M0 147h129m1 0h382M0 148h25m1 0h146m1 0h54m1 0h217m1 0h14m1 0h51M0 149h336m1 0h163m1 0h7m1 0h3M0 150h203m1 0h280m1 0h2m1 0h24M0 151h512M0 152h20m1 0h122m1 0h2m1 0h122m1 0h242M0 153h48m1 0h129m1 0h116m1 0h172m1 0h43M0 154h9m1 0h374m1 0h127M0 155h37m1 0h306m1 0h42m1 0h61m1 0h12m1 0h49M0 156h157m1 0h59m1 0h2m1 0h291M0 157h176m1 0h156m1 0h7m1 0h168m1 0h1M0 158h88m1 0h22m1 0h127m1 0h100m1 0h21m1 0h149M0 159h30m1 0h82m1 0h189m1 0h49m1 0h158M0 160h237m1 0h2m1 0h128m1 0h121m1 0h20M0 161h70m1 0h329m1 0h57m1 0h53M0 162h126m1 0h50m1 0h150m1 0h59m1 0h60m1 0h39m1 0h22M0 163h51m1 0h228m1 0h147m1 0h16m1 0h63m1 0h2M0 164h245m1 0h153m1 0h11m1 0h41m1 0h58M0 165h56m1 0h167m1 0h181m1 0h69m1 0h35M0 166h2m1 0h64m1 0h15m1 0h261m1 0h166M0 167h103m1 0h94m1 0h130m1 0h89m1 0h24m1 0h67M0 168h152m1 0h11m1 0h56m1 0h79m1 0h37m1 0h98m1 0h73M0 169h286m1 0h92m1 0h132M0 170h125m1 0h174m1 0h23m1 0h35m1 0h151M0 171h150m1 0h9m2 0h22m1 0h91m1 0h54m1 0h138m1 0h41M0 172h67m1 0h48m1 0h15m1 0h1m1 0h73m1 0h39m1 0h1m1 0h86m1 0h174M0 173h75m1 0h173m1 0h10m1 0h46m1 0h93m1 0h61m1 0h48M0 174h27m1 0h51m1 0h301m1 0h46m1 0h83M0 175h74m1 0h260m1 0h86m1 0h6m1 0h82M0 176h155m1 0h7m1 0h104m1 0h10m1 0h7m1 0h169m1 0h54M0 177h437m1 0h74M0 178h15m1 0h81m1 0h22m1 0h235m1 0h155M0 179h79m1 0h382m1 0h49M0 180h18m1 0h286m1 0h206M0 181h256m1 0h255M0 182h129m1 0h132m1 0h110m1 0h138M0 183h32m1 0h60m1 0h169m1 0h11m1 0h43m1 0h4m1 0h87m1 0h99M0 184h315m1 0h51m1 0h21m1 0h51m1 0h70M0 185h81m1 0h40m1 0h197m1 0h59m1 0h131M0 186h50m1 0h50m1 0h410M0 187h40m1 0h123m1 0h5m1 0h7m1 0h116m1 0h54m1 0h64m1 0h96M0 188h478m1 0h33M0 189h89m1 0h62m1 0h45m1 0h14m2 0h297M0 190h345m1 0h48m1 0h102m1 0h14M0 191h94m1 0h248m1 0h168M0 192h474m1 0h21m1 0h8m1 0h6M0 193h208m1 0h108m1 0h59m1 0h92m1 0h41M0 194h17m1 0h336m1 0h89m1 0h50m1 0h16M0 195h100m1 0h411M0 196h132m1 0h114m1 0h5m1 0h46m1 0h52m1 0h1m1 0h156M0 197h98m1 0h15m1 0h79m1 0h247m1 0h69M0 198h42m1 0h4m1 0h70m1 0h66m1 0h326M0 199h173m1 0h61m1 0h95m1 0h12m1 0h20m1 0h12m1 0h67m1 0h27m1 0h37M0 200h62m1 0h58m1 0h390M0 201h80m1 0h37m1 0h84m1 0h107m1 0h21m1 0h99m1 0h68m1 0h9M0 202h185m1 0h99m1 0h226M0 203h57m1 0h34m1 0h107m1 0h99m1 0h165m1 0h45M0 204h5m1 0h147m1 0h41m1 0h159m1 0h91m1 0h38m1 0h25M0 205h47m1 0h57m1 0h364m1 0h17m1 0h23M0 206h75m1 0h154m1 0h165m1 0h115M0 207h99m1 0h10m1 0h266m1 0h127m1 0h6M0 208h144m96 0h16m64 0h68m1 0h39m1 0h83M0 209h144m96 0h16m64 0h45m1 0h18m1 0h113m1 0h2m1 0h10M0 210h144m96 0h16m64 0h133m1 0h58M0 211h28m1 0h6m1 0h108m96 0h16m64 0h18m1 0h149m1 0h20m1 0h2M0 212h100m1 0h43m96 0h10m1 0h5m64 0h100m1 0h91M0 213h99m1 0h37m1 0h6m96 0h16m64 0h192M0 214h81m1 0h9m1 0h45m1 0h6m96 0h16m64 0h6m1 0h125m1 0h57m1 0h1M0 215h1m1 0h38m2 0h102m96 0h16m64 0h137m1 0h54M0 216h144m96 0h16m64 0h20m1 0h59m1 0h95m1 0h15M0 217h144m96 0h16m64 0h192M0 218h144m96 0h16m64 0h142m1 0h32m1 0h16M0 219h40m1 0h103m96 0h16m64 0h21m1 0h170M0 220h131m1 0h12m96 0h16m64 0h35m1 0h123m1 0h32M0 221h144m96 0h11m1 0h4m64 0h39m1 0h101m1 0h50M0 222h98m1 0h45m96 0h16m64 0h192M0 223h4m1 0h2m1 0h124m1 0h11m96 0h16m64 0h192M0 224h144m96 0h16m64 0h27m1 0h97m1 0h66M0 225h144m96 0h16m64 0h83m1 0h108M0 226h144m96 0h16m64 0h22m1 0h36m1 0h29m1 0h102M0 227h33m1 0h110m96 0h16m64 0h192M0 228h88m1 0h55m96 0h4m1 0h11m64 0h163m1 0h28M0 229h75m1 0h68m96 0h16m64 0h192M0 230h144m96 0h1m1 0h14m64 0h185m1 0h6M0 231h66m1 0h77m96 0h16m64 0h152m1 0h39M0 232h144m96 0h16m64 0h192M0 233h7m1 0h136m96 0h16m64 0h10m1 0h181M0 234h143m97 0h8m1 0h7m64 0h52m1 0h17m1 0h48m1 0h72M0 235h1m1 0h60m1 0h21m1 0h40m1 0h18m96 0h16m64 0h192M0 236h144m96 0h16m64 0h140m1 0h37m1 0h13M0 237h76m1 0h52m1 0h8m1 0h5m96 0h16m64 0h192M0 238h56m1 0h87m96 0h16m64 0h122m1 0h42m1 0h26M0 239h14m1 0h57m1 0h71m96 0h16m64 0h80m1 0h97m1 0h13M0 240h43m1 0h24m1 0h59m48 0h32m144 0h40m1 0h72m1 0h46M0 241h128m48 0h2m1 0h29m144 0h33m1 0h126M0 242h45m1 0h82m48 0h32m144 0h160M0 243h128m48 0h32m144 0h20m1 0h17m1 0h121M0 244h100m1 0h27m48 0h11m1 0h20m144 0h36m1 0h8m1 0h114M0 245h25m1 0h69m1 0h2m1 0h29m48 0h2m1 0h29m144 0h160M0 246h81m1 0h14m1 0h30m49 0h32m144 0h12m1 0h51m1 0h95M0 247h93m1 0h34m48 0h32m144 0h52m1 0h13m1 0h93M0 248h128m48 0h32m144 0h73m1 0h38m1 0h28m1 0h18M0 249h128m48 0h1m1 0h30m144 0h92m1 0h67M0 250h93m1 0h34m48 0h2m1 0h29m144 0h45m1 0h28m1 0h85M0 251h128m48 0h32m144 0h48m1 0h19m1 0h27m1 0h63M0 252h11m1 0h116m48 0h32m144 0h160M0 253h98m1 0h29m48 0h2m1 0h29m144 0h36m1 0h51m1 0h15m1 0h24m1 0h1m1 0h28M0 254h128m48 0h32m144 0h72m1 0h71m1 0h15M0 255h126m1 0h1m48 0h32m144 0h89m1 0h19m1 0h50M0 256h87m1 0h40m48 0h32m176 0h79m1 0h23m1 0h24M0 257h125m1 0h2m48 0h32m176 0h97m1 0h16m1 0h13M0 258h128m48 0h32m176 0h128M0 259h128m48 0h32m176 0h43m1 0h1m1 0h82M0 260h29m1 0h98m48 0h6m1 0h25m177 0h127M0 261h128m48 0h21m1 0h10m176 0h73m1 0h54M0 262h35m2 0h91m48 0h25m1 0h6m176 0h128M0 263h128m48 0h32m176 0h128M0 264h128m48 0h32m176 0h111m1 0h10m1 0h5M0 265h89m1 0h12m1 0h10m1 0h14m48 0h32m176 0h28m1 0h11m1 0h48m1 0h37M0 266h26m1 0h101m48 0h32m176 0h128M0 267h33m1 0h94m48 0h14m1 0h17m176 0h83m1 0h44M0 268h128m48 0h32m176 0h18m1 0h72m1 0h36M0 269h50m1 0h77m48 0h32m176 0h53m1 0h74M0 270h128m48 0h32m176 0h87m1 0h40M0 271h128m48 0h32m176 0h16m1 0h36m1 0h74M0 272h128m48 0h32m32 0h19m1 0h16m1 0h67m1 0h23m32 0h28m1 0h47m1 0h25m1 0h9M0 273h115m1 0h12m48 0h32m32 0h6m1 0h121m32 0h112M0 274h27m1 0h100m48 0h32m32 0h65m1 0h62m32 0h7m1 0h104M0 275h111m1 0h16m48 0h32m32 0h37m1 0h90m32 0h65m1 0h5m1 0h40M0 276h46m1 0h60m1 0h20m48 0h32m32 0h128m32 0h89m1 0h22M0 277h108m1 0h19m48 0h32m32 0h24m1 0h3m1 0h86m1 0h12m32 0h86m1 0h25M0 278h115m1 0h2m1 0h9m48 0h9m1 0h22m32 0h128m32 0h112M0 279h89m1 0h38m48 0h32m32 0h105m1 0h22m32 0h112M0 280h128m48 0h13m1 0h18m32 0h101m1 0h26m32 0h24m1 0h87M0 281h128m48 0h32m32 0h128m32 0h41m1 0h70M0 282h95m1 0h32m48 0h32m32 0h8m1 0h119m32 0h112M0 283h128m48 0h32m32 0h128m32 0h21m1 0h14m1 0h28m1 0h46M0 284h128m48 0h32m32 0h128m32 0h109m1 0h2M0 285h76m1 0h33m1 0h17m48 0h32m32 0h40m1 0h6m1 0h80m32 0h68m1 0h43M0 286h22m1 0h7m1 0h54m1 0h20m1 0h21m48 0h32m32 0h79m1 0h48m32 0h112M0 287h128m48 0h32m32 0h2m1 0h125m32 0h94m1 0h4m1 0h12M0 288h144m32 0h32m32 0h128m32 0h90m1 0h3m1 0h17M0 289h98m1 0h45m32 0h32m32 0h104m1 0h23m32 0h112M0 290h92m1 0h48m1 0h2m32 0h5m1 0h26m32 0h11m1 0h81m1 0h34m32 0h112M0 291h144m32 0h32m32 0h17m1 0h36m1 0h8m1 0h11m1 0h52m32 0h101m1 0h10M0 292h144m32 0h32m32 0h128m32 0h46m1 0h65M0 293h144m32 0h32m32 0h45m1 0h82m32 0h112M0 294h71m1 0h70m34 0h32m32 0h52m1 0h75m32 0h112M0 295h8m1 0h135m32 0h32m32 0h37m1 0h78m1 0h11m32 0h44m1 0h32m1 0h34M0 296h144m32 0h32m32 0h78m1 0h49m32 0h41m1 0h12m1 0h57M0 297h90m1 0h19m1 0h33m32 0h23m1 0h8m32 0h62m1 0h65m32 0h4m1 0h4m1 0h102M0 298h79m1 0h30m1 0h6m1 0h26m32 0h32m32 0h114m1 0h13m32 0h112M0 299h11m1 0h125m1 0h6m32 0h32m32 0h61m1 0h66m32 0h89m1 0h22M0 300h144m32 0h32m32 0h34m1 0h10m1 0h43m1 0h38m32 0h112M0 301h37m1 0h106m32 0h32m32 0h76m1 0h51m32 0h112M0 302h144m32 0h13m1 0h18m32 0h128m32 0h112M0 303h144m32 0h32m32 0h12m1 0h57m1 0h34m1 0h22m32 0h51m1 0h60M0 304h48m32 0h64m96 0h64m32 0h32m96 0h48M0 305h40m1 0h7m32 0h64m96 0h48m1 0h15m32 0h32m96 0h37m1 0h10M0 306h30m1 0h8m1 0h8m32 0h39m1 0h13m1 0h10m96 0h47m1 0h6m1 0h9m32 0h31m97 0h48M0 307h48m32 0h64m96 0h64m32 0h32m96 0h48M0 308h48m32 0h64m96 0h64m32 0h32m96 0h48M0 309h23m1 0h24m32 0h64m96 0h64m32 0h32m96 0h48M0 310h16m1 0h31m32 0h64m96 0h15m1 0h48m32 0h32m96 0h48M0 311h48m32 0h60m1 0h3m96 0h64m32 0h4m1 0h27m96 0h48M0 312h48m32 0h29m1 0h34m96 0h60m1 0h3m32 0h32m96 0h26m1 0h21M0 313h48m32 0h64m96 0h64m32 0h32m96 0h31m1 0h16M0 314h48m32 0h64m96 0h64m32 0h17m1 0h11m1 0h2m96 0h38m1 0h9M0 315h8m1 0h24m1 0h14m32 0h64m96 0h64m32 0h32m96 0h48M0 316h48m32 0h64m96 0h64m32 0h32m96 0h48M0 317h48m32 0h45m1 0h8m1 0h2m1 0h6m96 0h64m32 0h32m96 0h48M0 318h8m1 0h39m32 0h64m96 0h64m32 0h22m1 0h9m96 0h48M0 319h48m32 0h64m96 0h64m32 0h32m96 0h48M0 320h48m48 0h80m64 0h48m48 0h80m48 0h48M0 321h17m1 0h30m48 0h15m1 0h64m64 0h48m48 0h80m48 0h48M0 322h48m48 0h27m1 0h1m1 0h21m1 0h28m64 0h6m1 0h41m48 0h58m1 0h21m48 0h48M0 323h42m1 0h4m49 0h80m64 0h48m48 0h32m1 0h47m48 0h10m1 0h37M0 324h48m48 0h52m1 0h27m64 0h5m1 0h42m48 0h80m48 0h48M0 325h48m48 0h48m1 0h20m1 0h10m64 0h24m1 0h23m48 0h16m1 0h63m48 0h48M0 326h19m1 0h28m48 0h80m64 0h4m1 0h43m48 0h80m48 0h48M0 327h48m48 0h80m64 0h3m1 0h17m1 0h26m48 0h48m1 0h31m48 0h26m1 0h21M0 328h48m48 0h15m1 0h64m64 0h48m48 0h53m1 0h8m1 0h17m48 0h48M0 329h48m48 0h80m64 0h47m49 0h36m1 0h5m1 0h37m48 0h48M0 330h15m1 0h32m48 0h59m1 0h20m64 0h48m48 0h65m1 0h14m48 0h42m1 0h5M0 331h48m48 0h5m1 0h74m64 0h48m48 0h80m48 0h6m1 0h41M0 332h10m1 0h37m48 0h38m1 0h41m64 0h48m48 0h24m1 0h55m48 0h18m1 0h29M0 333h48m48 0h80m64 0h48m48 0h80m48 0h48M0 334h48m48 0h37m1 0h42m64 0h48m48 0h80m48 0h48M0 335h48m48 0h8m1 0h71m64 0h46m1 0h1m48 0h80m48 0h48M0 336h64m32 0h80m64 0h48m48 0h55m1 0h3m1 0h4m64 0h48M0 337h64m32 0h80m64 0h10m1 0h30m1 0h6m48 0h43m1 0h20m64 0h46m1 0h1M0 338h15m1 0h34m1 0h13m32 0h26m1 0h21m1 0h31m64 0h10m1 0h18m1 0h18m48 0h64m64 0h48M0 339h33m1 0h10m1 0h19m32 0h80m64 0h48m48 0h64m64 0h48M0 340h15m1 0h48m32 0h78m1 0h1m64 0h48m48 0h64m64 0h33m1 0h14M0 341h64m32 0h45m1 0h34m64 0h32m1 0h15m48 0h64m64 0h48M0 342h2m1 0h61m32 0h58m1 0h21m64 0h48m48 0h54m1 0h9m64 0h48M0 343h64m32 0h80m64 0h48m48 0h64m64 0h48M0 344h64m32 0h44m1 0h35m64 0h48m48 0h64m64 0h2m1 0h45M0 345h64m32 0h80m64 0h10m1 0h37m48 0h64m64 0h48M0 346h64m32 0h54m1 0h25m64 0h48m48 0h64m64 0h7m1 0h40M0 347h22m1 0h41m32 0h58m1 0h21m64 0h48m48 0h13m1 0h50m64 0h48M0 348h64m32 0h17m1 0h62m64 0h48m48 0h36m1 0h27m64 0h48M0 349h64m32 0h70m1 0h9m64 0h48m48 0h9m1 0h54m64 0h48M0 350h29m1 0h34m32 0h48m1 0h31m64 0h48m48 0h3m1 0h60m64 0h48M0 351h64m32 0h18m1 0h61m64 0h48m48 0h64m64 0h48M0 352h64m32 0h41m1 0h38m64 0h11m1 0h132m64 0h64M0 353h12m1 0h6m1 0h5m1 0h21m1 0h16m32 0h80m64 0h140m1 0h3m64 0h64M0 354h64m32 0h80m64 0h73m1 0h43m1 0h26m64 0h29m1 0h13m1 0h20M0 355h64m32 0h38m1 0h41m64 0h18m1 0h70m1 0h54m64 0h13m1 0h50M0 356h51m1 0h12m32 0h80m64 0h26m1 0h81m1 0h35m65 0h63M0 357h24m1 0h39m32 0h80m64 0h41m1 0h102m64 0h64M0 358h64m32 0h80m64 0h144m64 0h32m1 0h31M0 359h64m32 0h80m64 0h29m1 0h35m1 0h78m64 0h64M0 360h64m32 0h13m1 0h66m64 0h144m64 0h64M0 361h64m32 0h80m64 0h144m64 0h64M0 362h64m32 0h3m1 0h34m1 0h40m65 0h117m1 0h26m64 0h64M0 363h64m32 0h80m64 0h57m1 0h78m1 0h7m64 0h31m1 0h32M0 364h32m1 0h31m32 0h80m64 0h14m1 0h129m64 0h64M0 365h64m32 0h24m1 0h55m64 0h76m1 0h36m1 0h30m64 0h64M0 366h64m32 0h80m64 0h62m1 0h75m1 0h5m64 0h38m1 0h25M0 367h8m1 0h11m1 0h43m32 0h29m1 0h50m64 0h144m64 0h51m1 0h12M0 368h64m32 0h46m1 0h33m96 0h94m1 0h1m64 0h80M0 369h64m32 0h80m96 0h96m64 0h80M0 370h64m32 0h33m1 0h36m1 0h9m96 0h18m1 0h77m64 0h7m1 0h50m1 0h4m1 0h16M0 371h39m1 0h24m32 0h38m1 0h41m96 0h96m64 0h45m1 0h23m1 0h10M0 372h14m1 0h49m32 0h18m1 0h61m96 0h32m1 0h10m1 0h9m1 0h42m64 0h10m1 0h60m1 0h8M0 373h64m32 0h4m1 0h51m1 0h23m96 0h11m1 0h56m1 0h27m64 0h80M0 374h64m32 0h80m96 0h2m1 0h3m1 0h32m1 0h56m64 0h80M0 375h7m1 0h56m32 0h80m96 0h57m1 0h38m64 0h54m1 0h25M0 376h22m1 0h11m1 0h29m32 0h27m1 0h52m96 0h96m64 0h80M0 377h2m1 0h61m32 0h46m1 0h33m96 0h87m1 0h8m64 0h80M0 378h37m1 0h26m32 0h23m1 0h25m1 0h30m96 0h84m1 0h11m64 0h80M0 379h3m1 0h60m32 0h80m96 0h96m64 0h80M0 380h64m32 0h80m96 0h96m64 0h80M0 381h63m33 0h80m96 0h65m1 0h30m64 0h80M0 382h64m32 0h80m96 0h7m1 0h41m1 0h37m1 0h8m64 0h80M0 383h64m32 0h39m1 0h28m1 0h11m96 0h96m64 0h80M0 384h64m32 0h48m128 0h64m96 0h66m1 0h13M0 385h22m1 0h41m32 0h48m128 0h64m96 0h22m1 0h14m1 0h42M0 386h64m32 0h48m128 0h64m96 0h80M0 387h64m32 0h12m1 0h31m1 0h3m128 0h64m96 0h10m1 0h8m1 0h25m1 0h7m1 0h26M0 388h64m32 0h6m1 0h41m128 0h64m96 0h80M0 389h64m32 0h48m129 0h12m1 0h1m1 0h48m96 0h47m1 0h32M0 390h64m32 0h48m128 0h64m96 0h36m1 0h5m1 0h37M0 391h64m32 0h31m1 0h3m1 0h12m128 0h24m1 0h39m96 0h80M0 392h64m32 0h28m1 0h19m128 0h15m1 0h48m96 0h80M0 393h64m32 0h33m1 0h14m128 0h64m96 0h80M0 394h64m32 0h48m128 0h64m96 0h80M0 395h42m1 0h21m32 0h48m128 0h64m96 0h80M0 396h64m32 0h48m128 0h64m96 0h80M0 397h4m1 0h19m1 0h39m32 0h48m128 0h64m96 0h17m1 0h62M0 398h64m32 0h48m128 0h17m1 0h4m1 0h9m1 0h31m96 0h22m1 0h55m1 0h1M0 399h64m32 0h48m128 0h64m96 0h80M0 400h64m32 0h24m1 0h23m224 0h144M0 401h29m1 0h34m32 0h48m224 0h102m1 0h41M0 402h64m32 0h48m224 0h30m1 0h101m1 0h11M0 403h64m32 0h48m224 0h37m1 0h72m1 0h31m1 0h1M0 404h64m32 0h48m224 0h24m1 0h76m1 0h42M0 405h58m1 0h4m33 0h48m224 0h26m1 0h117M0 406h64m32 0h10m1 0h37m224 0h6m1 0h5m1 0h5m1 0h103m1 0h21M0 407h13m1 0h34m1 0h13m1 0h1m32 0h48m224 0h55m1 0h88M0 408h64m32 0h48m224 0h144M0 409h52m1 0h6m1 0h4m32 0h48m224 0h144M0 410h64m32 0h48m224 0h144M0 411h64m32 0h48m224 0h50m1 0h93M0 412h10m1 0h53m32 0h48m224 0h78m1 0h65M0 413h25m1 0h38m32 0h48m224 0h95m1 0h48M0 414h64m32 0h48m224 0h140m1 0h3M0 415h2m1 0h61m32 0h15m1 0h32m224 0h28m1 0h30m1 0h34m1 0h49M0 416h64m32 0h16m256 0h43m1 0h34m1 0h65M0 417h64m32 0h16m256 0h144M0 418h64m32 0h16m256 0h144M0 419h64m32 0h16m256 0h5m1 0h138M0 420h31m1 0h32m32 0h16m256 0h144M0 421h64m32 0h7m1 0h8m256 0h144M0 422h64m32 0h16m256 0h121m2 0h5m1 0h3m1 0h11M0 423h4m1 0h59m32 0h16m256 0h144M0 424h60m1 0h3m32 0h16m256 0h94m1 0h6m1 0h35m1 0h6M0 425h25m1 0h38m32 0h16m256 0h57m1 0h1m1 0h84M0 426h64m32 0h16m256 0h144M0 427h64m32 0h16m256 0h93m1 0h50M0 428h64m32 0h9m1 0h6m256 0h3m2 0h139M0 429h64m32 0h16m256 0h5m1 0h3m1 0h14m1 0h119M0 430h27m1 0h36m32 0h16m256 0h144M0 431h40m1 0h23m32 0h16m256 0h144M0 432h41m1 0h22m32 0h16m176 0h32m48 0h144M0 433h24m1 0h4m1 0h31m1 0h2m32 0h16m176 0h32m48 0h144M0 434h64m32 0h3m1 0h12m176 0h8m1 0h23m48 0h144M0 435h64m32 0h16m176 0h1m1 0h17m1 0h12m48 0h2m1 0h23m1 0h117M0 436h51m1 0h2m1 0h9m32 0h1m1 0h14m176 0h4m1 0h27m48 0h53m1 0h90M0 437h49m1 0h14m32 0h16m176 0h32m48 0h144M0 438h64m32 0h16m176 0h7m1 0h24m48 0h11m1 0h91m1 0h40M0 439h64m32 0h16m176 0h4m1 0h27m48 0h88m1 0h48m1 0h6M0 440h34m1 0h29m32 0h16m176 0h32m48 0h144M0 441h22m1 0h41m32 0h16m176 0h32m48 0h43m1 0h100M0 442h64m32 0h16m176 0h32m48 0h144M0 443h48m1 0h14m33 0h16m176 0h32m48 0h21m1 0h122M0 444h64m32 0h16m176 0h32m48 0h10m1 0h38m1 0h25m1 0h61m1 0h6M0 445h64m32 0h16m176 0h32m48 0h81m1 0h35m1 0h26M0 446h15m1 0h48m32 0h16m176 0h32m48 0h9m1 0h72m1 0h26m1 0h33M0 447h64m32 0h16m176 0h32m48 0h47m1 0h15m1 0h44m1 0h9m1 0h25M0 448h64m32 0h16m144 0h80m32 0h122m1 0h21M0 449h57m1 0h6m32 0h16m144 0h80m32 0h144M0 450h64m32 0h16m144 0h80m32 0h116m1 0h27M0 451h44m1 0h19m32 0h16m144 0h72m1 0h7m32 0h144M0 452h62m1 0h1m32 0h2m1 0h13m144 0h71m1 0h4m1 0h3m32 0h135m1 0h8M0 453h64m32 0h16m144 0h55m1 0h24m32 0h31m1 0h112M0 454h64m32 0h16m144 0h80m32 0h93m1 0h32m1 0h17M0 455h2m1 0h61m32 0h16m144 0h80m32 0h144M0 456h64m32 0h16m144 0h80m32 0h141m1 0h2M0 457h64m32 0h16m144 0h64m1 0h15m32 0h99m1 0h44M0 458h64m32 0h16m144 0h29m1 0h50m32 0h22m1 0h108m1 0h12M0 459h64m32 0h16m144 0h80m32 0h80m1 0h63M0 460h64m32 0h16m144 0h46m1 0h33m32 0h144M0 461h64m32 0h16m144 0h63m1 0h16m32 0h106m1 0h37M0 462h64m32 0h12m1 0h3m144 0h75m1 0h4m32 0h144M0 463h64m32 0h16m144 0h26m1 0h29m1 0h23m32 0h123m1 0h11m1 0h8M0 464h60m1 0h3m32 0h16m144 0h35m1 0h44m32 0h144M0 465h64m32 0h16m144 0h80m32 0h3m1 0h118m1 0h21M0 466h64m32 0h16m144 0h80m32 0h30m1 0h97m1 0h15M0 467h64m32 0h16m144 0h80m32 0h86m1 0h57M0 468h10m1 0h19m1 0h33m32 0h16m144 0h30m1 0h49m32 0h39m1 0h61m1 0h42M0 469h39m1 0h15m1 0h8m32 0h16m144 0h5m1 0h35m1 0h31m1 0h6m32 0h144M0 470h20m1 0h43m32 0h16m144 0h80m32 0h13m1 0h32m1 0h97M0 471h64m32 0h16m144 0h80m32 0h144M0 472h64m32 0h16m144 0h70m1 0h9m32 0h110m1 0h33M0 473h36m1 0h22m2 0h3m32 0h1m1 0h13m145 0h80m32 0h41m1 0h102M0 474h64m32 0h16m144 0h11m1 0h56m1 0h11m32 0h30m1 0h113M0 475h27m1 0h36m32 0h16m144 0h80m32 0h47m1 0h90m1 0h5M0 476h7m1 0h56m32 0h16m144 0h76m1 0h3m32 0h1m1 0h142M0 477h34m1 0h29m32 0h16m144 0h80m32 0h85m1 0h58M0 478h64m32 0h16m144 0h76m1 0h3m32 0h144M0 479h64m32 0h12m1 0h3m144 0h80m32 0h89m1 0h54M0 480h64m176 0h5m1 0h18m1 0h71m32 0h144M0 481h64m176 0h33m1 0h62m32 0h42m1 0h4m1 0h96M0 482h38m1 0h25m176 0h14m1 0h22m1 0h5m1 0h52m32 0h144M0 483h9m1 0h13m1 0h22m1 0h17m176 0h96m32 0h80m1 0h63M0 484h61m1 0h2m176 0h87m1 0h8m32 0h139m1 0h4M0 485h64m176 0h96m32 0h28m1 0h16m1 0h98M0 486h64m176 0h3m1 0h92m32 0h123m1 0h20M0 487h64m176 0h63m1 0h4m1 0h27m32 0h144M0 488h61m1 0h2m176 0h34m1 0h19m1 0h8m1 0h32m32 0h107m1 0h36M0 489h64m176 0h88m1 0h7m32 0h132m1 0h11M0 490h64m176 0h1m1 0h2m1 0h29m1 0h55m1 0h5m32 0h144M0 491h10m1 0h48m1 0h4m176 0h31m1 0h64m32 0h144M0 492h33m1 0h30m176 0h96m32 0h117m2 0h25M0 493h64m176 0h96m32 0h62m1 0h23m1 0h57M0 494h45m1 0h18m176 0h96m32 0h6m1 0h137M0 495h64m176 0h19m1 0h76m32 0h32m1 0h86m2 0h23M0 496h31m1 0h48m160 0h22m1 0h73m32 0h70m1 0h52m1 0h20M0 497h80m160 0h32m1 0h63m32 0h144M0 498h80m160 0h28m1 0h35m1 0h31m32 0h28m1 0h69m1 0h1m1 0h43M0 499h80m160 0h96m32 0h13m1 0h97m1 0h12m1 0h19M0 500h80m160 0h96m32 0h144M0 501h80m160 0h21m1 0h74m32 0h36m1 0h56m1 0h30m1 0h5m1 0h13M0 502h16m1 0h63m160 0h96m32 0h46m1 0h17m1 0h79M0 503h40m1 0h39m160 0h28m1 0h10m1 0h17m1 0h38m32 0h17m1 0h120m1 0h5M0 504h80m160 0h86m1 0h9m32 0h144M0 505h11m1 0h23m1 0h28m1 0h15m160 0h96m32 0h126m1 0h17M0 506h74m1 0h5m160 0h13m1 0h82m32 0h144M0 507h80m160 0h96m32 0h141m1 0h2M0 508h80m160 0h17m1 0h78m32 0h106m1 0h37M0 509h80m160 0h17m1 0h78m32 0h71m1 0h40m1 0h31M0 510h80m160 0h96m32 0h119m1 0h24M0 511h80m160 0h96m32 0h144M0 512h96m208 0h16m80 0h68m1 0h43M0 513h37m1 0h3m1 0h54m208 0h16m80 0h112M0 514h91m1 0h4m208 0h16m80 0h112M0 515h96m208 0h16m80 0h112M0 516h96m208 0h16m80 0h112M0 517h96m208 0h16m80 0h112M0 518h85m1 0h10m208 0h16m80 0h80m1 0h31M0 519h77m1 0h18m208 0h16m80 0h34m1 0h77M0 520h96m208 0h16m80 0h57m1 0h33m1 0h5m1 0h14M0 521h54m1 0h41m208 0h16m80 0h58m1 0h53M0 522h38m1 0h57m208 0h16m80 0h4m1 0h107M0 523h2m1 0h26m1 0h66m208 0h16m80 0h112M0 524h38m1 0h57m208 0h16m80 0h112M0 525h96m208 0h16m80 0h65m1 0h46M0 526h96m208 0h16m80 0h25m1 0h31m1 0h29m1 0h24M0 527h96m208 0h7m1 0h8m80 0h69m1 0h42M0 528h33m1 0h62m320 0h27m1 0h62m1 0h5M0 529h57m1 0h22m1 0h15m320 0h26m1 0h39m1 0h29M0 530h15m1 0h80m320 0h96M0 531h90m1 0h5m320 0h7m1 0h88M0 532h9m1 0h86m320 0h39m1 0h56M0 533h65m1 0h30m320 0h96M0 534h33m1 0h62m320 0h26m1 0h22m1 0h46M0 535h96m320 0h96M0 536h96m320 0h96M0 537h96m320 0h53m1 0h4m1 0h37M0 538h1m1 0h46m2 0h46m320 0h96M0 539h95m321 0h96M0 540h96m320 0h21m1 0h74M0 541h96m320 0h5m1 0h66m1 0h23M0 542h46m1 0h49m320 0h96M0 543h81m1 0h14m320 0h96M0 544h21m1 0h93m1 0h31m1 0h139m1 0h224M0 545h92m1 0h30m1 0h1m1 0h144m1 0h17m1 0h2m1 0h220M0 546h114m1 0h38m1 0h20m1 0h15m1 0h201m1 0h82m1 0h36M0 547h512M0 548h31m1 0h32m1 0h154m1 0h292M0 549h7m1 0h18m1 0h55m1 0h213m1 0h52m1 0h162M0 550h35m1 0h113m1 0h30m1 0h77m1 0h37m1 0h33m1 0h181M0 551h18m1 0h282m1 0h138m1 0h71M0 552h30m1 0h31m1 0h125m1 0h107m1 0h72m1 0h20m1 0h121M0 553h163m1 0h26m1 0h81m1 0h147m1 0h32m1 0h58M0 554h73m1 0h44m1 0h84m1 0h12m1 0h66m1 0h120m1 0h107M0 555h17m1 0h53m1 0h127m1 0h7m1 0h88m1 0h215M0 556h5m1 0h60m1 0h48m1 0h104m1 0h90m1 0h127m1 0h6m1 0h65M0 557h162m1 0h106m1 0h242M0 558h61m1 0h21m1 0h141m1 0h44m1 0h68m1 0h35m1 0h136M0 559h65m1 0h93m1 0h61m1 0h7m1 0h122m1 0h159M0 560h56m1 0h75m1 0h131m1 0h89m1 0h45m1 0h43m1 0h67M0 561h112m1 0h25m1 0h17m1 0h48m1 0h54m1 0h56m1 0h188m1 0h5M0 562h327m1 0h184M0 563h123m1 0h116m1 0h166m2 0h49m1 0h53M0 564h147m1 0h29m1 0h36m1 0h285m1 0h11M0 565h43m1 0h76m1 0h80m1 0h68m1 0h82m1 0h158M0 566h74m1 0h168m1 0h64m1 0h7m1 0h195M0 567h185m1 0h74m1 0h125m1 0h125M0 568h71m1 0h314m1 0h47m1 0h77M0 569h100m1 0h261m1 0h30m1 0h18m1 0h9m1 0h89M0 570h152m1 0h32m1 0h286m1 0h16m1 0h22M0 571h115m1 0h125m1 0h34m1 0h4m1 0h230M0 572h83m1 0h189m1 0h55m1 0h82m1 0h73m1 0h25M0 573h59m1 0h12m1 0h3m1 0h4m1 0h12m1 0h107m1 0h91m1 0h30m1 0h186M0 574h43m1 0h69m1 0h113m1 0h47m2 0h10m1 0h224M0 575h66m1 0h112m1 0h5m1 0h8m1 0h115m1 0h40m1 0h111m1 0h48M0 576h98m1 0h25m1 0h50m1 0h6m1 0h93m1 0h19m1 0h215M0 577h234m1 0h126m1 0h85m1 0h64M0 578h18m1 0h6m1 0h266m1 0h18m1 0h50m1 0h149M0 579h100m1 0h326m1 0h1m1 0h82M0 580h119m1 0h200m1 0h151m1 0h12m1 0h26M0 581h2m1 0h16m1 0h195m1 0h54m1 0h107m1 0h88m1 0h44M0 582h168m1 0h166m1 0h26m1 0h149M0 583h45m1 0h160m1 0h20m1 0h166m1 0h16m1 0h58m1 0h36m1 0h4M0 584h250m1 0h2m1 0h32m1 0h225M0 585h7m1 0h13m1 0h113m1 0h17m1 0h171m1 0h141m1 0h44M0 586h344m1 0h49m1 0h64m1 0h52M0 587h50m1 0h35m1 0h251m1 0h85m1 0h28m1 0h58M0 588h456m1 0h55M0 589h149m1 0h179m1 0h7m1 0h119m1 0h54M0 590h17m1 0h200m1 0h205m1 0h4m1 0h36m1 0h45M0 591h26m1 0h174m1 0h173m1 0h136M0 592h25m1 0h34m1 0h39m1 0h300m1 0h40m1 0h69M0 593h87m1 0h71m1 0h16m1 0h60m1 0h274M0 594h30m1 0h1m1 0h126m1 0h37m1 0h144m1 0h10m1 0h105m1 0h52M0 595h53m1 0h142m1 0h100m1 0h208m1 0h5M0 596h148m1 0h87m1 0h88m1 0h25m1 0h28m1 0h131M0 597h42m1 0h159m1 0h88m1 0h67m1 0h152M0 598h34m1 0h17m1 0h57m1 0h244m1 0h156M0 599h288m1 0h21m1 0h52m1 0h68m1 0h79M0 600h28m1 0h103m1 0h135m1 0h56m1 0h153m1 0h32M0 601h6m1 0h26m1 0h129m1 0h330m1 0h17M0 602h73m1 0h14m1 0h227m1 0h195M0 603h59m1 0h134m1 0h95m1 0h221M0 604h65m1 0h95m1 0h182m1 0h95m1 0h71M0 605h243m1 0h150m1 0h36m1 0h80M0 606h41m1 0h94m1 0h157m1 0h11m1 0h136m1 0h36m1 0h31M0 607h21m1 0h34m1 0h198m1 0h155m1 0h75m1 0h24M0 608h58m1 0h21m1 0h10m1 0h46m1 0h340m1 0h32M0 609h62m1 0h92m1 0h25m1 0h153m1 0h176M0 610h62m1 0h277m1 0h50m1 0h96m1 0h23M0 611h122m1 0h18m1 0h25m1 0h76m1 0h33m1 0h197m1 0h35M0 612h8m1 0h70m1 0h7m1 0h47m1 0h7m1 0h115m1 0h72m1 0h92m1 0h86M0 613h197m1 0h270m1 0h43M0 614h268m1 0h138m1 0h7m1 0h4m1 0h63m1 0h17m1 0h9M0 615h72m1 0h141m1 0h90m1 0h35m1 0h101m1 0h68M0 616h253m1 0h45m1 0h19m1 0h109m1 0h82M0 617h459m1 0h23m1 0h25m1 0h2M0 618h74m1 0h125m1 0h257m1 0h53M0 619h55m1 0h21m1 0h31m1 0h58m1 0h8m1 0h222m1 0h111M0 620h14m1 0h133m1 0h110m1 0h252M0 621h139m1 0h55m1 0h267m1 0h48M0 622h15m1 0h16m1 0h187m1 0h122m1 0h9m1 0h71m1 0h86M0 623h68m1 0h197m1 0h87m1 0h106m1 0h50M0 624h69m1 0h442M0 625h127m1 0h139m1 0h107m1 0h19m1 0h116M0 626h4m1 0h239m1 0h39m1 0h120m1 0h106M0 627h134m1 0h72m1 0h2m1 0h72m1 0h8m1 0h70m1 0h148M0 628h57m1 0h14m1 0h43m1 0h42m1 0h7m1 0h34m1 0h309M0 629h229m1 0h139m1 0h68m1 0h6m1 0h28m1 0h37M0 630h512M0 631h110m1 0h115m1 0h8m1 0h75m1 0h26m1 0h50m1 0h109m1 0h12M0 632h86m1 0h425M0 633h31m1 0h209m1 0h81m1 0h133m1 0h54M0 634h405m1 0h69m1 0h36M0 635h162m1 0h148m1 0h200M0 636h34m1 0h322m1 0h59m1 0h94M0 637h29m1 0h29m1 0h125m1 0h60m1 0h30m1 0h13m1 0h37m1 0h182M0 638h145m1 0h215m1 0h99m1 0h13m1 0h36M0 639h104m1 0h16m1 0h186m1 0h113m1 0h89M0 640h512M0 641h512M0 642h512M0 643h118m1 0h393M0 644h35m1 0h247m1 0h228M0 645h512M0 646h356m1 0h155M0 647h65m1 0h446M0 648h296m1 0h162m1 0h52M0 649h388m1 0h123M0 650h4m1 0h222m1 0h161m1 0h122M0 651h439m1 0h72M0 652h135m1 0h376M0 653h512M0 654h392m1 0h119M0 655h218m1 0h210m1 0h82M0 656h206m1 0h305M0 657h366m1 0h145M0 658h409m1 0h102M0 659h2m1 0h59m1 0h169m1 0h279M0 660h31m1 0h360m1 0h119M0 661h282m1 0h229M0 662h512M0 663h132m1 0h288m1 0h90M0 664h503m1 0h8M0 665h113m1 0h262m1 0h83m1 0h51M0 666h512M0 667h428m1 0h43m1 0h39M0 668h234m1 0h179m1 0h37m1 0h59M0 669h512M0 670h57m1 0h234m1 0h219M0 671h143m1 0h368M0 672h79m1 0h171m1 0h210m1 0h49M0 673h512M0 674h512M0 675h42m1 0h23m1 0h445M0 676h61m1 0h322m1 0h89m1 0h37M0 677h394m1 0h117M0 678h89m1 0h32m1 0h18m1 0h370M0 679h512M0 680h338m1 0h39m1 0h133M0 681h15m1 0h155m1 0h340M0 682h441m1 0h70M0 683h33m1 0h478M0 684h259m1 0h243m1 0h8M0 685h111m1 0h16m1 0h383M0 686h512M0 687h403m1 0h108M0 688h281m1 0h5m1 0h224M0 689h130m1 0h381M0 690h512M0 691h38m1 0h437m1 0h35M0 692h233m1 0h211m1 0h35m1 0h30M0 693h512M0 694h512M0 695h21m1 0h490M0 696h238m1 0h80m1 0h192M0 697h38m1 0h473M0 698h36m1 0h475M0 699h512M0 700h33m1 0h9m1 0h468M0 701h100m1 0h411M0 702h512M0 703h512M0 704h117m1 0h160m1 0h233M0 705h512M0 706h124m1 0h317m1 0h69M0 707h1m1 0h63m1 0h446M0 708h110m1 0h401M0 709h470m1 0h41M0 710h406m1 0h105M0 711h345m1 0h166M0 712h306m1 0h166m1 0h38M0 713h512M0 714h512M0 715h512M0 716h444m1 0h67M0 717h512M0 718h444m1 0h5m1 0h61M0 719h468m1 0h43M0 720h231m1 0h253m1 0h26M0 721h512M0 722h62m1 0h129m1 0h304m1 0h14M0 723h41m1 0h36m1 0h156m1 0h276M0 724h110m1 0h401M0 725h269m1 0h242M0 726h33m1 0h91m1 0h10m1 0h174m1 0h200M0 727h470m1 0h41M0 728h512M0 729h508m1 0h3M0 730h259m1 0h29m1 0h222M0 731h512M0 732h275m1 0h41m1 0h194M0 733h194m1 0h44m1 0h98m1 0h34m1 0h138M0 734h16m1 0h335m1 0h159M0 735h197m1 0h314M0 736h269m1 0h3m1 0h221m1 0h16M0 737h229m1 0h282M0 738h415m1 0h96M0 739h512M0 740h512M0 741h43m1 0h154m1 0h313M0 742h512M0 743h58m1 0h54m1 0h398M0 744h394m1 0h111m1 0h5M0 745h226m1 0h49m1 0h18m1 0h140m1 0h75M0 746h50m1 0h461M0 747h155m1 0h335m1 0h20M0 748h71m1 0h440M0 749h111m1 0h32m1 0h281m1 0h17m1 0h67M0 750h8m1 0h70m1 0h295m1 0h136M0 751h10m1 0h501M0 752h173m1 0h73m1 0h136m1 0h127M0 753h181m1 0h330M0 754h512M0 755h512M0 756h403m1 0h108M0 757h512M0 758h35m1 0h258m1 0h217M0 759h4m1 0h34m1 0h472M0 760h68m1 0h290m1 0h152M0 761h398m1 0h113M0 762h126m1 0h295m1 0h83m1 0h5M0 763h147m1 0h127m1 0h236M0 764h512M0 765h211m1 0h300M0 766h305m1 0h22m1 0h53m1 0h129M0 767h332m1 0h179"/>
    <path stroke="#feffff" d="M250 2h1M13 5h1m86 0h1M32 6h1m248 0h1m-68 2h1m150 0h1m-56 2h1M65 12h1m65 2h1m131 0h1m-52 7h1m22 2h1M49 26h1m296 5h1m-127 4h1m85 2h1m-182 1h1m-33 2h1m377 6h1m-141 1h1m-161 2h1m-54 1h1m65 0h1M85 53h1m244 2h1m138 1h1M15 57h1m236 4h1m127 2h1m-84 1h1m182 0h1m-359 8h1m386 0h1m-228 4h1m155 3h1m-275 2h1m142 2h1m-76 6h1m254 0h1m-39 1h1m-299 5h1m14 2h1M49 98h1m111 1h1m216 0h1m4 0h1m84 0h1m22 0h1m-390 4h1m-66 1h1m362 0h1m-23 1h1m-92 3h1m-41 1h1m77 1h1m16 2h1m-232 3h1m10 2h1m-56 1h1m-49 1h1m2 0h1m56 0h1m188 3h1m-30 1h1m-210 1h1m14 5h1m403 0h1m-172 1h1m156 0h1m-12 1h1m32 0h1m-368 1h1m217 0h1m15 0h1m47 1h1m-242 1h1m-93 1h1m52 1h1m43 0h1m-32 1h1m46 0h1m148 0h1m-69 1h1m41 1h1m92 2h1m57 1h1m-249 1h1m-61 1h1m65 0h1m250 1h1m43 0h1m-353 1h1m242 0h1m-346 2h1m419 0h1m-243 2h1m-61 2h1m125 0h1m-92 1h1m289 0h1m-85 1h1m2 1h1m74 0h1m-306 1h1m62 0h1m112 1h1m6 1h1m-228 1h1m239 0h1m-114 1h1m-171 1h1m55 1h1m322 0h1m-399 1h1m401 1h1m-398 1h1m349 0h1m69 0h1m-410 1h1m277 0h1m-243 1h1m315 0h1m-256 1h1m56 0h1m-72 3h1m-35 1h1m133 0h1m-2 1h1m-223 1h1m51 0h1m348 0h1m0 1h1m-275 1h1m7 0h1m104 0h1m168 1h1m-423 1h1m104 0h1m-103 2h1m243 2h1m110 0h1m-342 1h1m230 0h1m11 0h1m165 1h1m-392 2h1m-11 1h1m437 1h1m-281 1h1m14 0h1m131 1h1m48 0h1m110 2h1m-152 2h1m89 0h1m-313 2h1m61 1h1m247 0h1m-396 1h1m137 0h1m145 1h1m12 0h1m33 0h1m-258 1h1m-42 1h1m11 2h1m373 0h1m21 2h1m-379 2h1m266 0h1m6 2h1m113 0h1m-471 2h1m480 0h1m-410 1h1m36 1h1M1 215h1m39 0h1m415 0h1m38 1h1m-35 2h1m-122 1h1m13 1h1m-105 1h1m107 0h1m-228 2h1m214 1h1m97 0h1m-371 5h1m165 1h1m263 0h1m-363 4h1m246 0h1m-307 1h1m375 1h1m-323 1h1m346 1h1m-86 1h1m97 0h1m-456 1h1m348 0h1m-206 4h1m-163 1h1m72 0h1m-18 1h1m14 0h1m319 0h1m76 2h1m-316 2h1m221 1h1m47 0h1m-438 1h1m376 1h1m67 0h1m24 0h1m14 1h1m-56 1h1m-355 1h1m375 0h1m23 0h1m-459 4h1m152 0h1m-148 2h1m470 2h1m4 1h1m-110 3h1m72 0h1m-39 1h1m-179 3h1m-233 2h1m79 2h1m156 1h1m90 0h1m-171 1h1m-97 1h1m99 1h1m234 0h1m16 1h1m-194 1h1m-139 3h1m169 0h1m187 0h1m-439 1h1m313 3h1m-88 2h1m57 0h1m130 1h1m-3 3h1m32 0h1m-24 1h1m-51 1h1m-326 1h1m37 0h1m236 0h1m-344 1h1m289 0h1m-28 1h1m41 1h1m28 2h1m-306 2h1m78 1h1m167 0h1m79 0h1m-113 4h1m-116 1h1m199 0h1m-232 1h1m190 0h1m52 2h1m-321 1h1m91 2h1m11 0h1M8 318h1m349 0h1m-248 3h1m11 1h1m122 0h1m-103 3h1m119 0h1m-154 3h1m175 1h1m218 1h1m-497 2h1m123 0h1m151 3h1m-37 2h1m259 0h1m-461 1h1m-18 1h1m-32 3h1m137 2h1m325 0h1m-317 2h1m-129 1h1m322 2h1m-317 1h1m107 2h1m-126 1h1m6 0h1m5 0h1m465 1h1m-31 1h1m18 3h1m-347 4h1m40 0h1m303 1h1m-164 2h1m61 1h1m-359 1h1m121 1h1m147 2h1m148 0h1m55 0h1m-19 1h1m-464 1h1m99 0h1m210 0h1m-43 1h1m56 0h1m-67 1h1M7 375h1m115 1h1m18 1h1m-24 1h1m236 0h1m-294 3h1m257 1h1m-182 5h1m-39 1h1m371 2h1m-351 2h1m-83 3h1m-19 2h1m429 1h1m-335 2h1m277 2h1m101 0h1m9 1h1m-42 1h1m-76 1h1m-15 1h1m109 0h1m-429 1h1m360 0h1m-6 4h1m-409 1h1m-9 3h1m393 0h1m65 0h1m-432 5h1m457 2h1m6 0h1m3 0h1M4 423h1m55 1h1m401 0h1m-38 1h1m-49 4h1m14 0h1m-366 1h1m12 1h1m0 1h1m-18 1h1m74 1h1m196 0h1m-8 1h1m-239 1h1m2 0h1m-6 1h1m421 1h1m-83 5h1m-12 1h1m64 0h1m67 2h1m-81 1h1m44 0h1m-149 4h1m-2 1h1m4 0h1m161 2h1m14 2h1m-191 5h1m-8 2h1m178 0h1m-437 6h1m241 0h1m-239 4h1m37 0h1m311 0h1m-143 1h1m64 2h1m-225 3h1m136 1h1m27 1h1m136 0h1M9 483h1m13 0h1m424 0h1m-388 1h1m265 0h1m179 0h1m-17 2h1m-431 2h1m212 0h1m28 0h1m171 0h1m-148 1h1m1 1h1m-321 1h1m443 2h1m-183 4h1m31 1h1m161 0h1m1 0h1m23 1h1m-225 4h1m10 0h1m105 0h1m108 2h1m14 2h1m-36 1h1m-218 1h1m181 0h1m-349 5h1m-7 4h1m348 1h1m56 1h1m-454 2h1m-10 1h1m8 1h1m-6 4h1m23 1h1m-43 1h1m-7 2h1m464 5h1M1 538h1m46 0h2m45 1h1m341 1h1m50 1h1m-443 1h1m68 2h1m31 0h1m143 1h1m183 1h1m-450 3h1m269 0h1m-117 1h1m77 0h1m37 0h1m33 0h1m-301 2h1m31 0h1m357 1h1m32 0h1m-171 1h1m-267 1h1m48 1h1m244 0h1m-150 1h1m106 0h1m-187 1h1m186 0h1m-206 1h1m93 0h1m192 0h1m47 1h1m-263 1h1m121 0h1m56 0h1m188 0h1m-360 3h1m-105 1h1m157 0h1m-128 1h1m241 0h1m-57 1h1m125 0h1m-287 2h1m51 1h1m32 0h1m286 0h1m-232 1h1m34 0h1m135 1h1m-354 1h1m16 0h1m36 1h1m161 0h1m-178 2h1m25 0h1m50 0h1m6 0h1m113 0h1m-63 1h1m-210 1h1m266 0h1m18 0h1m50 0h1m122 2h1m-271 1h1m-48 1h1m193 0h1m144 1h1m-255 1h1M7 585h1m145 0h1m305 1h1m-410 1h1m35 0h1m337 0h1m-207 3h1m205 0h1m4 0h1m-404 1h1m-2 1h1m34 0h1m39 0h1m58 1h1m77 0h1m-42 2h1m100 0h1m208 0h1m-271 1h1m88 0h1m-274 2h1m235 1h1m-261 1h1m450 0h1M6 601h1m26 0h1m256 2h1m-130 1h1m278 0h1m-400 2h1m401 0h1m36 0h1m-226 1h1m-198 1h1m79 0h1m-77 1h1m92 0h1m184 1h1m50 0h1m84 1h1m-390 1h1m171 0h1m165 0h1m-229 1h1m209 1h1m-103 1h1m35 0h1m101 0h1m-125 1h1m109 0h1m-356 2h1m125 0h1m-146 1h1m53 0h1m149 1h1m-65 1h1m-181 1h1m53 2h1m197 1h1m107 0h1m-132 1h1m160 0h1m-272 1h1m228 0h1m-292 1h1m94 0h1m34 0h1m242 1h1m-360 3h1m-56 1h1m291 0h1m81 1h1m69 0h1m-165 1h1m105 1h1m-233 1h1m60 0h1m30 0h1m13 0h1m-147 1h1m329 0h1m-54 1h1m-305 4h1m164 1h1m-219 3h1m230 1h1m91 1h1M4 650h1m384 0h1m-184 6h1m-145 3h1m219 2h1m93 4h1m83 0h1m11 2h1m-21 1h1m-396 2h1m85 1h1m107 1h1m210 0h1m-79 4h1m89 0h1m-81 1h1m-273 1h1m318 4h1m61 2h1m-374 5h1m350 3h1m-449 8h1m9 0h1m56 1h1m177 3h1M1 707h1m404 3h1m-101 2h1m143 6h1m-220 2h1m253 0h1m-424 2h1m-22 1h1m227 2h1m19 5h1m-15 2h1m41 0h1m-302 2h1m335 0h1m-80 2h1m221 0h1m-267 1h1m-172 6h1m54 0h1m162 2h1m214 2h1m-482 4h1m162 1h1m73 0h1m-122 10h1m379 0h1"/>
    <path stroke="#fffeff" d="M216 5h1m209 0h1M167 7h1m282 7h1M82 15h1m180 13h1m-84 1h1m256 5h1M55 39h1m48 1h1m-47 5h1m186 4h1m224 0h1m-271 3h1m66 7h1m12 4h1m196 2h1M77 67h1m273 4h1m85 2h1m-193 3h1m197 3h1m-24 4h1m-121 6h1m-19 12h1m-181 3h1m-98 2h1m154 2h1m203 0h1m-323 2h1m230 0h1m-108 1h1m-91 3h1m243 4h1m12 4h1m74 0h1m47 3h1m-318 4h1m304 2h1m-279 1h1m-122 1h1m312 0h1m-41 1h1m72 1h1m44 0h1m-216 1h1m29 0h1m68 0h1m11 0h1m-197 1h1m367 0h1m-415 1h1m362 0h1m-131 1h1m27 0h1m-228 2h1m224 0h1m137 0h1m-410 1h1m216 1h1m-89 1h1m-107 1h1m357 1h1m-233 2h1m280 1h1m-25 1h1m-437 3h1m246 0h1m-79 3h1m-42 1h1m164 0h1m-231 1h1m127 0h1m122 0h1m-126 2h1m131 0h1m-42 2h1m59 0h1m39 1h1m80 0h1m-111 1h1m-317 2h1m114 1h1m245 0h1m-144 1h1m136 0h1m-60 1h1m-255 1h1m174 0h1m23 0h1m-165 1h1m23 0h1m91 0h1m54 0h1m-200 1h1m1 0h1m113 0h1m-174 1h1m184 0h1m202 0h1m-83 1h1m-47 1h1m86 0h1m-144 1h1m7 0h1m169 0h1m4 3h1m-207 2h1m-128 1h1m-37 1h1m225 0h1m-5 1h1m51 0h1m21 0h1m-309 1h1m298 0h1m-217 2h1m5 0h1m-77 4h1m379 1h1m21 0h1m-180 1h1m177 1h1m-396 1h1m152 1h1m99 0h1m1 0h1m-242 1h1m3 1h1m54 1h1m191 0h1m80 0h1m-385 1h1m140 1h1m107 0h1m21 0h1m99 0h1m68 0h1m-318 1h1m169 2h1m114 1h1m-396 1h1m320 0h1m31 2h1m72 1h1m-14 2h1m-239 1h1m169 0h1m-340 2h1m9 0h1m234 0h1m125 0h1m57 0h1m-471 1h1m299 1h1m154 2h1m-456 1h1m90 1h1m347 0h1M4 223h1m28 4h1m54 1h1m155 0h1m227 3h1m-143 2h1m108 1h1m-378 1h1m62 0h1m-50 2h1m-63 2h1m53 1h1m396 0h1m-81 1h1m-14 2h1m15 1h1m15 3h1m-8 3h1m-300 3h1m384 0h1m-23 2h1m-78 5h1m-188 1h1m-162 1h1m52 3h1m23 0h1m359 0h1m-441 2h1m433 0h1m3 3h1m-196 2h1m67 0h1m-230 1h1m189 1h1m159 1h1m-420 1h1m221 1h1m217 0h1m-372 1h1m225 2h1m94 3h1m28 0h1m-390 2h1m29 1h1m392 1h1m-10 1h1m-393 1h1m-7 1h1m-22 4h1m70 0h2M8 295h1m268 0h1m78 0h1m-55 2h1m106 0h1m-300 1h1m378 1h1m-205 1h1m43 0h1m-293 1h1m151 1h1m261 1h1m49 2h1m-369 1h1m160 0h1m-272 3h1m-8 1h1m473 2h1m11 2h1m-486 7h1m107 1h1m-84 1h1m431 0h1m-327 1h1m96 0h1m-81 1h1m-147 1h1m364 1h1m4 1h1m-18 1h1m5 0h1m-224 1h1m245 0h1m-301 1h1m368 0h1m-111 1h1m-257 3h1m176 2h1m-138 1h1m105 0h1m-236 2h1m481 0h1m-357 1h1m12 1h1m235 0h1m-237 5h1m-42 1h1m258 0h1m-259 3h1m136 1h1m61 2h1m-180 1h1m123 0h1m70 0h1m-279 1h1m296 0h1m99 0h1m-425 1h1m84 3h1m-11 2h1m257 0h1m18 1h1m-123 1h1m-135 1h1m232 0h1m-52 1h1M8 367h1m490 0h1m-134 1h1m-238 2h1m36 0h1m323 0h1m10 1h1m-198 1h1m137 0h1m-343 1h1m51 0h1m-131 3h1m-21 1h1m142 1h1M3 379h1m333 2h1m21 1h1m138 2h1m-477 1h1m431 0h1m-13 2h1m42 0h1m-201 2h1m-155 2h1m164 0h1M4 397h1m444 0h1m-156 1h1m215 0h1m-41 3h1m-66 2h1m72 0h1m-87 1h1m-335 1h1m315 1h1m11 0h1m-374 1h1m34 0h1m10 2h1m386 3h1m61 2h1m-398 1h1m299 1h1m34 0h1m-344 5h1m1 7h1m265 0h2m0 1h1m-345 4h1m277 2h1m86 0h1m-298 1h1m194 0h1m128 0h1m-127 2h1m83 0h1m76 1h1m-423 1h1m13 3h1m456 1h1m-57 1h1m35 0h1m-471 1h1m361 0h1m99 0h1m-63 1h1m-359 2h1m-14 2h1m275 6h1m146 0h1m-183 1h1m104 0h1m-89 2h1m171 1h1m-184 3h1m162 3h1m-445 1h1m275 0h1m182 0h1m-431 1h1m221 0h1m67 0h1m51 1h1m-56 2h1m-267 1h1m50 0h1m286 1h1m-372 1h1m-21 1h1m361 0h1m-336 1h1m418 0h1m-122 1h1m124 1h1m-181 3h1m5 0h1m-238 1h1m349 2h1m-103 3h1m-21 2h1m-216 1h1m211 0h1m214 1h1m-57 1h1m-386 1h1m213 1h1m140 0h1m86 0h2m-458 1h1m459 0h1m-96 2h1m-16 1h1m22 2h1m87 0h1m-477 1h1m23 1h1m256 0h1m28 1h1m-292 1h1m221 3h1m222 1h1m6 1h1m-20 2h1m-432 1h1m3 0h1m455 7h1m-444 1h1m-53 2h1m422 3h1m31 0h1m11 1h1m-390 2h1m401 0h1m-28 3h1m13 5h1m-49 4h1m-135 3h1m-165 1h1m146 0h1m17 0h1m-115 1h1m15 0h1m28 2h1M7 549h1m74 0h1m266 0h1m-315 1h1m113 0h1m-132 1h1m282 0h1m138 0h1m-169 2h1m-57 1h1m187 0h1m-334 1h1m127 0h1M5 556h1m214 0h1m225 0h1m-386 2h1m313 0h1m-155 1h1m-166 1h1m207 0h1m89 0h1m-243 1h1m92 0h1m34 2h1m166 0h2m49 0h1m-245 1h1m138 1h1m-46 1h1m-238 2h1m314 0h1m47 0h1m-73 1h1m30 0h1m95 1h1m-209 1h1m-199 1h1m402 0h1m-393 1h1m107 0h1m-160 1h1m183 0h1m59 0h1m63 1h1m111 0h1m-17 2h1m-430 1h1m81 1h1m326 0h1m1 0h1m-311 1h1m200 0h1m-302 1h1m250 0h1m107 0h1m-173 2h1m20 0h1m183 0h1m58 0h1m-146 2h1m18 1h1m-7 1h1m114 0h1m2 1h1m-308 1h1m187 0h1m37 2h1m25 1h1m-49 2h1m-301 1h1m297 1h1m-150 1h1m156 0h1m-250 1h1m321 1h1m-165 1h1m225 1h1m-422 1h1m14 0h1m227 0h1m-123 1h1m149 1h1m86 1h1m-376 2h1m34 1h1m-30 2h1m425 0h1m-322 1h1m76 0h1m33 0h1m-200 1h1m63 0h1m188 0h1m135 1h1m-49 1h1m63 0h1m-271 1h1m244 2h1m23 0h1m-26 1h1m-291 1h1m8 0h1m222 0h1m-262 2h1m323 0h1m-432 1h1m187 0h1m132 0h1m71 0h1m-358 1h1m197 0h1m87 0h1M4 626h1m205 1h1m72 0h1m-125 1h1m69 1h1m139 0h1m68 0h1m-329 2h1m115 0h1m8 0h1m75 0h1m26 0h1m50 0h1m67 2h1m-296 2h1m-129 1h1m322 0h1m-299 1h1m269 0h1m131 1h1m-341 1h1m186 0h1m47 7h1m82 5h1m-222 4h1m-188 5h1m389 3h1m81 1h1m-76 3h1m-195 1h1m179 0h1m-336 4h1m298 8h1m-346 3h1m225 1h1m-132 1h1m274 2h1m-123 1h1m5 0h1m-250 3h1m437 0h1m-456 4h1m216 1h1m80 0h1m-282 1h1m-3 1h1m80 6h1m352 5h1m2 3h1m-30 4h1m23 3h1m-277 3h1m42 1h1m-126 1h1m25 2h1m333 1h1m37 2h1m-315 4h1m44 0h1m98 0h1m-70 3h1m145 2h1m-373 3h1m350 3h1m-324 4h1m39 1h1m32 0h1m281 0h1m17 0h1m-366 1h1m304 2h1m-204 1h1m221 3h1m-110 2h1M4 759h1m63 1h1m290 0h1m-85 3h1m-65 2h1m93 1h1"/>
    <path stroke="#fffffe" d="M97 10h1m79 2h1m11 0h1m167 1h1m-23 1h1m142 5h1m-78 1h1m-219 1h1m-98 2h1m288 1h1M12 25h1m169 4h1m173 0h1m113 1h1M43 31h1m166 0h1m205 2h1m-31 2h1M5 38h1m477 1h1m-118 3h1M52 43h1m185 6h1m-12 1h1m111 5h1m-192 1h1m8 2h1M45 60h1m72 1h1m59 0h1m272 0h1M86 62h1m129 1h1m-51 1h1m245 1h1m-92 2h1M85 70h1m190 5h1m151 2h1m-85 1h1m109 1h1M41 80h1m167 0h1m24 4h1m164 0h1m-30 1h1m-182 6h1m168 3h1m-193 4h1m100 2h1m7 5h1m-37 3h1m57 1h1m-161 7h1m81 1h1m11 3h1m-62 2h1m219 1h1m-234 2h1m1 1h1m-111 1h1m298 1h1m-114 1h1m214 0h1m14 0h1m-421 1h1m267 1h1m33 0h1m-159 1h1m60 1h1m180 0h1m11 2h1m15 0h1m-74 2h1m-183 1h1m296 0h1m-458 2h1m164 0h1m135 0h1m144 0h1m-50 1h1m-323 2h1m71 0h1m287 0h1m-392 2h1m40 2h1m42 1h1m287 0h1m-125 1h1m163 0h1m-14 1h1m-468 2h1m125 0h1M9 154h1m27 1h1m306 0h1m104 0h1m60 2h1m-423 1h1m-59 1h1m272 0h1m187 1h1m-92 1h1m57 0h1m-282 1h1m311 0h1m-210 1h1m164 0h1m-201 1h1m165 0h1m-188 1h1M2 166h1m326 1h1m-178 1h1m186 0h1m-54 1h1m73 1h1m-200 1h1m308 0h1m-404 1h1m140 0h1m128 0h1m-31 1h1m93 0h1m-328 2h1m22 3h1m258 0h1m-278 1h1m225 1h1m18 3h1m87 0h1m-291 2h1m197 0h1m-220 1h1m76 1h1m116 0h1m54 0h1m64 0h1m-327 2h1m62 0h1m61 0h1m282 1h1m-155 1h1m-136 2h1m168 0h1m92 0h1m-454 1h1m229 2h1m52 0h1m-203 1h1m-57 1h1m192 1h1m238 0h1m-357 2h1m166 1h1m-229 1h1m142 0h1m99 0h1M5 204h1m147 0h1m41 0h1m251 0h1m38 0h1m-440 1h1m57 0h1m124 1h1m-132 1h1m405 0h1m-118 1h1m-24 1h1m87 1h1m-419 1h1m302 0h1m-240 2h1m37 1h1m262 2h1m60 5h1m-364 1h1m-92 1h1m395 2h1m-62 1h1m36 0h1m29 0h1m73 2h1m-418 3h1m-60 2h1m240 1h1m123 0h1M1 235h1m496 1h1m-370 1h1m-74 1h1m385 0h1m-371 1h1m105 2h1m-134 1h1m344 1h1m-291 1h1m296 0h1m-220 1h1m-52 1h1m236 0h1m-272 1h1m324 0h1m6 1h1m38 0h1m-288 1h1m266 0h1m-352 1h1m332 0h1m-7 1h1m-243 2h1m261 0h1m-17 1h1m-299 1h1m-2 2h1m355 0h1m16 0h1m-72 2h1m1 0h1m27 2h1m-257 1h1m293 2h1m-394 1h1m309 0h1m11 0h1m-399 1h1m163 1h1m-141 2h1m349 2h1m36 0h1m-10 1h1m47 0h1m25 0h1m-257 1h1m160 1h1m-297 1h1m165 0h1m193 0h1m17 1h1m-382 1h1m9 1h1m226 1h1m-251 3h1m413 2h1m-223 1h1m-266 1h1m62 0h1m233 0h1m-78 1h1m251 0h1m-1 1h1m-354 2h1m39 0h1m69 0h1m81 0h1m-40 1h1m8 0h1m197 0h1m-217 2h1m6 1h1m25 2h1m122 0h1m-352 1h1m19 0h1m88 0h1m-63 2h1m114 4h1m57 0h1m-23 2h1m-259 1h1m8 0h1m455 7h1m-131 1h1M8 315h1m125 2h1m12 5h1m246 0h1m-348 1h1m320 0h1m-17 2h1m-109 1h1m-2 1h1m17 0h1m228 0h1m-93 1h1m-384 2h1m466 2h1m-350 2h1m257 2h1m3 0h1m-17 1h1m-365 1h1m106 0h1m146 0h1m-226 1h1m129 1h1m97 1h1m-23 4h1m220 1h1m-123 1h1m-184 2h1m-23 1h1m194 0h1m-293 3h1m332 0h1m-24 1h1m119 0h1m-212 2h1m14 1h1m-13 2h1m35 0h1m-9 4h1m-266 1h1m453 2h1m-362 1h1m-87 4h1m94 0h1m180 1h1m187 0h1m-226 2h1m32 0h1m17 1h1m156 0h1m-453 1h1m324 1h1m-323 1h1m241 4h1m-145 1h1m28 0h1m304 2h1m-362 2h1m342 0h1m25 0h1m-206 2h1m14 0h1m191 0h1m-12 1h1m-342 1h1m159 1h1m-159 1h1m159 5h1m14 0h1m-276 3h1m33 4h1m42 1h1m-55 3h1m-28 4h1m437 0h1m-37 2h1m-55 4h1m116 3h1m-22 2h1m35 0h1m-481 1h1m401 0h1m33 2h1m-401 6h1m308 2h1m-79 4h1m212 0h1m-484 2h1m388 0h1m-349 2h1m353 1h1m32 2h1m35 1h1m3 1h1m-7 2h1m-423 2h1m35 0h1m404 0h1m-193 1h1m87 0h1m61 1h1M2 455h1m496 3h1m-52 1h1m-341 3h1m222 0h1m-50 1h1m220 0h1m-444 1h1m310 1h1m118 0h1m-93 1h1m97 0h1m-467 2h1m376 0h1m-388 2h1m393 0h1m63 2h1m-443 1h1m287 1h1m90 1h1m90 0h1m-243 5h1m150 1h1m-378 1h1m215 0h1m158 3h1m-171 1h1m59 1h1m4 0h1m191 2h1m-260 1h1m2 0h1m-212 2h1m451 0h1m-112 2h1m-113 2h1m175 0h1m-171 2h1m210 1h1m-219 2h1m199 0h1m36 0h1m-85 1h1m17 0h1m73 1h1m-496 2h1m52 0h1m9 1h1m178 0h1m226 12h1m-404 1h1m379 1h1m0 1h1m-55 1h1m60 3h1m21 1h1m-177 1h1m131 1h1m62 0h1m-65 1h1m-353 2h1m332 0h1m-359 2h1m-33 1h1m408 0h1m22 0h1m-385 9h1m-61 1h1m70 1h1m32 0h1m-12 1h1m38 0h1m238 0h1m-362 2h1m32 0h1m123 4h1m107 0h1m72 0h1m20 0h1m-228 1h1m26 0h1m-118 1h1m44 0h1m84 0h1m3 1h1m88 0h1m-182 1h1m323 0h1m-215 2h1m113 0h1m-111 1h1m-98 1h1m311 0h1m-289 1h1m170 1h1m-205 1h1m53 1h1m322 0h1m-381 1h1m149 0h1m-28 1h1m-59 1h1m226 2h1m9 0h1m-308 2h1m157 1h1m55 0h1m-258 1h1m8 0h1m212 0h1m30 0h1m-50 1h1m-211 1h1m112 0h1m5 0h1m8 0h1m115 0h1m-35 1h1m84 1h1m110 3h1M2 581h1m464 0h1m-133 1h1m-291 1h1m348 0h1m-145 1h1m35 0h1m-266 1h1m113 0h1m331 0h1m-74 1h1m-66 3h1m127 0h1m-441 1h1m448 0h1m-266 1h1m240 1h1m-356 1h1m88 0h1m-147 1h1m1 0h1m126 0h1m37 0h1m144 0h1m116 0h1m-312 2h1m231 0h1m-339 1h1m248 0h1m-258 1h1m320 0h1m-46 1h1m52 0h1m-232 1h1m192 0h1m-163 1h1m-105 2h1m5 1h1m177 1h1m150 0h1m-259 1h1m157 0h1m11 0h1m-286 1h1m389 0h1m75 0h1m-408 1h1m398 0h1m-299 1h1m153 0h1m-214 2h1m18 0h1M8 612h1m126 0h1m132 2h1m233 0h1m-431 1h1m180 1h1m45 0h1m209 1h1m-433 2h1m-64 1h1m133 0h1m194 2h1m117 1h1m-335 2h1m267 0h1m-112 1h1m-78 1h1m84 0h1m-236 1h1m58 0h1m357 1h1m24 2h1m-259 2h1m-213 4h1m331 1h1m-258 1h1m-70 5h1m423 4h1m-233 2h1m-93 2h1m256 2h1m36 1h1m-64 2h1m42 1h1M2 659h1m229 0h1m159 1h1m-261 3h1m-20 2h1m178 5h1m-251 5h1m23 0h1m-6 1h1m27 2h1m51 0h1m196 2h1m-324 1h1m155 0h1m-61 4h1m121 7h1m211 0h1m-322 14h1m317 0h1m-378 1h1m44 1h1m234 3h1m98 7h1m52 4h1m-420 1h1m-46 3h1m91 0h1m185 0h1m-53 4h1m113 3h1m-177 2h1m0 6h1m307 3h1m-281 1h1m68 0h1m140 0h1m-387 1h1m104 1h1M8 750h1m366 0h1m-341 8h1m3 1h1m358 2h1m23 1h1m-276 1h1m180 3h1m53 0h1m-51 1h1"/>
    <path stroke="#010000" d="M144 208h16m32 0h26m1 0h5m64 0h16m-160 1h16m32 0h4m1 0h27m64 0h16m-160 1h16m32 0h32m64 0h16m-160 1h16m32 0h32m64 0h16m-160 1h16m32 0h32m64 0h16m-160 1h16m32 0h17m1 0h14m64 0h14m1 0h1m-160 1h16m32 0h32m64 0h16m-160 1h16m32 0h32m64 0h16m-160 1h16m32 0h32m39 0h1m6 0h1m17 0h16m-160 1h13m1 0h2m32 0h25m1 0h6m64 0h3m1 0h9m1 0h2m-160 1h16m32 0h32m64 0h16m-160 1h16m32 0h32m64 0h16m-160 1h14m1 0h1m32 0h32m64 0h16m-160 1h5m1 0h10m32 0h7m1 0h24m64 0h16m-160 1h4m1 0h6m1 0h4m32 0h30m1 0h1m64 0h16m-160 1h16m32 0h32m65 0h15m-160 1h16m64 0h16m64 0h16m-176 1h16m64 0h16m64 0h16m-175 1h15m64 0h3m1 0h4m1 0h7m64 0h16m-176 1h17m63 0h15m65 0h16m-176 1h16m17 0h1m46 0h16m64 0h16m-176 1h16m64 0h16m64 0h16m-176 1h16m64 0h16m64 0h16m-176 1h16m64 0h1m1 0h14m64 0h16m-176 1h16m64 0h16m64 0h16m-176 1h16m64 0h16m64 0h16m-176 1h16m64 0h16m64 0h16m-176 1h16m64 0h16m31 0h1m32 0h16m-176 1h16m64 0h16m65 0h15m-176 1h16m12 0h1m51 0h16m64 0h16m-176 1h16m24 0h1m39 0h9m1 0h6m64 0h16m-176 1h16m64 0h16m64 0h9m1 0h6m-70 11h1m4 0h1m-13 5h1m102 3h2m-2 1h2m-59 4h1m37 0h1m-179 9h1m-19 2h1m92 2h1m-96 6h1m95 1h1m-2 4h2m-18 1h16m144 0h16m-176 1h16m144 0h6m1 0h9m-228 1h1m51 0h16m144 0h1m1 0h14m-176 1h10m1 0h5m144 0h16m-176 1h16m144 0h16m-176 1h16m144 0h16m-176 1h16m144 0h16m-231 1h1m54 0h16m144 0h16m-176 1h16m144 0h16m-176 1h16m144 0h16m-176 1h16m144 0h16m-176 1h16m144 0h16m-176 1h16m144 0h16m-176 1h16m144 0h16m-176 1h16m144 0h16m-176 1h16m144 0h16m48 1h16m-279 1h1m262 0h12m1 0h3m-16 1h16m-16 1h16m-297 1h1m280 0h16m-16 1h16m-16 1h16m-16 1h16m-222 1h2m204 0h11m1 0h4m-222 1h2m204 0h14m1 0h1m-16 1h16m-16 1h16m-16 1h16m-16 1h16m-114 1h1m97 0h16m-35 1h1m18 0h16m-144 1h16m-16 1h11m1 0h4m-16 1h16m-16 1h13m1 0h2m-16 1h16m-16 1h2m1 0h13m-16 1h14m1 0h1m-16 1h16m-16 1h16m-16 1h16m-16 1h16m-16 1h11m1 0h2m1 0h1m-16 1h8m1 0h3m1 0h3m-16 1h16m-113 1h1m96 0h16m-16 1h16m-144 1h10m1 0h5m-16 1h16m-16 1h16m-16 1h16m-16 1h8m1 0h7m-111 1h1m94 0h16m-16 1h16m-16 1h11m1 0h4m-111 1h1m94 0h1m1 0h14m-16 1h16m-16 1h16m-16 1h16m-16 1h16m-16 1h16m44 0h1m-61 1h16m-16 1h16m-128 1h16m128 0h32m-176 1h16m128 0h32m-176 1h16m128 0h32m-176 1h16m128 0h21m1 0h10m-176 1h16m128 0h3m1 0h24m1 0h3m-176 1h16m128 0h32m-176 1h16m128 0h32m-176 1h16m128 0h32m-176 1h16m128 0h32m-176 1h16m128 0h21m1 0h10m-176 1h16m128 0h32m-176 1h4m1 0h11m128 0h32m-176 1h16m128 0h32m-176 1h16m128 0h8m1 0h23m-176 1h1m1 0h14m128 0h32m-176 1h16m128 0h5m1 0h26m-176 1h6m2 0h8m-16 1h6m2 0h8m-16 1h8m2 0h6m-16 1h8m2 0h6m-16 1h16m-16 1h16m-16 1h16m-16 1h16m-16 1h16m-16 1h16m-16 1h15m-15 1h16m-16 1h16m-16 1h16m-16 1h16m-16 1h16m-16 1h16m-16 1h16m3 0h1m-20 1h7m1 0h3m1 0h4m74 0h1m-91 1h16m-16 1h4m1 0h11m-16 1h16m-16 1h4m1 0h11m-16 1h12m1 0h3m-16 1h16m-16 1h14m1 0h1m-16 1h16m267 0h1m76 0h1m-361 1h16m-16 1h16m-16 1h16m-16 1h16m-16 1h16m81 3h1m0 8h2m-2 1h2m-2 1h2m57 0h1m-60 1h2m-100 3h2m1 0h29m64 0h16m-112 1h32m64 0h16m-112 1h10m1 0h21m64 0h16m-112 1h32m64 0h16m-112 1h32m64 0h16m-112 1h32m64 0h2m1 0h13m-112 1h14m1 0h17m64 0h16m-112 1h32m64 0h12m1 0h3m-112 1h32m64 0h16m-112 1h32m64 0h16m-112 1h32m64 0h16m-112 1h4m1 0h8m1 0h18m64 0h16m-112 1h20m1 0h11m64 0h16m-112 1h32m64 0h6m1 0h9m-112 1h32m64 0h16m-112 1h32m64 0h2m1 0h13m-112 1h16m144 0h16m32 0h14m1 0h1m32 0h16m-272 1h16m144 0h16m32 0h16m32 0h16m-272 1h16m144 0h16m32 0h16m32 0h16m-272 1h16m144 0h16m32 0h16m32 0h1m1 0h14m-272 1h16m144 0h9m1 0h6m32 0h16m32 0h3m1 0h12m-272 1h16m144 0h16m32 0h16m32 0h16m-272 1h16m144 0h16m32 0h16m32 0h16m-272 1h16m144 0h16m32 0h16m32 0h10m1 0h5m-272 1h13m1 0h2m144 0h16m32 0h6m1 0h9m32 0h16m-272 1h16m144 0h3m1 0h12m32 0h16m32 0h16m-272 1h16m144 0h16m32 0h16m32 0h16m-272 1h16m144 0h16m32 0h16m32 0h16m-272 1h16m144 0h8m1 0h7m31 0h17m32 0h16m-272 1h16m144 0h16m32 0h16m32 0h4m1 0h11m-272 1h16m144 0h16m32 0h16m32 0h16m-271 1h14m145 0h16m32 0h16m32 0h16m-176 1h1m-81 16h16m-16 1h1m1 0h14m-16 1h16m-16 1h16m-16 1h16m-16 1h16m-16 1h16m-15 1h15m-16 1h16m-16 1h16m-16 1h16m-16 1h2m1 0h13m-16 1h16m-16 1h16m-16 1h16m-16 1h2m1 0h13m96 1h6m2 0h8m-16 1h5m3 0h8m-16 1h16m-16 1h16m-16 1h16m-16 1h16m-16 1h8m2 0h6m-16 1h8m2 0h6m-16 1h16m-16 1h16m-16 1h16m-16 1h3m1 0h12m-15 1h15m-16 1h16m-16 1h16m-16 1h16m21 1h1m1 13h1m1 0h1m4 1h1m49 2h16m-16 1h16m-16 1h16m95 0h1m-112 1h16m-16 1h16m-27 1h1m10 0h16m-16 1h16m-16 1h16m42 0h1m-59 1h16m-16 1h16m-16 1h16m33 0h1m-145 1h1m94 0h16m-16 1h16m-16 1h16m-172 1h2m154 0h16m90 0h1m-263 1h2m154 0h16m-112 1h16m48 0h16m16 0h14m1 0h1m96 0h9m1 0h6m-224 1h5m1 0h10m48 0h10m1 0h5m16 0h16m96 0h3m1 0h12m-224 1h16m48 0h16m16 0h16m96 0h16m-224 1h16m48 0h2m1 0h13m16 0h16m96 0h16m-271 1h1m46 0h16m48 0h16m16 0h16m96 0h16m-224 1h16m48 0h16m16 0h16m96 0h16m-224 1h16m48 0h6m1 0h9m16 0h16m96 0h16m-224 1h16m48 0h16m16 0h16m33 0h1m62 0h16m-224 1h16m48 0h15m17 0h16m96 0h16m-224 1h16m48 0h16m16 0h16m55 0h1m40 0h16m-224 1h16m48 0h13m1 0h2m16 0h16m96 0h16m-224 1h16m48 0h16m16 0h16m96 0h2m1 0h13m-224 1h16m48 0h16m16 0h1m1 0h14m96 0h16m-224 1h16m12 0h1m35 0h16m16 0h16m96 0h7m1 0h8m-224 1h4m1 0h11m48 0h16m16 0h4m1 0h11m86 0h1m9 0h16m-224 1h16m48 0h16m16 0h16m96 0h16"/>
    <path stroke="#010101" d="M160 208h16m-16 1h16m-16 1h16m61 0h1m-78 1h16m-16 1h16m-16 1h16m-16 1h3m1 0h12m57 0h1m-74 1h16m-16 1h16m-16 1h16m55 0h1m-72 1h16m-16 1h16m-16 1h16m-16 1h16m-16 1h16m58 0h2m-76 1h16m58 0h2m-44 1h16m86 0h2m-104 1h16m13 0h1m72 0h2m-104 1h16m-16 1h16m-16 1h16m-16 1h16m-16 1h16m-16 1h16m-16 1h5m1 0h10m-16 1h16m-16 1h16m-16 1h16m-16 1h16m-16 1h16m80 0h1m-97 1h16m10 0h1m-27 1h16m0 1h16m48 0h16m17 0h1m-98 1h14m1 0h1m48 0h7m1 0h8m-155 1h1m74 0h16m48 0h5m1 0h10m-80 1h4m1 0h11m48 0h16m22 0h1m15 0h1m-119 1h16m48 0h16m-80 1h16m48 0h16m63 0h1m-144 1h16m48 0h10m2 0h4m52 0h1m-133 1h16m48 0h10m2 0h4m-80 1h16m48 0h16m-80 1h11m1 0h4m48 0h16m-80 1h10m1 0h5m48 0h16m18 0h1m-99 1h16m48 0h16m-80 1h16m48 0h16m39 0h1m-120 1h7m1 0h8m18 0h1m29 0h16m-80 1h16m48 0h16m-80 1h16m48 0h16m64 1h16m-16 1h16m-16 1h16m-16 1h16m-225 1h1m208 0h16m-16 1h16m-228 1h1m211 0h16m-16 1h16m-16 1h16m-16 1h16m-16 1h10m1 0h5m-16 1h12m1 0h3m-16 1h16m-16 1h16m-16 1h16m-16 1h16m-225 1h1m64 0h14m1 0h1m-16 1h10m1 0h5m-16 1h16m-16 1h16m-16 1h16m-16 1h16m-16 1h15m-15 1h16m-16 1h16m154 0h1m-171 1h16m-16 1h16m-16 1h16m-85 1h1m32 0h1m35 0h16m-73 1h1m56 0h16m-62 1h1m45 0h13m1 0h2m-16 1h16m15 13h1m-3 1h1m-81 1h1m-110 2h16m128 0h16m186 0h1m53 0h16m-416 1h16m128 0h16m240 0h16m-416 1h16m128 0h16m240 0h16m-416 1h16m128 0h15m213 0h1m27 0h16m-416 1h16m128 0h16m240 0h16m-416 1h16m128 0h16m183 0h1m56 0h16m-416 1h7m1 0h8m128 0h16m240 0h16m-416 1h16m98 0h1m29 0h16m240 0h16m-416 1h16m128 0h16m240 0h16m-416 1h16m128 0h16m240 0h16m-416 1h16m128 0h16m240 0h16m-416 1h16m128 0h16m187 0h1m52 0h16m-416 1h16m128 0h16m240 0h16m-416 1h16m128 0h16m240 0h16m-416 1h1m1 0h14m128 0h16m176 0h1m23 0h2m38 0h4m1 0h11m-416 1h16m128 0h16m200 0h2m38 0h16m-384 1h1m1 0h11m1 0h2m-16 1h16m-16 1h16m-16 1h16m-16 1h16m-16 1h16m-16 1h16m-16 1h16m-16 1h16m-16 1h16m-16 1h16m-16 1h16m-16 1h16m-16 1h16m-16 1h16m-16 1h14m1 0h1m112 1h16m-16 1h16m-16 1h16m-16 1h16m-16 1h16m-16 1h16m-16 1h16m-16 1h16m-16 1h3m1 0h10m1 0h1m-16 1h16m-16 1h16m-16 1h16m-16 1h16m216 0h2m-234 1h16m216 0h2m-234 1h16m-16 1h16m176 1h16m16 0h5m1 0h10m-48 1h16m16 0h16m-48 1h16m16 0h16m-48 1h16m16 0h16m-48 1h16m16 0h16m-48 1h16m16 0h16m-48 1h16m16 0h16m-48 1h16m16 0h16m-48 1h16m16 0h16m-48 1h16m16 0h10m1 0h5m-48 1h16m16 0h16m-48 1h16m16 0h16m-48 1h16m16 0h16m-48 1h16m16 0h16m-48 1h16m16 0h16m-48 1h16m16 0h16m-272 1h16m-16 1h5m1 0h10m12 0h1m-29 1h16m9 0h1m17 0h1m-44 1h16m-16 1h16m-16 1h16m-16 1h16m-16 1h11m1 0h4m-16 1h9m1 0h7m-17 1h16m-16 1h16m15 0h1m-32 1h16m-16 1h3m1 0h12m-16 1h16m-16 1h9m1 0h6m26 0h1m-43 1h16m201 2h1m22 1h1m-263 4h1m268 1h1m-2 4h1m-244 1h1m167 2h1m-127 1h1m-158 1h16m96 0h16m-128 1h16m96 0h16m-128 1h16m96 0h2m1 0h13m-128 1h16m96 0h16m-128 1h12m1 0h3m96 0h16m-128 1h16m96 0h1m1 0h14m-128 1h3m1 0h12m96 0h16m-128 1h16m96 0h16m-128 1h13m1 0h2m96 0h16m-128 1h16m96 0h16m6 0h1m-135 1h16m96 0h16m34 0h2m-164 1h16m96 0h16m34 0h2m-164 1h16m96 0h7m1 0h8m-128 1h16m96 0h16m-128 1h16m96 0h16m-128 1h16m96 0h16m32 1h16m-16 1h16m-16 1h16m-16 1h16m-16 1h2m2 0h12m-16 1h2m2 0h12m-162 1h1m145 0h16m-16 1h16m-16 1h16m-16 1h16m-16 1h16m-16 1h16m-16 1h16m-16 1h16m-16 1h15m-15 1h16m-112 1h16m-16 1h16m-16 1h16m-16 1h16m108 0h1m-125 1h16m-16 1h16m-16 1h16m46 0h1m58 0h1m-122 1h8m1 0h7m98 0h1m117 0h1m-233 1h16m68 0h2m-86 1h16m68 0h2m-86 1h16m200 0h1m-217 1h16m38 0h1m166 0h1m-222 1h16m-16 1h16m-16 1h16m-16 1h16m0 1h16m192 0h16m-224 1h16m192 0h16m-224 1h16m192 0h16m-224 1h16m192 0h16m-224 1h16m192 0h16m-255 1h1m30 0h10m1 0h5m192 0h16m-275 1h1m50 0h16m192 0h16m-249 1h1m24 0h14m1 0h1m192 0h16m-239 1h1m14 0h15m193 0h16m-224 1h16m192 0h16m-224 1h16m192 0h16m-224 1h16m192 0h16m-224 1h6m2 0h7m193 0h16m-224 1h6m2 0h8m192 0h16m-224 1h16m192 0h16m-223 1h14m193 0h16m-176 1h13m1 0h2m-130 1h1m113 0h16m-16 1h16m-62 1h1m45 0h16m-142 1h2m124 0h8m2 0h6m-142 1h2m124 0h8m2 0h6m-16 1h16m-16 1h16m-16 1h2m1 0h13m-16 1h16m-16 1h16m-16 1h16m-16 1h16m-16 1h16m-16 1h16m-16 1h16m-80 1h16m-16 1h16m-16 1h16m-52 1h1m35 0h16m-16 1h16m-16 1h16m-16 1h12m1 0h3m-16 1h16m-16 1h10m2 0h4m-16 1h1m1 0h8m2 0h4m-16 1h16m67 0h1m2 0h2m-88 1h16m70 0h2m-105 1h1m16 0h16m-16 1h16m-16 1h16m-16 1h16m-48 1h26m1 0h5m107 0h1m-140 1h32m-32 1h32m-32 1h32m-32 1h32m-32 1h21m1 0h10m-32 1h32m-32 1h32m-32 1h32m-32 1h13m1 0h16m1 0h1m-32 1h32m24 0h1m-57 1h32m-32 1h32m98 0h1m-131 1h25m1 0h6m-32 1h32m5 0h1m-38 1h13m1 0h18m34 1h1m121 2h2m-2 1h2m107 1h1m-52 3h1m-209 9h1m233 0h16m-16 1h16m-142 1h2m124 0h16m-142 1h2m124 0h11m1 0h4m13 0h1m-30 1h16m7 0h1m-24 1h16m-16 1h16m-16 1h16m-16 1h16m-16 1h16m-16 1h16m-237 1h1m10 0h1m209 0h3m1 0h12m-16 1h16m-16 1h16m-16 1h16m-136 1h1m119 0h16"/>
    <path stroke="#000100" d="M176 208h16m-16 1h4m1 0h11m-16 1h16m-16 1h16m-16 1h13m1 0h2m-16 1h16m-16 1h16m-16 1h16m-16 1h16m-16 1h16m-16 1h16m-16 1h16m-16 1h5m1 0h10m-16 1h16m-16 1h16m-16 1h2m1 0h3m1 0h9m27 11h1m60 3h1m7 2h1m-145 1h16m96 0h16m-128 1h16m96 0h16m-128 1h4m1 0h11m96 0h16m-128 1h16m96 0h16m-128 1h16m96 0h8m1 0h7m-128 1h12m1 0h3m96 0h16m-128 1h16m96 0h16m63 0h1m-192 1h16m96 0h5m1 0h4m1 0h5m-128 1h16m96 0h16m-128 1h5m1 0h10m96 0h16m-128 1h3m1 0h12m96 0h16m-128 1h16m96 0h2m1 0h13m-128 1h16m96 0h16m-128 1h13m1 0h2m96 0h16m-128 1h16m96 0h16m-128 1h1m1 0h14m96 0h16m-64 1h16m16 0h16m-48 1h16m16 0h16m-48 1h16m16 0h16m50 0h1m-99 1h16m16 0h3m1 0h12m-48 1h16m16 0h16m-48 1h16m16 0h16m-48 1h16m16 0h16m121 0h1m-170 1h16m16 0h16m80 0h1m36 0h1m-166 1h16m16 0h16m76 0h1m-125 1h16m16 0h16m-48 1h16m16 0h15m53 0h1m-101 1h16m16 0h16m-48 1h16m16 0h16m33 0h1m-82 1h16m16 0h16m-48 1h16m16 0h16m61 0h1m-110 1h16m16 0h4m1 0h9m1 0h1m128 1h11m1 0h4m-16 1h16m-18 1h1m1 0h12m2 0h2m-16 1h12m2 0h2m-261 1h1m244 0h16m-15 1h15m-16 1h16m-265 1h1m248 0h1m1 0h14m-16 1h16m-169 1h1m150 0h1m1 0h16m-239 1h1m222 0h16m-16 1h16m-168 1h1m151 0h16m-16 1h12m1 0h3m-18 1h1m1 0h16m-233 1h1m216 0h16m-16 1h16m-16 1h16m-16 1h16m-16 1h16m-16 1h16m-16 1h16m-16 1h16m-16 1h13m1 0h2m-16 1h16m-16 1h4m1 0h10m-15 1h16m-16 1h16m-16 1h16m-175 1h1m158 0h16m-16 1h16m-16 1h16m-336 1h16m309 0h1m-326 1h16m131 0h1m-148 1h9m1 0h6m128 0h1m-145 1h11m1 0h4m254 0h1m-271 1h16m252 0h2m-270 1h16m252 0h2m-270 1h16m132 0h2m-150 1h16m133 0h1m102 0h1m-253 1h16m236 0h1m7 0h1m-261 1h16m-16 1h16m237 0h1m-254 1h16m-16 1h16m-16 1h16m-16 1h16m137 0h1m-154 1h16m-16 1h16m129 0h15m-160 1h16m128 0h16m-160 1h14m130 0h16m-160 1h14m130 0h16m-160 1h12m1 0h3m128 0h16m-160 1h16m114 0h1m13 0h16m-160 1h16m128 0h16m-160 1h16m117 0h1m10 0h4m1 0h11m-160 1h3m1 0h12m120 0h1m7 0h16m-160 1h16m128 0h16m-160 1h16m128 0h16m-160 1h16m128 0h16m-160 1h16m128 0h16m-160 1h16m128 0h16m-160 1h16m128 0h16m2 0h2m-164 1h16m128 0h16m2 0h2m-133 2h1m-2 3h1m359 8h1m-226 1h1m219 0h1m-6 1h2m-2 1h2m-207 17h1m-18 6h2m-2 1h2m10 3h1m2 3h1m-14 3h16m112 0h16m32 0h16m-192 1h16m112 0h16m32 0h16m-192 1h16m112 0h12m1 0h3m32 0h16m-192 1h16m112 0h16m32 0h16m-192 1h16m112 0h16m32 0h16m14 0h1m-207 1h16m112 0h16m32 0h16m-236 1h2m42 0h16m112 0h16m32 0h16m14 0h1m-251 1h2m42 0h16m112 0h16m32 0h16m-219 1h1m26 0h8m1 0h7m112 0h16m32 0h14m-202 1h1m11 0h2m1 0h2m1 0h10m112 0h16m32 0h14m-190 1h16m112 0h16m32 0h13m1 0h2m-192 1h16m112 0h16m32 0h2m1 0h13m-227 1h1m34 0h16m112 0h16m32 0h3m1 0h12m-192 1h16m112 0h16m32 0h16m-192 1h16m112 0h16m32 0h16m-192 1h16m112 0h16m32 0h16m-336 1h16m256 0h16m-288 1h16m256 0h6m1 0h9m-288 1h16m256 0h16m-288 1h16m256 0h3m1 0h12m-288 1h16m256 0h16m-288 1h16m66 0h1m189 0h16m-288 1h10m1 0h5m107 0h1m148 0h12m1 0h3m-288 1h14m1 0h1m256 0h16m-288 1h16m72 0h1m183 0h16m-288 1h7m1 0h8m256 0h16m-288 1h3m1 0h12m258 0h14m-288 1h16m258 0h14m-288 1h16m256 0h16m-288 1h16m240 0h1m15 0h9m1 0h6m-288 1h16m256 0h16m-288 1h16m71 0h1m184 0h16m-224 1h4m1 0h11m16 0h16m16 0h16m112 0h18m1 0h13m-224 1h16m16 0h15m17 0h14m1 0h1m112 0h32m-224 1h6m1 0h9m16 0h16m16 0h16m112 0h32m-224 1h16m16 0h16m16 0h16m112 0h18m1 0h13m-224 1h2m2 0h8m2 0h2m16 0h16m16 0h16m112 0h22m1 0h9m-224 1h2m2 0h8m2 0h2m16 0h16m16 0h16m112 0h32m-224 1h16m16 0h16m16 0h15m113 0h28m2 0h2m-224 1h16m16 0h16m16 0h16m112 0h28m2 0h2m-224 1h16m16 0h15m17 0h6m1 0h9m112 0h18m1 0h13m-224 1h16m16 0h16m16 0h16m112 0h32m-224 1h16m16 0h16m16 0h16m112 0h32m-224 1h16m16 0h16m16 0h16m112 0h32m-224 1h16m16 0h16m16 0h16m112 0h32m-224 1h10m1 0h5m16 0h16m16 0h16m112 0h32m-224 1h16m16 0h1m1 0h14m16 0h16m112 0h32m-224 1h16m16 0h16m16 0h16m112 0h9m1 0h22m-256 1h16m16 0h32m-64 1h4m1 0h11m16 0h32m13 0h1m-78 1h10m1 0h4m17 0h32m65 0h1m-130 1h16m16 0h32m-64 1h16m16 0h32m-64 1h16m16 0h32m-64 1h16m16 0h21m1 0h10m-64 1h16m16 0h32m-64 1h16m16 0h8m1 0h23m-64 1h16m16 0h32m1 0h1m-66 1h16m16 0h32m14 0h1m-79 1h16m16 0h32m171 0h1m-236 1h16m16 0h26m1 0h5m168 0h1m-233 1h16m16 0h7m1 0h24m92 0h1m-157 1h16m16 0h32m-64 1h16m16 0h32m-112 1h16m96 0h16m144 0h16m-288 1h16m96 0h16m144 0h16m-288 1h16m96 0h9m1 0h6m144 0h10m1 0h5m-288 1h16m96 0h16m144 0h16m-288 1h16m96 0h8m1 0h7m144 0h16m-288 1h16m96 0h16m144 0h16m-288 1h16m96 0h16m144 0h16m-288 1h16m96 0h16m144 0h16m-288 1h16m96 0h1m1 0h14m144 0h16m-288 1h1m1 0h14m96 0h16m144 0h16m-288 1h16m96 0h16m144 0h16m-288 1h16m3 0h1m92 0h16m144 0h16m-288 1h16m96 0h16m144 0h16m-288 1h9m1 0h6m96 0h16m144 0h16m-288 1h16m96 0h16m144 0h3m1 0h12m-288 1h16m11 0h1m84 0h16m144 0h12m1 0h3m-192 1h16m176 0h16m-208 1h16m176 0h16m-208 1h16m176 0h16m-208 1h16m176 0h16m-208 1h16m176 0h16m-208 1h16m176 0h15m-207 1h8m1 0h7m176 0h16m-208 1h16m176 0h16m-208 1h16m168 0h1m7 0h12m1 0h3m-208 1h16m176 0h16m-208 1h16m176 0h10m2 0h4m-208 1h16m176 0h10m2 0h4m-208 1h2m1 0h13m176 0h16m-208 1h16m176 0h16m-208 1h16m176 0h16m-208 1h16m176 0h16m-192 1h16m-16 1h16m-15 1h15m-16 1h16m-16 1h16m-100 1h1m83 0h16m-16 1h5m1 0h10m-16 1h16m-16 1h16m-67 1h1m50 0h16m-16 1h16m-16 1h14m1 0h1m-16 1h16m-16 1h16m-16 1h16m-23 1h1m6 0h16m-32 1h16m160 0h16m-220 1h1m27 0h16m160 0h16m-192 1h16m56 0h1m6 0h1m96 0h16m-192 1h16m160 0h16m-192 1h16m160 0h16m-192 1h16m160 0h16m-192 1h16m160 0h16m-192 1h16m160 0h16m-192 1h16m160 0h16m6 0h1m-199 1h16m160 0h16m5 0h1m-198 1h16m160 0h16m-192 1h16m160 0h16m-192 1h16m160 0h16m-192 1h16m160 0h16m-192 1h16m160 0h16m-192 1h16m160 0h16m-166 1h1m21 0h16m25 0h1m101 0h1m12 0h1m-157 1h16m-16 1h7m1 0h7m-15 1h7m1 0h8m-16 1h16m-16 1h4m1 0h11m33 0h1m-50 1h16m-16 1h16m-66 1h1m49 0h16m-33 1h1m16 0h16m-16 1h16m122 0h1m-139 1h16m171 0h1m-188 1h16m112 0h2m-210 1h1m30 0h1m48 0h16m112 0h2m-130 1h16m44 0h1m-127 1h1m65 0h16m16 0h1m115 0h1m-180 1h1m170 5h1m-176 1h1m165 0h1m-191 1h1m100 3h1m-89 1h1m184 2h1m-159 1h1"/>
    <path stroke="#010100" d="M218 208h1m5 0h16m-44 1h1m27 0h16m-16 1h13m1 0h2m-16 1h16m-16 1h16m-31 1h1m14 0h16m-16 1h9m1 0h6m-16 1h16m-16 1h16m-83 1h1m66 0h7m1 0h8m-16 1h16m-16 1h16m-16 1h16m-16 1h16m-85 1h1m68 0h10m2 0h4m-58 1h1m41 0h10m2 0h4m48 1h6m2 0h8m-16 1h6m2 0h8m-160 1h1m143 0h16m-16 1h16m-16 1h16m-16 1h16m-16 1h16m-16 1h16m-16 1h16m-16 1h16m-16 1h16m-16 1h16m-16 1h16m-15 1h15m-16 1h16m-15 1h15m9 0h1m-92 2h1m-75 1h1m7 3h1m-8 4h1m138 7h16m16 0h16m-48 1h16m16 0h16m-48 1h16m16 0h16m-48 1h16m16 0h16m-48 1h16m16 0h16m-48 1h16m16 0h16m-48 1h16m16 0h16m-48 1h1m1 0h14m16 0h7m1 0h8m-48 1h16m16 0h12m1 0h3m-48 1h16m16 0h16m-81 1h1m32 0h16m16 0h16m26 0h1m-75 1h16m16 0h16m28 0h1m-77 1h1m1 0h14m16 0h16m-48 1h16m16 0h16m-48 1h16m16 0h16m-48 1h16m16 0h16m-208 1h15m79 0h1m-95 1h16m74 0h1m-91 1h3m1 0h12m-16 1h16m-16 1h11m1 0h4m-16 1h16m-16 1h16m79 0h1m-96 1h7m1 0h8m-16 1h16m-16 1h16m-16 1h1m1 0h14m-16 1h16m-16 1h11m1 0h4m-16 1h16m-16 1h16m-16 1h16m230 2h1m-6 1h1m27 5h1m-10 2h1m-69 7h16m64 0h32m-112 1h16m64 0h32m-112 1h16m64 0h32m-357 1h1m244 0h14m1 0h1m64 0h20m1 0h11m-112 1h12m2 0h2m64 0h32m-112 1h12m2 0h2m64 0h32m-377 1h1m264 0h16m64 0h32m-220 1h1m107 0h16m64 0h32m-112 1h4m1 0h11m64 0h32m-112 1h16m64 0h32m-112 1h16m64 0h32m-112 1h16m64 0h32m-112 1h16m64 0h32m-112 1h16m64 0h32m-112 1h14m1 0h1m64 0h8m2 0h22m-112 1h16m64 0h8m2 0h3m1 0h18m-115 4h1m-242 1h1m241 2h1m-107 1h1m99 5h1m-219 3h1m-15 1h16m-16 1h15m-15 1h16m-16 1h16m-16 1h14m1 0h1m88 0h1m-105 1h1m1 0h14m-16 1h16m-16 1h16m-16 1h1m1 0h14m81 0h1m33 0h1m-132 1h16m-16 1h16m-16 1h16m-16 1h16m-16 1h16m-16 1h16m-16 1h16m341 1h1m-209 9h1m212 0h1m-373 7h2m-2 1h2m109 0h1m-3 11h1m-100 4h16m240 0h16m64 0h16m-352 1h3m1 0h12m240 0h16m64 0h16m-352 1h16m240 0h16m65 0h15m-352 1h16m240 0h16m64 0h16m-364 1h1m11 0h16m240 0h16m64 0h14m1 0h1m-352 1h16m240 0h16m64 0h16m-352 1h16m240 0h16m64 0h14m1 0h1m-356 1h1m3 0h16m240 0h16m64 0h7m1 0h8m-352 1h16m240 0h16m64 0h16m-354 1h1m1 0h16m133 0h1m106 0h16m64 0h16m-352 1h16m240 0h11m1 0h4m64 0h8m1 0h7m-352 1h16m240 0h16m50 0h1m13 0h6m1 0h9m-352 1h16m240 0h16m64 0h16m-352 1h16m240 0h16m64 0h16m-352 1h16m240 0h11m1 0h4m64 0h16m-352 1h16m240 0h16m64 0h16m-224 1h16m-16 1h16m-16 1h16m-16 1h16m131 0h1m-280 1h1m131 0h16m-47 1h1m30 0h16m-157 1h1m140 0h16m-130 1h1m113 0h16m-16 1h16m-137 1h1m120 0h16m-16 1h16m-16 1h16m-16 1h13m1 0h2m-16 1h16m137 0h1m-154 1h16m-16 1h16m-96 1h16m4 0h1m205 0h1m-227 1h16m47 0h1m-118 1h1m53 0h16m6 0h1m-23 1h16m-16 1h16m12 0h2m-30 1h16m12 0h2m-30 1h16m-16 1h16m28 0h1m-45 1h16m47 0h1m-64 1h16m-16 1h16m-76 1h1m8 0h1m50 0h16m-60 1h1m43 0h16m-16 1h16m-16 1h16m95 0h1m-112 1h16m201 0h1m-219 3h1m37 4h1m-30 1h1m193 0h1m-161 5h1m-20 1h1m172 0h1m-261 2h1m14 0h1m104 5h1m-27 3h1m0 1h1m-95 1h1m93 3h1m-16 3h1m-64 2h1m-2 6h1m113 1h1m-19 10h1m-37 4h1m-12 3h1m60 2h1m-63 5h16m80 0h5m1 0h5m1 0h4m-112 1h4m1 0h11m80 0h16m-112 1h16m80 0h8m1 0h6m-111 1h16m80 0h16m-112 1h16m80 0h16m-112 1h16m80 0h16m-112 1h16m80 0h16m-112 1h16m80 0h16m-112 1h16m80 0h16m-112 1h16m80 0h16m-112 1h16m80 0h16m-112 1h16m80 0h16m-112 1h16m80 0h2m1 0h13m-112 1h16m80 0h7m1 0h1m1 0h6m-112 1h5m1 0h10m80 0h14m1 0h1m-131 1h1m18 0h16m80 0h16m-112 1h16m48 0h16m128 0h15m33 0h16m-272 1h16m48 0h16m128 0h16m32 0h16m-272 1h16m48 0h16m15 0h1m112 0h16m32 0h15m-271 1h16m48 0h16m128 0h16m32 0h16m-272 1h16m48 0h16m128 0h16m32 0h9m1 0h6m-272 1h16m48 0h16m128 0h16m32 0h16m-272 1h16m48 0h16m128 0h16m32 0h16m-272 1h16m48 0h16m128 0h6m1 0h3m1 0h5m32 0h16m-272 1h16m48 0h16m128 0h16m32 0h16m-272 1h16m48 0h16m128 0h16m32 0h16m-272 1h16m48 0h16m128 0h1m1 0h8m1 0h5m32 0h16m-272 1h16m48 0h1m1 0h14m128 0h16m32 0h11m1 0h4m-272 1h16m48 0h16m130 0h14m32 0h16m-271 1h15m48 0h16m130 0h14m32 0h16m-272 1h4m2 0h10m48 0h16m128 0h16m32 0h10m1 0h5m-272 1h4m2 0h8m1 0h1m48 0h16m128 0h16m32 0h16m-272 1h6m1 0h25m80 0h16m46 0h1m81 0h16m9 0h1m-282 1h32m37 0h1m42 0h16m10 0h1m117 0h16m-272 1h32m80 0h2m2 0h12m128 0h16m-272 1h32m80 0h2m2 0h12m128 0h13m1 0h2m-272 1h17m1 0h14m80 0h16m128 0h7m1 0h8m-272 1h32m80 0h16m128 0h16m-272 1h32m80 0h16m6 0h1m121 0h16m-272 1h21m1 0h10m80 0h16m128 0h16m-272 1h32m80 0h16m128 0h16m-272 1h32m80 0h16m128 0h16m-272 1h32m80 0h10m1 0h5m13 0h1m114 0h16m-272 1h19m1 0h10m1 0h1m80 0h16m115 0h1m12 0h16m-272 1h32m80 0h16m33 0h1m94 0h16m-272 1h32m80 0h16m128 0h16m-272 1h32m80 0h16m128 0h6m1 0h9m-272 1h32m80 0h8m1 0h7m128 0h16"/>
    <path stroke="#000" d="M256 208h16m-16 1h16m-16 1h16m-16 1h16m-83 1h1m66 0h12m1 0h3m-16 1h16m30 0h1m-47 1h16m-16 1h16m-16 1h7m1 0h1m1 0h4m1 0h1m-16 1h16m19 0h1m-36 1h16m-16 1h16m-114 1h1m22 0h1m74 0h16m-123 1h1m106 0h16m-124 1h1m107 0h16m-16 1h16m16 0h1m-129 1h16m80 0h32m-128 1h3m1 0h12m80 0h32m-128 1h16m80 0h32m-127 1h15m80 0h32m-128 1h16m80 0h32m-128 1h16m80 0h32m-128 1h16m80 0h32m-128 1h16m80 0h29m1 0h2m-128 1h16m80 0h32m-128 1h16m80 0h32m-128 1h16m80 0h32m-128 1h16m80 0h15m1 0h16m-128 1h16m80 0h32m16 0h1m-145 1h12m1 0h3m80 0h24m1 0h7m-128 1h16m80 0h32m-128 1h16m80 0h32m-56 5h1m-86 6h1m110 1h1m-35 2h1m42 3h1m68 0h16m-123 1h1m106 0h16m-16 1h10m2 0h4m-109 1h1m92 0h10m2 0h4m-16 1h16m-16 1h16m-16 1h16m-89 1h1m73 0h15m-16 1h16m-16 1h16m-16 1h16m-16 1h16m-16 1h16m-16 1h16m-114 1h1m97 0h16m-98 1h1m81 0h16m-128 1h16m-16 1h16m-16 1h16m156 0h2m-174 1h16m156 0h2m-173 1h15m-16 1h16m-16 1h16m-16 1h16m145 0h1m-162 1h16m-16 1h7m1 0h8m-16 1h16m-16 1h1m1 0h10m1 0h3m-16 1h8m1 0h7m-16 1h16m-16 1h16m-14 1h14m-22 4h1m-54 4h2m-4 5h1m-20 4h16m48 0h32m-96 1h13m1 0h2m48 0h3m1 0h4m1 0h23m204 0h1m-372 1h1m70 0h16m49 0h31m-96 1h16m48 0h13m1 0h18m-96 1h7m1 0h8m48 0h32m-96 1h16m48 0h32m-96 1h16m48 0h1m1 0h2m2 0h26m-96 1h16m48 0h4m2 0h26m-96 1h16m48 0h18m2 0h12m203 0h1m-300 1h16m48 0h18m2 0h12m206 0h1m-303 1h16m48 0h32m-96 1h16m48 0h32m-96 1h2m2 0h12m48 0h32m-96 1h2m2 0h12m48 0h32m-96 1h16m48 0h9m1 0h19m1 0h2m-96 1h16m48 0h32m-64 1h32m16 0h16m-64 1h32m16 0h16m75 0h1m-238 1h2m96 0h32m16 0h16m-162 1h2m96 0h32m16 0h16m80 0h1m11 0h1m-157 1h32m16 0h16m-64 1h18m1 0h13m16 0h16m66 0h1m-131 1h32m16 0h16m-64 1h21m1 0h10m16 0h16m-64 1h24m1 0h7m16 0h16m-64 1h32m16 0h16m214 0h1m-279 1h32m16 0h16m-64 1h32m16 0h16m-64 1h32m16 0h16m76 0h1m-141 1h32m16 0h16m-64 1h31m17 0h2m2 0h12m-64 1h32m16 0h2m2 0h12m-16 1h16m208 0h16m-268 1h1m27 0h16m208 0h16m-240 1h16m208 0h16m-240 1h16m208 0h16m-240 1h16m208 0h16m-240 1h16m208 0h16m-240 1h16m208 0h16m-240 1h16m208 0h16m-240 1h16m208 0h16m-240 1h16m77 0h1m130 0h11m1 0h4m-240 1h16m208 0h16m-240 1h16m208 0h16m-240 1h16m208 0h6m1 0h9m-240 1h5m1 0h6m1 0h3m208 0h1m1 0h8m1 0h5m-240 1h16m209 0h15m-240 1h16m208 0h16m-48 3h2m-2 1h2m-327 1h1m119 0h1m206 0h1m7 2h1m-359 5h1m19 1h1m-24 2h1m158 2h4m1 0h10m-15 1h16m-16 1h16m-16 1h16m-16 1h16m-16 1h16m-16 1h6m1 0h9m-16 1h16m-16 1h16m179 0h1m-196 1h16m-161 1h1m144 0h10m1 0h5m-16 1h16m-16 1h16m-16 1h13m1 0h2m-16 1h16m-16 1h16m128 1h5m1 0h10m-16 1h16m-218 1h2m200 0h16m-218 1h2m200 0h16m-16 1h16m-16 1h16m-316 1h1m299 0h16m-16 1h16m-16 1h16m30 0h2m-48 1h16m30 0h2m-48 1h16m29 0h1m-46 1h16m-16 1h16m-16 1h16m-16 1h16m-16 1h16m-240 1h32m160 0h16m-208 1h32m160 0h16m-208 1h17m1 0h14m160 0h16m-208 1h32m160 0h16m-208 1h25m1 0h6m160 0h16m-208 1h18m1 0h13m160 0h12m1 0h3m-208 1h32m160 0h16m-208 1h32m160 0h16m-208 1h24m1 0h7m160 0h16m-208 1h32m160 0h16m-208 1h18m2 0h12m160 0h18m-210 1h18m2 0h12m160 0h18m-210 1h18m2 0h12m160 0h16m-208 1h18m2 0h12m161 0h15m-208 1h32m160 0h16m-208 1h23m1 0h8m160 0h16m-229 3h1m230 1h1m3 1h1m-197 1h1m60 1h1m-25 1h1m14 1h1m139 0h1m-189 5h1m10 1h1m14 2h16m48 0h16m14 0h1m-95 1h16m48 0h16m-150 1h1m69 0h16m48 0h16m-80 1h16m48 0h16m49 0h1m-130 1h16m48 0h3m1 0h12m-80 1h16m48 0h16m-80 1h16m48 0h16m-80 1h16m48 0h16m-195 1h1m114 0h16m48 0h16m-80 1h16m19 0h1m28 0h16m-80 1h16m48 0h16m-80 1h16m48 0h16m-80 1h16m48 0h15m-79 1h16m48 0h12m1 0h3m-80 1h16m48 0h16m-80 1h16m48 0h16m-87 3h1m160 0h1M73 461h1m265 1h1m-218 2h1m213 0h16m-16 1h16m-16 1h1m1 0h14m-16 1h16m-16 1h16m-16 1h16m-184 1h1m167 0h16m-16 1h16m-16 1h8m1 0h7m-16 1h16m-16 1h16m10 0h2m-282 1h1m253 0h16m10 0h2m-28 1h16m-16 1h16m-16 1h16m-270 1h1m35 0h1m217 0h16m-240 1h1m1 0h14m32 0h16m22 0h2m136 0h16m-240 1h16m32 0h16m21 0h3m136 0h16m-240 1h16m32 0h16m160 0h16m-240 1h16m32 0h16m160 0h16m-240 1h16m32 0h16m160 0h16m-240 1h16m32 0h16m160 0h16m-240 1h14m1 0h1m32 0h16m5 0h1m18 0h2m134 0h16m-240 1h16m32 0h16m24 0h2m134 0h16m-240 1h16m32 0h16m160 0h16m-240 1h13m1 0h2m32 0h16m160 0h16m-240 1h16m32 0h16m160 0h16m-240 1h16m32 0h16m19 0h1m140 0h16m-240 1h16m32 0h16m16 0h1m143 0h16m-240 1h16m32 0h16m160 0h16m-240 1h16m32 0h16m160 0h16m-240 1h16m32 0h9m1 0h6m160 0h16m-208 17h16m80 0h9m1 0h22m-128 1h16m80 0h32m-128 1h16m55 0h1m24 0h32m-128 1h16m55 0h1m24 0h32m111 0h1m-240 1h16m80 0h11m1 0h20m-128 1h16m80 0h17m1 0h14m-128 1h16m80 0h32m-128 1h8m1 0h7m80 0h32m-128 1h14m1 0h1m80 0h32m107 0h1m-236 1h16m80 0h32m-128 1h16m80 0h32m-128 1h13m1 0h2m80 0h5m1 0h26m-128 1h16m80 0h32m96 0h2m-226 1h15m81 0h32m96 0h2m-226 1h16m80 0h28m1 0h3m-128 1h16m81 0h16m1 0h14m-112 1h16m160 0h31m-207 1h16m160 0h32m-208 1h16m160 0h32m-208 1h16m160 0h32m-208 1h16m160 0h32m-208 1h16m160 0h12m1 0h19m-208 1h13m1 0h2m160 0h3m1 0h28m-208 1h9m1 0h6m160 0h1m1 0h30m-208 1h16m160 0h32m-208 1h16m160 0h23m1 0h8m-208 1h16m160 0h32m-208 1h2m1 0h13m160 0h32m34 0h1m-243 1h16m160 0h32m-208 1h16m160 0h11m1 0h20m-208 1h16m20 0h1m95 0h1m43 0h32m-208 1h7m1 0h8m160 0h32"/>
    <path stroke="#000001" d="M272 208h16m16 0h16m-48 1h5m1 0h10m16 0h16m-48 1h16m16 0h16m-48 1h13m1 0h2m16 0h16m-52 1h1m3 0h16m16 0h16m-48 1h16m16 0h16m-48 1h16m16 0h16m-48 1h16m16 0h16m-55 1h1m6 0h16m16 0h16m-48 1h16m16 0h16m-48 1h16m16 0h16m-48 1h16m16 0h16m-48 1h16m16 0h16m-48 1h16m16 0h16m-48 1h16m16 0h16m-48 1h16m16 0h16m-157 2h1m16 1h2m-2 1h2m40 3h1m62 1h1m-62 9h16m15 0h1m-32 1h16m-16 1h16m-112 1h1m95 0h16m-16 1h8m1 0h7m-16 1h16m-16 1h16m90 0h2m-108 1h16m90 0h2m-108 1h16m101 0h1m-118 1h16m83 0h1m-100 1h16m-16 1h15m-15 1h16m77 0h1m-161 1h1m67 0h15m-16 1h16m56 0h1m-73 1h16m85 0h1m-102 1h16m16 0h11m1 0h4m-48 1h5m1 0h10m16 0h16m4 0h1m-53 1h16m16 0h6m1 0h9m-48 1h16m16 0h16m-48 1h4m1 0h11m16 0h16m-48 1h16m16 0h16m-48 1h16m16 0h16m-48 1h16m16 0h7m1 0h8m-48 1h16m16 0h16m-48 1h16m16 0h16m-48 1h16m16 0h16m-141 1h1m92 0h8m1 0h7m16 0h6m1 0h9m-48 1h16m16 0h6m1 0h5m1 0h3m36 0h1m-85 1h16m16 0h16m-48 1h8m2 0h4m1 0h1m16 0h15m-47 1h8m2 0h6m16 0h16m108 0h1m-214 7h1m203 0h1m-136 5h1m-65 3h1m-13 2h16m-16 1h16m-16 1h16m-16 1h16m-16 1h16m-16 1h16m-16 1h16m62 0h1m-79 1h1m1 0h3m2 0h4m1 0h4m-16 1h16m-29 1h1m12 0h16m-16 1h16m-16 1h16m-16 1h3m1 0h12m-16 1h16m-16 1h1m1 0h14m-16 1h16m0 1h1m1 0h14m176 0h16m-227 1h1m18 0h16m24 0h1m151 0h2m1 0h13m-208 1h16m122 0h1m53 0h16m-208 1h16m29 0h1m146 0h16m-208 1h16m176 0h16m-208 1h16m176 0h16m-208 1h6m1 0h9m17 0h1m158 0h16m-208 1h16m176 0h16m-208 1h16m176 0h16m-208 1h16m176 0h16m-208 1h16m176 0h16m-208 1h16m176 0h16m-238 1h2m28 0h16m176 0h16m-238 1h2m21 0h1m6 0h16m176 0h16m-208 1h16m45 0h1m130 0h16m-208 1h16m176 0h16m-336 1h16m256 0h16m96 0h32m-416 1h16m256 0h16m96 0h26m1 0h5m-416 1h16m256 0h16m96 0h32m-416 1h16m257 0h11m1 0h3m96 0h32m-416 1h13m1 0h2m256 0h16m96 0h23m1 0h8m-416 1h16m256 0h16m96 0h21m1 0h10m-416 1h16m256 0h16m96 0h32m-416 1h16m256 0h16m96 0h32m-416 1h14m258 0h16m96 0h32m-416 1h14m258 0h16m96 0h22m1 0h9m-416 1h16m256 0h16m96 0h15m1 0h16m-416 1h16m256 0h16m96 0h9m1 0h22m-416 1h16m256 0h16m96 0h32m-416 1h10m1 0h5m256 0h16m96 0h32m-416 1h16m256 0h16m96 0h32m-416 1h10m1 0h5m256 0h16m96 0h32m-400 1h16m112 0h16m96 0h16m-256 1h16m112 0h4m1 0h11m96 0h16m-256 1h16m112 0h16m96 0h16m7 0h1m-264 1h16m112 0h16m96 0h16m-256 1h16m112 0h16m96 0h16m-256 1h16m112 0h16m96 0h16m-256 1h16m112 0h16m96 0h16m-256 1h16m112 0h16m96 0h16m-256 1h16m112 0h16m96 0h16m-256 1h16m112 0h16m96 0h13m1 0h2m7 0h1m131 0h1m-396 1h16m112 0h16m96 0h16m-256 1h16m112 0h16m96 0h16m-256 1h16m112 0h16m96 0h11m1 0h4m117 0h1m-374 1h16m112 0h16m96 0h16m138 0h1m-395 1h16m112 0h16m96 0h16m128 0h1m-384 1h15m112 0h16m96 0h16m-240 1h16m80 0h16m224 0h16m-352 1h16m80 0h16m224 0h16m-352 1h16m80 0h16m226 0h11m1 0h2m-352 1h16m80 0h16m226 0h14m-352 1h11m1 0h4m80 0h16m224 0h2m1 0h13m-352 1h16m80 0h16m224 0h9m1 0h6m-352 1h16m80 0h16m224 0h10m1 0h5m-352 1h16m80 0h16m224 0h16m-352 1h16m80 0h16m224 0h16m-352 1h16m80 0h16m224 0h16m-352 1h16m80 0h14m1 0h1m224 0h16m-352 1h16m80 0h16m224 0h16m-352 1h8m1 0h7m80 0h16m1 0h1m222 0h16m-352 1h16m80 0h16m224 0h16m-351 1h15m80 0h16m224 0h16m-352 1h16m81 0h15m224 0h16m-352 1h16m98 0h2m32 0h1m171 0h32m-352 1h16m98 0h2m204 0h27m1 0h4m-352 1h16m304 0h32m-352 1h16m304 0h32m-352 1h16m304 0h32m-352 1h16m304 0h32m-352 1h16m134 0h1m169 0h32m-352 1h16m304 0h32m-352 1h16m304 0h19m1 0h12m-352 1h16m304 0h32m-352 1h16m304 0h11m1 0h20m-352 1h16m304 0h1m1 0h30m-352 1h16m304 0h2m2 0h28m-352 1h16m304 0h2m2 0h28m-352 1h16m304 0h32m-352 1h16m304 0h32m-272 1h16m197 0h1m-214 1h16m14 0h1m26 0h1m-58 1h2m1 0h3m2 0h8m-16 1h6m2 0h8m-16 1h16m-16 1h16m217 0h1m-234 1h16m-16 1h16m-16 1h16m-16 1h16m-16 1h16m219 0h1m-236 1h16m-16 1h16m-16 1h16m-16 1h16m-16 1h13m1 0h2m-7 5h1m178 1h1m-149 1h1m-2 8h1m-88 2h16m64 0h9m1 0h6m-96 1h16m64 0h16m-96 1h11m1 0h4m64 0h16m-96 1h16m64 0h16m-96 1h16m64 0h16m-96 1h16m64 0h16m-96 1h16m64 0h6m1 0h9m-96 1h16m64 0h7m1 0h8m-96 1h16m64 0h2m1 0h6m1 0h6m-96 1h16m64 0h16m-96 1h16m64 0h16m-96 1h16m64 0h16m-96 1h16m64 0h16m-96 1h16m64 0h16m-96 1h16m64 0h16m-96 1h16m64 0h16m51 5h1m-44 2h2m-2 1h2m-6 5h1m-21 4h16m-16 1h16m-16 1h5m1 0h10m-16 1h16m-128 1h2m110 0h16m-128 1h2m34 0h1m56 0h1m18 0h16m-16 1h16m-73 1h1m56 0h16m-16 1h16m-96 1h1m79 0h16m-122 1h1m105 0h16m-127 1h1m110 0h16m-16 1h16m-96 1h1m79 0h16m-92 1h1m75 0h13m1 0h2m-16 1h16m-96 1h10m1 0h21m32 0h16m-80 1h13m1 0h18m32 0h8m1 0h7m-80 1h32m32 0h16m145 0h1m-226 1h32m32 0h16m-80 1h32m32 0h16m-80 1h32m32 0h16m-80 1h30m1 0h1m32 0h16m-80 1h32m32 0h16m-80 1h32m32 0h16m-80 1h31m33 0h16m-80 1h32m32 0h2m1 0h13m-80 1h9m1 0h22m4 0h1m27 0h16m-114 1h1m33 0h10m2 0h20m32 0h16m-80 1h27m1 0h4m32 0h16m-80 1h24m1 0h7m2 0h1m29 0h16m-80 1h6m1 0h25m32 0h16m-79 1h1m110 0h16m112 0h16m-144 1h16m112 0h12m1 0h3m-144 1h16m112 0h16m-144 1h4m1 0h2m1 0h8m112 0h2m1 0h13m-144 1h16m112 0h16m-144 1h16m112 0h16m-242 1h1m97 0h16m112 0h16m-144 1h16m112 0h16m-144 1h16m112 0h16m-144 1h16m112 0h16m-144 1h16m113 0h15m-144 1h16m112 0h16m-144 1h16m112 0h16m-263 1h1m118 0h16m112 0h16m-144 1h16m112 0h16m-144 1h16m112 0h16m-176 1h16m-16 1h16m6 0h1m-23 1h16m-16 1h16m-16 1h16m-54 1h1m37 0h16m-16 1h16m-31 1h1m14 0h16m-16 1h16m-16 1h16m-16 1h16m-32 1h1m15 0h16m-16 1h5m1 0h10m-16 1h9m1 0h6m146 0h1m-163 1h16m-16 1h16m16 1h16m128 0h16m-160 1h16m128 0h16m-160 1h16m128 0h16m-160 1h16m128 0h15m-159 1h16m11 0h1m116 0h16m-160 1h16m128 0h16m-160 1h16m128 0h16m-232 1h1m71 0h16m126 0h1m1 0h16m-160 1h9m1 0h6m128 0h11m1 0h4m-160 1h16m128 0h16m-160 1h10m1 0h5m124 0h2m2 0h16m-227 1h1m66 0h16m5 0h1m118 0h2m2 0h16m-160 1h16m130 0h14m-160 1h16m130 0h14m-160 1h16m128 0h16m-212 1h1m51 0h16m17 0h1m110 0h16m-161 1h1m48 0h16m79 0h1m-96 1h13m1 0h2m-16 1h16m-16 1h16m-16 1h3m1 0h12m-16 1h16m-16 1h16m-119 1h1m102 0h4m1 0h11m-16 1h4m1 0h11m-16 1h16m-16 1h16m-53 1h1m36 0h16m-16 1h16m-16 1h7m1 0h8m-16 1h13m1 0h2m-121 1h1m104 0h16"/>
    <path stroke="#000101" d="M180 209h1m-18 5h1m14 9h1m29 1h16m-16 1h13m1 0h2m-16 1h16m-16 1h16m-16 1h16m-16 1h16m-16 1h14m1 0h1m-16 1h16m-16 1h16m-16 1h16m-16 1h11m1 0h4m-16 1h16m-16 1h16m-16 1h16m-16 1h10m1 0h5m-16 1h16m-96 1h16m176 0h16m-208 1h16m135 0h1m40 0h16m-208 1h5m1 0h10m133 0h1m42 0h16m-207 1h15m68 0h1m107 0h6m1 0h9m-208 1h16m120 0h1m55 0h16m-208 1h16m176 0h16m-208 1h16m138 0h2m36 0h10m2 0h3m-207 1h16m117 0h1m4 0h1m15 0h2m36 0h10m2 0h4m-208 1h16m176 0h16m10 0h1m-219 1h16m176 0h3m1 0h12m-208 1h16m176 0h16m-208 1h16m95 0h1m80 0h16m-208 1h16m176 0h7m1 0h8m-208 1h16m176 0h16m-208 1h16m176 0h16m-208 1h16m1 0h1m174 0h5m1 0h10m-64 1h16m16 0h16m48 0h16m-112 1h4m1 0h11m16 0h16m48 0h16m-122 1h1m9 0h16m16 0h2m1 0h13m48 0h16m-112 1h16m16 0h16m48 0h16m-156 1h1m43 0h16m16 0h16m48 0h16m-112 1h16m16 0h16m48 0h16m-112 1h16m16 0h16m48 0h9m1 0h6m-112 1h16m16 0h16m48 0h5m1 0h10m-112 1h16m16 0h16m48 0h16m-112 1h16m16 0h16m48 0h16m-112 1h16m16 0h4m1 0h11m48 0h16m-152 1h1m39 0h16m16 0h16m48 0h16m-116 1h1m3 0h16m16 0h4m1 0h11m48 0h16m-112 1h16m16 0h16m48 0h16m-152 1h2m38 0h16m16 0h13m1 0h2m48 0h16m-152 1h2m10 0h1m27 0h16m16 0h16m48 0h12m1 0h3m-224 1h16m192 0h16m11 0h1m-236 1h16m192 0h16m-224 1h16m192 0h14m1 0h1m-224 1h16m192 0h16m-224 1h16m192 0h16m-224 1h16m192 0h17m-225 1h7m1 0h8m192 0h3m1 0h12m-224 1h16m192 0h16m-224 1h16m192 0h10m1 0h5m-224 1h16m192 0h14m1 0h1m-224 1h1m1 0h14m192 0h16m-224 1h16m192 0h16m-224 1h12m1 0h3m192 0h16m-224 1h16m192 0h16m12 0h1m-237 1h2m1 0h9m1 0h3m45 0h1m146 0h14m1 0h1m-224 1h7m1 0h8m192 0h16m-160 1h16m-16 1h16m-16 1h16m-16 1h16m-16 1h16m-16 1h16m-16 1h14m1 0h1m-79 1h1m62 0h16m-16 1h16m-16 1h16m159 0h1m-176 1h16m-16 1h16m-16 1h15m-15 1h1m1 0h11m1 0h2m-16 1h16m-16 1h16m64 1h16m64 0h5m1 0h4m1 0h5m-96 1h16m50 0h1m13 0h16m-96 1h10m1 0h5m64 0h16m-193 1h1m96 0h16m64 0h16m-96 1h16m64 0h16m-96 1h16m64 0h7m1 0h8m-218 1h1m121 0h16m64 0h16m-96 1h12m1 0h3m64 0h16m-96 1h12m1 0h3m64 0h16m-96 1h16m64 0h16m-96 1h13m1 0h2m64 0h16m-96 1h16m64 0h11m1 0h4m-96 1h16m64 0h16m-96 1h16m64 0h16m-96 1h16m65 0h15m52 0h1m-149 1h16m64 0h16m-307 1h1m114 0h1m246 4h1m-3 1h1m-392 3h2m3 0h1m-6 1h2m-6 4h1m261 3h16m96 0h16m-128 1h16m96 0h16m-128 1h7m1 0h8m96 0h16m-128 1h16m96 0h16m-128 1h16m96 0h16m-128 1h16m96 0h16m-128 1h16m96 0h16m-128 1h16m96 0h16m-226 1h1m97 0h16m96 0h16m-128 1h7m1 0h8m96 0h16m-128 1h16m96 0h16m-128 1h16m96 0h16m-128 1h16m96 0h5m1 0h2m2 0h6m-128 1h16m96 0h8m2 0h6m-128 1h16m96 0h12m2 0h2m-128 1h16m96 0h12m2 0h2m-23 6h1m-250 10h1m15 1h2m2 0h28m-32 1h2m2 0h8m1 0h19m203 0h1m-236 1h9m1 0h17m1 0h4m-32 1h32m-32 1h32m-32 1h32m-32 1h30m-30 1h30m-29 1h31m-32 1h32m-32 1h15m1 0h16m-32 1h32m177 0h1m-210 1h32m-32 1h32m-32 1h26m1 0h5m-32 1h32m-48 1h48m-48 1h14m1 0h26m1 0h6m-62 1h1m13 0h48m140 0h1m-189 1h48m-48 1h48m-48 1h48m-48 1h4m2 0h42m-48 1h4m2 0h42m-48 1h21m1 0h26m8 0h1m-57 1h36m1 0h11m2 0h1m-51 1h48m-48 1h48m-48 1h3m1 0h9m1 0h34m179 0h1m-228 1h48m-48 1h48m-51 1h1m2 0h45m1 0h2m-32 1h16m-16 1h16m150 0h1m-167 1h16m-16 1h16m-16 1h16m-16 1h16m-118 1h1m101 0h8m1 0h2m1 0h4m156 0h1m-173 1h16m-16 1h16m-16 1h6m1 0h9m-125 1h1m108 0h16m-16 1h16m-25 1h1m8 0h16m-16 1h16m-16 1h7m1 0h8m-16 1h16m-7 1h1m20 1h1m-77 3h2m-2 1h2m50 1h1m165 0h2m-2 1h2m-212 6h1m-75 3h16m80 0h16m16 0h16m16 0h16m80 0h32m-288 1h16m20 0h1m59 0h13m1 0h2m16 0h16m16 0h16m81 0h31m-288 1h16m80 0h16m16 0h16m16 0h1m1 0h14m80 0h32m-288 1h16m80 0h16m16 0h16m16 0h12m1 0h3m80 0h32m-288 1h16m80 0h16m16 0h16m16 0h16m80 0h32m-288 1h16m80 0h16m16 0h16m16 0h16m80 0h32m-288 1h16m80 0h14m1 0h1m16 0h8m2 0h6m16 0h9m1 0h6m80 0h32m-288 1h16m80 0h16m16 0h8m2 0h6m16 0h2m1 0h13m80 0h24m1 0h7m-288 1h16m56 0h1m23 0h16m16 0h4m2 0h10m16 0h16m80 0h32m-288 1h16m80 0h1m1 0h14m16 0h4m2 0h10m16 0h16m80 0h32m-288 1h16m80 0h14m1 0h1m16 0h16m16 0h16m80 0h8m1 0h23m-288 1h16m80 0h6m1 0h9m16 0h16m16 0h16m80 0h11m1 0h1m1 0h18m-288 1h16m80 0h16m16 0h4m1 0h11m16 0h16m80 0h8m1 0h23m-288 1h16m80 0h16m16 0h16m16 0h16m80 0h32m-288 1h16m80 0h16m16 0h16m16 0h16m80 0h32m-288 1h16m80 0h16m16 0h16m16 0h16m80 0h32m-288 1h16m-16 1h16m-16 1h16m-16 1h16m-14 1h14m-14 1h14m58 0h1m-75 1h13m1 0h2m-16 1h16m-16 1h16m81 0h1m-98 1h16m-16 1h6m1 0h9m-16 1h1m1 0h1m1 0h12m-16 1h16m54 0h2m-72 1h16m54 0h2m-72 1h16m109 0h1m-126 1h11m1 0h4m63 0h1m188 0h1m-285 1h16m64 0h16m45 0h1m-142 1h14m1 0h1m45 0h1m18 0h16m-96 1h16m64 0h16m-96 1h16m64 0h2m1 0h13m-96 1h2m2 0h12m64 0h16m-96 1h2m2 0h12m64 0h16m207 0h1m-304 1h16m64 0h16m-96 1h16m64 0h16m-96 1h16m64 0h16m204 0h1m-301 1h16m64 0h16m-96 1h16m64 0h16m-96 1h16m64 0h4m1 0h11m-96 1h14m1 0h1m42 0h2m20 0h16m2 0h1m-99 1h16m59 0h1m4 0h16m-96 1h16m64 0h2m1 0h13m-96 1h16m64 0h16m-80 1h16m48 0h16m-80 1h16m48 0h16m-80 1h16m48 0h16m-80 1h12m1 0h3m48 0h16m68 0h1m2 0h1m-152 1h16m48 0h16m-80 1h12m1 0h3m48 0h16m-80 1h16m48 0h16m-80 1h16m48 0h16m-80 1h16m42 0h2m4 0h16m-80 1h16m42 0h2m4 0h16m-80 1h16m48 0h16m192 0h1m-273 1h16m48 0h16m-80 1h16m48 0h16m-80 1h16m48 0h16m-80 1h16m48 0h16m-80 1h16m48 0h16m-16 1h16m16 0h16m16 0h16m128 0h16m-224 1h16m16 0h16m16 0h6m1 0h9m128 0h16m-224 1h16m16 0h16m16 0h16m128 0h16m-224 1h16m16 0h16m16 0h16m128 0h16m-224 1h16m16 0h16m16 0h16m128 0h16m-251 1h1m26 0h10m1 0h5m16 0h16m16 0h16m128 0h16m-224 1h16m16 0h16m16 0h16m128 0h16m-224 1h16m16 0h1m1 0h14m16 0h16m128 0h16m-224 1h16m16 0h16m16 0h16m128 0h6m1 0h9m-242 1h1m17 0h16m16 0h16m16 0h16m128 0h5m1 0h10m-224 1h8m1 0h7m16 0h16m16 0h16m128 0h16m-224 1h16m17 0h15m16 0h16m128 0h16m-224 1h16m16 0h16m5 0h1m10 0h16m128 0h16m-224 1h16m16 0h16m9 0h1m6 0h16m128 0h2m1 0h13m-224 1h16m16 0h16m16 0h16m128 0h16m-224 1h16m16 0h16m16 0h16m128 0h16m-192 1h10m1 0h5m160 0h12m1 0h3m-192 1h16m160 0h16m-192 1h16m160 0h16m-192 1h16m160 0h16m-192 1h16m160 0h16m-192 1h16m20 0h1m139 0h16m-192 1h16m160 0h16m-192 1h16m160 0h14m1 0h1m-192 1h16m41 0h1m118 0h16m-192 1h15m161 0h16m-192 1h16m160 0h12m2 0h2m-192 1h16m160 0h12m2 0h2m-192 1h16m160 0h16m-192 1h16m160 0h16m-192 1h16m160 0h16m-192 1h16m160 0h4m1 0h11m-192 1h1m1 0h14m-16 1h16m93 0h1m-110 1h16m-16 1h16m-16 1h16m83 0h1m-100 1h16m-16 1h16m-16 1h16m-16 1h16m84 0h1m-101 1h16m-16 1h16m-16 1h16m-16 1h16m-16 1h16m87 0h1m-104 1h13m1 0h2m93 0h1m-110 1h16"/>
    <path stroke="#010001" d="M277 209h1m7 2h1m-69 6h1m83 0h1m-103 4h1m22 1h1m-47 2h16m-16 1h16m-16 1h4m2 0h10m35 0h1m4 0h1m-57 1h4m2 0h10m47 0h1m-64 1h1m1 0h14m-16 1h16m-16 1h16m-16 1h16m33 0h1m-50 1h16m5 0h1m-22 1h16m-16 1h16m-16 1h16m-16 1h16m-16 1h16m-16 1h8m1 0h7m41 0h1m-58 1h16m48 1h15m33 0h17m1 0h14m16 0h16m-112 1h16m32 0h32m16 0h16m-112 1h16m32 0h32m16 0h16m-112 1h16m32 0h22m1 0h9m16 0h16m-112 1h16m32 0h32m16 0h16m-112 1h16m32 0h32m16 0h15m-111 1h16m32 0h32m16 0h4m1 0h11m-112 1h16m32 0h32m16 0h16m-112 1h16m32 0h32m16 0h5m1 0h4m1 0h5m-133 1h1m20 0h16m32 0h32m16 0h16m-134 1h1m21 0h10m1 0h4m33 0h18m1 0h13m16 0h16m-112 1h16m32 0h32m16 0h16m-112 1h16m32 0h29m1 0h2m16 0h16m-137 1h1m24 0h2m1 0h13m32 0h32m16 0h16m-112 1h16m32 0h8m1 0h23m16 0h16m-112 1h3m1 0h12m32 0h32m16 0h16m-224 1h16m-16 1h16m-16 1h16m-16 1h16m-16 1h15m-15 1h16m-16 1h12m1 0h3m-16 1h16m-16 1h16m-16 1h16m-16 1h16m-16 1h3m1 0h12m118 0h1m-135 1h16m118 0h1m-135 1h16m-16 1h16m127 0h1m-144 1h16m0 1h5m1 0h10m-16 1h16m-16 1h16m-16 1h16m-16 1h16m-16 1h16m-16 1h16m-16 1h16m-16 1h16m-16 1h16m-16 1h16m-16 1h16m-16 1h16m-16 1h7m1 0h8m-16 1h16m-16 1h16m-16 1h16m-16 1h16m-16 1h12m1 0h3m-16 1h16m-16 1h16m-16 1h16m-16 1h16m-16 1h9m1 0h6m11 0h1m-28 1h16m-16 1h3m1 0h12m-16 1h16m-16 1h16m-16 1h16m-16 1h16m-16 1h13m1 0h2m1 0h1m-18 1h16m0 1h16m1 0h1m-18 1h9m1 0h6m-16 1h16m-16 1h16m-16 1h16m-16 1h16m-16 1h16m-16 1h2m1 0h13m-16 1h16m-16 1h16m-16 1h16m-16 1h16m-16 1h16m-16 1h9m1 0h6m-127 1h1m110 0h16m-16 1h16m-95 1h1m376 1h1m-398 3h1m385 6h1m-133 1h1m2 0h1m122 0h1m-384 4h1m127 1h1m0 7h1m127 5h1m-252 3h1m127 1h16m-16 1h16m-16 1h16m221 0h1m-238 1h16m21 0h1m-38 1h16m28 0h1m-45 1h16m-16 1h16m-16 1h16m-16 1h16m-16 1h16m-18 1h1m1 0h16m-16 1h16m-16 1h1m1 0h14m-16 1h16m8 0h1m-137 1h1m111 0h16m-16 1h16m5 0h1m-142 3h2m-2 1h2m113 4h1m-3 1h1m225 2h1m-10 2h2m-2 1h2m-219 1h1m-42 2h16m224 0h16m-256 1h16m224 0h9m1 0h6m-329 1h1m3 0h1m68 0h10m1 0h5m224 0h16m-256 1h16m224 0h16m-256 1h16m224 0h16m-256 1h16m224 0h9m1 0h6m-256 1h10m1 0h5m224 0h16m-256 1h16m224 0h16m-256 1h16m224 0h16m-256 1h16m224 0h16m-256 1h16m224 0h11m1 0h4m-256 1h16m224 0h16m-256 1h16m224 0h16m-256 1h16m224 0h16m-256 1h16m224 0h16m-256 1h16m224 0h16m-176 1h16m-16 1h16m-62 1h1m45 0h16m-16 1h16m-16 1h16m-16 1h16m-16 1h16m-16 1h16m-163 1h1m146 0h16m-16 1h16m-16 1h2m2 0h12m-16 1h2m2 0h12m-16 1h16m-16 1h16m-16 1h16m-16 1h16m-174 1h1m159 4h2m-2 1h2m-34 3h1m6 0h1m-40 7h1m173 2h1m-104 3h1m89 0h1m-46 4h1m-47 4h1m-121 4h32m17 0h15m-64 1h32m16 0h16m-64 1h32m16 0h16m21 0h1m-86 1h32m16 0h16m-64 1h32m16 0h16m-64 1h1m1 0h2m1 0h27m16 0h13m1 0h2m-64 1h32m16 0h16m-64 1h7m1 0h15m1 0h8m16 0h16m-64 1h17m1 0h14m16 0h16m-63 1h31m16 0h16m-64 1h32m16 0h16m-64 1h32m16 0h16m-64 1h32m16 0h16m-63 1h31m16 0h16m-64 1h4m1 0h27m16 0h16m-64 1h32m16 0h16m8 2h1m15 3h2m-2 1h2m-60 1h1m0 3h1m34 1h1m-58 1h1m14 3h1m-41 2h16m96 0h16m-128 1h16m96 0h16m140 0h1m-269 1h16m96 0h16m-128 1h16m96 0h16m130 0h1m-259 1h16m96 0h16m-128 1h16m96 0h16m-128 1h16m96 0h16m-128 1h16m96 0h16m-128 1h16m96 0h16m-128 1h16m96 0h16m-128 1h16m96 0h3m1 0h2m2 0h8m-128 1h16m96 0h6m2 0h8m-128 1h15m97 0h16m-128 1h9m1 0h6m96 0h16m-128 1h16m96 0h16m-128 1h16m96 0h16m-102 1h1m-14 9h1m11 4h1m38 3h2m1 0h13m96 0h16m-128 1h16m96 0h16m-128 1h16m96 0h12m2 0h2m-128 1h16m96 0h12m2 0h2m-128 1h16m96 0h16m-128 1h16m96 0h5m1 0h10m-128 1h16m96 0h16m-128 1h16m96 0h16m-128 1h16m96 0h16m-128 1h16m96 0h16m-128 1h16m58 0h1m37 0h16m-128 1h16m96 0h16m-128 1h16m96 0h16m-128 1h16m96 0h16m-128 1h16m96 0h16m-128 1h12m1 0h3m96 0h16m-80 1h15m1 0h16m-32 1h32m163 0h1m-196 1h32m-32 1h32m18 0h1m120 0h1m-172 1h32m-32 1h32m-32 1h32m-32 1h32m36 0h1m-69 1h32m31 0h1m-64 1h32m-32 1h32m-32 1h27m1 0h4m-32 1h32m-32 1h12m1 0h19m167 0h1m-200 1h32m-32 1h32"/>
    <path stroke="#818080" d="M160 240h16m-16 1h16m-16 1h16m-16 1h16m-16 1h16m-16 1h16m-16 1h16m-16 1h16m-16 1h16m-16 1h16m-16 1h16m-16 1h16m-16 1h16m-16 1h16m-16 1h16m-16 1h14m1 0h1m240 81h16m-16 1h7m1 0h3m1 0h4m-16 1h16m-16 1h5m1 0h10m-16 1h12m2 0h2m-16 1h5m1 0h6m2 0h2m-16 1h16m-16 1h16m-16 1h1m1 0h14m-16 1h16m-16 1h16m-16 1h16m-16 1h16m-16 1h16m-16 1h2m1 0h13m-16 1h16m-45 18h1m-124 16h1m-24 6h1m14 2h1m26 10h1m11 8h1m-7 4h1m-22 1h1m-7 4h1m59 11h1m-83 17h3m1 0h12m-16 1h16m-16 1h16m-16 1h16m-16 1h16m-16 1h16m-16 1h16m-38 1h1m21 0h16m-16 1h16m-16 1h16m-16 1h16m-16 1h16m-16 1h13m1 0h2m-16 1h16m-16 1h16m-16 1h16M80 496h16m-16 1h16m-16 1h16m-16 1h16m-16 1h16m-16 1h16m-16 1h16m-16 1h16m-16 1h16m-16 1h16m-16 1h16m-16 1h16m-16 1h6m1 0h9m-16 1h16m-16 1h16m-16 1h16m16 1h16m-16 1h16m-16 1h16m-16 1h16m-16 1h16m-16 1h16m-16 1h16m-16 1h3m1 0h6m1 0h5m-16 1h10m1 0h5m-16 1h16m-16 1h16m-16 1h16m-16 1h16m-16 1h13m1 0h2m-16 1h16m-16 1h16m179 3h1m5 0h1m-217 2h1m213 0h1m-212 2h1m-3 7h1"/>
    <path stroke="#fefeff" d="M95 245h1"/>
    <path stroke="#818180" d="M174 255h1m-16 8h1m240 73h16m-16 1h16m7 0h1m-24 1h16m-16 1h16m5 0h1m-22 1h16m-16 1h16m-16 1h10m1 0h5m-16 1h16m-16 1h16m1 0h1m-18 1h16m-16 1h16m-16 1h16m-16 1h16m-16 1h16m-16 1h16m-16 1h16m-18 3h2m-2 1h2m-11 10h1m-102 35h13m1 0h2m16 0h16m-48 1h16m16 0h16m-48 1h16m16 0h16m-48 1h16m17 0h15m-48 1h13m1 0h2m17 0h15m-48 1h16m16 0h16m-48 1h16m16 0h16m-48 1h16m17 0h14m-47 1h16m16 0h16m-48 1h16m16 0h16m-79 1h1m30 0h16m16 0h4m2 0h10m-48 1h7m1 0h6m1 0h1m16 0h4m2 0h10m-48 1h16m16 0h16m-48 1h16m16 0h16m-48 1h16m16 0h16m-48 1h1m1 0h14m16 0h16m-34 6h1m-12 3h1m-52 40h16m-16 1h16m-16 1h16m-16 1h16m-16 1h16m-16 1h16m-16 1h16m-16 1h16m-16 1h16m-16 1h16m-16 1h16m-16 1h16m-16 1h16m-16 1h16m-16 1h16m-16 1h16m-145 38h1m3 2h1m6 0h1m-3 12h1"/>
    <path stroke="#808180" d="M144 256h16m-16 1h16m-16 1h16m-16 1h16m-16 1h16m-16 1h16m-16 1h16m-16 1h15m-15 1h16m-16 1h16m-16 1h16m-16 1h16m-16 1h16m-16 1h11m1 0h4m-16 1h16m-16 1h16m80 97h16m-16 1h16m-16 1h16m-16 1h16m120 0h1m-137 1h16m-16 1h16m-16 1h16m-16 1h16m-16 1h16m-16 1h16m-16 1h16m-16 1h16m-16 1h16m-16 1h16m129 0h1m-146 1h16m-16 1h16m8 9h1m-3 2h2m-2 1h2m-8 5h16m29 0h1m2 0h16m-64 1h16m32 0h16m-64 1h14m1 0h1m32 0h16m-64 1h16m32 0h9m1 0h6m-64 1h16m29 0h1m2 0h17m-65 1h16m32 0h16m-64 1h16m32 0h16m-64 1h16m32 0h17m14 0h1m-80 1h16m32 0h16m-64 1h16m32 0h16m-64 1h1m1 0h14m32 0h16m4 0h2m-70 1h16m30 0h1m1 0h16m4 0h2m-70 1h8m2 0h6m32 0h16m-64 1h8m2 0h6m32 0h16m-64 1h16m32 0h11m1 0h4m-64 1h16m32 0h16m-16 1h16m-16 1h16m-16 1h16m-16 1h16m-16 1h16m-16 1h16m-16 1h4m1 0h11m-16 1h16m-16 1h16m-16 1h11m1 0h4m-16 1h16m-64 1h1m47 0h16m-16 1h16m-16 1h16m-69 1h1m52 0h16m-62 1h1m45 0h16M65 483h1m0 3h1m29 26h16m-16 1h16m-16 1h16m-16 1h16m-16 1h16m-16 1h15m-15 1h16m-16 1h8m1 0h7m-16 1h16m-16 1h16m-16 1h16m-16 1h16m-16 1h16m-16 1h16m-16 1h16m-16 1h16m0 1h16m-16 1h16m-16 1h16m-16 1h8m1 0h7m-16 1h16m-16 1h16m-16 1h16m-16 1h7m1 0h8m-16 1h16m-16 1h16m-16 1h4m1 0h11m-16 1h12m1 0h3m-16 1h16m-16 1h16m-16 1h16m-16 1h16"/>
    <path stroke="#818181" d="M160 256h16m-16 1h16m-16 1h16m-16 1h16m-16 1h16m-16 1h16m-16 1h16m-16 1h16m-16 1h16m-16 1h16m-16 1h16m-16 1h16m-16 1h7m1 0h8m-16 1h16m-16 1h16m-16 1h16m240 49h16m-16 1h16m-16 1h16m-144 1h1m127 0h16m-16 1h16m-16 1h16m-16 1h16m-16 1h16m-16 1h16m-16 1h16m-16 1h16m-16 1h16m-16 1h16m-16 1h16m-16 1h16m-16 1h16m-22 7h1m-27 10h16m-16 1h16m-16 1h14m-14 1h14m-14 1h9m1 0h6m-16 1h16m-16 1h16m-16 1h16m-16 1h16m-16 1h16m-16 1h16m-16 1h16m-16 1h16m-16 1h5m1 0h10m-16 1h16m-16 1h16m-20 5h1m-138 23h1m0 3h1m75 5h1m-77 13h1m3 0h1m39 0h16m-16 1h16m-16 1h16m-16 1h16m-16 1h16m-16 1h14m1 0h1m-63 1h1m46 0h16m-16 1h16m-16 1h3m1 0h12m-16 1h16m-16 1h16m-49 1h1m32 0h16m-16 1h16m20 0h1m-37 1h16m-60 1h1m43 0h4m2 0h5m1 0h4m-16 1h4m2 0h10m-78 22h1m-19 11h16m-16 1h16m-16 1h16m-16 1h8m1 0h7m-16 1h16m-16 1h16m-16 1h16m-16 1h16m-16 1h16m-16 1h16m-16 1h16m-16 1h16m-16 1h16m-16 1h16m-16 1h16m-16 1h16m107 43h1"/>
    <path stroke="#818081" d="M167 268h1m120 52h16m-16 1h16m-16 1h16m-15 1h15m-16 1h16m-16 1h16m-16 1h16m-16 1h16m-16 1h5m1 0h10m-16 1h16m-16 1h16m-16 1h16m-16 1h16m-16 1h16m-16 1h16m-16 1h16m123 2h1m-135 5h1m124 8h1m-130 1h1m-34 17h16m-16 1h16m-16 1h16m-16 1h16m-16 1h16m-16 1h8m1 0h7m-16 1h16m-16 1h16m-16 1h16m-16 1h16m-16 1h16m-16 1h16m-16 1h10m1 0h4m-15 1h16m-16 1h16m-16 1h16m-32 1h16m-16 1h16m-16 1h16m-16 1h16m-16 1h16m-16 1h16m-16 1h5m1 0h10m-16 1h1m1 0h14m-16 1h16m-16 1h16m-16 1h16m-16 1h3m1 0h12m-16 1h16m-16 1h16m-16 1h4m1 0h11m-16 1h16m16 1h16m-16 1h16m-16 1h16m-16 1h11m1 0h4m-38 1h1m21 0h16m-16 1h16m-16 1h16m-16 1h16m-16 1h16m-16 1h16m-16 1h16m-16 1h16m-16 1h16m-16 1h16m-16 1h16m-16 1h16m32 1h16m-16 1h16m-16 1h16m-16 1h16m-16 1h16m-16 1h16m-54 1h2m36 0h16m-53 1h1m36 0h16m-16 1h16m-58 1h1m41 0h16m-16 1h16m-16 1h16m-16 1h4m1 0h9m1 0h1m-16 1h16m-44 1h2m5 0h1m20 0h16m-44 1h2m26 0h2m1 0h13m-128 17h32m-32 1h32m-32 1h32m-32 1h32m-32 1h32m-32 1h7m1 0h10m1 0h13m-32 1h32m-32 1h10m1 0h21m-32 1h7m1 0h24m-32 1h32m-32 1h32m-32 1h32m-32 1h32m13 0h1m-46 1h32m-32 1h32m-32 1h32m-24 4h1M86 508h1m35 12h1m2 5h1m-30 3h16m-16 1h16m-16 1h16m-16 1h16m-16 1h1m1 0h14m-16 1h16m-16 1h4m1 0h11m-16 1h16m-16 1h16m-16 1h8m1 0h7m-16 1h16m-16 1h16m-16 1h16m-16 1h2m1 0h13m-16 1h16m-16 1h16"/>
    <path stroke="#808181" d="M155 269h1m237 87h1m-26 12h16m-16 1h16m-16 1h16m-16 1h8m1 0h7m-16 1h12m1 0h3m-16 1h16m-16 1h16m-16 1h16m-16 1h16m-16 1h16m-16 1h16m-16 1h16m-16 1h16m-16 1h16m-16 1h16m-16 1h16m-131 19h1m16 0h1m42 1h1m1 11h1m-76 2h4m1 0h3m1 0h7m-16 1h16m-16 1h16m-16 1h16m-16 1h16m-16 1h16m-16 1h1m1 0h14m-16 1h16m-16 1h16m-16 1h16m59 0h1m-76 1h16m-16 1h15m-15 1h16m-16 1h16m-16 1h4m1 0h6m1 0h4m-16 1h16m-24 34h1m0 4h1m-4 3h1m89 40h16m-16 1h16m-16 1h16m-16 1h16m-16 1h16m-16 1h16m-16 1h16m-16 1h16m-16 1h16m-16 1h16m-16 1h11m1 0h4m-16 1h16m-16 1h16m-16 1h16m-16 1h16m-16 1h16"/>
    <path stroke="#fffefe" d="M421 283h1"/>
    <path stroke="#808081" d="M293 328h1m-6 8h16m-16 1h16m-16 1h16m-16 1h16m-16 1h16m-16 1h16m-16 1h5m1 0h10m-16 1h16m-16 1h16m-16 1h16m-16 1h16m-16 1h16m-16 1h16m-16 1h16m-16 1h16m-16 1h1m1 0h14m-40 22h1m1 7h1m4 0h1m-27 10h1m-6 10h5m1 0h10m-16 1h16m-16 1h13m1 0h2m-16 1h16m-16 1h10m1 0h5m-16 1h16m-16 1h16m-16 1h16m-16 1h16m-16 1h16m-16 1h16m-16 1h16m-16 1h16m-16 1h16m-16 1h16m-16 1h16m16 1h16m-16 1h16m-16 1h16m-16 1h16m-16 1h16m-16 1h16m-16 1h7m1 0h2m2 0h4m-18 1h1m1 0h11m1 0h4m-16 1h16m-18 1h1m1 0h6m1 0h9m-16 1h16m-16 1h16m-16 1h16m46 0h1m-63 1h16m-16 1h16m-16 1h16m-73 22h1m-1 3h1m8 8h16m-16 1h3m1 0h4m1 0h7m-16 1h16m-16 1h16m-16 1h16m-16 1h9m1 0h6m-16 1h16m-16 1h16m-16 1h6m1 0h9m-16 1h16m-16 1h16m-16 1h16m-16 1h16m-16 1h15m-15 1h16m-16 1h16m-163 6h1m242 43h16m-16 1h16m-22 1h2m4 0h16m-22 1h2m4 0h7m1 0h8m-16 1h16m-16 1h16m-16 1h16m-16 1h16m-16 1h16m-232 1h1m215 0h16m-16 1h16m-16 1h16m-30 1h1m13 0h16m-23 1h1m6 0h16m-16 1h12m1 0h3m-16 1h16"/>
    <path stroke="gray" d="M428 340h2m-9 1h1m6 0h2m-46 27h16m-16 1h3m1 0h12m-16 1h16m-16 1h16m-16 1h16m-16 1h16m-16 1h16m-16 1h16m-16 1h16m-16 1h16m-16 1h16m-16 1h16m-16 1h16m-16 1h1m1 0h14m-16 1h16m-16 1h16m-144 1h16m-16 1h8m1 0h7m-16 1h16m-16 1h16m-16 1h16m-16 1h16m-16 1h16m-16 1h16m-16 1h8m1 0h7m-15 1h15m-16 1h6m2 0h8m-16 1h6m2 0h8m-16 1h16m-16 1h16m-16 1h16m-16 1h16m-27 1h1m18 12h2m-2 1h2m-10 3h12m1 0h3m-16 1h16m-16 1h16m-16 1h16m-16 1h6m1 0h9m-16 1h16m-16 1h16m7 0h1m28 0h1m-53 1h14m1 0h1m-16 1h16m-16 1h14m1 0h1m-16 1h16m-15 1h15m-16 1h16m-16 1h16m-16 1h16m-16 1h2m1 0h13m-29 17h1m-17 17h1m11 12h1m-176 3h16m-16 1h16m-16 1h16m-16 1h1m1 0h14m-16 1h16m-16 1h13m1 0h2m-16 1h2m1 0h13m-16 1h16m-16 1h16m-16 1h16m-16 1h16m-16 1h16m-16 1h16m-16 1h16m-16 1h16m-16 1h16m24 24h1m199 9h16m-16 1h16m-16 1h3m1 0h5m3 0h4m-16 1h10m2 0h4m7 0h1m-24 1h7m1 0h8m-16 1h16m-16 1h16m-201 1h1m184 0h16m-16 1h16m-16 1h16m-204 1h1m187 0h16m-196 1h1m179 0h16m-16 1h2m1 0h13m-16 1h9m1 0h6m-16 1h16m12 0h1m-29 1h16"/>
    <path stroke="#fefffe" d="M415 614h1"/>
</svg>
